<svg xmlns="http://www.w3.org/2000/svg">
<defs>
<font id="Marmelad-Regular" horiz-adv-x="0" >
  <font-face 
    font-family="Marmelad"
    font-weight="400"
    font-stretch="normal"
    units-per-em="1000"
    panose-1="0 0 0 0 0 0 0 0 0 0"
    ascent="800"
    descent="-200"
    x-height="502"
    cap-height="709"
    bbox="-195 -252 1245 1106"
    underline-thickness="50"
    underline-position="-175"
    unicode-range="U+000D-FB02"
  />
<missing-glyph horiz-adv-x="1210" 
d="M495 98h-27q-1 -3 -6 -11t-13 -8q11 -9 11 -15q0 -5 -27.5 -13t-59.5 -25q15 -4 24 -7t19 -14q-1 -4 -2.5 -4t-3.5 -2q-17 8 -25.5 10.5t-25.5 3.5q-19 1 -34.5 -8.5t-29.5 -23.5q-2 1 -4.5 2t-4.5 4q8 12 17.5 19t19.5 11q-19 2 -31.5 -2t-26.5 -11q-4 3 -4 7
q23 17 45 17.5t38 0.5q23 11 48 21t47 17l-12 12q-10 0 -13.5 9t-3.5 15q-201 29 -213 208q-4 57 -12 97t-41 59l-85 16l-2.5 0.5t-0.5 4.5l62 29q0 25 13.5 48t38 38.5t56.5 15.5q43 0 74.5 -22.5t61.5 -75.5q11 -16 51 -26.5t102 -20t139.5 -20.5t162.5 -28q11 1 38 3.5
t63.5 6t75 7.5t72 7.5t55 5.5t23.5 2q8 2 10.5 -7t-4.5 -15q-23 -21 -59.5 -32t-76 -18.5t-72.5 -16t-49 -24.5q-23 -24 -51.5 -55.5t-63.5 -65t-77 -62t-92 -45.5q1 -6 0.5 -15.5t-7.5 -16.5q6 -4 9.5 -6.5t3.5 -7.5q0 -8 -24.5 -21.5t-50.5 -35.5q16 -1 30.5 -2.5
t26.5 -9.5q0 -4 -3 -8q-38 9 -70 5q-18 -4 -30.5 -17.5t-22.5 -29.5q-7 -1 -8 4q8 27 27 39q-19 -3 -28 -7.5t-21 -15.5q-2 2 -3.5 2.5t-1.5 4.5q17 23 36.5 26t35.5 7q21 17 43 30.5t41 26.5q-1 2 -5.5 4.5t-9.5 5.5q-12 -1 -18.5 9t-8.5 14q-27 -4 -55 -4zM437 336
q-6 7 -16 11t-18 3q2 -16 6 -45t-2 -56q-1 -1 -2 -4t-4 -4q-6 20 -7 42t0 45q-5 5 -13.5 7.5t-13.5 3.5q-5 -10 -5 -31q0 -11 1 -22.5t3 -21.5q-2 -7 -9.5 -17t-18.5 -14q-13 10 -18.5 33t-4.5 50t6.5 49t12.5 29q4 -5 7.5 -20t1.5 -26q-1 -1 -0.5 -2.5t2.5 1.5
q8 7 13.5 15.5t5.5 18.5q0 27 -15 35.5t-29 10.5q-24 -20 -33.5 -53t-8.5 -68q1 -31 14.5 -57t47.5 -26q14 0 21.5 8t10.5 17q10 -21 30 -21q6 0 8 5q-3 -28 -7 -47.5t-22 -31.5q-2 9 -1 19t2 18q-6 6 -13.5 8.5t-15.5 2.5q-1 -6 -2.5 -12.5t-1.5 -13.5q0 -16 5 -24t21 -8

<glyph glyph-name="fi" unicode="fi" horiz-adv-x="585" 
d="M24 475q0 17 10.5 21.5t20.5 5.5h57q3 63 15 103.5t30.5 65.5t38.5 42q29 23 69.5 35t77.5 12q53 0 88 -20t35 -40q0 -16 -10 -25.5t-30 -9.5q-15 0 -26 10t-19 19q-7 9 -25.5 17.5t-37.5 8.5q-20 0 -44.5 -11.5t-41.5 -42t-17 -88.5v-76h221q64 0 64 -67v-367
q0 -45 -15.5 -56.5t-48.5 -11.5q-24 0 -32 12.5t-8 34.5v407h-181v-386q0 -45 -15.5 -56.5t-48.5 -11.5q-24 0 -32 12.5t-8 34.5v407h-55q-32 0 -32 21z" />
    <glyph glyph-name="fl" unicode="fl" horiz-adv-x="585" 
d="M500 68q0 -45 -15.5 -56.5t-48.5 -11.5q-24 0 -32 12.5t-8 34.5v642q-31 31 -78 31q-20 0 -44.5 -11.5t-41.5 -42t-17 -88.5v-76h102q19 0 27 -7t8 -15q0 -10 -9 -18t-26 -8h-102v-386q0 -45 -15.5 -56.5t-48.5 -11.5q-24 0 -32 12.5t-8 34.5v407h-55q-32 0 -32 21
q0 17 10.5 21.5t20.5 5.5h57q3 63 15 103.5t30.5 65.5t38.5 42q29 23 69.5 35t77.5 12q41 0 76 -10t57.5 -31.5t23.5 -56.5v-594z" />
    <glyph glyph-name="f_f" unicode="ff" horiz-adv-x="706" 
d="M24 466q0 17 10.5 21.5t20.5 5.5h57q4 95 27 143.5t54 73.5q29 23 64.5 36.5t80.5 13.5q46 0 72 -17.5t26 -37.5q0 -16 -10 -25.5t-30 -9.5q-15 0 -26 10t-19 19q-7 9 -18 15t-30 6q-20 0 -40.5 -11.5t-34 -42t-13.5 -88.5v-85h111q19 0 27 -7t8 -15q0 -10 -9 -18t-26 -8
h-111v-377q0 -45 -15.5 -56.5t-48.5 -11.5q-24 0 -32 12.5t-8 34.5v398h-55q-32 0 -32 21zM377 466q0 17 10.5 21.5t20.5 5.5h57q4 95 27 143.5t54 73.5q29 23 64.5 36.5t80.5 13.5q46 0 72 -17.5t26 -37.5q0 -16 -10 -25.5t-30 -9.5q-15 0 -26 10t-19 19q-7 9 -18 15t-30 6
q-20 0 -40.5 -11.5t-34 -42t-13.5 -88.5v-85h111q19 0 27 -7t8 -15q0 -10 -9 -18t-26 -8h-111v-377q0 -45 -15.5 -56.5t-48.5 -11.5q-24 0 -32 12.5t-8 34.5v398h-55q-32 0 -32 21z" />
    <glyph glyph-name="f_f_i" unicode="ffi" horiz-adv-x="980" 
d="M24 466q0 17 10.5 21.5t20.5 5.5h57q4 95 27 143.5t54 73.5q29 23 64.5 36.5t80.5 13.5q46 0 72 -17.5t26 -37.5q0 -16 -10 -25.5t-30 -9.5q-15 0 -26 10t-19 19q-7 9 -18 15t-30 6q-20 0 -40.5 -11.5t-34 -42t-13.5 -88.5v-85h111q19 0 27 -7t8 -15q0 -10 -9 -18t-26 -8
h-111v-377q0 -45 -15.5 -56.5t-48.5 -11.5q-24 0 -32 12.5t-8 34.5v398h-55q-32 0 -32 21zM377 466q0 17 10.5 21.5t20.5 5.5h57q4 95 27 143.5t54 73.5q29 23 64.5 36.5t80.5 13.5q46 0 72 -17.5t26 -37.5q0 -16 -10 -25.5t-30 -9.5q-15 0 -26 10t-19 19q-7 9 -18 15t-30 6
q-20 0 -40.5 -11.5t-34 -42t-13.5 -88.5v-85h111q19 0 27 -7t8 -15q0 -10 -9 -18t-26 -8h-111v-377q0 -45 -15.5 -56.5t-48.5 -11.5q-24 0 -32 12.5t-8 34.5v398h-55q-32 0 -32 21zM895 68q0 -45 -15.5 -56.5t-48.5 -11.5q-24 0 -32 12.5t-8 34.5v408q0 23 8 35t32 12
q64 0 64 -67v-367zM779 629q0 26 18.5 44t43.5 18q26 0 44 -18t18 -44q0 -25 -18 -43.5t-44 -18.5q-25 0 -43.5 18.5t-18.5 43.5z" />
    <glyph glyph-name="f_f_l" unicode="ffl" horiz-adv-x="1040" 
d="M24 466q0 17 10.5 21.5t20.5 5.5h57q4 95 27 143.5t54 73.5q29 23 64.5 36.5t80.5 13.5q46 0 72 -17.5t26 -37.5q0 -16 -10 -25.5t-30 -9.5q-15 0 -26 10t-19 19q-7 9 -18 15t-30 6q-20 0 -40.5 -11.5t-34 -42t-13.5 -88.5v-85h111q19 0 27 -7t8 -15q0 -10 -9 -18t-26 -8
h-111v-377q0 -45 -15.5 -56.5t-48.5 -11.5q-24 0 -32 12.5t-8 34.5v398h-55q-32 0 -32 21zM377 466q0 17 10.5 21.5t20.5 5.5h57q4 95 27 143.5t54 73.5q29 23 64.5 36.5t80.5 13.5q46 0 72 -17.5t26 -37.5q0 -16 -10 -25.5t-30 -9.5q-15 0 -26 10t-19 19q-7 9 -18 15t-30 6
q-20 0 -40.5 -11.5t-34 -42t-13.5 -88.5v-85h111q19 0 27 -7t8 -15q0 -10 -9 -18t-26 -8h-111v-377q0 -45 -15.5 -56.5t-48.5 -11.5q-24 0 -32 12.5t-8 34.5v398h-55q-32 0 -32 21zM955 68q0 -45 -15.5 -56.5t-48.5 -11.5q-24 0 -32 12.5t-8 34.5v666q0 23 8 35t32 12
q33 0 48.5 -18.5t15.5 -63.5v-610z" />
    <glyph glyph-name=".notdef" horiz-adv-x="1210" 
d="M495 98h-27q-1 -3 -6 -11t-13 -8q11 -9 11 -15q0 -5 -27.5 -13t-59.5 -25q15 -4 24 -7t19 -14q-1 -4 -2.5 -4t-3.5 -2q-17 8 -25.5 10.5t-25.5 3.5q-19 1 -34.5 -8.5t-29.5 -23.5q-2 1 -4.5 2t-4.5 4q8 12 17.5 19t19.5 11q-19 2 -31.5 -2t-26.5 -11q-4 3 -4 7
q23 17 45 17.5t38 0.5q23 11 48 21t47 17l-12 12q-10 0 -13.5 9t-3.5 15q-201 29 -213 208q-4 57 -12 97t-41 59l-85 16l-2.5 0.5t-0.5 4.5l62 29q0 25 13.5 48t38 38.5t56.5 15.5q43 0 74.5 -22.5t61.5 -75.5q11 -16 51 -26.5t102 -20t139.5 -20.5t162.5 -28q11 1 38 3.5
t63.5 6t75 7.5t72 7.5t55 5.5t23.5 2q8 2 10.5 -7t-4.5 -15q-23 -21 -59.5 -32t-76 -18.5t-72.5 -16t-49 -24.5q-23 -24 -51.5 -55.5t-63.5 -65t-77 -62t-92 -45.5q1 -6 0.5 -15.5t-7.5 -16.5q6 -4 9.5 -6.5t3.5 -7.5q0 -8 -24.5 -21.5t-50.5 -35.5q16 -1 30.5 -2.5
t26.5 -9.5q0 -4 -3 -8q-38 9 -70 5q-18 -4 -30.5 -17.5t-22.5 -29.5q-7 -1 -8 4q8 27 27 39q-19 -3 -28 -7.5t-21 -15.5q-2 2 -3.5 2.5t-1.5 4.5q17 23 36.5 26t35.5 7q21 17 43 30.5t41 26.5q-1 2 -5.5 4.5t-9.5 5.5q-12 -1 -18.5 9t-8.5 14q-27 -4 -55 -4zM437 336
q-6 7 -16 11t-18 3q2 -16 6 -45t-2 -56q-1 -1 -2 -4t-4 -4q-6 20 -7 42t0 45q-5 5 -13.5 7.5t-13.5 3.5q-5 -10 -5 -31q0 -11 1 -22.5t3 -21.5q-2 -7 -9.5 -17t-18.5 -14q-13 10 -18.5 33t-4.5 50t6.5 49t12.5 29q4 -5 7.5 -20t1.5 -26q-1 -1 -0.5 -2.5t2.5 1.5
q8 7 13.5 15.5t5.5 18.5q0 27 -15 35.5t-29 10.5q-24 -20 -33.5 -53t-8.5 -68q1 -31 14.5 -57t47.5 -26q14 0 21.5 8t10.5 17q10 -21 30 -21q6 0 8 5q-3 -28 -7 -47.5t-22 -31.5q-2 9 -1 19t2 18q-6 6 -13.5 8.5t-15.5 2.5q-1 -6 -2.5 -12.5t-1.5 -13.5q0 -16 5 -24t21 -8
q28 0 43.5 29.5t20 74t-1.5 89.5zM712 225q18 0 25.5 12.5t9.5 28.5t0 26q-1 4 -3 0q-4 -22 -11 -35.5t-16 -21.5q-13 19 -13 49q16 7 24.5 32t8.5 50q0 26 -8.5 38.5t-34.5 16.5q-16 -31 -21 -78t3 -88l1 -3q-2 -4 -6 -11t-9 -6q-6 22 -5.5 53t4.5 53q-4 4 -12.5 7t-13.5 2
q-1 -1 -3 -9.5t-2 -10.5q-10 3 -21 3q-10 -10 -14 -24t-5 -30v-15q-3 -7 -8 -15.5t-13 -12.5q-4 3 -6 8.5t-4 11.5q12 4 18.5 18t6.5 28q0 22 -12 30.5t-31 6.5q-5 -9 -8 -25.5t-4 -32.5q-1 -21 8 -37t31 -16q10 1 16 6t10 11q2 -7 8.5 -12.5t17.5 -4.5q5 0 11.5 4t7.5 10
q2 -6 8.5 -11.5t14.5 -5.5t12.5 5t6.5 12q9 -17 31 -17zM704 297q1 23 5 46.5t8 41.5q3 -17 0 -45.5t-13 -42.5zM441 341q10 -22 12.5 -55.5t3.5 -59.5q19 -3 24 18q2 6 2.5 16.5t0.5 17.5q2 8 6.5 14.5t7.5 12.5q3 -24 27 -18q-3 23 2 47q-8 11 -28 11q-1 -3 -3 -8.5
t-2 -9.5q-2 -9 -13 -29q-1 23 -9 35q-4 5 -12 6q-4 1 -8.5 1.5t-10.5 0.5zM566 317q6 -6 6 -19q0 -10 -3.5 -20t-9.5 -12q0 30 7 51zM619 238q-3 12 -2.5 28.5t4 30.5t7.5 19q-1 -7 0 -24.5t5 -33.5q-1 -6 -5.5 -11.5t-8.5 -8.5z" />
    <glyph glyph-name=".null" 
 />
    <glyph glyph-name="nonmarkingreturn" horiz-adv-x="333" 
 />
    <glyph glyph-name="NULL" 
 />
    <glyph glyph-name="NULL" 
 />
    <glyph glyph-name="CR" unicode="&#xd;" horiz-adv-x="300" 
 />
    <glyph glyph-name="space" unicode=" " horiz-adv-x="300" 
 />
    <glyph glyph-name="exclam" unicode="!" horiz-adv-x="308" 
d="M207 225q0 -16 -17 -24t-37 -8q-19 0 -35.5 8t-16.5 24v434q0 28 13.5 39t36.5 11q31 0 43.5 -13t12.5 -38v-433zM85 69q0 29 20.5 49.5t48.5 20.5q29 0 49.5 -20.5t20.5 -49.5q0 -28 -20.5 -48.5t-49.5 -20.5q-28 0 -48.5 20.5t-20.5 48.5z" />
    <glyph glyph-name="quotedbl" unicode="&#x22;" horiz-adv-x="414" 
d="M60 713q0 15 17 22.5t42 7.5t42.5 -8t17.5 -22l-33 -198q-1 -7 -9 -10.5t-18 -3.5t-18 3.5t-9 10.5zM235 713q0 15 17 22.5t42 7.5t42.5 -8t17.5 -22l-33 -198q-1 -7 -9 -10.5t-18 -3.5t-18 3.5t-9 10.5z" />
    <glyph glyph-name="numbersign" unicode="#" horiz-adv-x="530" 
d="M348 20q-1 -10 -14.5 -15t-27.5 -5q-16 0 -25.5 5t-9.5 15l30 162h-133l-32 -162q-2 -10 -15 -15t-27 -5q-16 0 -25.5 5t-9.5 15l30 162h-136q-7 0 -9.5 6t-2.5 14q0 17 8.5 35t20.5 18h134l32 173h-136q-7 0 -10 6.5t-3 16.5q0 17 7.5 34.5t19.5 17.5h137l28 159
q2 10 15.5 14.5t27.5 4.5q16 0 26 -4.5t10 -14.5l-29 -159h134l29 159q2 10 15 14.5t28 4.5q16 0 26 -5t10 -14l-32 -159h137q7 0 10 -6.5t3 -16.5q0 -16 -7.5 -34t-19.5 -18h-137l-32 -173h136q7 0 10 -6.5t3 -15.5q0 -16 -8 -33.5t-20 -17.5h-138zM315 255l32 173h-133
l-34 -173h135z" />
    <glyph glyph-name="dollar" unicode="$" horiz-adv-x="530" 
d="M416 527q-26 0 -39.5 14t-13.5 48v51q-4 1 -8 2.5t-8 2.5q-13 4 -25.5 7t-26.5 4v-266q69 -27 114 -51.5t67 -58t22 -86.5q0 -74 -51 -127t-152 -64v-99q0 -10 -9.5 -15.5t-21.5 -5.5q-11 0 -20.5 5.5t-9.5 15.5v96q-41 1 -87 10.5t-76 22.5q-20 9 -28 17.5t-8 30.5v60
q0 48 39 48q26 0 40 -14t14 -49v-54q51 -20 106 -21v274q-61 25 -106.5 49t-70.5 60t-25 94q0 77 52.5 126.5t149.5 53.5v84q0 11 9.5 16t20.5 5q12 0 21.5 -5t9.5 -16v-85q37 -3 66 -10.5t57 -16.5q21 -7 29.5 -16t8.5 -31v-58q0 -48 -40 -48zM135 534q0 -46 22 -71t77 -49
v242q-35 -6 -57 -26t-32 -45.5t-10 -50.5zM395 183q0 42 -24 67t-76 49v-241q51 14 75.5 49.5t24.5 75.5z" />
    <glyph glyph-name="percent" unicode="%" horiz-adv-x="901" 
d="M245 -77q-4 -6 -14 -6q-13 0 -29 8.5t-16 18.5q0 3 1 5l456 813q3 6 12 6q14 0 31 -10.5t17 -21.5q0 -3 -1 -5zM60 516q0 62 15.5 103t40.5 64t53 32.5t52 9.5t52 -9.5t52.5 -32.5t40 -64t15.5 -103t-15.5 -103t-40 -64t-52.5 -32.5t-52 -9.5t-52 9.5t-53 32.5t-40.5 64
t-15.5 103zM146 516q0 -70 12 -105.5t29.5 -48t33.5 -12.5t33.5 12.5t29.5 48t12 105.5t-12 105.5t-29.5 48t-33.5 12.5t-33.5 -12.5t-29.5 -48t-12 -105.5zM520 194q0 62 15.5 103t40.5 64t53 32.5t52 9.5t52 -9.5t52.5 -32.5t40 -64t15.5 -103t-15.5 -103t-40 -64
t-52.5 -32.5t-52 -9.5t-52 9.5t-53 32.5t-40.5 64t-15.5 103zM606 194q0 -70 12 -105.5t29.5 -48t33.5 -12.5t33.5 12.5t29.5 48t12 105.5t-12 105.5t-29.5 48t-33.5 12.5t-33.5 -12.5t-29.5 -48t-12 -105.5z" />
    <glyph glyph-name="ampersand" unicode="&#x26;" horiz-adv-x="648" 
d="M480 185q9 14 17.5 32.5t14.5 33.5q5 14 14.5 23t22.5 9q14 0 22.5 -6.5t8.5 -16.5q0 -14 -7 -28q-14 -32 -24 -50.5t-27 -39.5l71 -89q10 -13 10 -24q0 -29 -42 -29q-27 0 -41.5 6.5t-26.5 21.5l-34 43q-40 -38 -83 -54.5t-102 -16.5q-102 0 -160.5 54.5t-58.5 142.5
q0 64 34 109.5t119 90.5q-25 34 -45 77.5t-20 77.5q0 44 19.5 79.5t57.5 56.5t91 21q52 0 85.5 -18.5t50.5 -48.5t17 -65q0 -44 -18 -76t-49.5 -57t-72.5 -50zM243 560q0 -28 11 -60t36 -66q49 29 73 61.5t24 77.5q0 38 -19.5 62t-48.5 24q-37 0 -56.5 -28.5t-19.5 -70.5z
M282 52q48 0 81.5 20.5t58.5 46.5l-180 234q-36 -27 -54 -48.5t-24.5 -48t-6.5 -69.5q0 -33 16 -64t44 -51t65 -20z" />
    <glyph glyph-name="quotesingle" unicode="'" horiz-adv-x="239" 
d="M60 713q0 15 17 22.5t42 7.5t42.5 -8t17.5 -22l-33 -198q-1 -7 -9 -10.5t-18 -3.5t-18 3.5t-9 10.5z" />
    <glyph glyph-name="parenleft" unicode="(" horiz-adv-x="379" 
d="M243 -121q-24 29 -52 71t-53.5 96.5t-41.5 120t-16 140.5t16 140.5t41.5 120t53.5 96.5t52 71l16 19q6 8 19 8q11 0 21 -7t10 -18q0 -4 -2 -10l-13 -27q-63 -130 -82.5 -228t-19.5 -165t19.5 -165t82.5 -228l13 -27q2 -6 2 -10q0 -10 -10 -17.5t-21 -7.5q-13 0 -19 8z
" />
    <glyph glyph-name="parenright" unicode=")" horiz-adv-x="379" 
d="M120 -140q-6 -8 -19 -8q-11 0 -21 7.5t-10 17.5q0 4 2 10l13 27q63 130 82.5 228t19.5 165t-19.5 165t-82.5 228l-13 27q-2 6 -2 10q0 11 10 18t21 7q13 0 19 -8l16 -19q24 -29 52 -71t53.5 -96.5t41.5 -120t16 -140.5t-16 -140.5t-41.5 -120t-53.5 -96.5t-52 -71z" />
    <glyph glyph-name="asterisk" unicode="*" horiz-adv-x="450" 
d="M252 568l3 -2l101 71q4 2 6 2q12 0 25 -18.5t13 -32.5q0 -9 -6 -12l-119 -54v-3l115 -52q7 -3 7 -13q0 -14 -12.5 -32.5t-23.5 -18.5q-2 0 -6 2l-99 74l-3 -2l10 -125q0 -9 -11.5 -13t-26.5 -4t-26.5 4t-11.5 13l10 125l-3 2l-98 -74q-4 -2 -6 -2q-11 0 -23.5 18.5
t-12.5 32.5q0 10 7 13l114 52v3l-118 54q-7 3 -7 12q0 14 13 32.5t26 18.5q2 0 6 -2l100 -71l3 2l-11 124q0 8 11.5 12.5t26.5 4.5t26.5 -4.5t11.5 -12.5z" />
    <glyph glyph-name="plus" unicode="+" horiz-adv-x="720" 
d="M110 309q-10 0 -15 12.5t-5 27.5t5 27.5t15 12.5h210v210q0 10 12.5 15t27.5 5t27.5 -5t12.5 -15v-210h210q10 0 15 -12.5t5 -27.5t-5 -27.5t-15 -12.5h-210v-210q0 -10 -12.5 -15t-27.5 -5t-27.5 5t-12.5 15v210h-210z" />
    <glyph glyph-name="comma" unicode="," horiz-adv-x="272" 
d="M122 12q-26 5 -39.5 17.5t-18 28t-4.5 26.5q0 38 26.5 55t52.5 17t49.5 -16.5t23.5 -50.5q0 -19 -5 -35.5t-16 -40.5l-42 -89q-7 -15 -17 -21t-20 -6q-13 0 -21.5 8t-8.5 18q0 3 2 9z" />
    <glyph glyph-name="hyphen" unicode="-" horiz-adv-x="437" 
d="M70 215q-10 0 -15 12.5t-5 27.5t5 27.5t15 12.5h297q10 0 15 -12.5t5 -27.5t-5 -27.5t-15 -12.5h-297z" />
    <glyph glyph-name="period" unicode="." horiz-adv-x="272" 
d="M60 77q0 35 22.5 57t53.5 22q32 0 54 -22t22 -57q0 -33 -22 -55t-54 -22q-31 0 -53.5 22t-22.5 55z" />
    <glyph glyph-name="slash" unicode="/" horiz-adv-x="670" 
d="M102 -200q-4 -6 -13 -6q-14 0 -31.5 11t-17.5 21q0 3 1 5l516 914q3 6 13 6q14 0 32 -12t18 -24q0 -4 -1 -6z" />
    <glyph glyph-name="zero" unicode="0" horiz-adv-x="530" 
d="M34 354q0 72 12 136.5t39 113.5t71.5 77t108.5 28q65 0 109 -28t71 -77t39 -113.5t12 -136.5q0 -102 -22 -182t-72.5 -126t-136.5 -46t-136.5 46t-72.5 126t-22 182zM386 354q0 50 -3.5 103t-15.5 98.5t-36.5 74t-65.5 28.5t-65.5 -28.5t-36.5 -74t-15.5 -98.5t-3.5 -103
q0 -57 3.5 -111t15.5 -97.5t36.5 -69t65.5 -25.5t65.5 25.5t36.5 69t15.5 97.5t3.5 111z" />
    <glyph glyph-name="one" unicode="1" horiz-adv-x="530" 
d="M125 598q-12 -5 -24 -5q-13 0 -19.5 9.5t-6.5 19.5q0 6 4 12t17 10l141 55q14 5 28.5 7.5t25.5 2.5q51 0 51 -50v-606h86q26 0 33 -9t7 -20q0 -9 -5 -16.5t-25 -7.5h-298q-19 0 -24.5 7.5t-5.5 16.5q0 11 7.5 20t32.5 9h86v587z" />
    <glyph glyph-name="two" unicode="2" horiz-adv-x="530" 
d="M90 495q-43 0 -43 50v60q0 18 5 26t18 16q53 35 100 48.5t102 13.5q70 0 112.5 -25t62 -65.5t19.5 -87.5q0 -45 -16.5 -95t-56 -107.5t-106.5 -125.5t-169 -150h261v62q0 36 14 50.5t39 14.5q43 0 43 -50v-98q0 -18 -15.5 -25t-44.5 -7h-355q-13 0 -19 8.5t-6 19.5
q0 21 15 34l14 13q99 92 157.5 165t86.5 127t36.5 91t8.5 58q0 29 -8.5 62t-32.5 56.5t-72 23.5q-24 0 -49 -7t-48 -19v-72q0 -36 -12 -50.5t-41 -14.5z" />
    <glyph glyph-name="three" unicode="3" horiz-adv-x="530" 
d="M73 213q29 0 41 -14.5t12 -50.5v-72q23 -13 48 -19t54 -6q37 0 67.5 15.5t49.5 48.5t19 86q0 57 -19 87.5t-52 42t-76 11.5h-29q-7 0 -11.5 8.5t-4.5 18.5q0 11 4.5 19.5t11.5 8.5h29q126 0 126 140q0 65 -32.5 93t-81.5 28q-50 0 -93 -24v-72q0 -36 -12 -50.5t-41 -14.5
q-43 0 -43 50v60q0 18 5 27.5t18 17.5q47 30 92.5 43.5t98.5 13.5q71 0 114.5 -23t64 -61.5t20.5 -87.5q0 -43 -17.5 -76t-46.5 -53.5t-62 -27.5v-9q41 -5 75 -24t54 -54.5t20 -90.5q0 -61 -29.5 -106.5t-82.5 -70.5t-124 -25q-46 0 -93.5 12.5t-93.5 39.5q-13 8 -18 20.5
t-5 30.5v60q0 50 43 50z" />
    <glyph glyph-name="four" unicode="4" horiz-adv-x="530" 
d="M312 53v120h-291q-16 0 -22 7t-6 17q0 7 2.5 13.5t4.5 10.5l297 451q14 21 32.5 29t37.5 8q51 0 51 -50v-433h62q26 0 33 -9t7 -20q0 -9 -5 -16.5t-25 -7.5h-72v-120h57q26 0 33 -9t7 -20q0 -9 -5 -16.5t-25 -7.5h-260q-19 0 -24.5 7.5t-5.5 16.5q0 11 7.5 20t32.5 9h77z
M312 578l-235 -352h235v352z" />
    <glyph glyph-name="five" unicode="5" horiz-adv-x="530" 
d="M178 620l-16 -207q33 32 70 39.5t59 7.5q54 0 96.5 -20t66.5 -67t24 -128q0 -40 -12 -83t-39 -80t-71.5 -59.5t-109.5 -22.5q-43 0 -84.5 8.5t-82.5 32.5q-13 8 -18 20.5t-5 30.5v45q0 50 43 50q29 0 41 -14.5t12 -50.5v-57q20 -9 39 -11.5t50 -2.5q53 0 89 48.5
t36 139.5q0 64 -17.5 98t-44 46.5t-52.5 12.5q-32 0 -59 -14.5t-42 -38.5q-8 -12 -18.5 -16t-22.5 -4q-13 0 -20.5 7t-7.5 24l23 326q1 29 35 29h293q24 0 29 -14t5 -25q0 -15 -10 -32.5t-35 -17.5h-244z" />
    <glyph glyph-name="six" unicode="6" horiz-adv-x="530" 
d="M422 537q-28 0 -40.5 14t-12.5 48v49q-16 7 -31.5 8.5t-30.5 1.5q-25 0 -51.5 -12t-48.5 -40.5t-36 -78.5t-14 -125v-42q24 50 67 69t83 19q91 0 137 -60t46 -155q0 -109 -58.5 -171t-153.5 -62q-71 0 -115.5 26.5t-69 71.5t-34 101.5t-9.5 115.5q0 123 21 200.5
t57 119.5t81 58t94 16q38 0 67 -6.5t54 -15.5q14 -5 27.5 -15.5t13.5 -35.5v-51q0 -48 -43 -48zM278 384q-45 0 -79 -41t-34 -118q0 -26 5 -56t17 -57t33.5 -44t54.5 -17q49 0 77.5 43t28.5 140q0 83 -28 116.5t-75 33.5z" />
    <glyph glyph-name="seven" unicode="7" horiz-adv-x="530" 
d="M40 672q0 23 15.5 30t44.5 7h347q21 0 29 -10.5t8 -24.5q0 -10 -3 -20.5t-8 -18.5q-64 -103 -103.5 -199t-62 -187.5t-37.5 -181.5q-3 -20 -6 -35t-14.5 -23.5t-41.5 -8.5q-34 0 -46 8.5t-12 21.5q0 8 2 21.5t11 47.5q29 107 66 208t81 190.5t93 158.5h-267v-57
q0 -36 -12 -50.5t-41 -14.5q-43 0 -43 50v88z" />
    <glyph glyph-name="eight" unicode="8" horiz-adv-x="530" 
d="M367 380q65 -14 95.5 -63t30.5 -108q0 -100 -62 -154.5t-166 -54.5q-103 0 -165.5 54.5t-62.5 154.5q0 59 31 106t95 65v8q-47 12 -80.5 51t-33.5 93q0 41 19.5 82t67 68t129.5 27q83 0 130 -27t66.5 -67.5t19.5 -81.5q0 -54 -33.5 -94t-80.5 -51v-8zM265 407
q43 0 76 29.5t33 98.5q0 48 -17.5 75t-42.5 37.5t-49 10.5q-23 0 -48.5 -10.5t-43 -37.5t-17.5 -75q0 -69 33 -98.5t76 -29.5zM148 207q0 -81 35.5 -118.5t81.5 -37.5q47 0 82 37t35 119q0 58 -17.5 91t-44.5 47t-55 14t-55 -14t-44.5 -47t-17.5 -91z" />
    <glyph glyph-name="nine" unicode="9" horiz-adv-x="530" 
d="M108 172q29 0 41 -13.5t12 -48.5v-49q17 -7 33.5 -8.5t31.5 -1.5q34 0 67.5 23.5t56.5 79.5t23 153v42q-24 -49 -66 -68.5t-83 -19.5q-60 0 -101 28.5t-62 77.5t-21 112q0 73 28.5 124.5t78 78.5t112.5 27q71 0 114.5 -25t66.5 -68t31.5 -98.5t8.5 -116.5
q0 -120 -21 -198.5t-57 -122.5t-81 -62t-94 -18q-38 0 -66.5 6.5t-54.5 15.5q-14 5 -27.5 15.5t-13.5 35.5v51q0 48 43 48zM253 325q45 0 78.5 41t33.5 118q0 26 -4 56t-14.5 57t-31 44t-53.5 17q-49 0 -81 -41.5t-32 -138.5q0 -82 28.5 -117.5t75.5 -35.5z" />
    <glyph glyph-name="colon" unicode=":" horiz-adv-x="272" 
d="M60 416q0 35 22.5 57t53.5 22q32 0 54 -22t22 -57q0 -33 -22 -55t-54 -22q-31 0 -53.5 22t-22.5 55zM60 77q0 35 22.5 57t53.5 22q32 0 54 -22t22 -57q0 -33 -22 -55t-54 -22q-31 0 -53.5 22t-22.5 55z" />
    <glyph glyph-name="semicolon" unicode=";" horiz-adv-x="276" 
d="M61 416q0 35 22.5 57t53.5 22q32 0 54 -22t22 -57q0 -33 -22 -55t-54 -22q-31 0 -53.5 22t-22.5 55zM120 12q-26 5 -39 18t-17 28.5t-4 25.5q0 38 26.5 55t52.5 17t49.5 -16.5t23.5 -50.5q0 -19 -5 -35.5t-16 -40.5l-42 -89q-7 -15 -17 -21t-20 -6q-13 0 -22.5 8t-9.5 18
q0 3 2 9z" />
    <glyph glyph-name="less" unicode="&#x3c;" horiz-adv-x="753" 
d="M67 320q-12 6 -12 27q0 8 3 16t9 11l547 271q2 1 5 1q12 0 23 -19.5t11 -36.5q0 -13 -8 -17l-467 -226l467 -226q8 -4 8 -18q0 -16 -11 -35.5t-23 -19.5q-3 0 -5 1z" />
    <glyph glyph-name="equal" unicode="=" horiz-adv-x="700" 
d="M110 404q-10 0 -15 12.5t-5 27.5t5 27.5t15 12.5h480q10 0 15 -12.5t5 -27.5t-5 -27.5t-15 -12.5h-480zM110 227q-10 0 -15 12.5t-5 27.5t5 27.5t15 12.5h480q10 0 15 -12.5t5 -27.5t-5 -27.5t-15 -12.5h-480z" />
    <glyph glyph-name="greater" unicode="&#x3e;" horiz-adv-x="788" 
d="M134 49q-2 -1 -5 -1q-12 0 -23 19.5t-11 35.5q0 14 8 18l467 226l-467 226q-8 4 -8 17q0 17 11 36.5t23 19.5q3 0 5 -1l547 -271q6 -3 9 -11t3 -16q0 -21 -12 -27z" />
    <glyph glyph-name="question" unicode="?" horiz-adv-x="470" 
d="M73 504q-43 0 -43 50v58q0 18 6 27.5t19 17.5q43 27 86 39.5t89 12.5q78 0 121.5 -24.5t61 -59.5t17.5 -68q0 -49 -19 -81t-47 -59t-55 -60q-25 -31 -40 -60.5t-15 -75.5q0 -14 -15.5 -21t-32.5 -7q-16 0 -29.5 6.5t-13.5 21.5q0 41 8.5 70t22.5 52t30 47q22 31 43 54
t35.5 49t14.5 67q0 56 -28 77t-78 21q-22 0 -43.5 -6t-41.5 -15v-68q0 -36 -12 -50.5t-41 -14.5zM141 69q0 29 20.5 49.5t48.5 20.5q29 0 49.5 -20.5t20.5 -49.5q0 -28 -20.5 -48.5t-49.5 -20.5q-28 0 -48.5 20.5t-20.5 48.5z" />
    <glyph glyph-name="at" unicode="@" horiz-adv-x="820" 
d="M234 256q0 74 30.5 133t83.5 93t120 34q53 0 90 -12t37 -35q0 -3 -0.5 -6t-1.5 -7l-47 -216q-1 -4 -1.5 -7.5t-0.5 -6.5q0 -12 7 -21t26 -9q29 0 60 21t52.5 61.5t21.5 98.5q0 50 -24 94t-64 77t-90 52t-103 19q-55 0 -108 -22t-95.5 -61.5t-67.5 -93.5t-25 -119
q0 -57 21 -110t60.5 -95t95 -67t124.5 -25q44 0 89 12.5t91 44.5q5 4 12 4q13 0 24 -13.5t11 -27.5q0 -13 -11 -20q-49 -33 -98 -53.5t-123 -20.5q-62 0 -127 24t-120 71t-89 116.5t-34 159.5q0 79 30 146.5t81.5 117.5t117.5 78t138 28q70 0 134.5 -22.5t115 -64.5
t79.5 -100t29 -129q0 -77 -32 -132t-83 -84t-108 -29q-13 0 -32.5 3.5t-36.5 15t-25 34.5q-22 -29 -57.5 -38.5t-67.5 -9.5q-52 0 -80.5 33t-28.5 86zM376 204q51 0 81 33l48 210q-9 5 -20 7.5t-19 2.5q-34 0 -66.5 -24.5t-53 -67t-20.5 -97.5q0 -34 14 -49t36 -15z" />
    <glyph glyph-name="A" unicode="A" horiz-adv-x="617" 
d="M103 53q-13 -35 -30 -44t-31 -9t-20.5 8t-6.5 19q0 12 5 25l235 633q5 12 20.5 18t34.5 6q20 0 38.5 -6.5t22.5 -20.5l229 -634q1 -4 1.5 -7.5t0.5 -7.5q0 -13 -8.5 -23t-30.5 -10q-9 0 -23.5 3.5t-28.5 15t-23 34.5l-53 137h-281zM299 591h-6l-123 -349h250z" />
    <glyph glyph-name="B" unicode="B" horiz-adv-x="670" 
d="M100 659q0 50 46 50h205q109 0 165.5 -44t56.5 -134q0 -31 -13 -62.5t-38.5 -55t-61.5 -32.5v-5q80 -13 115 -59.5t35 -104.5q0 -68 -26 -110t-66 -64t-83.5 -30t-78.5 -8h-210q-46 0 -46 50v609zM208 656v-258h115q29 0 60.5 13t54 42.5t22.5 80.5q0 48 -24 74.5t-58 37
t-63 10.5h-107zM208 345v-292h134q23 0 49.5 6.5t50.5 23t39.5 45.5t15.5 74q0 54 -26.5 85t-64.5 44.5t-74 13.5h-124z" />
    <glyph glyph-name="C" unicode="C" horiz-adv-x="581" 
d="M503 529q-28 0 -43 14.5t-15 50.5v56q-17 4 -35 6t-38 2q-92 0 -149 -77.5t-57 -234.5q0 -115 26 -179t74 -89.5t113 -25.5q31 0 65 8t66 21l19 8q2 1 4 1.5t4 0.5q11 0 17.5 -9.5t6.5 -20.5q0 -14 -13 -20l-17 -7q-37 -15 -78.5 -24.5t-101.5 -9.5q-104 0 -170 42
t-97 120t-31 186q0 125 40.5 205t110 118t155.5 38q38 0 74.5 -5t71.5 -16q23 -7 32 -16.5t9 -32.5v-60q0 -50 -43 -50z" />
    <glyph glyph-name="D" unicode="D" horiz-adv-x="693" 
d="M100 659q0 50 46 50h143q44 0 92.5 -7.5t94.5 -28t83 -59.5t59 -101.5t22 -154.5q0 -85 -22.5 -146t-60 -102t-83 -65t-92.5 -34.5t-88 -10.5h-148q-46 0 -46 50v609zM208 656v-603h22v1h47q69 0 126 31t90.5 98t33.5 175q0 111 -33.5 176t-90.5 93.5t-126 28.5h-69z" />
    <glyph glyph-name="E" unicode="E" horiz-adv-x="601" 
d="M503 535q-28 0 -43 14.5t-15 50.5v56h-237v-262h210q14 0 21 -8.5t7 -19.5q0 -10 -8.5 -18.5t-19.5 -8.5h-210v-286h252v56q0 36 15 50.5t43 14.5q43 0 43 -50v-87q0 -22 -15.5 -29.5t-44.5 -7.5h-355q-46 0 -46 50v609q0 50 46 50h340q29 0 44.5 -7t15.5 -30v-87
q0 -50 -43 -50z" />
    <glyph glyph-name="F" unicode="F" horiz-adv-x="556" 
d="M208 334v-269q0 -36 -15.5 -50.5t-46.5 -14.5q-46 0 -46 50v609q0 50 46 50h340q29 0 44.5 -7t15.5 -30v-77q0 -50 -43 -50q-28 0 -43 14.5t-15 50.5v46h-237v-267h210q28 0 28 -28q0 -27 -28 -27h-210z" />
    <glyph glyph-name="G" unicode="G" horiz-adv-x="680" 
d="M534 529q-28 0 -43 14.5t-15 50.5v56q-21 5 -40 6.5t-41 1.5q-64 0 -116 -34t-82.5 -103t-30.5 -174q0 -115 27 -179.5t76 -90.5t116 -26q25 0 57 3.5t63 16.5v216h-112q-13 0 -19 8.5t-6 18.5q0 11 7 19.5t21 8.5h170q28 0 36 -10.5t8 -29.5v-207q0 -30 -8.5 -41
t-23.5 -17q-52 -20 -102.5 -28.5t-109.5 -8.5q-111 0 -180 42.5t-101 120.5t-32 186q0 125 45 204.5t120.5 117.5t164.5 38q38 0 77 -5.5t76 -16.5q23 -7 32 -16.5t9 -32.5v-59q0 -50 -43 -50z" />
    <glyph glyph-name="H" unicode="H" horiz-adv-x="742" 
d="M596 709q46 0 46 -50v-609q0 -28 -10.5 -39t-33.5 -11q-64 0 -64 77v262h-326v-274q0 -36 -15.5 -50.5t-46.5 -14.5q-46 0 -46 50v609q0 28 10.5 39t33.5 11q64 0 64 -77v-238h326v250q0 36 15.5 50.5t46.5 14.5z" />
    <glyph glyph-name="I" unicode="I" horiz-adv-x="408" 
d="M50 0q-19 0 -24.5 7.5t-5.5 16.5q0 11 7.5 20t32.5 9h90v603h-90q-25 0 -32.5 9t-7.5 20q0 9 5.5 16.5t24.5 7.5h308q20 0 25 -7.5t5 -16.5q0 -11 -7 -20t-33 -9h-90v-603h90q26 0 33 -9t7 -20q0 -9 -5 -16.5t-25 -7.5h-308z" />
    <glyph glyph-name="J" unicode="J" horiz-adv-x="484" 
d="M362 709q46 0 46 -50v-398q0 -27 -4.5 -61.5t-17.5 -69.5t-38.5 -64.5t-67.5 -47.5t-104 -18q-18 0 -42.5 3t-46 7.5t-32.5 10.5q-20 10 -20 31v67q0 50 43 50q29 0 43.5 -14.5t14.5 -50.5v-49q9 -1 21.5 -2t20.5 -1q49 0 75.5 24.5t36.5 60.5t10 71v436q0 36 15.5 50.5
t46.5 14.5z" />
    <glyph glyph-name="K" unicode="K" horiz-adv-x="611" 
d="M208 382l310 307q11 11 20.5 15.5t19.5 4.5q16 0 26 -10.5t10 -21.5q0 -7 -5 -12l-286 -275l289 -324q6 -7 10 -14t4 -15q0 -14 -11 -25.5t-30 -11.5q-20 0 -41.5 9t-48.5 40l-249 285l-18 -19v-250q0 -36 -15.5 -50.5t-46.5 -14.5q-46 0 -46 50v609q0 28 10.5 39
t33.5 11q64 0 64 -77v-250z" />
    <glyph glyph-name="L" unicode="L" horiz-adv-x="571" 
d="M493 187q43 0 43 -50v-105q0 -18 -15.5 -25t-44.5 -7h-330q-46 0 -46 50v609q0 28 10.5 39t33.5 11q64 0 64 -77v-579h227v69q0 36 15 50.5t43 14.5z" />
    <glyph glyph-name="M" unicode="M" horiz-adv-x="877" 
d="M736 0q-60 0 -60 77v484h-7l-206 -524q-15 -37 -42 -37q-28 0 -43 37l-192 524h-7v-505q0 -32 -13.5 -44t-27.5 -12t-26 10t-12 35v611q0 26 20 39.5t44 13.5q19 0 42 -10.5t33 -37.5l192 -531h5l209 526q11 30 34.5 41.5t46.5 11.5q51 0 51 -53v-606q0 -28 -9 -39
t-32 -11z" />
    <glyph glyph-name="N" unicode="N" horiz-adv-x="743" 
d="M138 0q-14 0 -26 10t-12 35v610q0 26 18 40t42 14q20 0 38 -8t34 -34l327 -519h5v505q0 32 14 44t27 12q14 0 26 -10t12 -35v-606q0 -29 -17.5 -43.5t-40.5 -14.5q-25 0 -43 10.5t-30 29.5l-327 521h-6v-505q0 -32 -13.5 -44t-27.5 -12z" />
    <glyph glyph-name="O" unicode="O" horiz-adv-x="716" 
d="M663 354q0 -33 -6 -78.5t-23.5 -93.5t-51 -89t-88.5 -67t-137 -26t-137 26t-88 67t-50.5 89t-23 93.5t-5.5 78.5q0 32 5.5 77.5t23 93.5t50.5 90t88 68t137 26t137 -26t88.5 -68t51 -90t23.5 -93.5t6 -77.5zM550 354q0 30 -3.5 70t-14 80.5t-31.5 75.5t-56 56.5t-88 21.5
q-52 0 -86.5 -21.5t-55.5 -56.5t-31.5 -75.5t-14 -80.5t-3.5 -70t3.5 -69.5t14 -80.5t31.5 -75.5t55.5 -56t86.5 -21.5q53 0 88 21.5t56 56t31.5 75.5t14 80.5t3.5 69.5z" />
    <glyph glyph-name="P" unicode="P" horiz-adv-x="617" 
d="M208 275v-210q0 -36 -15.5 -50.5t-46.5 -14.5q-46 0 -46 50v609q0 28 10.5 39t33.5 11h167q23 0 57.5 -2.5t71.5 -12.5t69.5 -32t52.5 -60.5t20 -99.5q0 -62 -29 -114t-89 -82.5t-152 -30.5h-104zM208 656v-328h103q72 0 115 41t43 133q0 70 -34.5 112t-123.5 42h-103z
" />
    <glyph glyph-name="Q" unicode="Q" horiz-adv-x="716" 
d="M663 354q0 -29 -4.5 -67.5t-17.5 -79.5t-37.5 -80t-64.5 -70l64 -77q6 -7 6 -15q0 -11 -12.5 -19t-30.5 -8q-15 0 -30.5 7t-29.5 23l-41 48q-23 -7 -50 -11.5t-58 -4.5q-82 0 -137 26t-88 67t-50.5 89t-23 93.5t-5.5 78.5q0 32 5.5 77.5t23 93.5t50.5 90t88 68t137 26
t137 -26t88.5 -68t51 -90t23.5 -93.5t6 -77.5zM550 354q0 30 -3.5 70t-14 80.5t-31.5 75.5t-56 56.5t-88 21.5q-52 0 -86.5 -21.5t-55.5 -56.5t-31.5 -75.5t-14 -80.5t-3.5 -70t3.5 -69.5t14 -80.5t31.5 -75.5t55.5 -56t86.5 -21.5q40 0 68 12l-73 88q-12 15 -12 27
q0 14 11 22.5t27 8.5q14 0 30.5 -7.5t30.5 -25.5l51 -61q27 36 39.5 78t16.5 84t4 77z" />
    <glyph glyph-name="R" unicode="R" horiz-adv-x="643" 
d="M100 659q0 28 10.5 39t33.5 11h189q50 0 95.5 -8.5t81 -29.5t56 -58.5t20.5 -96.5q0 -51 -26.5 -91.5t-66.5 -66t-82 -32.5l166 -267q9 -13 9 -26q0 -14 -12.5 -23.5t-38.5 -9.5q-18 0 -36.5 8.5t-31.5 29.5l-168 281h-91v-254q0 -36 -15.5 -50.5t-46.5 -14.5
q-46 0 -46 50v609zM208 656v-284h107q35 0 71.5 14t61.5 47t25 89q0 47 -15 74t-38.5 39.5t-49.5 16.5t-47 4h-115z" />
    <glyph glyph-name="S" unicode="S" horiz-adv-x="631" 
d="M482 527q-28 0 -43 14t-15 48v51q-4 1 -8 2.5t-9 2.5q-46 13 -101 13q-47 0 -76.5 -19.5t-43 -48t-13.5 -56.5q0 -34 12.5 -56t42.5 -38.5t80 -35.5q88 -31 146 -57t87.5 -60.5t29.5 -92.5q0 -55 -32.5 -99t-94.5 -69.5t-153 -25.5q-46 0 -99.5 10t-88.5 23
q-22 9 -30.5 17.5t-8.5 30.5v60q0 48 43 48q29 0 43.5 -14t14.5 -49v-54q29 -10 59.5 -15.5t62.5 -5.5q57 0 95 19.5t57.5 50t19.5 62.5q0 34 -18 57t-55.5 41.5t-94.5 39.5q-69 26 -120.5 50.5t-80.5 60.5t-29 96q0 80 62 130.5t176 50.5q58 0 102.5 -9t82.5 -20
q23 -7 32 -16t9 -31v-58q0 -48 -43 -48z" />
    <glyph glyph-name="T" unicode="T" horiz-adv-x="650" 
d="M379 656v-596q0 -36 -15.5 -48t-46.5 -12q-46 0 -46 50v606h-150v-71q0 -36 -14.5 -50.5t-43.5 -14.5q-43 0 -43 50v102q0 23 15.5 30t44.5 7h490q29 0 44.5 -7t15.5 -30v-102q0 -50 -43 -50q-28 0 -43 14.5t-15 50.5v71h-150z" />
    <glyph glyph-name="U" unicode="U" horiz-adv-x="718" 
d="M201 219q0 -81 47 -127t130 -46q53 0 90.5 23t57.5 63.5t20 90.5v430q0 32 14 44t27 12q14 0 26 -10t12 -35v-410q0 -28 -6 -63.5t-22 -71.5t-45.5 -66.5t-77 -49t-116.5 -18.5q-72 0 -120 18.5t-77 48t-43.5 65t-19.5 71t-5 63.5v408q0 28 10.5 39t33.5 11q64 0 64 -77
v-413z" />
    <glyph glyph-name="V" unicode="V" horiz-adv-x="545" 
d="M472 656q12 36 27.5 44.5t29.5 8.5t22.5 -8t8.5 -19q0 -12 -5 -25l-218 -617q-8 -23 -25 -31.5t-38 -8.5q-18 0 -35.5 8t-24.5 28l-215 614q-4 11 -4 22q0 15 10 26t33 11q14 0 35.5 -8.5t33.5 -44.5l178 -543h6z" />
    <glyph glyph-name="W" unicode="W" horiz-adv-x="849" 
d="M741 656q11 36 26.5 44.5t29.5 8.5t22 -8t8 -19q0 -12 -5 -25l-167 -617q-7 -23 -24.5 -31.5t-37.5 -8.5q-16 0 -35 8t-24 28l-105 481h-2l-116 -477q-6 -23 -24 -31.5t-38 -8.5q-17 0 -35.5 8t-23.5 28l-160 614q-4 11 -4 22q0 15 10 26t32 11q14 0 35.5 -8.5
t32.5 -44.5l124 -543h6l119 533q8 32 19.5 47.5t34.5 15.5t35 -18.5t16 -41.5l114 -536h6z" />
    <glyph glyph-name="X" unicode="X" horiz-adv-x="589" 
d="M439 656q32 53 64 53q11 0 20.5 -6.5t9.5 -17.5q0 -6 -2.5 -14t-8.5 -16l-168 -273l197 -322q8 -13 8 -28q0 -13 -10.5 -22.5t-28.5 -9.5q-31 0 -48 12.5t-33 39.5l-150 255h-4l-157 -253q-22 -37 -38 -45.5t-30 -8.5q-16 0 -23 7t-7 15t3.5 17t7.5 15l200 312l-171 285
q-7 11 -7 24q0 14 11.5 24t27.5 10q29 0 47 -15t31 -38l125 -222h6z" />
    <glyph glyph-name="Y" unicode="Y" horiz-adv-x="547" 
d="M268 0q-47 0 -47 50v218l-197 381q-6 14 -6 25q0 15 10 25t26 10q25 0 43 -10t34 -42l159 -314h4l150 313q14 29 29 41t32 12q15 0 21.5 -10t6.5 -23q0 -12 -5 -22l-199 -386v-208q0 -36 -15 -48t-46 -12z" />
    <glyph glyph-name="Z" unicode="Z" horiz-adv-x="592" 
d="M85 0q-24 0 -34.5 15t-10.5 34q0 9 2 19.5t6 16.5l383 571h-268v-56q0 -36 -14.5 -50.5t-43.5 -14.5q-43 0 -43 50v87q0 23 15.5 30t44.5 7h377q23 0 34 -15.5t11 -35.5q0 -8 -2 -18.5t-6 -15.5l-392 -571h307v56q0 36 15 50.5t43 14.5q43 0 43 -50v-87
q0 -22 -15.5 -29.5t-44.5 -7.5h-407z" />
    <glyph glyph-name="bracketleft" unicode="[" horiz-adv-x="338" 
d="M80 680q0 50 46 50h160q8 0 12.5 -10.5t4.5 -24.5q0 -13 -4.5 -23.5t-12.5 -10.5h-115v-770h115q8 0 12.5 -10.5t4.5 -24.5q0 -13 -4.5 -23.5t-12.5 -10.5h-160q-46 0 -46 50v808z" />
    <glyph glyph-name="backslash" unicode="\" horiz-adv-x="670" 
d="M51 709q-1 2 -1 6q0 12 18 24t32 12q10 0 13 -6l516 -914q1 -2 1 -5q0 -10 -17.5 -21t-31.5 -11q-8 0 -13 6z" />
    <glyph glyph-name="bracketright" unicode="]" horiz-adv-x="338" 
d="M258 -128q0 -50 -46 -50h-160q-8 0 -12.5 10.5t-4.5 23.5q0 14 4.5 24.5t12.5 10.5h115v770h-115q-8 0 -12.5 10.5t-4.5 23.5q0 14 4.5 24.5t12.5 10.5h160q46 0 46 -50v-808z" />
    <glyph glyph-name="asciicircum" unicode="^" horiz-adv-x="510" 
d="M176 502q-9 -10 -27 -16t-35 -6q-16 0 -27 4.5t-11 10.5q0 3 3 7l143 169q14 17 32 17t33 -17l143 -169q3 -4 3 -7q0 -7 -11.5 -11.5t-26.5 -4.5q-18 0 -36 6t-27 17l-77 92z" />
    <glyph glyph-name="underscore" unicode="_" horiz-adv-x="587" 
d="M0 -218q-10 0 -15 12.5t-5 27.5t5 27.5t15 12.5h587q10 0 15 -12.5t5 -27.5t-5 -27.5t-15 -12.5h-587z" />
    <glyph glyph-name="grave" unicode="`" horiz-adv-x="605" 
d="M143 716q-3 3 -3 9q0 11 14.5 17.5t39.5 6.5q18 0 34.5 -6t22.5 -20l52 -125q2 -4 2 -9q0 -9 -8 -14t-19 -5q-24 0 -37 16z" />
    <glyph glyph-name="a" unicode="a" horiz-adv-x="546" 
d="M370 95q-33 -49 -75.5 -72t-100.5 -23q-76 0 -113.5 37.5t-37.5 97.5q0 32 11 63.5t39 56.5t77 40t125 15h73v28q0 69 -23.5 96.5t-76.5 27.5q-31 0 -52.5 -13t-35.5 -29q-15 -16 -30 -25.5t-31 -9.5q-18 0 -26.5 10.5t-8.5 23.5q0 21 16 33.5t39 22.5q34 14 75.5 20.5
t73.5 6.5q74 0 114 -20.5t55.5 -60.5t15.5 -100v-274q0 -22 -7.5 -34.5t-31.5 -12.5q-33 0 -47 22.5t-14 71.5zM311 268q-64 0 -100 -16t-50 -43t-14 -60q0 -46 24 -64t63 -18q25 0 56.5 12.5t55 38.5t23.5 66v84h-58z" />
    <glyph glyph-name="b" unicode="b" horiz-adv-x="566" 
d="M184 410h2q20 35 56.5 63.5t99.5 28.5q33 0 63.5 -9.5t55 -33.5t38.5 -68.5t14 -114.5q0 -136 -64 -206t-174 -70q-36 0 -69.5 6.5t-59.5 16.5q-24 9 -45 26.5t-21 60.5v603q0 23 8 35t32 12q33 0 48.5 -18.5t15.5 -63.5v-268zM183 93q0 -20 23.5 -36.5t68.5 -16.5
q39 0 68 22t45.5 72t16.5 134q0 71 -14 106.5t-37 48t-52 12.5q-25 0 -53 -16t-47 -42t-19 -55v-229z" />
    <glyph glyph-name="c" unicode="c" horiz-adv-x="490" 
d="M422 126q10 11 25 11q8 0 15.5 -5.5t7.5 -15.5q0 -18 -13 -34q-28 -34 -70.5 -58t-110.5 -24q-83 0 -133 32.5t-71.5 89.5t-21.5 128q0 93 32 148t85.5 79.5t119.5 24.5t117 -30q21 -13 38 -32t17 -45q0 -19 -14 -29t-28 -10q-23 0 -35 11.5t-19 30.5q-8 24 -24.5 44
t-53.5 20q-42 0 -70 -19t-42.5 -65.5t-14.5 -127.5q0 -98 28 -152t101 -54q41 0 66 14.5t41 34t28 33.5z" />
    <glyph glyph-name="d" unicode="d" horiz-adv-x="563" 
d="M288 502q24 0 48 -4.5t43 -12.5v193q0 45 15.5 63.5t48.5 18.5q24 0 32 -12t8 -35v-666q0 -22 -7.5 -34.5t-31.5 -12.5q-33 0 -47 27.5t-14 76.5l-3 1q-16 -26 -37 -50.5t-50.5 -39.5t-71.5 -15t-81.5 21t-64.5 71t-25 137q0 144 64.5 208.5t173.5 64.5zM158 237
q0 -64 14 -101t37.5 -53t51.5 -16t55 19.5t45.5 49t18.5 58.5v209q0 20 -23.5 39.5t-68.5 19.5q-39 0 -68.5 -19t-45.5 -68t-16 -138z" />
    <glyph glyph-name="e" unicode="e" horiz-adv-x="525" 
d="M435 126q10 11 25 11q8 0 15.5 -5.5t7.5 -15.5q0 -18 -13 -34q-28 -34 -72 -58t-112 -24q-120 0 -178 65t-58 174q0 128 60 195.5t174 67.5q89 0 145 -50.5t56 -150.5q0 -31 -18.5 -40t-38.5 -9h-269q-1 -6 -1 -11.5v-10.5q0 -82 32.5 -134t106.5 -52q41 0 67 14.5
t42.5 34t28.5 33.5zM278 462q-46 0 -77.5 -39t-38.5 -129h187q17 0 25.5 6t8.5 23q0 48 -15.5 79t-39.5 45.5t-50 14.5z" />
    <glyph glyph-name="f" unicode="f" horiz-adv-x="353" 
d="M24 466q0 17 10.5 21.5t20.5 5.5h57q4 95 27 143.5t54 73.5q29 23 64.5 36.5t80.5 13.5q46 0 72 -17.5t26 -37.5q0 -16 -10 -25.5t-30 -9.5q-15 0 -26 10t-19 19q-7 9 -18 15t-30 6q-20 0 -40.5 -11.5t-34 -42t-13.5 -88.5v-85h111q19 0 27 -7t8 -15q0 -10 -9 -18t-26 -8
h-111v-377q0 -45 -15.5 -56.5t-48.5 -11.5q-24 0 -32 12.5t-8 34.5v398h-55q-32 0 -32 21z" />
    <glyph glyph-name="g" unicode="g" horiz-adv-x="568" 
d="M263 -180q47 0 82 18t54.5 45.5t19.5 56.5q0 36 -27.5 55.5t-71 28.5t-91.5 12q-79 6 -128 26t-49 66q0 21 12.5 35t32 23.5t40.5 18t38 20.5v3q-40 16 -57 50.5t-17 65.5q0 58 29 92.5t75 50t97 15.5q25 0 62.5 -7t62.5 -24q8 4 10 16.5t4.5 27t12.5 25t33 10.5
q14 0 24.5 -12.5t10.5 -29.5q0 -20 -18.5 -37t-38.5 -29q16 -17 26.5 -41.5t10.5 -50.5q0 -46 -28 -80t-73 -52.5t-98 -18.5q-17 0 -40 2t-40 7q-25 -19 -41 -27.5t-16 -28.5q0 -8 8 -16.5t32 -15t71 -8.5q128 -6 186.5 -46.5t58.5 -96.5q0 -53 -34.5 -96t-98.5 -68
t-153 -25q-83 0 -132 35t-49 88q0 33 17 55.5t38 34.5t33 12q11 0 17 -6t6 -14q0 -7 -8.5 -15.5t-16.5 -22t-8 -37.5q0 -41 38 -65.5t92 -24.5zM399 352q0 48 -25 79t-72 31q-45 0 -71.5 -30.5t-26.5 -83.5q0 -48 25.5 -78.5t72.5 -30.5q44 0 70.5 31.5t26.5 81.5z" />
    <glyph glyph-name="h" unicode="h" horiz-adv-x="580" 
d="M184 400h2q25 40 68 71t105 31q141 0 141 -151v-304q0 -22 -8 -34.5t-32 -12.5q-33 0 -48.5 18.5t-15.5 63.5v250q0 59 -25 81t-60 22q-28 0 -57.5 -17.5t-49.5 -46t-20 -61.5v-239q0 -45 -15.5 -58t-48.5 -13q-24 0 -32 12.5t-8 34.5v666q0 23 8 35t32 12
q33 0 48.5 -18.5t15.5 -63.5v-278z" />
    <glyph glyph-name="i" unicode="i" horiz-adv-x="274" 
d="M189 68q0 -45 -15.5 -56.5t-48.5 -11.5q-24 0 -32 12.5t-8 34.5v408q0 23 8 35t32 12q64 0 64 -67v-367zM73 629q0 26 18.5 44t43.5 18q26 0 44 -18t18 -44q0 -25 -18 -43.5t-44 -18.5q-25 0 -43.5 18.5t-18.5 43.5z" />
    <glyph glyph-name="j" unicode="j" horiz-adv-x="266" 
d="M85 455q0 23 8 35t32 12q64 0 64 -68v-313q0 -65 -15.5 -128t-45 -114.5t-72.5 -81.5q-10 -7 -21.5 -12t-24.5 -5q-27 0 -27 25q0 12 6 19.5t17 13.5q50 26 64.5 74.5t14.5 131.5v411zM73 629q0 26 18.5 44t43.5 18q26 0 44 -18t18 -44q0 -25 -18 -43.5t-44 -18.5
q-25 0 -43.5 18.5t-18.5 43.5z" />
    <glyph glyph-name="k" unicode="k" horiz-adv-x="513" 
d="M184 279l136 124q41 38 74.5 68.5t68.5 30.5q18 0 23.5 -9t5.5 -18q0 -22 -26.5 -37.5t-73.5 -47.5q-30 -19 -58.5 -43.5t-65.5 -53.5q50 -60 105 -123t102 -119q8 -10 13 -17.5t5 -14.5t-7.5 -13t-40.5 -6q-36 0 -50.5 9t-25.5 22q-42 51 -86 105.5t-88 106.5l-11 -12
v-160q0 -45 -15.5 -58t-48.5 -13q-24 0 -32 12.5t-8 34.5v666q0 23 8 35t32 12q33 0 48.5 -18.5t15.5 -63.5v-399z" />
    <glyph glyph-name="l" unicode="l" horiz-adv-x="274" 
d="M189 68q0 -45 -15.5 -56.5t-48.5 -11.5q-24 0 -32 12.5t-8 34.5v666q0 23 8 35t32 12q33 0 48.5 -18.5t15.5 -63.5v-610z" />
    <glyph glyph-name="m" unicode="m" horiz-adv-x="829" 
d="M646 332q0 59 -19 81t-54 22q-24 0 -48.5 -17.5t-41.5 -46t-17 -61.5v-239q0 -45 -15 -58t-48 -13q-24 0 -32 12.5t-8 34.5v285q0 59 -19 81t-54 22q-24 0 -48.5 -15t-41.5 -41t-17 -59v-249q0 -45 -15 -58t-48 -13q-24 0 -32 12.5t-8 34.5v412q0 24 10.5 33.5t32.5 9.5
q27 0 42.5 -21t15.5 -65v-7h2q25 40 59 66.5t96 26.5q107 0 124 -103h2q17 27 37.5 50.5t49.5 38t70 14.5q67 0 97.5 -38.5t30.5 -112.5v-304q0 -22 -8 -34.5t-32 -12.5q-33 0 -48 18.5t-15 63.5v250z" />
    <glyph glyph-name="n" unicode="n" horiz-adv-x="580" 
d="M80 459q0 24 10.5 33.5t32.5 9.5q27 0 43 -21t16 -65v-7h2q25 40 69 66.5t106 26.5q141 0 141 -151v-304q0 -22 -8 -34.5t-32 -12.5q-33 0 -48.5 18.5t-15.5 63.5v250q0 59 -25 81t-60 22q-28 0 -57.5 -15t-49.5 -41t-20 -59v-249q0 -45 -15.5 -58t-48.5 -13
q-24 0 -32 12.5t-8 34.5v412z" />
    <glyph glyph-name="o" unicode="o" horiz-adv-x="558" 
d="M279 0q-106 0 -167.5 61.5t-61.5 189.5q0 88 29 143t80.5 81.5t119.5 26.5q103 0 166 -60t63 -191q0 -128 -61 -189.5t-168 -61.5zM279 40q36 0 63 17t42.5 63t15.5 131t-16 130.5t-43.5 63t-61.5 17.5q-33 0 -60.5 -17.5t-44 -63t-16.5 -130.5q0 -84 15.5 -130t43 -63.5
t62.5 -17.5z" />
    <glyph glyph-name="p" unicode="p" horiz-adv-x="566" 
d="M80 459q0 25 11 34t28 9q32 0 47 -20.5t16 -65.5v-8h1q24 40 60.5 67t98.5 27q44 0 83 -18.5t63.5 -67.5t24.5 -140q0 -140 -64 -208t-174 -68q-50 0 -91 19v-168q0 -45 -15.5 -58t-48.5 -13q-24 0 -32 12.5t-8 34.5v632zM405 268q0 68 -14 104t-37 49.5t-52 13.5
q-27 0 -54.5 -17t-46 -43.5t-18.5 -56.5v-217q0 -20 23.5 -40.5t68.5 -20.5q39 0 68 21t45.5 71t16.5 136z" />
    <glyph glyph-name="q" unicode="q" horiz-adv-x="563" 
d="M483 -168q0 -22 -8 -34.5t-32 -12.5q-33 0 -48.5 13t-15.5 58v236h-2q-19 -35 -56 -63.5t-100 -28.5q-44 0 -83 18.5t-63.5 67.5t-24.5 140q0 144 64.5 210t173.5 66q36 0 70 -6.5t59 -16.5q24 -9 45 -26.5t21 -60.5v-560zM380 409q0 20 -23.5 36.5t-68.5 16.5
q-39 0 -68.5 -20t-45.5 -69.5t-16 -138.5q0 -68 14 -104t37.5 -49.5t51.5 -13.5q26 0 53.5 16t46.5 42t19 55v229z" />
    <glyph glyph-name="r" unicode="r" horiz-adv-x="395" 
d="M404 459q0 -18 -8.5 -28.5t-30.5 -10.5h-33q-54 0 -86.5 -18.5t-47 -47.5t-14.5 -59v-224q0 -45 -15.5 -58t-48.5 -13q-24 0 -32 12.5t-8 34.5v412q0 24 10.5 33.5t32.5 9.5q27 0 43 -21t16 -65v-25h2q12 19 32.5 45t52.5 46t76 20h12q26 0 36 -11.5t11 -31.5z" />
    <glyph glyph-name="s" unicode="s" horiz-adv-x="494" 
d="M349 122q0 30 -17.5 48t-47.5 31t-66 25q-46 16 -82.5 32.5t-58 42t-21.5 68.5q0 42 20 68.5t50.5 40.5t61.5 19t53 5q38 0 72 -6t58 -19q20 -10 36.5 -27t16.5 -40q0 -16 -12 -26t-27 -10q-22 0 -34 10t-20 26q-10 20 -29.5 36t-59.5 16q-34 0 -60 -17.5t-26 -56.5
q0 -27 16 -44t43.5 -29t61.5 -24q41 -14 81 -31.5t66.5 -43.5t26.5 -67q0 -45 -26.5 -78.5t-73 -52t-107.5 -18.5q-46 0 -84 9.5t-62 22.5q-20 11 -34.5 27.5t-14.5 38.5q0 17 13 27t26 10q22 0 35 -9.5t20 -26.5q10 -20 31.5 -39.5t71.5 -19.5q40 0 71.5 19t31.5 63z" />
    <glyph glyph-name="t" unicode="t" horiz-adv-x="426" 
d="M261 0q-60 0 -93 21t-46 56.5t-13 80.5v295h-60q-26 0 -26 23q0 13 13 18t33.5 14.5t43.5 34.5q24 25 33.5 44t17 30t22.5 11q18 0 22.5 -13t4.5 -42v-71h121q11 0 17.5 -7.5t6.5 -17.5q0 -9 -6.5 -16.5t-17.5 -7.5h-121v-318q0 -52 19.5 -71.5t40.5 -19.5q30 0 46 14
t25.5 33t19 33t26.5 14q26 0 26 -24q0 -8 -5 -20t-10 -18q-26 -39 -63 -57.5t-77 -18.5z" />
    <glyph glyph-name="u" unicode="u" horiz-adv-x="580" 
d="M184 170q0 -59 25.5 -81t59.5 -22q28 0 57.5 15t49.5 41.5t20 58.5v248q0 45 15.5 58.5t48.5 13.5q24 0 32 -12t8 -35v-412q0 -24 -10 -33.5t-33 -9.5q-27 0 -43 19t-16 67v7h-2q-25 -40 -69 -66.5t-106 -26.5q-141 0 -141 151v304q0 23 8 35t32 12q33 0 48.5 -18.5
t15.5 -63.5v-250z" />
    <glyph glyph-name="v" unicode="v" horiz-adv-x="432" 
d="M410 502q13 0 22.5 -5t9.5 -18q0 -16 -5 -27l-167 -427q-5 -13 -21.5 -19t-36.5 -6q-18 0 -33 6t-20 19l-164 427q-3 7 -4 13t-1 10q0 17 12 22t25 5q23 0 46 -15t36 -52l121 -337h5l68 181q20 53 30.5 88.5t20.5 72.5q7 24 18 43t38 19z" />
    <glyph glyph-name="w" unicode="w" horiz-adv-x="768" 
d="M400 502q28 0 38.5 -21.5t23.5 -72.5l81 -310h5l46 135q13 37 23 77t18.5 74.5t13.5 53.5q7 24 18.5 44t38.5 20q13 0 22.5 -5t9.5 -18q0 -16 -5 -27l-150 -427q-4 -13 -21 -19t-37 -6q-18 0 -33 6t-20 19l-86 312h-6l-106 -312q-4 -13 -21 -19t-37 -6q-18 0 -33 6
t-20 19l-128 427q-3 7 -4 13t-1 10q0 17 12 22t25 5q23 0 48 -14.5t34 -52.5l85 -337h5l46 136q13 38 23.5 77.5t19.5 73t15 52.5q12 39 22.5 52t34.5 13z" />
    <glyph glyph-name="x" unicode="x" horiz-adv-x="483" 
d="M194 244l-127 195q-8 13 -11 22.5t-3 16.5q0 14 11 19t21 5q32 0 50 -12.5t32 -37.5l87 -145h4l100 162q12 20 24.5 26.5t32.5 6.5q11 0 18 -4.5t7 -14.5q0 -7 -3 -15t-8 -16l-133 -185l140 -212q12 -19 12 -29t-8 -18t-29 -8q-36 0 -51 14t-28 34l-97 151h-2l-113 -170
q-10 -16 -23 -22.5t-35 -6.5q-27 0 -27 20q0 8 4 15.5t9 14.5z" />
    <glyph glyph-name="y" unicode="y" horiz-adv-x="512" 
d="M304 8q-15 -37 -34.5 -77t-44.5 -74.5t-56.5 -55.5t-69.5 -21q-20 0 -34 10.5t-14 25.5q0 25 15 35t39 10q28 0 50 9t36 28t23.5 42t18.5 51l-198 461q-3 7 -4 13t-1 10q0 17 12 22t25 5q23 0 45.5 -15.5t36.5 -51.5l131 -327h5l60 175q18 53 27.5 86t19.5 70
q7 24 19 43.5t39 19.5q13 0 22.5 -5t9.5 -18q0 -9 -1.5 -14.5t-3.5 -12.5z" />
    <glyph glyph-name="z" unicode="z" horiz-adv-x="474" 
d="M407 502q21 0 29 -9.5t8 -19.5q0 -13 -4.5 -24.5t-10.5 -19.5l-288 -382h204v24q0 41 12 52.5t43 11.5q22 0 29.5 -11t7.5 -31v-62q0 -17 -9 -24t-23 -7h-337q-22 0 -30 9.5t-8 19.5q0 13 4.5 24.5t10.5 19.5l286 382h-188v-24q0 -40 -12 -52t-43 -12q-22 0 -29.5 11
t-7.5 31v62q0 17 9 24t23 7h324z" />
    <glyph glyph-name="braceleft" unicode="{" horiz-adv-x="404" 
d="M177 -2q0 26 1 42.5t1.5 31t0.5 34.5t-4 45t-14 48.5t-26 38.5t-40 15q-8 0 -12 9t-4 19q0 11 4 19.5t12 8.5q24 0 40 15t26 38.5t14 48.5t4 45t-0.5 34.5t-1.5 31.5t-1 42q0 21 5.5 50.5t21.5 58.5t47.5 48t82.5 19q15 0 22.5 -7t7.5 -18q0 -10 -6.5 -18.5t-18.5 -11.5
q-32 -7 -50 -28.5t-18 -59.5q0 -15 1.5 -42.5t2.5 -54t1 -38.5q0 -61 -17 -108.5t-75 -70.5v-4q58 -23 75 -70.5t17 -108.5q0 -12 -1 -38.5t-2.5 -54t-1.5 -42.5q0 -38 18 -59t50 -29q12 -3 18.5 -11.5t6.5 -18.5t-7.5 -17.5t-22.5 -7.5q-51 0 -82.5 19t-47.5 48t-21.5 58.5
t-5.5 50.5z" />
    <glyph glyph-name="bar" unicode="|" horiz-adv-x="262" 
d="M90 715q0 12 12.5 18.5t28.5 6.5q15 0 28 -6.5t13 -18.5v-750q0 -13 -13 -19t-28 -6q-16 0 -28.5 6t-12.5 19v750z" />
    <glyph glyph-name="braceright" unicode="}" horiz-adv-x="404" 
d="M227 -2q0 -21 -5.5 -50.5t-21.5 -58.5t-47.5 -48t-82.5 -19q-15 0 -22.5 7.5t-7.5 17.5t6.5 18.5t18.5 11.5q32 8 50 29t18 59q0 15 -1 42.5t-2.5 54t-1.5 38.5q0 61 17 108.5t75 70.5v4q-58 23 -75 70.5t-17 108.5q0 12 1.5 38.5t2.5 54t1 42.5q0 38 -18 59.5t-50 28.5
q-12 3 -18.5 11.5t-6.5 18.5q0 11 7.5 18t22.5 7q51 0 82.5 -19t47.5 -48t21.5 -58.5t5.5 -50.5q0 -25 -0.5 -42t-1.5 -31.5t-1 -34.5t4 -45t14 -48.5t26 -38.5t40 -15q8 0 12 -8.5t4 -19.5q0 -10 -4 -19t-12 -9q-24 0 -40 -15t-26 -38.5t-14 -48.5t-4 -45t1 -34.5t1.5 -31
t0.5 -42.5z" />
    <glyph glyph-name="asciitilde" unicode="~" horiz-adv-x="731" 
d="M563 415q7 14 19 20t25 6q17 0 25.5 -7.5t8.5 -17.5q0 -7 -3 -16q-23 -59 -51.5 -87.5t-56.5 -36.5t-53 -8q-35 0 -67 12t-60 27t-52 27t-43 12q-33 0 -52.5 -16t-34.5 -50q-5 -12 -19.5 -18.5t-25.5 -6.5q-19 0 -26 7.5t-7 18.5q0 5 1.5 10.5t2.5 11.5q18 62 61.5 92
t94.5 30q35 0 67.5 -12t61.5 -27t55 -27t49 -12q27 0 45.5 16t34.5 52z" />
    <glyph glyph-name="uni00A0" unicode="&#xa0;" horiz-adv-x="300" 
 />
    <glyph glyph-name="exclamdown" unicode="&#xa1;" horiz-adv-x="308" 
d="M224 640q0 -28 -20.5 -49t-48.5 -21t-49 21t-21 49t21 48.5t49 20.5t48.5 -20.5t20.5 -48.5zM102 484q0 16 17 24t37 8t36 -7.5t16 -24.5v-434q0 -28 -13.5 -39t-36.5 -11q-31 0 -43.5 13t-12.5 38v433z" />
    <glyph glyph-name="cent" unicode="&#xa2;" horiz-adv-x="530" 
d="M432 126q10 11 25 11q8 0 15.5 -5.5t7.5 -15.5q0 -18 -13 -34q-25 -31 -61.5 -53.5t-91.5 -27.5v-88q0 -8 -10 -12t-22 -4t-22 4t-10 12v89q-70 7 -111.5 40.5t-60 87.5t-18.5 120q0 81 25 133.5t68 80.5t97 35v77q0 8 10 12t22 4t22 -4t10 -12v-75q54 -3 100 -29
q21 -13 38 -32t17 -45q0 -19 -14 -29t-28 -10q-23 0 -35 11.5t-19 30.5q-7 20 -20 38.5t-39 23.5v-415q34 4 56 18t36.5 32t25.5 31zM168 250q0 -80 18 -131t64 -68v404q-40 -13 -61 -60.5t-21 -144.5z" />
    <glyph glyph-name="sterling" unicode="&#xa3;" horiz-adv-x="530" 
d="M96 394v77q0 86 28.5 138t79.5 76t117 24q34 0 62 -5.5t60 -15.5q23 -7 32 -16.5t9 -32.5v-55q0 -50 -43 -50q-28 0 -41.5 14.5t-13.5 50.5v51q-17 4 -31 6t-34 2q-28 0 -56 -12.5t-46 -47.5t-18 -105v-99h181q11 0 16 -8.5t5 -19.5q0 -10 -5 -18.5t-16 -8.5h-181v-286
h211v64q0 36 15 50.5t43 14.5q22 0 31 -12t9 -38v-100q0 -18 -15.5 -25t-44.5 -7h-396q-10 0 -14.5 8t-4.5 18t4.5 18.5t14.5 8.5h42v286h-55q-10 0 -15.5 8.5t-5.5 18.5q0 11 5.5 19.5t15.5 8.5h55z" />
    <glyph glyph-name="currency" unicode="&#xa4;" horiz-adv-x="672" 
d="M535 595q5 5 12 5q14 0 29.5 -15.5t15.5 -29.5q0 -7 -5 -12l-67 -67q22 -31 32 -64.5t10 -67.5q0 -52 -17 -85.5t-26 -45.5l67 -67q5 -5 5 -13q0 -14 -15 -29t-29 -15q-9 0 -13 5l-67 67q-15 -10 -48.5 -26.5t-82.5 -16.5q-32 0 -66.5 11.5t-65.5 30.5l-67 -67
q-5 -5 -12 -5q-14 0 -29.5 15.5t-15.5 29.5q0 7 5 12l67 67q-10 14 -25.5 48.5t-15.5 83.5q0 50 15.5 83.5t25.5 48.5l-66 66q-5 4 -5 13q0 14 15 29t29 15q8 0 13 -5l67 -67q15 10 48.5 26t82.5 16t82.5 -16t48.5 -26zM336 498q-42 0 -77 -21t-56 -56t-21 -77t21 -77.5
t56 -56.5t77 -21q43 0 78 21t56 56t21 78q0 42 -21 77t-56 56t-78 21z" />
    <glyph glyph-name="yen" unicode="&#xa5;" horiz-adv-x="530" 
d="M212 210v58h-138q-10 0 -15.5 8.5t-5.5 18.5q0 11 5.5 19.5t15.5 8.5h111l-161 326q-6 14 -6 25q0 15 9.5 25t25.5 10q23 0 40.5 -10t32.5 -42l152 -314h4l145 313q13 29 27.5 41t30.5 12q14 0 20.5 -10t6.5 -23q0 -12 -5 -22l-164 -331h114q11 0 16 -8.5t5 -19.5
q0 -10 -5 -18.5t-16 -8.5h-141v-58h141q11 0 16 -8.5t5 -19.5q0 -10 -5 -18.5t-16 -8.5h-141v-95q0 -36 -14.5 -48t-44.5 -12q-45 0 -45 50v105h-138q-10 0 -15.5 8.5t-5.5 18.5q0 11 5.5 19.5t15.5 8.5h138z" />
    <glyph glyph-name="brokenbar" unicode="&#xa6;" horiz-adv-x="262" 
d="M90 715q0 12 12.5 18.5t28.5 6.5q15 0 28 -6.5t13 -18.5v-286q0 -13 -13 -19t-28 -6q-16 0 -28.5 6t-12.5 19v286zM90 251q0 12 12.5 18.5t28.5 6.5q15 0 28 -6.5t13 -18.5v-286q0 -13 -13 -19t-28 -6q-16 0 -28.5 6t-12.5 19v286z" />
    <glyph glyph-name="section" unicode="&#xa7;" horiz-adv-x="574" 
d="M152 4q27 0 41 -13.5t14 -48.5v-52q21 -6 61 -6q35 0 53.5 22.5t18.5 55.5q0 38 -20 64t-48.5 46t-54.5 38q-43 31 -73.5 57.5t-47 55t-16.5 66.5q0 44 22.5 81t77.5 86q-20 20 -33.5 49.5t-13.5 67.5q0 33 15.5 64.5t53 51.5t101.5 20q22 0 49.5 -2.5t52.5 -10t41 -20.5
t16 -34v-56q0 -48 -41 -48q-27 0 -40.5 14t-13.5 48v52q-21 6 -63 6q-70 0 -70 -71q0 -34 18 -61.5t47.5 -51t61.5 -47.5q44 -31 73.5 -56.5t44.5 -52t15 -60.5q0 -49 -29 -90.5t-76 -81.5q18 -20 34 -45.5t16 -65.5q0 -34 -18 -66.5t-55.5 -54t-97.5 -21.5q-22 0 -48.5 2.5
t-51 10t-40.5 20.5t-16 34v56q0 48 40 48zM222 414q-19 -15 -39.5 -41.5t-20.5 -65.5q0 -26 19 -50.5t48 -47t61.5 -43.5t59.5 -40q23 20 43 46.5t20 55.5q0 25 -18.5 48t-48 45.5t-62.5 45t-62 47.5z" />
    <glyph glyph-name="dieresis" unicode="&#xa8;" horiz-adv-x="600" 
d="M50 628q0 25 18 43t43 18t43 -18t18 -43t-18 -43t-43 -18t-43 18t-18 43zM246 628q0 25 18 43t43 18t43 -18t18 -43t-18 -43t-43 -18t-43 18t-18 43z" />
    <glyph glyph-name="copyright" unicode="&#xa9;" horiz-adv-x="840" 
d="M50 355q0 77 29 143t79.5 115.5t118 77.5t143.5 28q77 0 144 -28t118 -77.5t79.5 -115.5t28.5 -143q0 -76 -28.5 -142.5t-79.5 -116t-118 -77.5t-144 -28q-76 0 -143.5 28t-118 77.5t-79.5 116t-29 142.5zM114 355q0 -64 23.5 -120.5t65.5 -99.5t97.5 -67.5t119.5 -24.5
t119.5 24.5t97.5 67.5t65.5 99.5t23.5 120.5t-23.5 120.5t-65.5 99.5t-97.5 67.5t-119.5 24.5t-119.5 -24.5t-97.5 -67.5t-65.5 -99.5t-23.5 -120.5zM523 429q-49 0 -49 46v36q-7 2 -14 3t-12 1q-46 0 -73.5 -37.5t-27.5 -124.5q0 -64 14.5 -98t37 -46t46.5 -12
q23 0 38.5 5.5t26.5 10.5q8 4 18.5 9t18.5 5q11 0 17.5 -6t6.5 -14q0 -4 -3.5 -12t-20.5 -16q-20 -9 -44.5 -16t-64.5 -7q-95 0 -142.5 51t-47.5 147q0 74 25.5 117.5t69 62.5t98.5 19q26 0 54.5 -4t48.5 -14t20 -28v-40q0 -38 -41 -38z" />
    <glyph glyph-name="ordfeminine" unicode="&#xaa;" horiz-adv-x="412" 
d="M321 348q-24 0 -35 14t-14 41q-46 -55 -121 -55q-59 0 -87.5 28.5t-28.5 71.5q0 32 15.5 60t56 46t115.5 18h47v17q0 47 -16.5 66t-49.5 19q-16 0 -31.5 -10t-25.5 -19q-10 -11 -22.5 -18t-26.5 -7q-18 0 -25.5 8t-7.5 18q0 16 12.5 26t31.5 18q24 10 54.5 14.5t54.5 4.5
q83 0 111.5 -33.5t28.5 -98.5v-192q0 -18 -6.5 -27.5t-29.5 -9.5zM234 536q-64 0 -87.5 -23t-23.5 -57q0 -31 16 -43.5t40 -12.5q16 0 37 9t37 27t16 45v55h-35z" />
    <glyph glyph-name="guillemotleft" unicode="&#xab;" horiz-adv-x="552" 
d="M181 235l149 -190q5 -7 5 -13q0 -12 -13.5 -22t-26.5 -10q-10 0 -15 6l-202 209q-8 8 -8 20t8 20l202 213q6 6 15 6q13 0 26.5 -9.5t13.5 -22.5q0 -6 -5 -13zM378 226l101 -146q3 -4 3 -9q0 -13 -15 -21t-27 -8q-7 0 -10 4l-142 158q-9 11 -9 22q0 13 9 23l142 164
q4 4 10 4q13 0 27.5 -8t14.5 -21q0 -4 -3 -9z" />
    <glyph glyph-name="logicalnot" unicode="&#xac;" horiz-adv-x="770" 
d="M658 393q17 0 24.5 -11t7.5 -23v-198q0 -10 -13 -15t-28 -5q-16 0 -28.5 5t-12.5 15v157h-529q-10 0 -14.5 12t-4.5 25q0 14 4.5 26t14.5 12h579z" />
    <glyph glyph-name="uni00AD" unicode="&#xad;" horiz-adv-x="437" 
d="M70 215q-10 0 -15 12.5t-5 27.5t5 27.5t15 12.5h297q10 0 15 -12.5t5 -27.5t-5 -27.5t-15 -12.5h-297z" />
    <glyph glyph-name="registered" unicode="&#xae;" horiz-adv-x="840" 
d="M50 355q0 77 29 143t79.5 115.5t118 77.5t143.5 28q77 0 144 -28t118 -77.5t79.5 -115.5t28.5 -143q0 -76 -28.5 -142.5t-79.5 -116t-118 -77.5t-144 -28q-76 0 -143.5 28t-118 77.5t-79.5 116t-29 142.5zM114 355q0 -64 23.5 -120.5t65.5 -99.5t97.5 -67.5t119.5 -24.5
t119.5 24.5t97.5 67.5t65.5 99.5t23.5 120.5t-23.5 120.5t-65.5 99.5t-97.5 67.5t-119.5 24.5t-119.5 -24.5t-97.5 -67.5t-65.5 -99.5t-23.5 -120.5zM279 521q0 18 9 25t31 7h106q41 0 76.5 -9t57.5 -33t22 -69q0 -40 -30 -68.5t-66 -36.5l88 -141q3 -6 5 -10.5t2 -8.5
q0 -21 -44 -21q-15 0 -29 5.5t-22 17.5l-92 151h-21v-133q0 -23 -12.5 -32t-38.5 -9q-42 0 -42 32v333zM372 515v-146h43q23 0 47 16.5t24 59.5q0 32 -11.5 47t-27 19t-28.5 4h-47z" />
    <glyph glyph-name="macron" unicode="&#xaf;" horiz-adv-x="552" 
d="M149 597q-10 0 -17 8.5t-7 21.5q0 14 7 22.5t17 8.5h254q9 0 16.5 -8.5t7.5 -22.5q0 -30 -24 -30h-254z" />
    <glyph glyph-name="degree" unicode="&#xb0;" horiz-adv-x="332" 
d="M50 608q0 33 16 59.5t42.5 42t58.5 15.5t58 -15.5t41.5 -42t15.5 -59.5q0 -31 -15.5 -57t-41.5 -41.5t-58 -15.5t-58.5 15.5t-42.5 41.5t-16 57zM105 607q0 -23 18 -41t43 -18t43 18t18 41q0 31 -20.5 47.5t-40.5 16.5q-25 0 -43 -19.5t-18 -44.5z" />
    <glyph glyph-name="plusminus" unicode="&#xb1;" horiz-adv-x="720" 
d="M110 393q-10 0 -15 12.5t-5 27.5t5 27.5t15 12.5h210v175q0 10 12.5 15t27.5 5t27.5 -5t12.5 -15v-175h210q10 0 15 -12.5t5 -27.5t-5 -27.5t-15 -12.5h-210v-175q0 -10 -12.5 -15t-27.5 -5t-27.5 5t-12.5 15v175h-210zM110 61q-10 0 -15 12.5t-5 27.5t5 27.5t15 12.5
h500q10 0 15 -12.5t5 -27.5t-5 -27.5t-15 -12.5h-500z" />
    <glyph glyph-name="uni00B2" unicode="&#xb2;" horiz-adv-x="360" 
d="M71 581q-34 0 -34 32v34q0 10 4 14.5t14 11.5q31 19 59 27.5t61 8.5q65 0 93 -31.5t28 -72.5q0 -33 -18 -69.5t-60 -82t-115 -105.5h123v28q0 22 10.5 31t30.5 9q33 0 33 -31v-56q0 -21 -45 -21h-199q-25 0 -25 19q0 5 3.5 11.5t15.5 17.5q73 68 106 116t42.5 79t9.5 46
q0 16 -4.5 33t-16 29.5t-33.5 12.5q-18 0 -42 -12v-38q0 -22 -9 -31.5t-32 -9.5z" />
    <glyph glyph-name="uni00B3" unicode="&#xb3;" horiz-adv-x="360" 
d="M76 434q23 0 32 -8.5t9 -30.5v-41q21 -10 48 -10q26 0 45 19t19 61q0 45 -19.5 59t-50.5 14h-17q-8 0 -14 6.5t-6 13.5q0 8 6 14t14 6h17q59 0 59 72q0 35 -15 49t-37 14q-9 0 -21.5 -2.5t-21.5 -7.5v-39q0 -22 -9.5 -31.5t-31.5 -9.5q-34 0 -34 32v34q0 17 19 28
q27 17 54 25t59 8q65 0 94 -29t29 -71q0 -35 -20.5 -57.5t-50.5 -30.5v-1q35 -7 59 -29t24 -67q0 -52 -39 -84t-104 -32q-28 0 -56 6.5t-55 22.5q-10 6 -14 14t-4 18v33q0 32 33 32z" />
    <glyph glyph-name="acute" unicode="&#xb4;" horiz-adv-x="605" 
d="M294 586q-13 -16 -37 -16q-11 0 -19 5t-8 14q0 5 2 9l52 125q6 14 22.5 20t34.5 6q25 0 39.5 -6.5t14.5 -17.5q0 -6 -3 -9z" />
    <glyph glyph-name="uni00B5" unicode="&#xb5;" horiz-adv-x="580" 
d="M184 176q0 -39 16.5 -60.5t40.5 -30t46 -8.5q25 0 50 12t42 35t17 55v251q0 45 15.5 58.5t48.5 13.5q24 0 32 -12t8 -35v-412q0 -24 -10 -33.5t-33 -9.5q-27 0 -43 15t-16 63v7h-2q-13 -32 -42 -58.5t-79 -26.5q-59 0 -86 39h-5v-188q0 -45 -15.5 -58t-48.5 -13
q-24 0 -32 12.5t-8 34.5v628q0 23 8 35t32 12q33 0 48.5 -18.5t15.5 -63.5v-244z" />
    <glyph glyph-name="paragraph" unicode="&#xb6;" horiz-adv-x="472" 
d="M258 -160q0 -9 -10.5 -13t-24.5 -4q-13 0 -23.5 4t-10.5 13v551q-58 3 -95.5 26t-55.5 58t-18 75t18 76t55.5 59.5t95.5 23.5h69v-869zM392 -160q0 -9 -10.5 -13t-24.5 -4q-13 0 -23.5 4t-10.5 13v869h23q46 0 46 -50v-819z" />
    <glyph glyph-name="periodcentered" unicode="&#xb7;" horiz-adv-x="332" 
d="M90 254q0 35 22.5 57t53.5 22q32 0 54 -22t22 -57q0 -33 -22 -55t-54 -22q-31 0 -53.5 22t-22.5 55z" />
    <glyph glyph-name="cedilla" unicode="&#xb8;" horiz-adv-x="402" 
d="M201 -38q26 0 49 -6t37.5 -22t14.5 -46q0 -40 -31.5 -63t-79.5 -23q-17 0 -38.5 4.5t-37 13.5t-15.5 23q0 8 5.5 13.5t15.5 5.5q11 0 26.5 -5.5t31.5 -5.5q26 0 36.5 11t10.5 23q0 27 -20 33.5t-57 6.5v85h52v-48z" />
    <glyph glyph-name="uni00B9" unicode="&#xb9;" horiz-adv-x="360" 
d="M105 636q-7 -3 -17 -3q-13 0 -20 5.5t-7 12.5q0 4 4 10.5t16 10.5l79 31q8 3 17.5 4.5t16.5 1.5q23 0 31.5 -7.5t8.5 -24.5v-329h37q22 0 28 -6.5t6 -14.5q0 -7 -4.5 -13t-24.5 -6h-166q-19 0 -24 6t-5 13q0 8 6 14.5t28 6.5h36v305z" />
    <glyph glyph-name="ordmasculine" unicode="&#xba;" horiz-adv-x="412" 
d="M206 348q-79 0 -125 44.5t-46 135.5q0 95 47.5 138t123.5 43q77 0 124 -43t47 -138q0 -91 -45.5 -135.5t-125.5 -44.5zM206 383q23 0 41 11.5t28 43t10 90.5q0 60 -10.5 91.5t-28.5 43t-40 11.5q-21 0 -39 -11.5t-28.5 -43t-10.5 -91.5q0 -59 10 -90.5t28 -43t40 -11.5z
" />
    <glyph glyph-name="guillemotright" unicode="&#xbb;" horiz-adv-x="552" 
d="M222 429q-5 7 -5 13q0 13 13.5 22.5t26.5 9.5q9 0 15 -6l202 -213q8 -8 8 -20t-8 -20l-202 -209q-4 -6 -15 -6q-13 0 -26.5 10t-13.5 22q0 6 5 13l149 190zM73 379q-3 5 -3 9q0 13 14.5 21t27.5 8q6 0 10 -4l142 -164q9 -10 9 -23q0 -11 -9 -22l-142 -158q-3 -4 -10 -4
q-12 0 -27 8t-15 21q0 5 3 9l101 146z" />
    <glyph glyph-name="onequarter" unicode="&#xbc;" horiz-adv-x="800" 
d="M593 725q3 5 12 5q12 0 27 -9t15 -19q0 -3 -1 -4l-423 -713q-2 -5 -11 -5q-13 0 -27.5 9.5t-14.5 19.5q0 3 1 5zM94 636q-7 -3 -17 -3q-13 0 -20 5.5t-7 12.5q0 4 4 10.5t16 10.5l79 31q8 3 17.5 4.5t16.5 1.5q23 0 31.5 -7.5t8.5 -24.5v-329h37q22 0 28 -6.5t6 -14.5
q0 -7 -4.5 -13t-24.5 -6h-166q-19 0 -24 6t-5 13q0 8 6 14.5t28 6.5h36v305zM590 40v59h-151q-17 0 -22.5 5t-5.5 12q0 2 1 6.5t5 9.5l166 246q8 13 21.5 18t28.5 5q39 0 39 -32v-232h25q23 0 28 -6.5t5 -14.5q0 -6 -4.5 -11.5t-24.5 -5.5h-29v-59h21q22 0 28 -6.5t6 -14.5
q0 -7 -4.5 -13t-24.5 -6h-143q-18 0 -24.5 6t-6.5 13q0 8 7.5 14.5t29.5 6.5h29zM590 306l-111 -169h111v169z" />
    <glyph glyph-name="onehalf" unicode="&#xbd;" horiz-adv-x="800" 
d="M583 725q3 5 12 5q12 0 27 -9t15 -19q0 -3 -1 -4l-423 -713q-2 -5 -11 -5q-13 0 -27.5 9.5t-14.5 19.5q0 3 1 5zM84 636q-7 -3 -17 -3q-13 0 -20 5.5t-7 12.5q0 4 4 10.5t16 10.5l79 31q8 3 17.5 4.5t16.5 1.5q23 0 31.5 -7.5t8.5 -24.5v-329h37q22 0 28 -6.5t6 -14.5
q0 -7 -4.5 -13t-24.5 -6h-166q-19 0 -24 6t-5 13q0 8 6 14.5t28 6.5h36v305zM521 273q-34 0 -34 32v34q0 10 4 14.5t14 11.5q31 19 59 27.5t61 8.5q65 0 93 -31.5t28 -72.5q0 -33 -18 -69.5t-60 -82t-115 -105.5h123v28q0 22 10.5 31t30.5 9q33 0 33 -31v-56q0 -21 -45 -21
h-199q-25 0 -25 19q0 5 3.5 11.5t15.5 17.5q73 68 106 116t42.5 79t9.5 46q0 16 -4.5 33t-16 29.5t-33.5 12.5q-18 0 -42 -12v-38q0 -22 -9 -31.5t-32 -9.5z" />
    <glyph glyph-name="threequarters" unicode="&#xbe;" horiz-adv-x="800" 
d="M603 725q3 5 12 5q12 0 27 -9t15 -19q0 -3 -1 -4l-423 -713q-2 -5 -11 -5q-13 0 -27.5 9.5t-14.5 19.5q0 3 1 5zM83 434q23 0 32 -8.5t9 -30.5v-41q21 -10 48 -10q26 0 45 19t19 61q0 45 -19.5 59t-50.5 14h-17q-8 0 -14 6.5t-6 13.5q0 8 6 14t14 6h17q59 0 59 72
q0 35 -15 49t-37 14q-9 0 -21.5 -2.5t-21.5 -7.5v-39q0 -22 -9.5 -31.5t-31.5 -9.5q-34 0 -34 32v34q0 17 19 28q27 17 54 25t59 8q65 0 94 -29t29 -71q0 -35 -20.5 -57.5t-50.5 -30.5v-1q35 -7 59 -29t24 -67q0 -52 -39 -84t-104 -32q-28 0 -56 6.5t-55 22.5q-10 6 -14 14
t-4 18v33q0 32 33 32zM600 40v59h-151q-17 0 -22.5 5t-5.5 12q0 2 1 6.5t5 9.5l166 246q8 13 21.5 18t28.5 5q39 0 39 -32v-232h25q23 0 28 -6.5t5 -14.5q0 -6 -4.5 -11.5t-24.5 -5.5h-29v-59h21q22 0 28 -6.5t6 -14.5q0 -7 -4.5 -13t-24.5 -6h-143q-18 0 -24.5 6t-6.5 13
q0 8 7.5 14.5t29.5 6.5h29zM600 306l-111 -169h111v169z" />
    <glyph glyph-name="questiondown" unicode="&#xbf;" horiz-adv-x="470" 
d="M329 640q0 -28 -20.5 -49t-48.5 -21t-49 21t-21 49t21 48.5t49 20.5t48.5 -20.5t20.5 -48.5zM397 205q43 0 43 -50v-58q0 -18 -6 -27.5t-19 -17.5q-43 -27 -85.5 -39.5t-89.5 -12.5q-77 0 -121 24.5t-61.5 60t-17.5 67.5q0 49 19 81t47.5 59t54.5 60q25 31 40 60.5
t15 75.5q0 14 15.5 21t32.5 7t30 -6.5t13 -21.5q0 -41 -8.5 -70t-22 -52t-30.5 -47q-21 -31 -42.5 -54t-36 -49t-14.5 -67q0 -56 28 -77t78 -21q23 0 44 6t41 15v68q0 36 12.5 50.5t40.5 14.5z" />
    <glyph glyph-name="Agrave" unicode="&#xc0;" horiz-adv-x="617" 
d="M103 53q-13 -35 -30 -44t-31 -9t-20.5 8t-6.5 19q0 12 5 25l235 633q5 12 20.5 18t34.5 6q20 0 38.5 -6.5t22.5 -20.5l229 -634q1 -4 1.5 -7.5t0.5 -7.5q0 -13 -8.5 -23t-30.5 -10q-9 0 -23.5 3.5t-28.5 15t-23 34.5l-53 137h-281zM299 591h-6l-123 -349h250zM195 929
q-3 5 -3 10q0 24 56 24q19 0 36.5 -6t22.5 -20l57 -142q2 -4 2 -10q0 -9 -8 -14t-20 -5q-24 0 -37 16z" />
    <glyph glyph-name="Aacute" unicode="&#xc1;" horiz-adv-x="617" 
d="M103 53q-13 -35 -30 -44t-31 -9t-20.5 8t-6.5 19q0 12 5 25l235 633q5 12 20.5 18t34.5 6q20 0 38.5 -6.5t22.5 -20.5l229 -634q1 -4 1.5 -7.5t0.5 -7.5q0 -13 -8.5 -23t-30.5 -10q-9 0 -23.5 3.5t-28.5 15t-23 34.5l-53 137h-281zM299 591h-6l-123 -349h250zM326 782
q-5 -7 -15.5 -11.5t-21.5 -4.5q-16 0 -23.5 8t-2.5 21l57 142q6 14 23 20t36 6q29 0 46.5 -9.5t6.5 -24.5z" />
    <glyph glyph-name="Acircumflex" unicode="&#xc2;" horiz-adv-x="617" 
d="M103 53q-13 -35 -30 -44t-31 -9t-20.5 8t-6.5 19q0 12 5 25l235 633q5 12 20.5 18t34.5 6q20 0 38.5 -6.5t22.5 -20.5l229 -634q1 -4 1.5 -7.5t0.5 -7.5q0 -13 -8.5 -23t-30.5 -10q-9 0 -23.5 3.5t-28.5 15t-23 34.5l-53 137h-281zM299 591h-6l-123 -349h250zM309 846
l-52 -52q-16 -16 -33 -23t-32 -7q-16 0 -27 6.5t-11 14.5q0 5 4 9l102 106q8 9 21.5 13.5t27.5 4.5t27.5 -4.5t21.5 -13.5l102 -106q4 -4 4 -9q0 -8 -10.5 -14.5t-27.5 -6.5q-15 0 -32 7t-33 23z" />
    <glyph glyph-name="Atilde" unicode="&#xc3;" horiz-adv-x="617" 
d="M103 53q-13 -35 -30 -44t-31 -9t-20.5 8t-6.5 19q0 12 5 25l235 633q5 12 20.5 18t34.5 6q20 0 38.5 -6.5t22.5 -20.5l229 -634q1 -4 1.5 -7.5t0.5 -7.5q0 -13 -8.5 -23t-30.5 -10q-9 0 -23.5 3.5t-28.5 15t-23 34.5l-53 137h-281zM299 591h-6l-123 -349h250zM242 813
q-16 0 -23 -6.5t-10 -14.5t-8 -14.5t-19 -6.5q-17 0 -22.5 6t-5.5 14q0 18 11.5 40t34 38t54.5 16q8 -1 23 -3.5t40 -11.5q17 -7 31.5 -12.5t30.5 -5.5q14 0 20 5t10 12l10 16t22 8q12 0 17 -5.5t5 -13.5q0 -13 -7 -27q-16 -37 -39 -52t-46 -15q-20 0 -36 5t-33 12
q-24 9 -37 12.5t-23 3.5z" />
    <glyph glyph-name="Adieresis" unicode="&#xc4;" horiz-adv-x="617" 
d="M103 53q-13 -35 -30 -44t-31 -9t-20.5 8t-6.5 19q0 12 5 25l235 633q5 12 20.5 18t34.5 6q20 0 38.5 -6.5t22.5 -20.5l229 -634q1 -4 1.5 -7.5t0.5 -7.5q0 -13 -8.5 -23t-30.5 -10q-9 0 -23.5 3.5t-28.5 15t-23 34.5l-53 137h-281zM299 591h-6l-123 -349h250zM137 852
q0 28 21 48.5t46 20.5q29 0 49.5 -20.5t20.5 -48.5q0 -26 -20.5 -47t-49.5 -21q-25 0 -46 21t-21 47zM344 851q0 29 20.5 49t47.5 20t48 -20t21 -49q0 -26 -21 -47t-48 -21t-47.5 21t-20.5 47z" />
    <glyph glyph-name="Aring" unicode="&#xc5;" horiz-adv-x="617" 
d="M103 53q-13 -35 -30 -44t-31 -9t-20.5 8t-6.5 19q0 12 5 25l235 633q5 12 20.5 18t34.5 6q20 0 38.5 -6.5t22.5 -20.5l229 -634q1 -4 1.5 -7.5t0.5 -7.5q0 -13 -8.5 -23t-30.5 -10q-9 0 -23.5 3.5t-28.5 15t-23 34.5l-53 137h-281zM299 591h-6l-123 -349h250zM201 869
q0 46 31 77t77 31q45 0 76.5 -31t31.5 -77q0 -45 -31.5 -76.5t-76.5 -31.5q-46 0 -77 31.5t-31 76.5zM256 869q0 -21 16 -36.5t37 -15.5q20 0 36 15.5t16 36.5t-16 37t-36 16q-21 0 -37 -16t-16 -37z" />
    <glyph glyph-name="AE" unicode="&#xc6;" horiz-adv-x="838" 
d="M103 53q-13 -35 -30 -44t-31 -9q-20 0 -25 16t3 36l325 633q5 11 14 17.5t24 6.5h340q29 0 44.5 -7t15.5 -30v-87q0 -50 -43 -50q-28 0 -43 14.5t-15 50.5v56h-187v-262h160q14 0 21 -8.5t7 -19.5q0 -10 -8.5 -18.5t-19.5 -8.5h-160v-286h202v56q0 36 15 50.5t43 14.5
q43 0 43 -50v-87q0 -22 -15.5 -29.5t-44.5 -7.5h-305q-46 0 -46 50v140h-213zM383 591l-182 -349h186v349h-4z" />
    <glyph glyph-name="Ccedilla" unicode="&#xc7;" horiz-adv-x="581" 
d="M503 529q-28 0 -43 14.5t-15 50.5v56q-17 4 -35 6t-38 2q-92 0 -149 -77.5t-57 -234.5q0 -115 26 -179t74 -89.5t113 -25.5q31 0 65 8t66 21l19 8q2 1 4 1.5t4 0.5q11 0 17.5 -9.5t6.5 -20.5q0 -14 -13 -20l-17 -7q-37 -15 -78.5 -24.5t-101.5 -9.5q-104 0 -170 42
t-97 120t-31 186q0 125 40.5 205t110 118t155.5 38q38 0 74.5 -5t71.5 -16q23 -7 32 -16.5t9 -32.5v-60q0 -50 -43 -50zM378 -38q26 0 49 -6t37.5 -22t14.5 -46q0 -40 -31.5 -63t-79.5 -23q-17 0 -38.5 4.5t-37 13.5t-15.5 23q0 8 5.5 13.5t15.5 5.5q11 0 26.5 -5.5
t31.5 -5.5q26 0 36.5 11t10.5 23q0 27 -20 33.5t-57 6.5v85h52v-48z" />
    <glyph glyph-name="Egrave" unicode="&#xc8;" horiz-adv-x="601" 
d="M503 535q-28 0 -43 14.5t-15 50.5v56h-237v-262h210q14 0 21 -8.5t7 -19.5q0 -10 -8.5 -18.5t-19.5 -8.5h-210v-286h252v56q0 36 15 50.5t43 14.5q43 0 43 -50v-87q0 -22 -15.5 -29.5t-44.5 -7.5h-355q-46 0 -46 50v609q0 50 46 50h340q29 0 44.5 -7t15.5 -30v-87
q0 -50 -43 -50zM233 929q-3 5 -3 10q0 24 56 24q19 0 36.5 -6t22.5 -20l57 -142q2 -4 2 -10q0 -9 -8 -14t-20 -5q-24 0 -37 16z" />
    <glyph glyph-name="Eacute" unicode="&#xc9;" horiz-adv-x="601" 
d="M503 535q-28 0 -43 14.5t-15 50.5v56h-237v-262h210q14 0 21 -8.5t7 -19.5q0 -10 -8.5 -18.5t-19.5 -8.5h-210v-286h252v56q0 36 15 50.5t43 14.5q43 0 43 -50v-87q0 -22 -15.5 -29.5t-44.5 -7.5h-355q-46 0 -46 50v609q0 50 46 50h340q29 0 44.5 -7t15.5 -30v-87
q0 -50 -43 -50zM364 782q-5 -7 -15.5 -11.5t-21.5 -4.5q-16 0 -23.5 8t-2.5 21l57 142q6 14 23 20t36 6q29 0 46.5 -9.5t6.5 -24.5z" />
    <glyph glyph-name="Ecircumflex" unicode="&#xca;" horiz-adv-x="601" 
d="M503 535q-28 0 -43 14.5t-15 50.5v56h-237v-262h210q14 0 21 -8.5t7 -19.5q0 -10 -8.5 -18.5t-19.5 -8.5h-210v-286h252v56q0 36 15 50.5t43 14.5q43 0 43 -50v-87q0 -22 -15.5 -29.5t-44.5 -7.5h-355q-46 0 -46 50v609q0 50 46 50h340q29 0 44.5 -7t15.5 -30v-87
q0 -50 -43 -50zM347 846l-52 -52q-16 -16 -33 -23t-32 -7q-16 0 -27 6.5t-11 14.5q0 5 4 9l102 106q8 9 21.5 13.5t27.5 4.5t27.5 -4.5t21.5 -13.5l102 -106q4 -4 4 -9q0 -8 -10.5 -14.5t-27.5 -6.5q-15 0 -32 7t-33 23z" />
    <glyph glyph-name="Edieresis" unicode="&#xcb;" horiz-adv-x="601" 
d="M503 535q-28 0 -43 14.5t-15 50.5v56h-237v-262h210q14 0 21 -8.5t7 -19.5q0 -10 -8.5 -18.5t-19.5 -8.5h-210v-286h252v56q0 36 15 50.5t43 14.5q43 0 43 -50v-87q0 -22 -15.5 -29.5t-44.5 -7.5h-355q-46 0 -46 50v609q0 50 46 50h340q29 0 44.5 -7t15.5 -30v-87
q0 -50 -43 -50zM175 852q0 28 21 48.5t46 20.5q29 0 49.5 -20.5t20.5 -48.5q0 -26 -20.5 -47t-49.5 -21q-25 0 -46 21t-21 47zM382 851q0 29 20.5 49t47.5 20t48 -20t21 -49q0 -26 -21 -47t-48 -21t-47.5 21t-20.5 47z" />
    <glyph glyph-name="Igrave" unicode="&#xcc;" horiz-adv-x="408" 
d="M50 0q-19 0 -24.5 7.5t-5.5 16.5q0 11 7.5 20t32.5 9h90v603h-90q-25 0 -32.5 9t-7.5 20q0 9 5.5 16.5t24.5 7.5h308q20 0 25 -7.5t5 -16.5q0 -11 -7 -20t-33 -9h-90v-603h90q26 0 33 -9t7 -20q0 -9 -5 -16.5t-25 -7.5h-308zM90 929q-3 5 -3 10q0 24 56 24q19 0 36.5 -6
t22.5 -20l57 -142q2 -4 2 -10q0 -9 -8 -14t-20 -5q-24 0 -37 16z" />
    <glyph glyph-name="Iacute" unicode="&#xcd;" horiz-adv-x="408" 
d="M50 0q-19 0 -24.5 7.5t-5.5 16.5q0 11 7.5 20t32.5 9h90v603h-90q-25 0 -32.5 9t-7.5 20q0 9 5.5 16.5t24.5 7.5h308q20 0 25 -7.5t5 -16.5q0 -11 -7 -20t-33 -9h-90v-603h90q26 0 33 -9t7 -20q0 -9 -5 -16.5t-25 -7.5h-308zM221 782q-5 -7 -15.5 -11.5t-21.5 -4.5
q-16 0 -23.5 8t-2.5 21l57 142q6 14 23 20t36 6q29 0 46.5 -9.5t6.5 -24.5z" />
    <glyph glyph-name="Icircumflex" unicode="&#xce;" horiz-adv-x="408" 
d="M50 0q-19 0 -24.5 7.5t-5.5 16.5q0 11 7.5 20t32.5 9h90v603h-90q-25 0 -32.5 9t-7.5 20q0 9 5.5 16.5t24.5 7.5h308q20 0 25 -7.5t5 -16.5q0 -11 -7 -20t-33 -9h-90v-603h90q26 0 33 -9t7 -20q0 -9 -5 -16.5t-25 -7.5h-308zM204 846l-52 -52q-16 -16 -33 -23t-32 -7
q-16 0 -27 6.5t-11 14.5q0 5 4 9l102 106q8 9 21.5 13.5t27.5 4.5t27.5 -4.5t21.5 -13.5l102 -106q4 -4 4 -9q0 -8 -10.5 -14.5t-27.5 -6.5q-15 0 -32 7t-33 23z" />
    <glyph glyph-name="Idieresis" unicode="&#xcf;" horiz-adv-x="408" 
d="M50 0q-19 0 -24.5 7.5t-5.5 16.5q0 11 7.5 20t32.5 9h90v603h-90q-25 0 -32.5 9t-7.5 20q0 9 5.5 16.5t24.5 7.5h308q20 0 25 -7.5t5 -16.5q0 -11 -7 -20t-33 -9h-90v-603h90q26 0 33 -9t7 -20q0 -9 -5 -16.5t-25 -7.5h-308zM32 852q0 28 21 48.5t46 20.5
q29 0 49.5 -20.5t20.5 -48.5q0 -26 -20.5 -47t-49.5 -21q-25 0 -46 21t-21 47zM239 851q0 29 20.5 49t47.5 20t48 -20t21 -49q0 -26 -21 -47t-48 -21t-47.5 21t-20.5 47z" />
    <glyph glyph-name="Eth" unicode="&#xd0;" horiz-adv-x="693" 
d="M100 394v265q0 50 46 50h143q44 0 92.5 -7.5t94.5 -28t83 -59.5t59 -101.5t22 -154.5q0 -85 -22.5 -146t-60 -102t-83 -65t-92.5 -34.5t-88 -10.5h-148q-46 0 -46 50v289h-64q-10 0 -15.5 8.5t-5.5 18.5q0 11 5.5 19.5t15.5 8.5h64zM208 656v-262h169q11 0 16 -8.5
t5 -19.5q0 -10 -5 -18.5t-16 -8.5h-169v-286h22v1h47q69 0 126 31t90.5 98t33.5 175q0 111 -33.5 176t-90.5 93.5t-126 28.5h-69z" />
    <glyph glyph-name="Ntilde" unicode="&#xd1;" horiz-adv-x="743" 
d="M138 0q-14 0 -26 10t-12 35v610q0 26 18 40t42 14q20 0 38 -8t34 -34l327 -519h5v505q0 32 14 44t27 12q14 0 26 -10t12 -35v-606q0 -29 -17.5 -43.5t-40.5 -14.5q-25 0 -43 10.5t-30 29.5l-327 521h-6v-505q0 -32 -13.5 -44t-27.5 -12zM305 813q-16 0 -23 -6.5
t-10 -14.5t-8 -14.5t-19 -6.5q-17 0 -22.5 6t-5.5 14q0 18 11.5 40t34 38t54.5 16q8 -1 23 -3.5t40 -11.5q17 -7 31.5 -12.5t30.5 -5.5q14 0 20 5t10 12l10 16t22 8q12 0 17 -5.5t5 -13.5q0 -13 -7 -27q-16 -37 -39 -52t-46 -15q-20 0 -36 5t-33 12q-24 9 -37 12.5t-23 3.5z
" />
    <glyph glyph-name="Ograve" unicode="&#xd2;" horiz-adv-x="716" 
d="M663 354q0 -33 -6 -78.5t-23.5 -93.5t-51 -89t-88.5 -67t-137 -26t-137 26t-88 67t-50.5 89t-23 93.5t-5.5 78.5q0 32 5.5 77.5t23 93.5t50.5 90t88 68t137 26t137 -26t88.5 -68t51 -90t23.5 -93.5t6 -77.5zM550 354q0 30 -3.5 70t-14 80.5t-31.5 75.5t-56 56.5t-88 21.5
q-52 0 -86.5 -21.5t-55.5 -56.5t-31.5 -75.5t-14 -80.5t-3.5 -70t3.5 -69.5t14 -80.5t31.5 -75.5t55.5 -56t86.5 -21.5q53 0 88 21.5t56 56t31.5 75.5t14 80.5t3.5 69.5zM244 929q-3 5 -3 10q0 24 56 24q19 0 36.5 -6t22.5 -20l57 -142q2 -4 2 -10q0 -9 -8 -14t-20 -5
q-24 0 -37 16z" />
    <glyph glyph-name="Oacute" unicode="&#xd3;" horiz-adv-x="716" 
d="M663 354q0 -33 -6 -78.5t-23.5 -93.5t-51 -89t-88.5 -67t-137 -26t-137 26t-88 67t-50.5 89t-23 93.5t-5.5 78.5q0 32 5.5 77.5t23 93.5t50.5 90t88 68t137 26t137 -26t88.5 -68t51 -90t23.5 -93.5t6 -77.5zM550 354q0 30 -3.5 70t-14 80.5t-31.5 75.5t-56 56.5t-88 21.5
q-52 0 -86.5 -21.5t-55.5 -56.5t-31.5 -75.5t-14 -80.5t-3.5 -70t3.5 -69.5t14 -80.5t31.5 -75.5t55.5 -56t86.5 -21.5q53 0 88 21.5t56 56t31.5 75.5t14 80.5t3.5 69.5zM375 782q-5 -7 -15.5 -11.5t-21.5 -4.5q-16 0 -23.5 8t-2.5 21l57 142q6 14 23 20t36 6
q29 0 46.5 -9.5t6.5 -24.5z" />
    <glyph glyph-name="Ocircumflex" unicode="&#xd4;" horiz-adv-x="716" 
d="M663 354q0 -33 -6 -78.5t-23.5 -93.5t-51 -89t-88.5 -67t-137 -26t-137 26t-88 67t-50.5 89t-23 93.5t-5.5 78.5q0 32 5.5 77.5t23 93.5t50.5 90t88 68t137 26t137 -26t88.5 -68t51 -90t23.5 -93.5t6 -77.5zM550 354q0 30 -3.5 70t-14 80.5t-31.5 75.5t-56 56.5t-88 21.5
q-52 0 -86.5 -21.5t-55.5 -56.5t-31.5 -75.5t-14 -80.5t-3.5 -70t3.5 -69.5t14 -80.5t31.5 -75.5t55.5 -56t86.5 -21.5q53 0 88 21.5t56 56t31.5 75.5t14 80.5t3.5 69.5zM358 846l-52 -52q-16 -16 -33 -23t-32 -7q-16 0 -27 6.5t-11 14.5q0 5 4 9l102 106q8 9 21.5 13.5
t27.5 4.5t27.5 -4.5t21.5 -13.5l102 -106q4 -4 4 -9q0 -8 -10.5 -14.5t-27.5 -6.5q-15 0 -32 7t-33 23z" />
    <glyph glyph-name="Otilde" unicode="&#xd5;" horiz-adv-x="716" 
d="M663 354q0 -33 -6 -78.5t-23.5 -93.5t-51 -89t-88.5 -67t-137 -26t-137 26t-88 67t-50.5 89t-23 93.5t-5.5 78.5q0 32 5.5 77.5t23 93.5t50.5 90t88 68t137 26t137 -26t88.5 -68t51 -90t23.5 -93.5t6 -77.5zM550 354q0 30 -3.5 70t-14 80.5t-31.5 75.5t-56 56.5t-88 21.5
q-52 0 -86.5 -21.5t-55.5 -56.5t-31.5 -75.5t-14 -80.5t-3.5 -70t3.5 -69.5t14 -80.5t31.5 -75.5t55.5 -56t86.5 -21.5q53 0 88 21.5t56 56t31.5 75.5t14 80.5t3.5 69.5zM291 813q-16 0 -23 -6.5t-10 -14.5t-8 -14.5t-19 -6.5q-17 0 -22.5 6t-5.5 14q0 18 11.5 40t34 38
t54.5 16q8 -1 23 -3.5t40 -11.5q17 -7 31.5 -12.5t30.5 -5.5q14 0 20 5t10 12l10 16t22 8q12 0 17 -5.5t5 -13.5q0 -13 -7 -27q-16 -37 -39 -52t-46 -15q-20 0 -36 5t-33 12q-24 9 -37 12.5t-23 3.5z" />
    <glyph glyph-name="Odieresis" unicode="&#xd6;" horiz-adv-x="716" 
d="M663 354q0 -33 -6 -78.5t-23.5 -93.5t-51 -89t-88.5 -67t-137 -26t-137 26t-88 67t-50.5 89t-23 93.5t-5.5 78.5q0 32 5.5 77.5t23 93.5t50.5 90t88 68t137 26t137 -26t88.5 -68t51 -90t23.5 -93.5t6 -77.5zM550 354q0 30 -3.5 70t-14 80.5t-31.5 75.5t-56 56.5t-88 21.5
q-52 0 -86.5 -21.5t-55.5 -56.5t-31.5 -75.5t-14 -80.5t-3.5 -70t3.5 -69.5t14 -80.5t31.5 -75.5t55.5 -56t86.5 -21.5q53 0 88 21.5t56 56t31.5 75.5t14 80.5t3.5 69.5zM186 852q0 28 21 48.5t46 20.5q29 0 49.5 -20.5t20.5 -48.5q0 -26 -20.5 -47t-49.5 -21q-25 0 -46 21
t-21 47zM393 851q0 29 20.5 49t47.5 20t48 -20t21 -49q0 -26 -21 -47t-48 -21t-47.5 21t-20.5 47z" />
    <glyph glyph-name="multiply" unicode="&#xd7;" horiz-adv-x="717" 
d="M154 497q-4 4 -4 10q0 10 8.5 22t20.5 20.5t22 8.5q6 0 10 -4l148 -148l148 148q5 3 10 3q10 0 21.5 -8.5t20 -20t8.5 -21.5q0 -5 -3 -10l-148 -148l148 -148q3 -4 3 -10q0 -10 -8.5 -22t-20 -20.5t-21.5 -8.5q-6 0 -10 4l-148 148l-148 -148q-4 -4 -10 -4q-10 0 -22 8.5
t-20.5 20.5t-8.5 22q0 6 4 10l148 148z" />
    <glyph glyph-name="Oslash" unicode="&#xd8;" horiz-adv-x="716" 
d="M558 640q34 -30 54.5 -68.5t31.5 -78.5t15 -76t4 -63q0 -33 -6 -78.5t-23.5 -93.5t-51 -89t-88.5 -67t-137 -26q-45 0 -82 8.5t-66 23.5l-58 -102q-4 -6 -13 -6q-13 0 -27.5 10.5t-14.5 20.5q0 3 1 5l60 107q-34 30 -54.5 68t-31 78t-14.5 77t-4 64q0 32 5.5 77.5
t23 93.5t50.5 90t88 68t137 26q45 0 81.5 -8.5t65.5 -23.5l58 102q3 6 12 6q14 0 29 -12t15 -23q0 -4 -1 -6zM166 354q0 -27 2.5 -62.5t11 -73t24.5 -70.5l266 469q-21 19 -48.5 30t-64.5 11q-52 0 -86.5 -21.5t-55.5 -56.5t-31.5 -75.5t-14 -80.5t-3.5 -70zM550 354
q0 28 -2.5 63t-10.5 72.5t-25 70.5l-268 -468q20 -19 48 -30t65 -11q53 0 88 21.5t56 56t31.5 75.5t14 80.5t3.5 69.5z" />
    <glyph glyph-name="Ugrave" unicode="&#xd9;" horiz-adv-x="718" 
d="M201 219q0 -81 47 -127t130 -46q53 0 90.5 23t57.5 63.5t20 90.5v430q0 32 14 44t27 12q14 0 26 -10t12 -35v-410q0 -28 -6 -63.5t-22 -71.5t-45.5 -66.5t-77 -49t-116.5 -18.5q-72 0 -120 18.5t-77 48t-43.5 65t-19.5 71t-5 63.5v408q0 28 10.5 39t33.5 11q64 0 64 -77
v-413zM255 929q-3 5 -3 10q0 24 56 24q19 0 36.5 -6t22.5 -20l57 -142q2 -4 2 -10q0 -9 -8 -14t-20 -5q-24 0 -37 16z" />
    <glyph glyph-name="Uacute" unicode="&#xda;" horiz-adv-x="718" 
d="M201 219q0 -81 47 -127t130 -46q53 0 90.5 23t57.5 63.5t20 90.5v430q0 32 14 44t27 12q14 0 26 -10t12 -35v-410q0 -28 -6 -63.5t-22 -71.5t-45.5 -66.5t-77 -49t-116.5 -18.5q-72 0 -120 18.5t-77 48t-43.5 65t-19.5 71t-5 63.5v408q0 28 10.5 39t33.5 11q64 0 64 -77
v-413zM386 782q-5 -7 -15.5 -11.5t-21.5 -4.5q-16 0 -23.5 8t-2.5 21l57 142q6 14 23 20t36 6q29 0 46.5 -9.5t6.5 -24.5z" />
    <glyph glyph-name="Ucircumflex" unicode="&#xdb;" horiz-adv-x="718" 
d="M201 219q0 -81 47 -127t130 -46q53 0 90.5 23t57.5 63.5t20 90.5v430q0 32 14 44t27 12q14 0 26 -10t12 -35v-410q0 -28 -6 -63.5t-22 -71.5t-45.5 -66.5t-77 -49t-116.5 -18.5q-72 0 -120 18.5t-77 48t-43.5 65t-19.5 71t-5 63.5v408q0 28 10.5 39t33.5 11q64 0 64 -77
v-413zM369 846l-52 -52q-16 -16 -33 -23t-32 -7q-16 0 -27 6.5t-11 14.5q0 5 4 9l102 106q8 9 21.5 13.5t27.5 4.5t27.5 -4.5t21.5 -13.5l102 -106q4 -4 4 -9q0 -8 -10.5 -14.5t-27.5 -6.5q-15 0 -32 7t-33 23z" />
    <glyph glyph-name="Udieresis" unicode="&#xdc;" horiz-adv-x="718" 
d="M201 219q0 -81 47 -127t130 -46q53 0 90.5 23t57.5 63.5t20 90.5v430q0 32 14 44t27 12q14 0 26 -10t12 -35v-410q0 -28 -6 -63.5t-22 -71.5t-45.5 -66.5t-77 -49t-116.5 -18.5q-72 0 -120 18.5t-77 48t-43.5 65t-19.5 71t-5 63.5v408q0 28 10.5 39t33.5 11q64 0 64 -77
v-413zM197 852q0 28 21 48.5t46 20.5q29 0 49.5 -20.5t20.5 -48.5q0 -26 -20.5 -47t-49.5 -21q-25 0 -46 21t-21 47zM404 851q0 29 20.5 49t47.5 20t48 -20t21 -49q0 -26 -21 -47t-48 -21t-47.5 21t-20.5 47z" />
    <glyph glyph-name="Yacute" unicode="&#xdd;" horiz-adv-x="547" 
d="M268 0q-47 0 -47 50v218l-197 381q-6 14 -6 25q0 15 10 25t26 10q25 0 43 -10t34 -42l159 -314h4l150 313q14 29 29 41t32 12q15 0 21.5 -10t6.5 -23q0 -12 -5 -22l-199 -386v-208q0 -36 -15 -48t-46 -12zM301 782q-5 -7 -15.5 -11.5t-21.5 -4.5q-16 0 -23.5 8t-2.5 21
l57 142q6 14 23 20t36 6q29 0 46.5 -9.5t6.5 -24.5z" />
    <glyph glyph-name="Thorn" unicode="&#xde;" horiz-adv-x="617" 
d="M208 215v-150q0 -36 -15.5 -50.5t-46.5 -14.5q-46 0 -46 50v609q0 50 46 50q31 0 46.5 -14.5t15.5 -50.5v-35h103q23 0 57.5 -2t71.5 -11.5t69.5 -29t52.5 -54.5t20 -90q0 -57 -29 -104t-89 -75t-152 -28h-104zM208 268h103q72 0 115 36t43 118q0 61 -34.5 97.5
t-123.5 36.5h-103v-288z" />
    <glyph glyph-name="germandbls" unicode="&#xdf;" horiz-adv-x="570" 
d="M80 517q0 42 7 85t28.5 78.5t62.5 57.5t110 22q87 0 142.5 -44.5t55.5 -133.5q0 -55 -25.5 -97.5t-75.5 -59.5v-4q61 -9 98 -58.5t37 -131.5q0 -85 -28.5 -136t-72 -73t-90.5 -22q-14 0 -34 1.5t-35 8.5t-15 23q0 18 17 18q14 0 25.5 -3t26.5 -3q25 0 48 17t38 57.5
t15 110.5q0 91 -35.5 125t-95.5 34h-28q-9 0 -13 7.5t-4 16.5t4.5 17t13.5 8h27q46 0 71.5 38t25.5 106q0 33 -8 64.5t-28 52t-57 20.5q-46 0 -68 -23t-29 -56.5t-7 -65.5v-503q0 -45 -15.5 -58t-48.5 -13q-24 0 -32 12.5t-8 34.5v470z" />
    <glyph glyph-name="agrave" unicode="&#xe0;" horiz-adv-x="546" 
d="M370 95q-33 -49 -75.5 -72t-100.5 -23q-76 0 -113.5 37.5t-37.5 97.5q0 32 11 63.5t39 56.5t77 40t125 15h73v28q0 69 -23.5 96.5t-76.5 27.5q-31 0 -52.5 -13t-35.5 -29q-15 -16 -30 -25.5t-31 -9.5q-18 0 -26.5 10.5t-8.5 23.5q0 21 16 33.5t39 22.5q34 14 75.5 20.5
t73.5 6.5q74 0 114 -20.5t55.5 -60.5t15.5 -100v-274q0 -22 -7.5 -34.5t-31.5 -12.5q-33 0 -47 22.5t-14 71.5zM311 268q-64 0 -100 -16t-50 -43t-14 -60q0 -46 24 -64t63 -18q25 0 56.5 12.5t55 38.5t23.5 66v84h-58zM136 716q-3 3 -3 9q0 11 14.5 17.5t39.5 6.5
q18 0 34.5 -6t22.5 -20l52 -125q2 -4 2 -9q0 -9 -8 -14t-19 -5q-24 0 -37 16z" />
    <glyph glyph-name="aacute" unicode="&#xe1;" horiz-adv-x="546" 
d="M370 95q-33 -49 -75.5 -72t-100.5 -23q-76 0 -113.5 37.5t-37.5 97.5q0 32 11 63.5t39 56.5t77 40t125 15h73v28q0 69 -23.5 96.5t-76.5 27.5q-31 0 -52.5 -13t-35.5 -29q-15 -16 -30 -25.5t-31 -9.5q-18 0 -26.5 10.5t-8.5 23.5q0 21 16 33.5t39 22.5q34 14 75.5 20.5
t73.5 6.5q74 0 114 -20.5t55.5 -60.5t15.5 -100v-274q0 -22 -7.5 -34.5t-31.5 -12.5q-33 0 -47 22.5t-14 71.5zM311 268q-64 0 -100 -16t-50 -43t-14 -60q0 -46 24 -64t63 -18q25 0 56.5 12.5t55 38.5t23.5 66v84h-58zM294 586q-13 -16 -37 -16q-11 0 -19 5t-8 14q0 5 2 9
l52 125q6 14 22.5 20t34.5 6q25 0 39.5 -6.5t14.5 -17.5q0 -6 -3 -9z" />
    <glyph glyph-name="acircumflex" unicode="&#xe2;" horiz-adv-x="546" 
d="M370 95q-33 -49 -75.5 -72t-100.5 -23q-76 0 -113.5 37.5t-37.5 97.5q0 32 11 63.5t39 56.5t77 40t125 15h73v28q0 69 -23.5 96.5t-76.5 27.5q-31 0 -52.5 -13t-35.5 -29q-15 -16 -30 -25.5t-31 -9.5q-18 0 -26.5 10.5t-8.5 23.5q0 21 16 33.5t39 22.5q34 14 75.5 20.5
t73.5 6.5q74 0 114 -20.5t55.5 -60.5t15.5 -100v-274q0 -22 -7.5 -34.5t-31.5 -12.5q-33 0 -47 22.5t-14 71.5zM311 268q-64 0 -100 -16t-50 -43t-14 -60q0 -46 24 -64t63 -18q25 0 56.5 12.5t55 38.5t23.5 66v84h-58zM273 639l-52 -52q-16 -16 -33 -23t-32 -7
q-16 0 -27 6.5t-11 14.5q0 5 4 9l102 106q8 9 21.5 13.5t27.5 4.5t27.5 -4.5t21.5 -13.5l102 -106q4 -4 4 -9q0 -8 -10.5 -14.5t-27.5 -6.5q-15 0 -32 7t-33 23z" />
    <glyph glyph-name="atilde" unicode="&#xe3;" horiz-adv-x="546" 
d="M370 95q-33 -49 -75.5 -72t-100.5 -23q-76 0 -113.5 37.5t-37.5 97.5q0 32 11 63.5t39 56.5t77 40t125 15h73v28q0 69 -23.5 96.5t-76.5 27.5q-31 0 -52.5 -13t-35.5 -29q-15 -16 -30 -25.5t-31 -9.5q-18 0 -26.5 10.5t-8.5 23.5q0 21 16 33.5t39 22.5q34 14 75.5 20.5
t73.5 6.5q74 0 114 -20.5t55.5 -60.5t15.5 -100v-274q0 -22 -7.5 -34.5t-31.5 -12.5q-33 0 -47 22.5t-14 71.5zM311 268q-64 0 -100 -16t-50 -43t-14 -60q0 -46 24 -64t63 -18q25 0 56.5 12.5t55 38.5t23.5 66v84h-58zM206 606q-16 0 -23 -6.5t-10 -14.5t-8 -14.5t-19 -6.5
q-17 0 -22.5 6t-5.5 14q0 18 11.5 40t34 38t54.5 16q8 -1 23 -3.5t40 -11.5q17 -7 31.5 -12.5t30.5 -5.5q14 0 20 5t10 12l10 16t22 8q12 0 17 -5.5t5 -13.5q0 -13 -7 -27q-16 -37 -39 -52t-46 -15q-20 0 -36 5t-33 12q-24 9 -37 12.5t-23 3.5z" />
    <glyph glyph-name="adieresis" unicode="&#xe4;" horiz-adv-x="546" 
d="M370 95q-33 -49 -75.5 -72t-100.5 -23q-76 0 -113.5 37.5t-37.5 97.5q0 32 11 63.5t39 56.5t77 40t125 15h73v28q0 69 -23.5 96.5t-76.5 27.5q-31 0 -52.5 -13t-35.5 -29q-15 -16 -30 -25.5t-31 -9.5q-18 0 -26.5 10.5t-8.5 23.5q0 21 16 33.5t39 22.5q34 14 75.5 20.5
t73.5 6.5q74 0 114 -20.5t55.5 -60.5t15.5 -100v-274q0 -22 -7.5 -34.5t-31.5 -12.5q-33 0 -47 22.5t-14 71.5zM311 268q-64 0 -100 -16t-50 -43t-14 -60q0 -46 24 -64t63 -18q25 0 56.5 12.5t55 38.5t23.5 66v84h-58zM114 628q0 25 18 43t43 18t43 -18t18 -43t-18 -43
t-43 -18t-43 18t-18 43zM310 628q0 25 18 43t43 18t43 -18t18 -43t-18 -43t-43 -18t-43 18t-18 43z" />
    <glyph glyph-name="aring" unicode="&#xe5;" horiz-adv-x="546" 
d="M370 95q-33 -49 -75.5 -72t-100.5 -23q-76 0 -113.5 37.5t-37.5 97.5q0 32 11 63.5t39 56.5t77 40t125 15h73v28q0 69 -23.5 96.5t-76.5 27.5q-31 0 -52.5 -13t-35.5 -29q-15 -16 -30 -25.5t-31 -9.5q-18 0 -26.5 10.5t-8.5 23.5q0 21 16 33.5t39 22.5q34 14 75.5 20.5
t73.5 6.5q74 0 114 -20.5t55.5 -60.5t15.5 -100v-274q0 -22 -7.5 -34.5t-31.5 -12.5q-33 0 -47 22.5t-14 71.5zM311 268q-64 0 -100 -16t-50 -43t-14 -60q0 -46 24 -64t63 -18q25 0 56.5 12.5t55 38.5t23.5 66v84h-58zM165 662q0 46 31 77t77 31q45 0 76.5 -31t31.5 -77
q0 -45 -31.5 -76.5t-76.5 -31.5q-46 0 -77 31.5t-31 76.5zM220 662q0 -21 16 -36.5t37 -15.5q20 0 36 15.5t16 36.5t-16 37t-36 16q-21 0 -37 -16t-16 -37z" />
    <glyph glyph-name="ae" unicode="&#xe6;" horiz-adv-x="844" 
d="M204 0q-84 0 -122.5 37.5t-38.5 97.5q0 32 11 63.5t39 56.5t77 40t125 15h73v28q0 69 -23.5 96.5t-76.5 27.5q-31 0 -52.5 -13t-35.5 -29q-15 -16 -30 -25.5t-31 -9.5q-18 0 -26.5 10.5t-8.5 23.5q0 21 16 33.5t39 22.5q34 14 75.5 20.5t73.5 6.5q63 0 96.5 -23t46.5 -76
q50 99 172 99q89 0 145 -50.5t56 -150.5q0 -31 -18.5 -40t-38.5 -9h-269q-1 -6 -1 -11.5v-10.5q0 -82 32.5 -134t106.5 -52q41 0 66.5 14.5t42.5 34t29 33.5q10 11 25 11q8 0 15.5 -5.5t7.5 -15.5q0 -18 -13 -34q-28 -34 -72 -58t-112 -24q-69 0 -115 29.5t-68 82.5
q-21 -37 -56.5 -62t-78 -37.5t-83.5 -12.5zM597 462q-46 0 -77.5 -39t-38.5 -129h187q17 0 25.5 6t8.5 23q0 48 -15.5 79t-39.5 45.5t-50 14.5zM311 268q-64 0 -100 -16t-50 -43t-14 -60q0 -46 24 -64t63 -18q25 0 56.5 12.5t55 38.5t23.5 66v84h-58z" />
    <glyph glyph-name="ccedilla" unicode="&#xe7;" horiz-adv-x="490" 
d="M422 126q10 11 25 11q8 0 15.5 -5.5t7.5 -15.5q0 -18 -13 -34q-28 -34 -70.5 -58t-110.5 -24q-83 0 -133 32.5t-71.5 89.5t-21.5 128q0 93 32 148t85.5 79.5t119.5 24.5t117 -30q21 -13 38 -32t17 -45q0 -19 -14 -29t-28 -10q-23 0 -35 11.5t-19 30.5q-8 24 -24.5 44
t-53.5 20q-42 0 -70 -19t-42.5 -65.5t-14.5 -127.5q0 -98 28 -152t101 -54q41 0 66 14.5t41 34t28 33.5zM312 -38q26 0 49 -6t37.5 -22t14.5 -46q0 -40 -31.5 -63t-79.5 -23q-17 0 -38.5 4.5t-37 13.5t-15.5 23q0 8 5.5 13.5t15.5 5.5q11 0 26.5 -5.5t31.5 -5.5
q26 0 36.5 11t10.5 23q0 27 -20 33.5t-57 6.5v85h52v-48z" />
    <glyph glyph-name="egrave" unicode="&#xe8;" horiz-adv-x="525" 
d="M435 126q10 11 25 11q8 0 15.5 -5.5t7.5 -15.5q0 -18 -13 -34q-28 -34 -72 -58t-112 -24q-120 0 -178 65t-58 174q0 128 60 195.5t174 67.5q89 0 145 -50.5t56 -150.5q0 -31 -18.5 -40t-38.5 -9h-269q-1 -6 -1 -11.5v-10.5q0 -82 32.5 -134t106.5 -52q41 0 67 14.5
t42.5 34t28.5 33.5zM278 462q-46 0 -77.5 -39t-38.5 -129h187q17 0 25.5 6t8.5 23q0 48 -15.5 79t-39.5 45.5t-50 14.5zM138 716q-3 3 -3 9q0 11 14.5 17.5t39.5 6.5q18 0 34.5 -6t22.5 -20l52 -125q2 -4 2 -9q0 -9 -8 -14t-19 -5q-24 0 -37 16z" />
    <glyph glyph-name="eacute" unicode="&#xe9;" horiz-adv-x="525" 
d="M435 126q10 11 25 11q8 0 15.5 -5.5t7.5 -15.5q0 -18 -13 -34q-28 -34 -72 -58t-112 -24q-120 0 -178 65t-58 174q0 128 60 195.5t174 67.5q89 0 145 -50.5t56 -150.5q0 -31 -18.5 -40t-38.5 -9h-269q-1 -6 -1 -11.5v-10.5q0 -82 32.5 -134t106.5 -52q41 0 67 14.5
t42.5 34t28.5 33.5zM278 462q-46 0 -77.5 -39t-38.5 -129h187q17 0 25.5 6t8.5 23q0 48 -15.5 79t-39.5 45.5t-50 14.5zM296 586q-13 -16 -37 -16q-11 0 -19 5t-8 14q0 5 2 9l52 125q6 14 22.5 20t34.5 6q25 0 39.5 -6.5t14.5 -17.5q0 -6 -3 -9z" />
    <glyph glyph-name="ecircumflex" unicode="&#xea;" horiz-adv-x="525" 
d="M435 126q10 11 25 11q8 0 15.5 -5.5t7.5 -15.5q0 -18 -13 -34q-28 -34 -72 -58t-112 -24q-120 0 -178 65t-58 174q0 128 60 195.5t174 67.5q89 0 145 -50.5t56 -150.5q0 -31 -18.5 -40t-38.5 -9h-269q-1 -6 -1 -11.5v-10.5q0 -82 32.5 -134t106.5 -52q41 0 67 14.5
t42.5 34t28.5 33.5zM278 462q-46 0 -77.5 -39t-38.5 -129h187q17 0 25.5 6t8.5 23q0 48 -15.5 79t-39.5 45.5t-50 14.5zM275 639l-52 -52q-16 -16 -33 -23t-32 -7q-16 0 -27 6.5t-11 14.5q0 5 4 9l102 106q8 9 21.5 13.5t27.5 4.5t27.5 -4.5t21.5 -13.5l102 -106q4 -4 4 -9
q0 -8 -10.5 -14.5t-27.5 -6.5q-15 0 -32 7t-33 23z" />
    <glyph glyph-name="edieresis" unicode="&#xeb;" horiz-adv-x="525" 
d="M435 126q10 11 25 11q8 0 15.5 -5.5t7.5 -15.5q0 -18 -13 -34q-28 -34 -72 -58t-112 -24q-120 0 -178 65t-58 174q0 128 60 195.5t174 67.5q89 0 145 -50.5t56 -150.5q0 -31 -18.5 -40t-38.5 -9h-269q-1 -6 -1 -11.5v-10.5q0 -82 32.5 -134t106.5 -52q41 0 67 14.5
t42.5 34t28.5 33.5zM278 462q-46 0 -77.5 -39t-38.5 -129h187q17 0 25.5 6t8.5 23q0 48 -15.5 79t-39.5 45.5t-50 14.5zM116 628q0 25 18 43t43 18t43 -18t18 -43t-18 -43t-43 -18t-43 18t-18 43zM312 628q0 25 18 43t43 18t43 -18t18 -43t-18 -43t-43 -18t-43 18t-18 43z
" />
    <glyph glyph-name="igrave" unicode="&#xec;" horiz-adv-x="274" 
d="M189 68q0 -45 -15.5 -56.5t-48.5 -11.5q-24 0 -32 12.5t-8 34.5v408q0 23 8 35t32 12q64 0 64 -67v-367zM-2 716q-3 3 -3 9q0 11 14.5 17.5t39.5 6.5q18 0 34.5 -6t22.5 -20l52 -125q2 -4 2 -9q0 -9 -8 -14t-19 -5q-24 0 -37 16z" />
    <glyph glyph-name="iacute" unicode="&#xed;" horiz-adv-x="274" 
d="M189 68q0 -45 -15.5 -56.5t-48.5 -11.5q-24 0 -32 12.5t-8 34.5v408q0 23 8 35t32 12q64 0 64 -67v-367zM156 586q-13 -16 -37 -16q-11 0 -19 5t-8 14q0 5 2 9l52 125q6 14 22.5 20t34.5 6q25 0 39.5 -6.5t14.5 -17.5q0 -6 -3 -9z" />
    <glyph glyph-name="icircumflex" unicode="&#xee;" horiz-adv-x="274" 
d="M189 68q0 -45 -15.5 -56.5t-48.5 -11.5q-24 0 -32 12.5t-8 34.5v408q0 23 8 35t32 12q64 0 64 -67v-367zM135 639l-52 -52q-16 -16 -33 -23t-32 -7q-16 0 -27 6.5t-11 14.5q0 5 4 9l102 106q8 9 21.5 13.5t27.5 4.5t27.5 -4.5t21.5 -13.5l102 -106q4 -4 4 -9
q0 -8 -10.5 -14.5t-27.5 -6.5q-15 0 -32 7t-33 23z" />
    <glyph glyph-name="idieresis" unicode="&#xef;" horiz-adv-x="274" 
d="M189 68q0 -45 -15.5 -56.5t-48.5 -11.5q-24 0 -32 12.5t-8 34.5v408q0 23 8 35t32 12q64 0 64 -67v-367zM-24 628q0 25 18 43t43 18t43 -18t18 -43t-18 -43t-43 -18t-43 18t-18 43zM172 628q0 25 18 43t43 18t43 -18t18 -43t-18 -43t-43 -18t-43 18t-18 43z" />
    <glyph glyph-name="eth" unicode="&#xf0;" horiz-adv-x="577" 
d="M423 668q45 -55 65.5 -138t20.5 -187q0 -63 -11.5 -124t-38.5 -110.5t-72 -79t-112 -29.5q-105 0 -165 67.5t-60 181.5q0 73 26 129.5t74 88.5t115 32q38 0 71.5 -8.5t63.5 -28.5q-4 43 -17.5 86.5t-36.5 79.5l-114 -60q-3 -2 -9 -2q-10 0 -16.5 8.5t-6.5 17.5
q0 12 11 17l106 55q-23 24 -53 38t-66 14q-34 0 -49.5 -6t-31.5 -6q-7 0 -12 6t-5 13q0 12 12.5 19.5t31 11.5t36.5 5t30 1q56 0 100.5 -15t78.5 -43l95 50q2 1 4 1.5t4 0.5q11 0 17 -9t6 -17q0 -11 -10 -17zM271 40q38 0 62.5 23.5t38.5 62.5t20.5 86.5t8 95.5t1.5 88
q-26 33 -59.5 48t-60.5 15q-48 0 -75 -30.5t-38.5 -80t-11.5 -106.5q0 -108 34 -155t80 -47z" />
    <glyph glyph-name="ntilde" unicode="&#xf1;" horiz-adv-x="580" 
d="M80 459q0 24 10.5 33.5t32.5 9.5q27 0 43 -21t16 -65v-7h2q25 40 69 66.5t106 26.5q141 0 141 -151v-304q0 -22 -8 -34.5t-32 -12.5q-33 0 -48.5 18.5t-15.5 63.5v250q0 59 -25 81t-60 22q-28 0 -57.5 -15t-49.5 -41t-20 -59v-249q0 -45 -15.5 -58t-48.5 -13
q-24 0 -32 12.5t-8 34.5v412zM223 606q-16 0 -23 -6.5t-10 -14.5t-8 -14.5t-19 -6.5q-17 0 -22.5 6t-5.5 14q0 18 11.5 40t34 38t54.5 16q8 -1 23 -3.5t40 -11.5q17 -7 31.5 -12.5t30.5 -5.5q14 0 20 5t10 12l10 16t22 8q12 0 17 -5.5t5 -13.5q0 -13 -7 -27q-16 -37 -39 -52
t-46 -15q-20 0 -36 5t-33 12q-24 9 -37 12.5t-23 3.5z" />
    <glyph glyph-name="ograve" unicode="&#xf2;" horiz-adv-x="558" 
d="M279 0q-106 0 -167.5 61.5t-61.5 189.5q0 88 29 143t80.5 81.5t119.5 26.5q103 0 166 -60t63 -191q0 -128 -61 -189.5t-168 -61.5zM279 40q36 0 63 17t42.5 63t15.5 131t-16 130.5t-43.5 63t-61.5 17.5q-33 0 -60.5 -17.5t-44 -63t-16.5 -130.5q0 -84 15.5 -130t43 -63.5
t62.5 -17.5zM152 716q-3 3 -3 9q0 11 14.5 17.5t39.5 6.5q18 0 34.5 -6t22.5 -20l52 -125q2 -4 2 -9q0 -9 -8 -14t-19 -5q-24 0 -37 16z" />
    <glyph glyph-name="oacute" unicode="&#xf3;" horiz-adv-x="558" 
d="M279 0q-106 0 -167.5 61.5t-61.5 189.5q0 88 29 143t80.5 81.5t119.5 26.5q103 0 166 -60t63 -191q0 -128 -61 -189.5t-168 -61.5zM279 40q36 0 63 17t42.5 63t15.5 131t-16 130.5t-43.5 63t-61.5 17.5q-33 0 -60.5 -17.5t-44 -63t-16.5 -130.5q0 -84 15.5 -130t43 -63.5
t62.5 -17.5zM310 586q-13 -16 -37 -16q-11 0 -19 5t-8 14q0 5 2 9l52 125q6 14 22.5 20t34.5 6q25 0 39.5 -6.5t14.5 -17.5q0 -6 -3 -9z" />
    <glyph glyph-name="ocircumflex" unicode="&#xf4;" horiz-adv-x="558" 
d="M279 0q-106 0 -167.5 61.5t-61.5 189.5q0 88 29 143t80.5 81.5t119.5 26.5q103 0 166 -60t63 -191q0 -128 -61 -189.5t-168 -61.5zM279 40q36 0 63 17t42.5 63t15.5 131t-16 130.5t-43.5 63t-61.5 17.5q-33 0 -60.5 -17.5t-44 -63t-16.5 -130.5q0 -84 15.5 -130t43 -63.5
t62.5 -17.5zM289 639l-52 -52q-16 -16 -33 -23t-32 -7q-16 0 -27 6.5t-11 14.5q0 5 4 9l102 106q8 9 21.5 13.5t27.5 4.5t27.5 -4.5t21.5 -13.5l102 -106q4 -4 4 -9q0 -8 -10.5 -14.5t-27.5 -6.5q-15 0 -32 7t-33 23z" />
    <glyph glyph-name="otilde" unicode="&#xf5;" horiz-adv-x="558" 
d="M279 0q-106 0 -167.5 61.5t-61.5 189.5q0 88 29 143t80.5 81.5t119.5 26.5q103 0 166 -60t63 -191q0 -128 -61 -189.5t-168 -61.5zM279 40q36 0 63 17t42.5 63t15.5 131t-16 130.5t-43.5 63t-61.5 17.5q-33 0 -60.5 -17.5t-44 -63t-16.5 -130.5q0 -84 15.5 -130t43 -63.5
t62.5 -17.5zM222 606q-16 0 -23 -6.5t-10 -14.5t-8 -14.5t-19 -6.5q-17 0 -22.5 6t-5.5 14q0 18 11.5 40t34 38t54.5 16q8 -1 23 -3.5t40 -11.5q17 -7 31.5 -12.5t30.5 -5.5q14 0 20 5t10 12l10 16t22 8q12 0 17 -5.5t5 -13.5q0 -13 -7 -27q-16 -37 -39 -52t-46 -15
q-20 0 -36 5t-33 12q-24 9 -37 12.5t-23 3.5z" />
    <glyph glyph-name="odieresis" unicode="&#xf6;" horiz-adv-x="558" 
d="M279 0q-106 0 -167.5 61.5t-61.5 189.5q0 88 29 143t80.5 81.5t119.5 26.5q103 0 166 -60t63 -191q0 -128 -61 -189.5t-168 -61.5zM279 40q36 0 63 17t42.5 63t15.5 131t-16 130.5t-43.5 63t-61.5 17.5q-33 0 -60.5 -17.5t-44 -63t-16.5 -130.5q0 -84 15.5 -130t43 -63.5
t62.5 -17.5zM130 628q0 25 18 43t43 18t43 -18t18 -43t-18 -43t-43 -18t-43 18t-18 43zM326 628q0 25 18 43t43 18t43 -18t18 -43t-18 -43t-43 -18t-43 18t-18 43z" />
    <glyph glyph-name="divide" unicode="&#xf7;" horiz-adv-x="700" 
d="M286 533q0 27 19 45.5t45 18.5q27 0 45.5 -18.5t18.5 -45.5q0 -26 -18.5 -45t-45.5 -19q-26 0 -45 19t-19 45zM110 309q-10 0 -15 12.5t-5 27.5t5 27.5t15 12.5h480q10 0 15 -12.5t5 -27.5t-5 -27.5t-15 -12.5h-480zM286 165q0 26 19 45t45 19q27 0 45.5 -19t18.5 -45
q0 -27 -18.5 -45.5t-45.5 -18.5q-26 0 -45 18.5t-19 45.5z" />
    <glyph glyph-name="oslash" unicode="&#xf8;" horiz-adv-x="558" 
d="M425 459q39 -29 61 -80.5t22 -127.5q0 -128 -61 -189.5t-168 -61.5q-31 0 -58 5t-50 15l-52 -91q-3 -6 -12 -6q-13 0 -26 8.5t-13 18.5q0 3 1 5l54 95q-35 31 -54 81t-19 120q0 88 29 143t80.5 81.5t119.5 26.5q51 0 93 -15l44 78q3 6 13 6q14 0 28 -9t14 -20q0 -3 -1 -5
zM158 251q0 -74 12 -119l175 309q-14 11 -30.5 16t-35.5 5q-33 0 -60.5 -17.5t-44 -63t-16.5 -130.5zM279 40q36 0 63 17t42.5 63t15.5 131q0 44 -5 77t-13 57l-181 -314q15 -17 35 -24t43 -7z" />
    <glyph glyph-name="ugrave" unicode="&#xf9;" horiz-adv-x="580" 
d="M184 170q0 -59 25.5 -81t59.5 -22q28 0 57.5 15t49.5 41.5t20 58.5v248q0 45 15.5 58.5t48.5 13.5q24 0 32 -12t8 -35v-412q0 -24 -10 -33.5t-33 -9.5q-27 0 -43 19t-16 67v7h-2q-25 -40 -69 -66.5t-106 -26.5q-141 0 -141 151v304q0 23 8 35t32 12q33 0 48.5 -18.5
t15.5 -63.5v-250zM153 716q-3 3 -3 9q0 11 14.5 17.5t39.5 6.5q18 0 34.5 -6t22.5 -20l52 -125q2 -4 2 -9q0 -9 -8 -14t-19 -5q-24 0 -37 16z" />
    <glyph glyph-name="uacute" unicode="&#xfa;" horiz-adv-x="580" 
d="M184 170q0 -59 25.5 -81t59.5 -22q28 0 57.5 15t49.5 41.5t20 58.5v248q0 45 15.5 58.5t48.5 13.5q24 0 32 -12t8 -35v-412q0 -24 -10 -33.5t-33 -9.5q-27 0 -43 19t-16 67v7h-2q-25 -40 -69 -66.5t-106 -26.5q-141 0 -141 151v304q0 23 8 35t32 12q33 0 48.5 -18.5
t15.5 -63.5v-250zM311 586q-13 -16 -37 -16q-11 0 -19 5t-8 14q0 5 2 9l52 125q6 14 22.5 20t34.5 6q25 0 39.5 -6.5t14.5 -17.5q0 -6 -3 -9z" />
    <glyph glyph-name="ucircumflex" unicode="&#xfb;" horiz-adv-x="580" 
d="M184 170q0 -59 25.5 -81t59.5 -22q28 0 57.5 15t49.5 41.5t20 58.5v248q0 45 15.5 58.5t48.5 13.5q24 0 32 -12t8 -35v-412q0 -24 -10 -33.5t-33 -9.5q-27 0 -43 19t-16 67v7h-2q-25 -40 -69 -66.5t-106 -26.5q-141 0 -141 151v304q0 23 8 35t32 12q33 0 48.5 -18.5
t15.5 -63.5v-250zM290 639l-52 -52q-16 -16 -33 -23t-32 -7q-16 0 -27 6.5t-11 14.5q0 5 4 9l102 106q8 9 21.5 13.5t27.5 4.5t27.5 -4.5t21.5 -13.5l102 -106q4 -4 4 -9q0 -8 -10.5 -14.5t-27.5 -6.5q-15 0 -32 7t-33 23z" />
    <glyph glyph-name="udieresis" unicode="&#xfc;" horiz-adv-x="580" 
d="M184 170q0 -59 25.5 -81t59.5 -22q28 0 57.5 15t49.5 41.5t20 58.5v248q0 45 15.5 58.5t48.5 13.5q24 0 32 -12t8 -35v-412q0 -24 -10 -33.5t-33 -9.5q-27 0 -43 19t-16 67v7h-2q-25 -40 -69 -66.5t-106 -26.5q-141 0 -141 151v304q0 23 8 35t32 12q33 0 48.5 -18.5
t15.5 -63.5v-250zM131 628q0 25 18 43t43 18t43 -18t18 -43t-18 -43t-43 -18t-43 18t-18 43zM327 628q0 25 18 43t43 18t43 -18t18 -43t-18 -43t-43 -18t-43 18t-18 43z" />
    <glyph glyph-name="yacute" unicode="&#xfd;" horiz-adv-x="512" 
d="M304 8q-15 -37 -34.5 -77t-44.5 -74.5t-56.5 -55.5t-69.5 -21q-20 0 -34 10.5t-14 25.5q0 25 15 35t39 10q28 0 50 9t36 28t23.5 42t18.5 51l-198 461q-3 7 -4 13t-1 10q0 17 12 22t25 5q23 0 45.5 -15.5t36.5 -51.5l131 -327h5l60 175q18 53 27.5 86t19.5 70
q7 24 19 43.5t39 19.5q13 0 22.5 -5t9.5 -18q0 -9 -1.5 -14.5t-3.5 -12.5zM277 586q-13 -16 -37 -16q-11 0 -19 5t-8 14q0 5 2 9l52 125q6 14 22.5 20t34.5 6q25 0 39.5 -6.5t14.5 -17.5q0 -6 -3 -9z" />
    <glyph glyph-name="thorn" unicode="&#xfe;" horiz-adv-x="568" 
d="M125 -220q-24 0 -32 12.5t-8 34.5v886q0 23 8 35t32 12q33 0 48.5 -18.5t15.5 -63.5v-268q24 39 60 65.5t98 26.5q44 0 83 -18.5t63.5 -67.5t24.5 -140q0 -140 -64 -208t-174 -68q-50 0 -91 19v-168q0 -45 -15.5 -58t-48.5 -13zM410 268q0 68 -14 104t-37 49.5t-52 13.5
q-25 0 -51 -14.5t-44.5 -38.5t-22.5 -51v-238q4 -19 27.5 -36t63.5 -17q39 0 68 21t45.5 71t16.5 136z" />
    <glyph glyph-name="ydieresis" unicode="&#xff;" horiz-adv-x="512" 
d="M304 8q-15 -37 -34.5 -77t-44.5 -74.5t-56.5 -55.5t-69.5 -21q-20 0 -34 10.5t-14 25.5q0 25 15 35t39 10q28 0 50 9t36 28t23.5 42t18.5 51l-198 461q-3 7 -4 13t-1 10q0 17 12 22t25 5q23 0 45.5 -15.5t36.5 -51.5l131 -327h5l60 175q18 53 27.5 86t19.5 70
q7 24 19 43.5t39 19.5q13 0 22.5 -5t9.5 -18q0 -9 -1.5 -14.5t-3.5 -12.5zM97 628q0 25 18 43t43 18t43 -18t18 -43t-18 -43t-43 -18t-43 18t-18 43zM293 628q0 25 18 43t43 18t43 -18t18 -43t-18 -43t-43 -18t-43 18t-18 43z" />
    <glyph glyph-name="Amacron" unicode="&#x100;" horiz-adv-x="617" 
d="M103 53q-13 -35 -30 -44t-31 -9t-20.5 8t-6.5 19q0 12 5 25l235 633q5 12 20.5 18t34.5 6q20 0 38.5 -6.5t22.5 -20.5l229 -634q1 -4 1.5 -7.5t0.5 -7.5q0 -13 -8.5 -23t-30.5 -10q-9 0 -23.5 3.5t-28.5 15t-23 34.5l-53 137h-281zM299 591h-6l-123 -349h250zM182 787
q-10 0 -17 8.5t-7 21.5q0 14 7 22.5t17 8.5h254q9 0 16.5 -8.5t7.5 -22.5q0 -30 -24 -30h-254z" />
    <glyph glyph-name="amacron" unicode="&#x101;" horiz-adv-x="546" 
d="M370 95q-33 -49 -75.5 -72t-100.5 -23q-76 0 -113.5 37.5t-37.5 97.5q0 32 11 63.5t39 56.5t77 40t125 15h73v28q0 69 -23.5 96.5t-76.5 27.5q-31 0 -52.5 -13t-35.5 -29q-15 -16 -30 -25.5t-31 -9.5q-18 0 -26.5 10.5t-8.5 23.5q0 21 16 33.5t39 22.5q34 14 75.5 20.5
t73.5 6.5q74 0 114 -20.5t55.5 -60.5t15.5 -100v-274q0 -22 -7.5 -34.5t-31.5 -12.5q-33 0 -47 22.5t-14 71.5zM311 268q-64 0 -100 -16t-50 -43t-14 -60q0 -46 24 -64t63 -18q25 0 56.5 12.5t55 38.5t23.5 66v84h-58zM146 597q-10 0 -17 8.5t-7 21.5q0 14 7 22.5t17 8.5
h254q9 0 16.5 -8.5t7.5 -22.5q0 -30 -24 -30h-254z" />
    <glyph glyph-name="Abreve" unicode="&#x102;" horiz-adv-x="617" 
d="M103 53q-13 -35 -30 -44t-31 -9t-20.5 8t-6.5 19q0 12 5 25l235 633q5 12 20.5 18t34.5 6q20 0 38.5 -6.5t22.5 -20.5l229 -634q1 -4 1.5 -7.5t0.5 -7.5q0 -13 -8.5 -23t-30.5 -10q-9 0 -23.5 3.5t-28.5 15t-23 34.5l-53 137h-281zM299 591h-6l-123 -349h250zM455 890
q0 -53 -40 -90t-107 -37q-66 0 -106 37t-40 90q0 11 7 19.5t20 8.5q26 0 36 -27q14 -39 35.5 -50.5t47.5 -11.5q27 0 48.5 11.5t35.5 50.5q10 27 36 27q14 0 20.5 -8.5t6.5 -19.5z" />
    <glyph glyph-name="abreve" unicode="&#x103;" horiz-adv-x="546" 
d="M370 95q-33 -49 -75.5 -72t-100.5 -23q-76 0 -113.5 37.5t-37.5 97.5q0 32 11 63.5t39 56.5t77 40t125 15h73v28q0 69 -23.5 96.5t-76.5 27.5q-31 0 -52.5 -13t-35.5 -29q-15 -16 -30 -25.5t-31 -9.5q-18 0 -26.5 10.5t-8.5 23.5q0 21 16 33.5t39 22.5q34 14 75.5 20.5
t73.5 6.5q74 0 114 -20.5t55.5 -60.5t15.5 -100v-274q0 -22 -7.5 -34.5t-31.5 -12.5q-33 0 -47 22.5t-14 71.5zM311 268q-64 0 -100 -16t-50 -43t-14 -60q0 -46 24 -64t63 -18q25 0 56.5 12.5t55 38.5t23.5 66v84h-58zM419 683q0 -53 -40 -90t-107 -37q-66 0 -106 37t-40 90
q0 11 7 19.5t20 8.5q26 0 36 -27q14 -39 35.5 -50.5t47.5 -11.5q27 0 48.5 11.5t35.5 50.5q10 27 36 27q14 0 20.5 -8.5t6.5 -19.5z" />
    <glyph glyph-name="Aogonek" unicode="&#x104;" horiz-adv-x="617" 
d="M103 53q-13 -35 -30 -44t-31 -9t-20.5 8t-6.5 19q0 12 5 25l235 633q5 12 20.5 18t34.5 6q20 0 38.5 -6.5t22.5 -20.5l229 -634q1 -4 1.5 -7.5t0.5 -7.5q0 -13 -8.5 -23t-30.5 -10q-9 0 -23.5 3.5t-28.5 15t-23 34.5l-53 137h-281zM299 591h-6l-123 -349h250zM608 10
q-43 -36 -60 -64.5t-17 -52.5q0 -19 11.5 -31t30.5 -12t29.5 5.5t18.5 11t19 5.5q19 0 19 -19q0 -17 -18 -28.5t-43.5 -17.5t-48.5 -6q-52 0 -73 26t-21 56q0 70 100 127h53z" />
    <glyph glyph-name="aogonek" unicode="&#x105;" horiz-adv-x="546" 
d="M370 95q-33 -49 -75.5 -72t-100.5 -23q-76 0 -113.5 37.5t-37.5 97.5q0 32 11 63.5t39 56.5t77 40t125 15h73v28q0 69 -23.5 96.5t-76.5 27.5q-31 0 -52.5 -13t-35.5 -29q-15 -16 -30 -25.5t-31 -9.5q-18 0 -26.5 10.5t-8.5 23.5q0 21 16 33.5t39 22.5q34 14 75.5 20.5
t73.5 6.5q74 0 114 -20.5t55.5 -60.5t15.5 -100v-274q0 -22 -7.5 -34.5t-31.5 -12.5q-33 0 -47 22.5t-14 71.5zM311 268q-64 0 -100 -16t-50 -43t-14 -60q0 -46 24 -64t63 -18q25 0 56.5 12.5t55 38.5t23.5 66v84h-58zM544 10q-43 -36 -60 -64.5t-17 -52.5q0 -19 11.5 -31
t30.5 -12t29.5 5.5t18.5 11t19 5.5q19 0 19 -19q0 -17 -18 -28.5t-43.5 -17.5t-48.5 -6q-52 0 -73 26t-21 56q0 70 100 127h53z" />
    <glyph glyph-name="Cacute" unicode="&#x106;" horiz-adv-x="581" 
d="M503 529q-28 0 -43 14.5t-15 50.5v56q-17 4 -35 6t-38 2q-92 0 -149 -77.5t-57 -234.5q0 -115 26 -179t74 -89.5t113 -25.5q31 0 65 8t66 21l19 8q2 1 4 1.5t4 0.5q11 0 17.5 -9.5t6.5 -20.5q0 -14 -13 -20l-17 -7q-37 -15 -78.5 -24.5t-101.5 -9.5q-104 0 -170 42
t-97 120t-31 186q0 125 40.5 205t110 118t155.5 38q38 0 74.5 -5t71.5 -16q23 -7 32 -16.5t9 -32.5v-60q0 -50 -43 -50zM376 782q-5 -7 -15.5 -11.5t-21.5 -4.5q-16 0 -23.5 8t-2.5 21l57 142q6 14 23 20t36 6q29 0 46.5 -9.5t6.5 -24.5z" />
    <glyph glyph-name="cacute" unicode="&#x107;" horiz-adv-x="490" 
d="M422 126q10 11 25 11q8 0 15.5 -5.5t7.5 -15.5q0 -18 -13 -34q-28 -34 -70.5 -58t-110.5 -24q-83 0 -133 32.5t-71.5 89.5t-21.5 128q0 93 32 148t85.5 79.5t119.5 24.5t117 -30q21 -13 38 -32t17 -45q0 -19 -14 -29t-28 -10q-23 0 -35 11.5t-19 30.5q-8 24 -24.5 44
t-53.5 20q-42 0 -70 -19t-42.5 -65.5t-14.5 -127.5q0 -98 28 -152t101 -54q41 0 66 14.5t41 34t28 33.5zM306 586q-13 -16 -37 -16q-11 0 -19 5t-8 14q0 5 2 9l52 125q6 14 22.5 20t34.5 6q25 0 39.5 -6.5t14.5 -17.5q0 -6 -3 -9z" />
    <glyph glyph-name="Ccircumflex" unicode="&#x108;" horiz-adv-x="581" 
d="M503 529q-28 0 -43 14.5t-15 50.5v56q-17 4 -35 6t-38 2q-92 0 -149 -77.5t-57 -234.5q0 -115 26 -179t74 -89.5t113 -25.5q31 0 65 8t66 21l19 8q2 1 4 1.5t4 0.5q11 0 17.5 -9.5t6.5 -20.5q0 -14 -13 -20l-17 -7q-37 -15 -78.5 -24.5t-101.5 -9.5q-104 0 -170 42
t-97 120t-31 186q0 125 40.5 205t110 118t155.5 38q38 0 74.5 -5t71.5 -16q23 -7 32 -16.5t9 -32.5v-60q0 -50 -43 -50zM359 846l-52 -52q-16 -16 -33 -23t-32 -7q-16 0 -27 6.5t-11 14.5q0 5 4 9l102 106q8 9 21.5 13.5t27.5 4.5t27.5 -4.5t21.5 -13.5l102 -106q4 -4 4 -9
q0 -8 -10.5 -14.5t-27.5 -6.5q-15 0 -32 7t-33 23z" />
    <glyph glyph-name="ccircumflex" unicode="&#x109;" horiz-adv-x="490" 
d="M422 126q10 11 25 11q8 0 15.5 -5.5t7.5 -15.5q0 -18 -13 -34q-28 -34 -70.5 -58t-110.5 -24q-83 0 -133 32.5t-71.5 89.5t-21.5 128q0 93 32 148t85.5 79.5t119.5 24.5t117 -30q21 -13 38 -32t17 -45q0 -19 -14 -29t-28 -10q-23 0 -35 11.5t-19 30.5q-8 24 -24.5 44
t-53.5 20q-42 0 -70 -19t-42.5 -65.5t-14.5 -127.5q0 -98 28 -152t101 -54q41 0 66 14.5t41 34t28 33.5zM285 639l-52 -52q-16 -16 -33 -23t-32 -7q-16 0 -27 6.5t-11 14.5q0 5 4 9l102 106q8 9 21.5 13.5t27.5 4.5t27.5 -4.5t21.5 -13.5l102 -106q4 -4 4 -9
q0 -8 -10.5 -14.5t-27.5 -6.5q-15 0 -32 7t-33 23z" />
    <glyph glyph-name="Cdotaccent" unicode="&#x10a;" horiz-adv-x="581" 
d="M503 529q-28 0 -43 14.5t-15 50.5v56q-17 4 -35 6t-38 2q-92 0 -149 -77.5t-57 -234.5q0 -115 26 -179t74 -89.5t113 -25.5q31 0 65 8t66 21l19 8q2 1 4 1.5t4 0.5q11 0 17.5 -9.5t6.5 -20.5q0 -14 -13 -20l-17 -7q-37 -15 -78.5 -24.5t-101.5 -9.5q-104 0 -170 42
t-97 120t-31 186q0 125 40.5 205t110 118t155.5 38q38 0 74.5 -5t71.5 -16q23 -7 32 -16.5t9 -32.5v-60q0 -50 -43 -50zM297 836q0 26 18.5 44t43.5 18q26 0 44 -18t18 -44q0 -25 -18 -43.5t-44 -18.5q-25 0 -43.5 18.5t-18.5 43.5z" />
    <glyph glyph-name="cdotaccent" unicode="&#x10b;" horiz-adv-x="490" 
d="M422 126q10 11 25 11q8 0 15.5 -5.5t7.5 -15.5q0 -18 -13 -34q-28 -34 -70.5 -58t-110.5 -24q-83 0 -133 32.5t-71.5 89.5t-21.5 128q0 93 32 148t85.5 79.5t119.5 24.5t117 -30q21 -13 38 -32t17 -45q0 -19 -14 -29t-28 -10q-23 0 -35 11.5t-19 30.5q-8 24 -24.5 44
t-53.5 20q-42 0 -70 -19t-42.5 -65.5t-14.5 -127.5q0 -98 28 -152t101 -54q41 0 66 14.5t41 34t28 33.5zM223 629q0 26 18.5 44t43.5 18q26 0 44 -18t18 -44q0 -25 -18 -43.5t-44 -18.5q-25 0 -43.5 18.5t-18.5 43.5z" />
    <glyph glyph-name="Ccaron" unicode="&#x10c;" horiz-adv-x="581" 
d="M503 529q-28 0 -43 14.5t-15 50.5v56q-17 4 -35 6t-38 2q-92 0 -149 -77.5t-57 -234.5q0 -115 26 -179t74 -89.5t113 -25.5q31 0 65 8t66 21l19 8q2 1 4 1.5t4 0.5q11 0 17.5 -9.5t6.5 -20.5q0 -14 -13 -20l-17 -7q-37 -15 -78.5 -24.5t-101.5 -9.5q-104 0 -170 42
t-97 120t-31 186q0 125 40.5 205t110 118t155.5 38q38 0 74.5 -5t71.5 -16q23 -7 32 -16.5t9 -32.5v-60q0 -50 -43 -50zM358 834l56 54q17 17 35.5 24t34.5 7q18 0 29.5 -6.5t11.5 -15.5q0 -5 -4 -9l-110 -109q-19 -19 -49 -19q-17 0 -31 4.5t-25 14.5l-110 109q-4 4 -4 9
q0 9 11.5 15.5t29.5 6.5q16 0 34 -7t36 -24z" />
    <glyph glyph-name="ccaron" unicode="&#x10d;" horiz-adv-x="490" 
d="M422 126q10 11 25 11q8 0 15.5 -5.5t7.5 -15.5q0 -18 -13 -34q-28 -34 -70.5 -58t-110.5 -24q-83 0 -133 32.5t-71.5 89.5t-21.5 128q0 93 32 148t85.5 79.5t119.5 24.5t117 -30q21 -13 38 -32t17 -45q0 -19 -14 -29t-28 -10q-23 0 -35 11.5t-19 30.5q-8 24 -24.5 44
t-53.5 20q-42 0 -70 -19t-42.5 -65.5t-14.5 -127.5q0 -98 28 -152t101 -54q41 0 66 14.5t41 34t28 33.5zM285 629l52 52q16 17 33 23.5t32 6.5q17 0 27.5 -6.5t10.5 -14.5q0 -5 -4 -9l-102 -106q-8 -9 -21.5 -13.5t-27.5 -4.5t-27.5 4.5t-21.5 13.5l-102 106q-4 4 -4 9
q0 8 11 14.5t27 6.5q15 0 32 -6.5t33 -23.5z" />
    <glyph glyph-name="Dcaron" unicode="&#x10e;" horiz-adv-x="693" 
d="M100 659q0 50 46 50h143q44 0 92.5 -7.5t94.5 -28t83 -59.5t59 -101.5t22 -154.5q0 -85 -22.5 -146t-60 -102t-83 -65t-92.5 -34.5t-88 -10.5h-148q-46 0 -46 50v609zM208 656v-603h22v1h47q69 0 126 31t90.5 98t33.5 175q0 111 -33.5 176t-90.5 93.5t-126 28.5h-69z
M346 834l56 54q17 17 35.5 24t34.5 7q18 0 29.5 -6.5t11.5 -15.5q0 -5 -4 -9l-110 -109q-19 -19 -49 -19q-17 0 -31 4.5t-25 14.5l-110 109q-4 4 -4 9q0 9 11.5 15.5t29.5 6.5q16 0 34 -7t36 -24z" />
    <glyph glyph-name="dcaron" unicode="&#x10f;" horiz-adv-x="563" 
d="M288 502q24 0 48 -4.5t43 -12.5v193q0 45 15.5 63.5t48.5 18.5q24 0 32 -12t8 -35v-666q0 -22 -7.5 -34.5t-31.5 -12.5q-33 0 -47 27.5t-14 76.5l-3 1q-16 -26 -37 -50.5t-50.5 -39.5t-71.5 -15t-81.5 21t-64.5 71t-25 137q0 144 64.5 208.5t173.5 64.5zM158 237
q0 -64 14 -101t37.5 -53t51.5 -16t55 19.5t45.5 49t18.5 58.5v209q0 20 -23.5 39.5t-68.5 19.5q-39 0 -68.5 -19t-45.5 -68t-16 -138zM589 602q-17 -21 -37 -21q-9 0 -15 5t-6 13l19 105q4 18 15.5 26t30.5 8q20 0 31.5 -8t11.5 -26q0 -20 -11 -43.5t-39 -58.5z" />
    <glyph glyph-name="Dcroat" unicode="&#x110;" horiz-adv-x="693" 
d="M100 394v265q0 50 46 50h143q44 0 92.5 -7.5t94.5 -28t83 -59.5t59 -101.5t22 -154.5q0 -85 -22.5 -146t-60 -102t-83 -65t-92.5 -34.5t-88 -10.5h-148q-46 0 -46 50v289h-64q-10 0 -15.5 8.5t-5.5 18.5q0 11 5.5 19.5t15.5 8.5h64zM208 656v-262h169q11 0 16 -8.5
t5 -19.5q0 -10 -5 -18.5t-16 -8.5h-169v-286h22v1h47q69 0 126 31t90.5 98t33.5 175q0 111 -33.5 176t-90.5 93.5t-126 28.5h-69z" />
    <glyph glyph-name="dcroat" unicode="&#x111;" horiz-adv-x="563" 
d="M288 502q24 0 48 -4.5t43 -12.5v193q0 45 15.5 63.5t48.5 18.5q24 0 32 -12t8 -35v-666q0 -22 -7.5 -34.5t-31.5 -12.5q-33 0 -47 27.5t-14 76.5l-3 1q-16 -26 -37 -50.5t-50.5 -39.5t-71.5 -15t-81.5 21t-64.5 71t-25 137q0 144 64.5 208.5t173.5 64.5zM158 237
q0 -64 14 -101t37.5 -53t51.5 -16t55 19.5t45.5 49t18.5 58.5v209q0 20 -23.5 39.5t-68.5 19.5q-39 0 -68.5 -19t-45.5 -68t-16 -138zM214 588q-13 0 -18.5 7.5t-5.5 16.5q0 10 5.5 17.5t18.5 7.5h352q11 0 17.5 -7.5t6.5 -17.5q0 -9 -6.5 -16.5t-17.5 -7.5h-352z" />
    <glyph glyph-name="Emacron" unicode="&#x112;" horiz-adv-x="601" 
d="M503 535q-28 0 -43 14.5t-15 50.5v56h-237v-262h210q14 0 21 -8.5t7 -19.5q0 -10 -8.5 -18.5t-19.5 -8.5h-210v-286h252v56q0 36 15 50.5t43 14.5q43 0 43 -50v-87q0 -22 -15.5 -29.5t-44.5 -7.5h-355q-46 0 -46 50v609q0 50 46 50h340q29 0 44.5 -7t15.5 -30v-87
q0 -50 -43 -50zM220 787q-10 0 -17 8.5t-7 21.5q0 14 7 22.5t17 8.5h254q9 0 16.5 -8.5t7.5 -22.5q0 -30 -24 -30h-254z" />
    <glyph glyph-name="emacron" unicode="&#x113;" horiz-adv-x="525" 
d="M435 126q10 11 25 11q8 0 15.5 -5.5t7.5 -15.5q0 -18 -13 -34q-28 -34 -72 -58t-112 -24q-120 0 -178 65t-58 174q0 128 60 195.5t174 67.5q89 0 145 -50.5t56 -150.5q0 -31 -18.5 -40t-38.5 -9h-269q-1 -6 -1 -11.5v-10.5q0 -82 32.5 -134t106.5 -52q41 0 67 14.5
t42.5 34t28.5 33.5zM278 462q-46 0 -77.5 -39t-38.5 -129h187q17 0 25.5 6t8.5 23q0 48 -15.5 79t-39.5 45.5t-50 14.5zM148 597q-10 0 -17 8.5t-7 21.5q0 14 7 22.5t17 8.5h254q9 0 16.5 -8.5t7.5 -22.5q0 -30 -24 -30h-254z" />
    <glyph glyph-name="Ebreve" unicode="&#x114;" horiz-adv-x="601" 
d="M503 535q-28 0 -43 14.5t-15 50.5v56h-237v-262h210q14 0 21 -8.5t7 -19.5q0 -10 -8.5 -18.5t-19.5 -8.5h-210v-286h252v56q0 36 15 50.5t43 14.5q43 0 43 -50v-87q0 -22 -15.5 -29.5t-44.5 -7.5h-355q-46 0 -46 50v609q0 50 46 50h340q29 0 44.5 -7t15.5 -30v-87
q0 -50 -43 -50zM493 890q0 -53 -40 -90t-107 -37q-66 0 -106 37t-40 90q0 11 7 19.5t20 8.5q26 0 36 -27q14 -39 35.5 -50.5t47.5 -11.5q27 0 48.5 11.5t35.5 50.5q10 27 36 27q14 0 20.5 -8.5t6.5 -19.5z" />
    <glyph glyph-name="ebreve" unicode="&#x115;" horiz-adv-x="600" 
d="M435 126q10 11 25 11q8 0 15.5 -5.5t7.5 -15.5q0 -18 -13 -34q-28 -34 -72 -58t-112 -24q-120 0 -178 65t-58 174q0 128 60 195.5t174 67.5q89 0 145 -50.5t56 -150.5q0 -31 -18.5 -40t-38.5 -9h-269q-1 -6 -1 -11.5v-10.5q0 -82 32.5 -134t106.5 -52q41 0 67 14.5
t42.5 34t28.5 33.5zM278 462q-46 0 -77.5 -39t-38.5 -129h187q17 0 25.5 6t8.5 23q0 48 -15.5 79t-39.5 45.5t-50 14.5zM418 683q0 -53 -40 -90t-107 -37q-66 0 -106 37t-40 90q0 11 7 19.5t20 8.5q26 0 36 -27q14 -39 35.5 -50.5t47.5 -11.5q27 0 48.5 11.5t35.5 50.5
q10 27 36 27q14 0 20.5 -8.5t6.5 -19.5z" />
    <glyph glyph-name="Edotaccent" unicode="&#x116;" horiz-adv-x="601" 
d="M503 535q-28 0 -43 14.5t-15 50.5v56h-237v-262h210q14 0 21 -8.5t7 -19.5q0 -10 -8.5 -18.5t-19.5 -8.5h-210v-286h252v56q0 36 15 50.5t43 14.5q43 0 43 -50v-87q0 -22 -15.5 -29.5t-44.5 -7.5h-355q-46 0 -46 50v609q0 50 46 50h340q29 0 44.5 -7t15.5 -30v-87
q0 -50 -43 -50zM285 836q0 26 18.5 44t43.5 18q26 0 44 -18t18 -44q0 -25 -18 -43.5t-44 -18.5q-25 0 -43.5 18.5t-18.5 43.5z" />
    <glyph glyph-name="edotaccent" unicode="&#x117;" horiz-adv-x="525" 
d="M435 126q10 11 25 11q8 0 15.5 -5.5t7.5 -15.5q0 -18 -13 -34q-28 -34 -72 -58t-112 -24q-120 0 -178 65t-58 174q0 128 60 195.5t174 67.5q89 0 145 -50.5t56 -150.5q0 -31 -18.5 -40t-38.5 -9h-269q-1 -6 -1 -11.5v-10.5q0 -82 32.5 -134t106.5 -52q41 0 67 14.5
t42.5 34t28.5 33.5zM278 462q-46 0 -77.5 -39t-38.5 -129h187q17 0 25.5 6t8.5 23q0 48 -15.5 79t-39.5 45.5t-50 14.5zM213 629q0 26 18.5 44t43.5 18q26 0 44 -18t18 -44q0 -25 -18 -43.5t-44 -18.5q-25 0 -43.5 18.5t-18.5 43.5z" />
    <glyph glyph-name="Eogonek" unicode="&#x118;" horiz-adv-x="601" 
d="M503 535q-28 0 -43 14.5t-15 50.5v56h-237v-262h210q14 0 21 -8.5t7 -19.5q0 -10 -8.5 -18.5t-19.5 -8.5h-210v-286h252v56q0 36 15 50.5t43 14.5q43 0 43 -50v-87q0 -22 -15.5 -29.5t-44.5 -7.5h-355q-46 0 -46 50v609q0 50 46 50h340q29 0 44.5 -7t15.5 -30v-87
q0 -50 -43 -50zM594 10q-43 -36 -60 -64.5t-17 -52.5q0 -19 11.5 -31t30.5 -12t29.5 5.5t18.5 11t19 5.5q19 0 19 -19q0 -17 -18 -28.5t-43.5 -17.5t-48.5 -6q-52 0 -73 26t-21 56q0 70 100 127h53z" />
    <glyph glyph-name="eogonek" unicode="&#x119;" horiz-adv-x="525" 
d="M435 126q10 11 25 11q8 0 15.5 -5.5t7.5 -15.5q0 -18 -13 -34q-28 -34 -72 -58t-112 -24q-120 0 -178 65t-58 174q0 128 60 195.5t174 67.5q89 0 145 -50.5t56 -150.5q0 -31 -18.5 -40t-38.5 -9h-269q-1 -6 -1 -11.5v-10.5q0 -82 32.5 -134t106.5 -52q41 0 67 14.5
t42.5 34t28.5 33.5zM278 462q-46 0 -77.5 -39t-38.5 -129h187q17 0 25.5 6t8.5 23q0 48 -15.5 79t-39.5 45.5t-50 14.5zM412 10q-43 -36 -60 -64.5t-17 -52.5q0 -19 11.5 -31t30.5 -12t29.5 5.5t18.5 11t19 5.5q19 0 19 -19q0 -17 -18 -28.5t-43.5 -17.5t-48.5 -6
q-52 0 -73 26t-21 56q0 70 100 127h53z" />
    <glyph glyph-name="Ecaron" unicode="&#x11a;" horiz-adv-x="601" 
d="M503 535q-28 0 -43 14.5t-15 50.5v56h-237v-262h210q14 0 21 -8.5t7 -19.5q0 -10 -8.5 -18.5t-19.5 -8.5h-210v-286h252v56q0 36 15 50.5t43 14.5q43 0 43 -50v-87q0 -22 -15.5 -29.5t-44.5 -7.5h-355q-46 0 -46 50v609q0 50 46 50h340q29 0 44.5 -7t15.5 -30v-87
q0 -50 -43 -50zM346 834l56 54q17 17 35.5 24t34.5 7q18 0 29.5 -6.5t11.5 -15.5q0 -5 -4 -9l-110 -109q-19 -19 -49 -19q-17 0 -31 4.5t-25 14.5l-110 109q-4 4 -4 9q0 9 11.5 15.5t29.5 6.5q16 0 34 -7t36 -24z" />
    <glyph glyph-name="ecaron" unicode="&#x11b;" horiz-adv-x="525" 
d="M435 126q10 11 25 11q8 0 15.5 -5.5t7.5 -15.5q0 -18 -13 -34q-28 -34 -72 -58t-112 -24q-120 0 -178 65t-58 174q0 128 60 195.5t174 67.5q89 0 145 -50.5t56 -150.5q0 -31 -18.5 -40t-38.5 -9h-269q-1 -6 -1 -11.5v-10.5q0 -82 32.5 -134t106.5 -52q41 0 67 14.5
t42.5 34t28.5 33.5zM278 462q-46 0 -77.5 -39t-38.5 -129h187q17 0 25.5 6t8.5 23q0 48 -15.5 79t-39.5 45.5t-50 14.5zM275 629l52 52q16 17 33 23.5t32 6.5q17 0 27.5 -6.5t10.5 -14.5q0 -5 -4 -9l-102 -106q-8 -9 -21.5 -13.5t-27.5 -4.5t-27.5 4.5t-21.5 13.5l-102 106
q-4 4 -4 9q0 8 11 14.5t27 6.5q15 0 32 -6.5t33 -23.5z" />
    <glyph glyph-name="Gcircumflex" unicode="&#x11c;" horiz-adv-x="680" 
d="M534 529q-28 0 -43 14.5t-15 50.5v56q-21 5 -40 6.5t-41 1.5q-64 0 -116 -34t-82.5 -103t-30.5 -174q0 -115 27 -179.5t76 -90.5t116 -26q25 0 57 3.5t63 16.5v216h-112q-13 0 -19 8.5t-6 18.5q0 11 7 19.5t21 8.5h170q28 0 36 -10.5t8 -29.5v-207q0 -30 -8.5 -41
t-23.5 -17q-52 -20 -102.5 -28.5t-109.5 -8.5q-111 0 -180 42.5t-101 120.5t-32 186q0 125 45 204.5t120.5 117.5t164.5 38q38 0 77 -5.5t76 -16.5q23 -7 32 -16.5t9 -32.5v-59q0 -50 -43 -50zM380 846l-52 -52q-16 -16 -33 -23t-32 -7q-16 0 -27 6.5t-11 14.5q0 5 4 9
l102 106q8 9 21.5 13.5t27.5 4.5t27.5 -4.5t21.5 -13.5l102 -106q4 -4 4 -9q0 -8 -10.5 -14.5t-27.5 -6.5q-15 0 -32 7t-33 23z" />
    <glyph glyph-name="gcircumflex" unicode="&#x11d;" horiz-adv-x="568" 
d="M263 -180q47 0 82 18t54.5 45.5t19.5 56.5q0 36 -27.5 55.5t-71 28.5t-91.5 12q-79 6 -128 26t-49 66q0 21 12.5 35t32 23.5t40.5 18t38 20.5v3q-40 16 -57 50.5t-17 65.5q0 58 29 92.5t75 50t97 15.5q25 0 62.5 -7t62.5 -24q8 4 10 16.5t4.5 27t12.5 25t33 10.5
q14 0 24.5 -12.5t10.5 -29.5q0 -20 -18.5 -37t-38.5 -29q16 -17 26.5 -41.5t10.5 -50.5q0 -46 -28 -80t-73 -52.5t-98 -18.5q-17 0 -40 2t-40 7q-25 -19 -41 -27.5t-16 -28.5q0 -8 8 -16.5t32 -15t71 -8.5q128 -6 186.5 -46.5t58.5 -96.5q0 -53 -34.5 -96t-98.5 -68
t-153 -25q-83 0 -132 35t-49 88q0 33 17 55.5t38 34.5t33 12q11 0 17 -6t6 -14q0 -7 -8.5 -15.5t-16.5 -22t-8 -37.5q0 -41 38 -65.5t92 -24.5zM399 352q0 48 -25 79t-72 31q-45 0 -71.5 -30.5t-26.5 -83.5q0 -48 25.5 -78.5t72.5 -30.5q44 0 70.5 31.5t26.5 81.5zM294 639
l-52 -52q-16 -16 -33 -23t-32 -7q-16 0 -27 6.5t-11 14.5q0 5 4 9l102 106q8 9 21.5 13.5t27.5 4.5t27.5 -4.5t21.5 -13.5l102 -106q4 -4 4 -9q0 -8 -10.5 -14.5t-27.5 -6.5q-15 0 -32 7t-33 23z" />
    <glyph glyph-name="Gbreve" unicode="&#x11e;" horiz-adv-x="680" 
d="M534 529q-28 0 -43 14.5t-15 50.5v56q-21 5 -40 6.5t-41 1.5q-64 0 -116 -34t-82.5 -103t-30.5 -174q0 -115 27 -179.5t76 -90.5t116 -26q25 0 57 3.5t63 16.5v216h-112q-13 0 -19 8.5t-6 18.5q0 11 7 19.5t21 8.5h170q28 0 36 -10.5t8 -29.5v-207q0 -30 -8.5 -41
t-23.5 -17q-52 -20 -102.5 -28.5t-109.5 -8.5q-111 0 -180 42.5t-101 120.5t-32 186q0 125 45 204.5t120.5 117.5t164.5 38q38 0 77 -5.5t76 -16.5q23 -7 32 -16.5t9 -32.5v-59q0 -50 -43 -50zM526 890q0 -53 -40 -90t-107 -37q-66 0 -106 37t-40 90q0 11 7 19.5t20 8.5
q26 0 36 -27q14 -39 35.5 -50.5t47.5 -11.5q27 0 48.5 11.5t35.5 50.5q10 27 36 27q14 0 20.5 -8.5t6.5 -19.5z" />
    <glyph glyph-name="gbreve" unicode="&#x11f;" horiz-adv-x="568" 
d="M263 -180q47 0 82 18t54.5 45.5t19.5 56.5q0 36 -27.5 55.5t-71 28.5t-91.5 12q-79 6 -128 26t-49 66q0 21 12.5 35t32 23.5t40.5 18t38 20.5v3q-40 16 -57 50.5t-17 65.5q0 58 29 92.5t75 50t97 15.5q25 0 62.5 -7t62.5 -24q8 4 10 16.5t4.5 27t12.5 25t33 10.5
q14 0 24.5 -12.5t10.5 -29.5q0 -20 -18.5 -37t-38.5 -29q16 -17 26.5 -41.5t10.5 -50.5q0 -46 -28 -80t-73 -52.5t-98 -18.5q-17 0 -40 2t-40 7q-25 -19 -41 -27.5t-16 -28.5q0 -8 8 -16.5t32 -15t71 -8.5q128 -6 186.5 -46.5t58.5 -96.5q0 -53 -34.5 -96t-98.5 -68
t-153 -25q-83 0 -132 35t-49 88q0 33 17 55.5t38 34.5t33 12q11 0 17 -6t6 -14q0 -7 -8.5 -15.5t-16.5 -22t-8 -37.5q0 -41 38 -65.5t92 -24.5zM399 352q0 48 -25 79t-72 31q-45 0 -71.5 -30.5t-26.5 -83.5q0 -48 25.5 -78.5t72.5 -30.5q44 0 70.5 31.5t26.5 81.5zM440 683
q0 -53 -40 -90t-107 -37q-66 0 -106 37t-40 90q0 11 7 19.5t20 8.5q26 0 36 -27q14 -39 35.5 -50.5t47.5 -11.5q27 0 48.5 11.5t35.5 50.5q10 27 36 27q14 0 20.5 -8.5t6.5 -19.5z" />
    <glyph glyph-name="Gdotaccent" unicode="&#x120;" horiz-adv-x="680" 
d="M534 529q-28 0 -43 14.5t-15 50.5v56q-21 5 -40 6.5t-41 1.5q-64 0 -116 -34t-82.5 -103t-30.5 -174q0 -115 27 -179.5t76 -90.5t116 -26q25 0 57 3.5t63 16.5v216h-112q-13 0 -19 8.5t-6 18.5q0 11 7 19.5t21 8.5h170q28 0 36 -10.5t8 -29.5v-207q0 -30 -8.5 -41
t-23.5 -17q-52 -20 -102.5 -28.5t-109.5 -8.5q-111 0 -180 42.5t-101 120.5t-32 186q0 125 45 204.5t120.5 117.5t164.5 38q38 0 77 -5.5t76 -16.5q23 -7 32 -16.5t9 -32.5v-59q0 -50 -43 -50zM318 836q0 26 18.5 44t43.5 18q26 0 44 -18t18 -44q0 -25 -18 -43.5t-44 -18.5
q-25 0 -43.5 18.5t-18.5 43.5z" />
    <glyph glyph-name="gdotaccent" unicode="&#x121;" horiz-adv-x="568" 
d="M263 -180q47 0 82 18t54.5 45.5t19.5 56.5q0 36 -27.5 55.5t-71 28.5t-91.5 12q-79 6 -128 26t-49 66q0 21 12.5 35t32 23.5t40.5 18t38 20.5v3q-40 16 -57 50.5t-17 65.5q0 58 29 92.5t75 50t97 15.5q25 0 62.5 -7t62.5 -24q8 4 10 16.5t4.5 27t12.5 25t33 10.5
q14 0 24.5 -12.5t10.5 -29.5q0 -20 -18.5 -37t-38.5 -29q16 -17 26.5 -41.5t10.5 -50.5q0 -46 -28 -80t-73 -52.5t-98 -18.5q-17 0 -40 2t-40 7q-25 -19 -41 -27.5t-16 -28.5q0 -8 8 -16.5t32 -15t71 -8.5q128 -6 186.5 -46.5t58.5 -96.5q0 -53 -34.5 -96t-98.5 -68
t-153 -25q-83 0 -132 35t-49 88q0 33 17 55.5t38 34.5t33 12q11 0 17 -6t6 -14q0 -7 -8.5 -15.5t-16.5 -22t-8 -37.5q0 -41 38 -65.5t92 -24.5zM399 352q0 48 -25 79t-72 31q-45 0 -71.5 -30.5t-26.5 -83.5q0 -48 25.5 -78.5t72.5 -30.5q44 0 70.5 31.5t26.5 81.5zM232 629
q0 26 18.5 44t43.5 18q26 0 44 -18t18 -44q0 -25 -18 -43.5t-44 -18.5q-25 0 -43.5 18.5t-18.5 43.5z" />
    <glyph glyph-name="uni0122" unicode="&#x122;" horiz-adv-x="680" 
d="M534 529q-28 0 -43 14.5t-15 50.5v56q-21 5 -40 6.5t-41 1.5q-64 0 -116 -34t-82.5 -103t-30.5 -174q0 -115 27 -179.5t76 -90.5t116 -26q25 0 57 3.5t63 16.5v216h-112q-13 0 -19 8.5t-6 18.5q0 11 7 19.5t21 8.5h170q28 0 36 -10.5t8 -29.5v-207q0 -30 -8.5 -41
t-23.5 -17q-52 -20 -102.5 -28.5t-109.5 -8.5q-111 0 -180 42.5t-101 120.5t-32 186q0 125 45 204.5t120.5 117.5t164.5 38q38 0 77 -5.5t76 -16.5q23 -7 32 -16.5t9 -32.5v-59q0 -50 -43 -50zM369 -226q-21 -26 -46 -26q-10 0 -18 6t-8 16l24 131q5 23 19.5 33t37.5 10
q25 0 39.5 -10t14.5 -33q0 -24 -14 -53.5t-49 -73.5z" />
    <glyph glyph-name="uni0123" unicode="&#x123;" horiz-adv-x="568" 
d="M263 -180q47 0 82 18t54.5 45.5t19.5 56.5q0 36 -27.5 55.5t-71 28.5t-91.5 12q-79 6 -128 26t-49 66q0 21 12.5 35t32 23.5t40.5 18t38 20.5v3q-40 16 -57 50.5t-17 65.5q0 58 29 92.5t75 50t97 15.5q25 0 62.5 -7t62.5 -24q8 4 10 16.5t4.5 27t12.5 25t33 10.5
q14 0 24.5 -12.5t10.5 -29.5q0 -20 -18.5 -37t-38.5 -29q16 -17 26.5 -41.5t10.5 -50.5q0 -46 -28 -80t-73 -52.5t-98 -18.5q-17 0 -40 2t-40 7q-25 -19 -41 -27.5t-16 -28.5q0 -8 8 -16.5t32 -15t71 -8.5q128 -6 186.5 -46.5t58.5 -96.5q0 -53 -34.5 -96t-98.5 -68
t-153 -25q-83 0 -132 35t-49 88q0 33 17 55.5t38 34.5t33 12q11 0 17 -6t6 -14q0 -7 -8.5 -15.5t-16.5 -22t-8 -37.5q0 -41 38 -65.5t92 -24.5zM399 352q0 48 -25 79t-72 31q-45 0 -71.5 -30.5t-26.5 -83.5q0 -48 25.5 -78.5t72.5 -30.5q44 0 70.5 31.5t26.5 81.5zM305 708
q17 21 37 21q9 0 15 -5t6 -13l-19 -105q-4 -18 -15.5 -26t-30.5 -8q-20 0 -31.5 8t-11.5 26q0 20 11 43.5t39 58.5z" />
    <glyph glyph-name="Hcircumflex" unicode="&#x124;" horiz-adv-x="742" 
d="M596 709q46 0 46 -50v-609q0 -28 -10.5 -39t-33.5 -11q-64 0 -64 77v262h-326v-274q0 -36 -15.5 -50.5t-46.5 -14.5q-46 0 -46 50v609q0 28 10.5 39t33.5 11q64 0 64 -77v-238h326v250q0 36 15.5 50.5t46.5 14.5zM371 846l-52 -52q-16 -16 -33 -23t-32 -7q-16 0 -27 6.5
t-11 14.5q0 5 4 9l102 106q8 9 21.5 13.5t27.5 4.5t27.5 -4.5t21.5 -13.5l102 -106q4 -4 4 -9q0 -8 -10.5 -14.5t-27.5 -6.5q-15 0 -32 7t-33 23z" />
    <glyph glyph-name="hcircumflex" unicode="&#x125;" horiz-adv-x="580" 
d="M184 400h2q25 40 68 71t105 31q141 0 141 -151v-304q0 -22 -8 -34.5t-32 -12.5q-33 0 -48.5 18.5t-15.5 63.5v250q0 59 -25 81t-60 22q-28 0 -57.5 -17.5t-49.5 -46t-20 -61.5v-239q0 -45 -15.5 -58t-48.5 -13q-24 0 -32 12.5t-8 34.5v666q0 23 8 35t32 12
q33 0 48.5 -18.5t15.5 -63.5v-278zM120 897l-52 -52q-16 -16 -33 -23t-32 -7q-16 0 -27 6.5t-11 14.5q0 5 4 9l102 106q8 9 21.5 13.5t27.5 4.5t27.5 -4.5t21.5 -13.5l102 -106q4 -4 4 -9q0 -8 -10.5 -14.5t-27.5 -6.5q-15 0 -32 7t-33 23z" />
    <glyph glyph-name="Hbar" unicode="&#x126;" horiz-adv-x="742" 
d="M596 709q46 0 46 -50v-609q0 -28 -10.5 -39t-33.5 -11q-64 0 -64 77v262h-326v-274q0 -36 -15.5 -50.5t-46.5 -14.5q-46 0 -46 50v609q0 28 10.5 39t33.5 11q64 0 64 -77v-238h326v250q0 36 15.5 50.5t46.5 14.5z" />
    <glyph glyph-name="hbar" unicode="&#x127;" horiz-adv-x="580" 
d="M184 400h2q25 40 68 71t105 31q141 0 141 -151v-304q0 -22 -8 -34.5t-32 -12.5q-33 0 -48.5 18.5t-15.5 63.5v250q0 59 -25 81t-60 22q-28 0 -57.5 -17.5t-49.5 -46t-20 -61.5v-239q0 -45 -15.5 -58t-48.5 -13q-24 0 -32 12.5t-8 34.5v666q0 23 8 35t32 12
q33 0 48.5 -18.5t15.5 -63.5v-278zM12 588q-13 0 -18.5 7.5t-5.5 16.5q0 10 5.5 17.5t18.5 7.5h352q11 0 17.5 -7.5t6.5 -17.5q0 -9 -6.5 -16.5t-17.5 -7.5h-352z" />
    <glyph glyph-name="Itilde" unicode="&#x128;" horiz-adv-x="408" 
d="M50 0q-19 0 -24.5 7.5t-5.5 16.5q0 11 7.5 20t32.5 9h90v603h-90q-25 0 -32.5 9t-7.5 20q0 9 5.5 16.5t24.5 7.5h308q20 0 25 -7.5t5 -16.5q0 -11 -7 -20t-33 -9h-90v-603h90q26 0 33 -9t7 -20q0 -9 -5 -16.5t-25 -7.5h-308zM137 813q-16 0 -23 -6.5t-10 -14.5t-8 -14.5
t-19 -6.5q-17 0 -22.5 6t-5.5 14q0 18 11.5 40t34 38t54.5 16q8 -1 23 -3.5t40 -11.5q17 -7 31.5 -12.5t30.5 -5.5q14 0 20 5t10 12l10 16t22 8q12 0 17 -5.5t5 -13.5q0 -13 -7 -27q-16 -37 -39 -52t-46 -15q-20 0 -36 5t-33 12q-24 9 -37 12.5t-23 3.5z" />
    <glyph glyph-name="itilde" unicode="&#x129;" horiz-adv-x="274" 
d="M189 68q0 -45 -15.5 -56.5t-48.5 -11.5q-24 0 -32 12.5t-8 34.5v408q0 23 8 35t32 12q64 0 64 -67v-367zM68 606q-16 0 -23 -6.5t-10 -14.5t-8 -14.5t-19 -6.5q-17 0 -22.5 6t-5.5 14q0 18 11.5 40t34 38t54.5 16q8 -1 23 -3.5t40 -11.5q17 -7 31.5 -12.5t30.5 -5.5
q14 0 20 5t10 12l10 16t22 8q12 0 17 -5.5t5 -13.5q0 -13 -7 -27q-16 -37 -39 -52t-46 -15q-20 0 -36 5t-33 12q-24 9 -37 12.5t-23 3.5z" />
    <glyph glyph-name="Imacron" unicode="&#x12a;" horiz-adv-x="408" 
d="M50 0q-19 0 -24.5 7.5t-5.5 16.5q0 11 7.5 20t32.5 9h90v603h-90q-25 0 -32.5 9t-7.5 20q0 9 5.5 16.5t24.5 7.5h308q20 0 25 -7.5t5 -16.5q0 -11 -7 -20t-33 -9h-90v-603h90q26 0 33 -9t7 -20q0 -9 -5 -16.5t-25 -7.5h-308zM77 787q-10 0 -17 8.5t-7 21.5q0 14 7 22.5
t17 8.5h254q9 0 16.5 -8.5t7.5 -22.5q0 -30 -24 -30h-254z" />
    <glyph glyph-name="imacron" unicode="&#x12b;" horiz-adv-x="274" 
d="M189 68q0 -45 -15.5 -56.5t-48.5 -11.5q-24 0 -32 12.5t-8 34.5v408q0 23 8 35t32 12q64 0 64 -67v-367zM58 592q-13 0 -20 11t-7 24q0 14 7 25t20 11l154 -1q13 0 20.5 -10.5t7.5 -24.5q0 -13 -7 -24t-21 -11h-154z" />
    <glyph glyph-name="Ibreve" unicode="&#x12c;" horiz-adv-x="408" 
d="M50 0q-19 0 -24.5 7.5t-5.5 16.5q0 11 7.5 20t32.5 9h90v603h-90q-25 0 -32.5 9t-7.5 20q0 9 5.5 16.5t24.5 7.5h308q20 0 25 -7.5t5 -16.5q0 -11 -7 -20t-33 -9h-90v-603h90q26 0 33 -9t7 -20q0 -9 -5 -16.5t-25 -7.5h-308zM350 890q0 -53 -40 -90t-107 -37
q-66 0 -106 37t-40 90q0 11 7 19.5t20 8.5q26 0 36 -27q14 -39 35.5 -50.5t47.5 -11.5q27 0 48.5 11.5t35.5 50.5q10 27 36 27q14 0 20.5 -8.5t6.5 -19.5z" />
    <glyph glyph-name="ibreve" unicode="&#x12d;" horiz-adv-x="274" 
d="M189 68q0 -45 -15.5 -56.5t-48.5 -11.5q-24 0 -32 12.5t-8 34.5v408q0 23 8 35t32 12q64 0 64 -67v-367zM281 683q0 -53 -40 -90t-107 -37q-66 0 -106 37t-40 90q0 11 7 19.5t20 8.5q26 0 36 -27q14 -39 35.5 -50.5t47.5 -11.5q27 0 48.5 11.5t35.5 50.5q10 27 36 27
q14 0 20.5 -8.5t6.5 -19.5z" />
    <glyph glyph-name="Iogonek" unicode="&#x12e;" horiz-adv-x="408" 
d="M50 0q-19 0 -24.5 7.5t-5.5 16.5q0 11 7.5 20t32.5 9h90v603h-90q-25 0 -32.5 9t-7.5 20q0 9 5.5 16.5t24.5 7.5h308q20 0 25 -7.5t5 -16.5q0 -11 -7 -20t-33 -9h-90v-603h90q26 0 33 -9t7 -20q0 -9 -5 -16.5t-25 -7.5h-308zM420 10q-43 -36 -60 -64.5t-17 -52.5
q0 -19 11.5 -31t30.5 -12t29.5 5.5t18.5 11t19 5.5q19 0 19 -19q0 -17 -18 -28.5t-43.5 -17.5t-48.5 -6q-52 0 -73 26t-21 56q0 70 100 127h53z" />
    <glyph glyph-name="iogonek" unicode="&#x12f;" horiz-adv-x="274" 
d="M189 68q0 -45 -15.5 -56.5t-48.5 -11.5q-24 0 -32 12.5t-8 34.5v408q0 23 8 35t32 12q64 0 64 -67v-367zM73 629q0 26 18.5 44t43.5 18q26 0 44 -18t18 -44q0 -25 -18 -43.5t-44 -18.5q-25 0 -43.5 18.5t-18.5 43.5zM190 0q-43 -36 -60 -64.5t-17 -52.5q0 -19 11.5 -31
t30.5 -12t29.5 5.5t18.5 11t19 5.5q19 0 19 -19q0 -17 -18 -28.5t-43.5 -17.5t-48.5 -6q-52 0 -73 26t-21 56q0 70 100 127h53z" />
    <glyph glyph-name="Idotaccent" unicode="&#x130;" horiz-adv-x="408" 
d="M50 0q-19 0 -24.5 7.5t-5.5 16.5q0 11 7.5 20t32.5 9h90v603h-90q-25 0 -32.5 9t-7.5 20q0 9 5.5 16.5t24.5 7.5h308q20 0 25 -7.5t5 -16.5q0 -11 -7 -20t-33 -9h-90v-603h90q26 0 33 -9t7 -20q0 -9 -5 -16.5t-25 -7.5h-308zM142 836q0 26 18.5 44t43.5 18q26 0 44 -18
t18 -44q0 -25 -18 -43.5t-44 -18.5q-25 0 -43.5 18.5t-18.5 43.5z" />
    <glyph glyph-name="dotlessi" unicode="&#x131;" horiz-adv-x="274" 
d="M189 68q0 -45 -15.5 -56.5t-48.5 -11.5q-24 0 -32 12.5t-8 34.5v408q0 23 8 35t32 12q64 0 64 -67v-367z" />
    <glyph glyph-name="IJ" unicode="&#x132;" horiz-adv-x="892" 
d="M50 0q-19 0 -24.5 7.5t-5.5 16.5q0 11 7.5 20t32.5 9h90v603h-90q-25 0 -32.5 9t-7.5 20q0 9 5.5 16.5t24.5 7.5h308q20 0 25 -7.5t5 -16.5q0 -11 -7 -20t-33 -9h-90v-603h90q26 0 33 -9t7 -20q0 -9 -5 -16.5t-25 -7.5h-308zM770 709q46 0 46 -50v-398q0 -27 -4.5 -61.5
t-17.5 -69.5t-38.5 -64.5t-67.5 -47.5t-104 -18q-18 0 -42.5 3t-46 7.5t-32.5 10.5q-20 10 -20 31v67q0 50 43 50q29 0 43.5 -14.5t14.5 -50.5v-49q9 -1 21.5 -2t20.5 -1q49 0 75.5 24.5t36.5 60.5t10 71v436q0 36 15.5 50.5t46.5 14.5z" />
    <glyph glyph-name="ij" unicode="&#x133;" horiz-adv-x="540" 
d="M189 68q0 -45 -15.5 -56.5t-48.5 -11.5q-24 0 -32 12.5t-8 34.5v408q0 23 8 35t32 12q64 0 64 -67v-367zM73 629q0 26 18.5 44t43.5 18q26 0 44 -18t18 -44q0 -25 -18 -43.5t-44 -18.5q-25 0 -43.5 18.5t-18.5 43.5zM359 455q0 23 8 35t32 12q64 0 64 -68v-313
q0 -65 -15.5 -128t-45 -114.5t-72.5 -81.5q-10 -7 -21.5 -12t-24.5 -5q-27 0 -27 25q0 12 6 19.5t17 13.5q50 26 64.5 74.5t14.5 131.5v411zM347 629q0 26 18.5 44t43.5 18q26 0 44 -18t18 -44q0 -25 -18 -43.5t-44 -18.5q-25 0 -43.5 18.5t-18.5 43.5z" />
    <glyph glyph-name="Jcircumflex" unicode="&#x134;" horiz-adv-x="484" 
d="M362 709q46 0 46 -50v-398q0 -27 -4.5 -61.5t-17.5 -69.5t-38.5 -64.5t-67.5 -47.5t-104 -18q-18 0 -42.5 3t-46 7.5t-32.5 10.5q-20 10 -20 31v67q0 50 43 50q29 0 43.5 -14.5t14.5 -50.5v-49q9 -1 21.5 -2t20.5 -1q49 0 75.5 24.5t36.5 60.5t10 71v436q0 36 15.5 50.5
t46.5 14.5zM362 846l-52 -52q-16 -16 -33 -23t-32 -7q-16 0 -27 6.5t-11 14.5q0 5 4 9l102 106q8 9 21.5 13.5t27.5 4.5t27.5 -4.5t21.5 -13.5l102 -106q4 -4 4 -9q0 -8 -10.5 -14.5t-27.5 -6.5q-15 0 -32 7t-33 23z" />
    <glyph glyph-name="jcircumflex" unicode="&#x135;" horiz-adv-x="266" 
d="M85 455q0 23 8 35t32 12q64 0 64 -68v-313q0 -65 -15.5 -128t-45 -114.5t-72.5 -81.5q-10 -7 -21.5 -12t-24.5 -5q-27 0 -27 25q0 12 6 19.5t17 13.5q50 26 64.5 74.5t14.5 131.5v411zM135 639l-52 -52q-16 -16 -33 -23t-32 -7q-16 0 -27 6.5t-11 14.5q0 5 4 9l102 106
q8 9 21.5 13.5t27.5 4.5t27.5 -4.5t21.5 -13.5l102 -106q4 -4 4 -9q0 -8 -10.5 -14.5t-27.5 -6.5q-15 0 -32 7t-33 23z" />
    <glyph glyph-name="uni0136" unicode="&#x136;" horiz-adv-x="611" 
d="M208 382l310 307q11 11 20.5 15.5t19.5 4.5q16 0 26 -10.5t10 -21.5q0 -7 -5 -12l-286 -275l289 -324q6 -7 10 -14t4 -15q0 -14 -11 -25.5t-30 -11.5q-20 0 -41.5 9t-48.5 40l-249 285l-18 -19v-250q0 -36 -15.5 -50.5t-46.5 -14.5q-46 0 -46 50v609q0 28 10.5 39
t33.5 11q64 0 64 -77v-250zM295 -226q-21 -26 -46 -26q-10 0 -18 6t-8 16l24 131q5 23 19.5 33t37.5 10q25 0 39.5 -10t14.5 -33q0 -24 -14 -53.5t-49 -73.5z" />
    <glyph glyph-name="uni0137" unicode="&#x137;" horiz-adv-x="513" 
d="M184 279l136 124q41 38 74.5 68.5t68.5 30.5q18 0 23.5 -9t5.5 -18q0 -22 -26.5 -37.5t-73.5 -47.5q-30 -19 -58.5 -43.5t-65.5 -53.5q50 -60 105 -123t102 -119q8 -10 13 -17.5t5 -14.5t-7.5 -13t-40.5 -6q-36 0 -50.5 9t-25.5 22q-42 51 -86 105.5t-88 106.5l-11 -12
v-160q0 -45 -15.5 -58t-48.5 -13q-24 0 -32 12.5t-8 34.5v666q0 23 8 35t32 12q33 0 48.5 -18.5t15.5 -63.5v-399zM246 -225q-21 -26 -46 -26q-10 0 -18 6t-8 16l24 131q5 23 19.5 33t37.5 10q25 0 39.5 -10t14.5 -33q0 -24 -14 -53.5t-49 -73.5z" />
    <glyph glyph-name="kgreenlandic" unicode="&#x138;" horiz-adv-x="513" 
d="M184 279l136 124q41 38 74.5 68.5t68.5 30.5q18 0 23.5 -9t5.5 -18q0 -22 -26.5 -37.5t-73.5 -47.5q-30 -19 -58.5 -43.5t-65.5 -53.5q50 -60 105 -123t102 -119q8 -10 13 -17.5t5 -14.5t-7.5 -13t-40.5 -6q-36 0 -50.5 9t-25.5 22q-42 51 -86 105.5t-88 106.5l-11 -12
v-160q0 -45 -15.5 -58t-48.5 -13q-24 0 -32 12.5t-8 34.5v666q0 23 8 35t32 12q33 0 48.5 -18.5t15.5 -63.5v-399z" />
    <glyph glyph-name="Lacute" unicode="&#x139;" horiz-adv-x="571" 
d="M493 187q43 0 43 -50v-105q0 -18 -15.5 -25t-44.5 -7h-330q-46 0 -46 50v609q0 28 10.5 39t33.5 11q64 0 64 -77v-579h227v69q0 36 15 50.5t43 14.5zM303 782q-5 -7 -15.5 -11.5t-21.5 -4.5q-16 0 -23.5 8t-2.5 21l57 142q6 14 23 20t36 6q29 0 46.5 -9.5t6.5 -24.5z" />
    <glyph glyph-name="lacute" unicode="&#x13a;" horiz-adv-x="274" 
d="M189 68q0 -45 -15.5 -56.5t-48.5 -11.5q-24 0 -32 12.5t-8 34.5v666q0 23 8 35t32 12q33 0 48.5 -18.5t15.5 -63.5v-610zM142 833q-5 -7 -15.5 -11.5t-21.5 -4.5q-16 0 -23.5 8t-2.5 21l57 142q6 14 23 20t36 6q29 0 46.5 -9.5t6.5 -24.5z" />
    <glyph glyph-name="uni013B" unicode="&#x13b;" horiz-adv-x="571" 
d="M493 187q43 0 43 -50v-105q0 -18 -15.5 -25t-44.5 -7h-330q-46 0 -46 50v609q0 28 10.5 39t33.5 11q64 0 64 -77v-579h227v69q0 36 15 50.5t43 14.5zM275 -226q-21 -26 -46 -26q-10 0 -18 6t-8 16l24 131q5 23 19.5 33t37.5 10q25 0 39.5 -10t14.5 -33q0 -24 -14 -53.5
t-49 -73.5z" />
    <glyph glyph-name="uni013C" unicode="&#x13c;" horiz-adv-x="274" 
d="M189 68q0 -45 -15.5 -56.5t-48.5 -11.5q-24 0 -32 12.5t-8 34.5v666q0 23 8 35t32 12q33 0 48.5 -18.5t15.5 -63.5v-610zM126 -225q-21 -26 -46 -26q-10 0 -18 6t-8 16l24 131q5 23 19.5 33t37.5 10q25 0 39.5 -10t14.5 -33q0 -24 -14 -53.5t-49 -73.5z" />
    <glyph glyph-name="Lcaron" unicode="&#x13d;" horiz-adv-x="571" 
d="M493 187q43 0 43 -50v-105q0 -18 -15.5 -25t-44.5 -7h-330q-46 0 -46 50v609q0 28 10.5 39t33.5 11q64 0 64 -77v-579h227v69q0 36 15 50.5t43 14.5zM371 573q-17 -21 -37 -21q-9 0 -15 5t-6 13l19 105q4 18 15.5 26t30.5 8q20 0 31.5 -8t11.5 -26q0 -20 -11 -43.5
t-39 -58.5z" />
    <glyph glyph-name="lcaron" unicode="&#x13e;" horiz-adv-x="319" 
d="M189 68q0 -45 -15.5 -56.5t-48.5 -11.5q-24 0 -32 12.5t-8 34.5v666q0 23 8 35t32 12q33 0 48.5 -18.5t15.5 -63.5v-610zM299 602q-17 -21 -37 -21q-9 0 -15 5t-6 13l19 105q4 18 15.5 26t30.5 8q20 0 31.5 -8t11.5 -26q0 -20 -11 -43.5t-39 -58.5z" />
    <glyph glyph-name="Ldot" unicode="&#x13f;" horiz-adv-x="600" 
d="M493 187q43 0 43 -50v-105q0 -18 -15.5 -25t-44.5 -7h-330q-46 0 -46 50v609q0 28 10.5 39t33.5 11q64 0 64 -77v-579h227v69q0 36 15 50.5t43 14.5zM280 364q0 35 22.5 57t53.5 22q32 0 54 -22t22 -57q0 -33 -22 -55t-54 -22q-31 0 -53.5 22t-22.5 55z" />
    <glyph glyph-name="ldot" unicode="&#x140;" horiz-adv-x="402" 
d="M189 68q0 -45 -15.5 -56.5t-48.5 -11.5q-24 0 -32 12.5t-8 34.5v666q0 23 8 35t32 12q33 0 48.5 -18.5t15.5 -63.5v-610zM250 324q0 35 22.5 57t53.5 22q32 0 54 -22t22 -57q0 -33 -22 -55t-54 -22q-31 0 -53.5 22t-22.5 55z" />
    <glyph glyph-name="Lslash" unicode="&#x141;" horiz-adv-x="595" 
d="M232 324v-271h227v69q0 36 15 50.5t43 14.5q43 0 43 -50v-105q0 -18 -15.5 -25t-44.5 -7h-330q-46 0 -46 50v207l-86 -54q-4 -2 -6 -2q-10 0 -21.5 13t-12.5 23q0 6 5 9l121 77v336q0 28 10.5 39t33.5 11q64 0 64 -77v-240l159 101q2 1 5 1q10 0 21 -13t12 -25
q0 -8 -5 -11z" />
    <glyph glyph-name="lslash" unicode="&#x142;" horiz-adv-x="340" 
d="M111 359v354q0 23 8 35t32 12q33 0 48.5 -18.5t15.5 -63.5v-254l88 55q3 2 9 2q11 0 19.5 -9.5t8.5 -21.5t-10 -18l-115 -72v-292q0 -45 -15.5 -56.5t-48.5 -11.5q-24 0 -32 12.5t-8 34.5v248l-73 -45q-4 -3 -10 -3q-11 0 -19.5 10t-8.5 22q0 11 9 17z" />
    <glyph glyph-name="Nacute" unicode="&#x143;" horiz-adv-x="743" 
d="M138 0q-14 0 -26 10t-12 35v610q0 26 18 40t42 14q20 0 38 -8t34 -34l327 -519h5v505q0 32 14 44t27 12q14 0 26 -10t12 -35v-606q0 -29 -17.5 -43.5t-40.5 -14.5q-25 0 -43 10.5t-30 29.5l-327 521h-6v-505q0 -32 -13.5 -44t-27.5 -12zM389 782q-5 -7 -15.5 -11.5
t-21.5 -4.5q-16 0 -23.5 8t-2.5 21l57 142q6 14 23 20t36 6q29 0 46.5 -9.5t6.5 -24.5z" />
    <glyph glyph-name="nacute" unicode="&#x144;" horiz-adv-x="580" 
d="M80 459q0 24 10.5 33.5t32.5 9.5q27 0 43 -21t16 -65v-7h2q25 40 69 66.5t106 26.5q141 0 141 -151v-304q0 -22 -8 -34.5t-32 -12.5q-33 0 -48.5 18.5t-15.5 63.5v250q0 59 -25 81t-60 22q-28 0 -57.5 -15t-49.5 -41t-20 -59v-249q0 -45 -15.5 -58t-48.5 -13
q-24 0 -32 12.5t-8 34.5v412zM311 586q-13 -16 -37 -16q-11 0 -19 5t-8 14q0 5 2 9l52 125q6 14 22.5 20t34.5 6q25 0 39.5 -6.5t14.5 -17.5q0 -6 -3 -9z" />
    <glyph glyph-name="uni0145" unicode="&#x145;" horiz-adv-x="743" 
d="M138 0q-14 0 -26 10t-12 35v610q0 26 18 40t42 14q20 0 38 -8t34 -34l327 -519h5v505q0 32 14 44t27 12q14 0 26 -10t12 -35v-606q0 -29 -17.5 -43.5t-40.5 -14.5q-25 0 -43 10.5t-30 29.5l-327 521h-6v-505q0 -32 -13.5 -44t-27.5 -12zM361 -226q-21 -26 -46 -26
q-10 0 -18 6t-8 16l24 131q5 23 19.5 33t37.5 10q25 0 39.5 -10t14.5 -33q0 -24 -14 -53.5t-49 -73.5z" />
    <glyph glyph-name="uni0146" unicode="&#x146;" horiz-adv-x="580" 
d="M80 459q0 24 10.5 33.5t32.5 9.5q27 0 43 -21t16 -65v-7h2q25 40 69 66.5t106 26.5q141 0 141 -151v-304q0 -22 -8 -34.5t-32 -12.5q-33 0 -48.5 18.5t-15.5 63.5v250q0 59 -25 81t-60 22q-28 0 -57.5 -15t-49.5 -41t-20 -59v-249q0 -45 -15.5 -58t-48.5 -13
q-24 0 -32 12.5t-8 34.5v412zM279 -225q-21 -26 -46 -26q-10 0 -18 6t-8 16l24 131q5 23 19.5 33t37.5 10q25 0 39.5 -10t14.5 -33q0 -24 -14 -53.5t-49 -73.5z" />
    <glyph glyph-name="Ncaron" unicode="&#x147;" horiz-adv-x="743" 
d="M138 0q-14 0 -26 10t-12 35v610q0 26 18 40t42 14q20 0 38 -8t34 -34l327 -519h5v505q0 32 14 44t27 12q14 0 26 -10t12 -35v-606q0 -29 -17.5 -43.5t-40.5 -14.5q-25 0 -43 10.5t-30 29.5l-327 521h-6v-505q0 -32 -13.5 -44t-27.5 -12zM371 834l56 54q17 17 35.5 24
t34.5 7q18 0 29.5 -6.5t11.5 -15.5q0 -5 -4 -9l-110 -109q-19 -19 -49 -19q-17 0 -31 4.5t-25 14.5l-110 109q-4 4 -4 9q0 9 11.5 15.5t29.5 6.5q16 0 34 -7t36 -24z" />
    <glyph glyph-name="ncaron" unicode="&#x148;" horiz-adv-x="580" 
d="M80 459q0 24 10.5 33.5t32.5 9.5q27 0 43 -21t16 -65v-7h2q25 40 69 66.5t106 26.5q141 0 141 -151v-304q0 -22 -8 -34.5t-32 -12.5q-33 0 -48.5 18.5t-15.5 63.5v250q0 59 -25 81t-60 22q-28 0 -57.5 -15t-49.5 -41t-20 -59v-249q0 -45 -15.5 -58t-48.5 -13
q-24 0 -32 12.5t-8 34.5v412zM290 629l52 52q16 17 33 23.5t32 6.5q17 0 27.5 -6.5t10.5 -14.5q0 -5 -4 -9l-102 -106q-8 -9 -21.5 -13.5t-27.5 -4.5t-27.5 4.5t-21.5 13.5l-102 106q-4 4 -4 9q0 8 11 14.5t27 6.5q15 0 32 -6.5t33 -23.5z" />
    <glyph glyph-name="Eng" unicode="&#x14a;" horiz-adv-x="743" 
d="M605 709q14 0 26 -10t12 -35v-695q0 -53 -29.5 -96t-84.5 -68t-132 -25q-88 0 -122 28.5t-34 71.5q0 27 15.5 46t34.5 28.5t30 9.5q9 0 14 -5t5 -11t-6 -13t-12 -18t-6 -31q0 -28 28.5 -42.5t65.5 -14.5q36 0 71.5 12.5t59.5 37t23 61.5v30l-379 591h-6v-505
q0 -32 -13.5 -44t-27.5 -12t-26 10t-12 35v610q0 26 18 40t42 14q20 0 38 -8t34 -34l327 -519h5v505q0 32 14 44t27 12z" />
    <glyph glyph-name="eng" unicode="&#x14b;" horiz-adv-x="580" 
d="M292 -179q104 0 104 119v392q0 59 -25 81t-60 22q-28 0 -57.5 -15t-49.5 -41t-20 -59v-249q0 -45 -15.5 -58t-48.5 -13q-24 0 -32 12.5t-8 34.5v412q0 24 10.5 33.5t32.5 9.5q27 0 43 -21t16 -65v-7h2q25 40 69 66.5t106 26.5q141 0 141 -151v-382q0 -53 -26 -96
t-74.5 -68t-115.5 -25q-53 0 -84 15.5t-44.5 39.5t-13.5 49q0 30 14 47.5t32 25t30 7.5q9 0 14 -5t5 -11t-6.5 -13t-13.5 -18t-7 -31q0 -32 22.5 -48.5t59.5 -16.5z" />
    <glyph glyph-name="Omacron" unicode="&#x14c;" horiz-adv-x="716" 
d="M663 354q0 -33 -6 -78.5t-23.5 -93.5t-51 -89t-88.5 -67t-137 -26t-137 26t-88 67t-50.5 89t-23 93.5t-5.5 78.5q0 32 5.5 77.5t23 93.5t50.5 90t88 68t137 26t137 -26t88.5 -68t51 -90t23.5 -93.5t6 -77.5zM550 354q0 30 -3.5 70t-14 80.5t-31.5 75.5t-56 56.5t-88 21.5
q-52 0 -86.5 -21.5t-55.5 -56.5t-31.5 -75.5t-14 -80.5t-3.5 -70t3.5 -69.5t14 -80.5t31.5 -75.5t55.5 -56t86.5 -21.5q53 0 88 21.5t56 56t31.5 75.5t14 80.5t3.5 69.5zM231 787q-10 0 -17 8.5t-7 21.5q0 14 7 22.5t17 8.5h254q9 0 16.5 -8.5t7.5 -22.5q0 -30 -24 -30h-254
z" />
    <glyph glyph-name="omacron" unicode="&#x14d;" horiz-adv-x="558" 
d="M279 0q-106 0 -167.5 61.5t-61.5 189.5q0 88 29 143t80.5 81.5t119.5 26.5q103 0 166 -60t63 -191q0 -128 -61 -189.5t-168 -61.5zM279 40q36 0 63 17t42.5 63t15.5 131t-16 130.5t-43.5 63t-61.5 17.5q-33 0 -60.5 -17.5t-44 -63t-16.5 -130.5q0 -84 15.5 -130t43 -63.5
t62.5 -17.5zM162 597q-10 0 -17 8.5t-7 21.5q0 14 7 22.5t17 8.5h254q9 0 16.5 -8.5t7.5 -22.5q0 -30 -24 -30h-254z" />
    <glyph glyph-name="Obreve" unicode="&#x14e;" horiz-adv-x="716" 
d="M663 354q0 -33 -6 -78.5t-23.5 -93.5t-51 -89t-88.5 -67t-137 -26t-137 26t-88 67t-50.5 89t-23 93.5t-5.5 78.5q0 32 5.5 77.5t23 93.5t50.5 90t88 68t137 26t137 -26t88.5 -68t51 -90t23.5 -93.5t6 -77.5zM550 354q0 30 -3.5 70t-14 80.5t-31.5 75.5t-56 56.5t-88 21.5
q-52 0 -86.5 -21.5t-55.5 -56.5t-31.5 -75.5t-14 -80.5t-3.5 -70t3.5 -69.5t14 -80.5t31.5 -75.5t55.5 -56t86.5 -21.5q53 0 88 21.5t56 56t31.5 75.5t14 80.5t3.5 69.5zM504 890q0 -53 -40 -90t-107 -37q-66 0 -106 37t-40 90q0 11 7 19.5t20 8.5q26 0 36 -27
q14 -39 35.5 -50.5t47.5 -11.5q27 0 48.5 11.5t35.5 50.5q10 27 36 27q14 0 20.5 -8.5t6.5 -19.5z" />
    <glyph glyph-name="obreve" unicode="&#x14f;" horiz-adv-x="600" 
d="M279 0q-106 0 -167.5 61.5t-61.5 189.5q0 88 29 143t80.5 81.5t119.5 26.5q103 0 166 -60t63 -191q0 -128 -61 -189.5t-168 -61.5zM279 40q36 0 63 17t42.5 63t15.5 131t-16 130.5t-43.5 63t-61.5 17.5q-33 0 -60.5 -17.5t-44 -63t-16.5 -130.5q0 -84 15.5 -130t43 -63.5
t62.5 -17.5zM418 683q0 -53 -40 -90t-107 -37q-66 0 -106 37t-40 90q0 11 7 19.5t20 8.5q26 0 36 -27q14 -39 35.5 -50.5t47.5 -11.5q27 0 48.5 11.5t35.5 50.5q10 27 36 27q14 0 20.5 -8.5t6.5 -19.5z" />
    <glyph glyph-name="Ohungarumlaut" unicode="&#x150;" horiz-adv-x="716" 
d="M663 354q0 -33 -6 -78.5t-23.5 -93.5t-51 -89t-88.5 -67t-137 -26t-137 26t-88 67t-50.5 89t-23 93.5t-5.5 78.5q0 32 5.5 77.5t23 93.5t50.5 90t88 68t137 26t137 -26t88.5 -68t51 -90t23.5 -93.5t6 -77.5zM550 354q0 30 -3.5 70t-14 80.5t-31.5 75.5t-56 56.5t-88 21.5
q-52 0 -86.5 -21.5t-55.5 -56.5t-31.5 -75.5t-14 -80.5t-3.5 -70t3.5 -69.5t14 -80.5t31.5 -75.5t55.5 -56t86.5 -21.5q53 0 88 21.5t56 56t31.5 75.5t14 80.5t3.5 69.5zM298 753q-11 -13 -33 -13q-10 0 -17.5 4t-7.5 11q0 2 0.5 4t1.5 4l40 101q8 20 23.5 28t34.5 8
q20 0 31.5 -9.5t11.5 -25.5q0 -4 -3 -7zM460 753q-11 -13 -33 -13q-10 0 -17.5 4t-7.5 11q0 2 0.5 4t1.5 4l50 101q11 21 25 28.5t33 7.5q20 0 31.5 -9.5t11.5 -25.5q0 -4 -3 -7z" />
    <glyph glyph-name="ohungarumlaut" unicode="&#x151;" horiz-adv-x="558" 
d="M279 0q-106 0 -167.5 61.5t-61.5 189.5q0 88 29 143t80.5 81.5t119.5 26.5q103 0 166 -60t63 -191q0 -128 -61 -189.5t-168 -61.5zM279 40q36 0 63 17t42.5 63t15.5 131t-16 130.5t-43.5 63t-61.5 17.5q-33 0 -60.5 -17.5t-44 -63t-16.5 -130.5q0 -84 15.5 -130t43 -63.5
t62.5 -17.5zM249 586q-5 -7 -14.5 -11.5t-18.5 -4.5q-10 0 -17.5 5t-7.5 14q0 5 2 9l50 124q5 14 20.5 20t31.5 6q23 0 36 -6.5t13 -17.5q0 -6 -3 -9zM411 586q-5 -7 -14.5 -11.5t-18.5 -4.5q-10 0 -17.5 5t-7.5 14q0 5 2 9l50 124q5 14 20.5 20t31.5 6q23 0 36 -6.5
t13 -17.5q0 -6 -3 -9z" />
    <glyph glyph-name="OE" unicode="&#x152;" horiz-adv-x="1037" 
d="M939 535q-28 0 -43 14.5t-15 50.5v56h-237v-262h210q14 0 21 -8.5t7 -19.5q0 -10 -8.5 -18.5t-19.5 -8.5h-210v-286h252v56q0 36 15 50.5t43 14.5q43 0 43 -50v-87q0 -22 -15.5 -29.5t-44.5 -7.5h-355q-46 0 -46 50v26q-29 -34 -73 -55t-106 -21q-82 0 -137 26t-88 67
t-50.5 89t-23 93.5t-5.5 78.5q0 32 5.5 77.5t23 93.5t50.5 90t88 68t137 26q62 0 106 -21.5t73 -55.5v27q0 50 46 50h340q29 0 44.5 -7t15.5 -30v-87q0 -50 -43 -50zM536 354q0 30 -3 70t-13 80.5t-29.5 75.5t-52 56.5t-81.5 21.5q-52 0 -86.5 -21.5t-55.5 -56.5
t-31.5 -75.5t-14 -80.5t-3.5 -70t3.5 -69.5t14 -80.5t31.5 -75.5t55.5 -56t86.5 -21.5q49 0 81.5 21.5t52 56t29.5 75.5t13 80.5t3 69.5z" />
    <glyph glyph-name="oe" unicode="&#x153;" horiz-adv-x="876" 
d="M279 0q-106 0 -167.5 61.5t-61.5 189.5q0 88 29 143t80.5 81.5t119.5 26.5q59 0 105 -23.5t72 -73.5q53 97 179 97q89 0 145 -50.5t56 -150.5q0 -31 -18.5 -40t-38.5 -9h-269q-1 -6 -1 -11.5v-10.5q0 -82 32.5 -134t106.5 -52q41 0 67 14.5t42.5 34t28.5 33.5
q10 11 25 11q8 0 15.5 -5.5t7.5 -15.5q0 -18 -13 -34q-28 -34 -72 -58t-112 -24q-66 0 -111.5 24.5t-71.5 68.5q-26 -47 -70.5 -70t-104.5 -23zM629 462q-46 0 -77.5 -39t-38.5 -129h187q17 0 25.5 6t8.5 23q0 48 -15.5 79t-39.5 45.5t-50 14.5zM279 40q36 0 63 17t42.5 63
t15.5 131t-16 130.5t-43.5 63t-61.5 17.5q-33 0 -60.5 -17.5t-44 -63t-16.5 -130.5q0 -84 15.5 -130t43 -63.5t62.5 -17.5z" />
    <glyph glyph-name="Racute" unicode="&#x154;" horiz-adv-x="643" 
d="M100 659q0 28 10.5 39t33.5 11h189q50 0 95.5 -8.5t81 -29.5t56 -58.5t20.5 -96.5q0 -51 -26.5 -91.5t-66.5 -66t-82 -32.5l166 -267q9 -13 9 -26q0 -14 -12.5 -23.5t-38.5 -9.5q-18 0 -36.5 8.5t-31.5 29.5l-168 281h-91v-254q0 -36 -15.5 -50.5t-46.5 -14.5
q-46 0 -46 50v609zM208 656v-284h107q35 0 71.5 14t61.5 47t25 89q0 47 -15 74t-38.5 39.5t-49.5 16.5t-47 4h-115zM339 782q-5 -7 -15.5 -11.5t-21.5 -4.5q-16 0 -23.5 8t-2.5 21l57 142q6 14 23 20t36 6q29 0 46.5 -9.5t6.5 -24.5z" />
    <glyph glyph-name="racute" unicode="&#x155;" horiz-adv-x="395" 
d="M404 459q0 -18 -8.5 -28.5t-30.5 -10.5h-33q-54 0 -86.5 -18.5t-47 -47.5t-14.5 -59v-224q0 -45 -15.5 -58t-48.5 -13q-24 0 -32 12.5t-8 34.5v412q0 24 10.5 33.5t32.5 9.5q27 0 43 -21t16 -65v-25h2q12 19 32.5 45t52.5 46t76 20h12q26 0 36 -11.5t11 -31.5zM277 586
q-13 -16 -37 -16q-11 0 -19 5t-8 14q0 5 2 9l52 125q6 14 22.5 20t34.5 6q25 0 39.5 -6.5t14.5 -17.5q0 -6 -3 -9z" />
    <glyph glyph-name="uni0156" unicode="&#x156;" horiz-adv-x="643" 
d="M100 659q0 28 10.5 39t33.5 11h189q50 0 95.5 -8.5t81 -29.5t56 -58.5t20.5 -96.5q0 -51 -26.5 -91.5t-66.5 -66t-82 -32.5l166 -267q9 -13 9 -26q0 -14 -12.5 -23.5t-38.5 -9.5q-18 0 -36.5 8.5t-31.5 29.5l-168 281h-91v-254q0 -36 -15.5 -50.5t-46.5 -14.5
q-46 0 -46 50v609zM208 656v-284h107q35 0 71.5 14t61.5 47t25 89q0 47 -15 74t-38.5 39.5t-49.5 16.5t-47 4h-115zM311 -226q-21 -26 -46 -26q-10 0 -18 6t-8 16l24 131q5 23 19.5 33t37.5 10q25 0 39.5 -10t14.5 -33q0 -24 -14 -53.5t-49 -73.5z" />
    <glyph glyph-name="uni0157" unicode="&#x157;" horiz-adv-x="395" 
d="M404 459q0 -18 -8.5 -28.5t-30.5 -10.5h-33q-54 0 -86.5 -18.5t-47 -47.5t-14.5 -59v-224q0 -45 -15.5 -58t-48.5 -13q-24 0 -32 12.5t-8 34.5v412q0 24 10.5 33.5t32.5 9.5q27 0 43 -21t16 -65v-25h2q12 19 32.5 45t52.5 46t76 20h12q26 0 36 -11.5t11 -31.5zM117 -225
q-21 -26 -46 -26q-10 0 -18 6t-8 16l24 131q5 23 19.5 33t37.5 10q25 0 39.5 -10t14.5 -33q0 -24 -14 -53.5t-49 -73.5z" />
    <glyph glyph-name="Rcaron" unicode="&#x158;" horiz-adv-x="643" 
d="M100 659q0 28 10.5 39t33.5 11h189q50 0 95.5 -8.5t81 -29.5t56 -58.5t20.5 -96.5q0 -51 -26.5 -91.5t-66.5 -66t-82 -32.5l166 -267q9 -13 9 -26q0 -14 -12.5 -23.5t-38.5 -9.5q-18 0 -36.5 8.5t-31.5 29.5l-168 281h-91v-254q0 -36 -15.5 -50.5t-46.5 -14.5
q-46 0 -46 50v609zM208 656v-284h107q35 0 71.5 14t61.5 47t25 89q0 47 -15 74t-38.5 39.5t-49.5 16.5t-47 4h-115zM321 834l56 54q17 17 35.5 24t34.5 7q18 0 29.5 -6.5t11.5 -15.5q0 -5 -4 -9l-110 -109q-19 -19 -49 -19q-17 0 -31 4.5t-25 14.5l-110 109q-4 4 -4 9
q0 9 11.5 15.5t29.5 6.5q16 0 34 -7t36 -24z" />
    <glyph glyph-name="rcaron" unicode="&#x159;" horiz-adv-x="395" 
d="M404 459q0 -18 -8.5 -28.5t-30.5 -10.5h-33q-54 0 -86.5 -18.5t-47 -47.5t-14.5 -59v-224q0 -45 -15.5 -58t-48.5 -13q-24 0 -32 12.5t-8 34.5v412q0 24 10.5 33.5t32.5 9.5q27 0 43 -21t16 -65v-25h2q12 19 32.5 45t52.5 46t76 20h12q26 0 36 -11.5t11 -31.5zM256 629
l52 52q16 17 33 23.5t32 6.5q17 0 27.5 -6.5t10.5 -14.5q0 -5 -4 -9l-102 -106q-8 -9 -21.5 -13.5t-27.5 -4.5t-27.5 4.5t-21.5 13.5l-102 106q-4 4 -4 9q0 8 11 14.5t27 6.5q15 0 32 -6.5t33 -23.5z" />
    <glyph glyph-name="Sacute" unicode="&#x15a;" horiz-adv-x="631" 
d="M482 527q-28 0 -43 14t-15 48v51q-4 1 -8 2.5t-9 2.5q-46 13 -101 13q-47 0 -76.5 -19.5t-43 -48t-13.5 -56.5q0 -34 12.5 -56t42.5 -38.5t80 -35.5q88 -31 146 -57t87.5 -60.5t29.5 -92.5q0 -55 -32.5 -99t-94.5 -69.5t-153 -25.5q-46 0 -99.5 10t-88.5 23
q-22 9 -30.5 17.5t-8.5 30.5v60q0 48 43 48q29 0 43.5 -14t14.5 -49v-54q29 -10 59.5 -15.5t62.5 -5.5q57 0 95 19.5t57.5 50t19.5 62.5q0 34 -18 57t-55.5 41.5t-94.5 39.5q-69 26 -120.5 50.5t-80.5 60.5t-29 96q0 80 62 130.5t176 50.5q58 0 102.5 -9t82.5 -20
q23 -7 32 -16t9 -31v-58q0 -48 -43 -48zM333 782q-5 -7 -15.5 -11.5t-21.5 -4.5q-16 0 -23.5 8t-2.5 21l57 142q6 14 23 20t36 6q29 0 46.5 -9.5t6.5 -24.5z" />
    <glyph glyph-name="sacute" unicode="&#x15b;" horiz-adv-x="494" 
d="M349 122q0 30 -17.5 48t-47.5 31t-66 25q-46 16 -82.5 32.5t-58 42t-21.5 68.5q0 42 20 68.5t50.5 40.5t61.5 19t53 5q38 0 72 -6t58 -19q20 -10 36.5 -27t16.5 -40q0 -16 -12 -26t-27 -10q-22 0 -34 10t-20 26q-10 20 -29.5 36t-59.5 16q-34 0 -60 -17.5t-26 -56.5
q0 -27 16 -44t43.5 -29t61.5 -24q41 -14 81 -31.5t66.5 -43.5t26.5 -67q0 -45 -26.5 -78.5t-73 -52t-107.5 -18.5q-46 0 -84 9.5t-62 22.5q-20 11 -34.5 27.5t-14.5 38.5q0 17 13 27t26 10q22 0 35 -9.5t20 -26.5q10 -20 31.5 -39.5t71.5 -19.5q40 0 71.5 19t31.5 63z
M268 586q-13 -16 -37 -16q-11 0 -19 5t-8 14q0 5 2 9l52 125q6 14 22.5 20t34.5 6q25 0 39.5 -6.5t14.5 -17.5q0 -6 -3 -9z" />
    <glyph glyph-name="Scircumflex" unicode="&#x15c;" horiz-adv-x="631" 
d="M482 527q-28 0 -43 14t-15 48v51q-4 1 -8 2.5t-9 2.5q-46 13 -101 13q-47 0 -76.5 -19.5t-43 -48t-13.5 -56.5q0 -34 12.5 -56t42.5 -38.5t80 -35.5q88 -31 146 -57t87.5 -60.5t29.5 -92.5q0 -55 -32.5 -99t-94.5 -69.5t-153 -25.5q-46 0 -99.5 10t-88.5 23
q-22 9 -30.5 17.5t-8.5 30.5v60q0 48 43 48q29 0 43.5 -14t14.5 -49v-54q29 -10 59.5 -15.5t62.5 -5.5q57 0 95 19.5t57.5 50t19.5 62.5q0 34 -18 57t-55.5 41.5t-94.5 39.5q-69 26 -120.5 50.5t-80.5 60.5t-29 96q0 80 62 130.5t176 50.5q58 0 102.5 -9t82.5 -20
q23 -7 32 -16t9 -31v-58q0 -48 -43 -48zM316 846l-52 -52q-16 -16 -33 -23t-32 -7q-16 0 -27 6.5t-11 14.5q0 5 4 9l102 106q8 9 21.5 13.5t27.5 4.5t27.5 -4.5t21.5 -13.5l102 -106q4 -4 4 -9q0 -8 -10.5 -14.5t-27.5 -6.5q-15 0 -32 7t-33 23z" />
    <glyph glyph-name="scircumflex" unicode="&#x15d;" horiz-adv-x="600" 
d="M349 122q0 30 -17.5 48t-47.5 31t-66 25q-46 16 -82.5 32.5t-58 42t-21.5 68.5q0 42 20 68.5t50.5 40.5t61.5 19t53 5q38 0 72 -6t58 -19q20 -10 36.5 -27t16.5 -40q0 -16 -12 -26t-27 -10q-22 0 -34 10t-20 26q-10 20 -29.5 36t-59.5 16q-34 0 -60 -17.5t-26 -56.5
q0 -27 16 -44t43.5 -29t61.5 -24q41 -14 81 -31.5t66.5 -43.5t26.5 -67q0 -45 -26.5 -78.5t-73 -52t-107.5 -18.5q-46 0 -84 9.5t-62 22.5q-20 11 -34.5 27.5t-14.5 38.5q0 17 13 27t26 10q22 0 35 -9.5t20 -26.5q10 -20 31.5 -39.5t71.5 -19.5q40 0 71.5 19t31.5 63z
M280 639l-52 -52q-16 -16 -33 -23t-32 -7q-16 0 -27 6.5t-11 14.5q0 5 4 9l102 106q8 9 21.5 13.5t27.5 4.5t27.5 -4.5t21.5 -13.5l102 -106q4 -4 4 -9q0 -8 -10.5 -14.5t-27.5 -6.5q-15 0 -32 7t-33 23z" />
    <glyph glyph-name="Scedilla" unicode="&#x15e;" horiz-adv-x="631" 
d="M482 527q-28 0 -43 14t-15 48v51q-4 1 -8 2.5t-9 2.5q-46 13 -101 13q-47 0 -76.5 -19.5t-43 -48t-13.5 -56.5q0 -34 12.5 -56t42.5 -38.5t80 -35.5q88 -31 146 -57t87.5 -60.5t29.5 -92.5q0 -55 -32.5 -99t-94.5 -69.5t-153 -25.5q-46 0 -99.5 10t-88.5 23
q-22 9 -30.5 17.5t-8.5 30.5v60q0 48 43 48q29 0 43.5 -14t14.5 -49v-54q29 -10 59.5 -15.5t62.5 -5.5q57 0 95 19.5t57.5 50t19.5 62.5q0 34 -18 57t-55.5 41.5t-94.5 39.5q-69 26 -120.5 50.5t-80.5 60.5t-29 96q0 80 62 130.5t176 50.5q58 0 102.5 -9t82.5 -20
q23 -7 32 -16t9 -31v-58q0 -48 -43 -48zM343 -38q26 0 49 -6t37.5 -22t14.5 -46q0 -40 -31.5 -63t-79.5 -23q-17 0 -38.5 4.5t-37 13.5t-15.5 23q0 8 5.5 13.5t15.5 5.5q11 0 26.5 -5.5t31.5 -5.5q26 0 36.5 11t10.5 23q0 27 -20 33.5t-57 6.5v85h52v-48z" />
    <glyph glyph-name="scedilla" unicode="&#x15f;" horiz-adv-x="494" 
d="M349 122q0 30 -17.5 48t-47.5 31t-66 25q-46 16 -82.5 32.5t-58 42t-21.5 68.5q0 42 20 68.5t50.5 40.5t61.5 19t53 5q38 0 72 -6t58 -19q20 -10 36.5 -27t16.5 -40q0 -16 -12 -26t-27 -10q-22 0 -34 10t-20 26q-10 20 -29.5 36t-59.5 16q-34 0 -60 -17.5t-26 -56.5
q0 -27 16 -44t43.5 -29t61.5 -24q41 -14 81 -31.5t66.5 -43.5t26.5 -67q0 -45 -26.5 -78.5t-73 -52t-107.5 -18.5q-46 0 -84 9.5t-62 22.5q-20 11 -34.5 27.5t-14.5 38.5q0 17 13 27t26 10q22 0 35 -9.5t20 -26.5q10 -20 31.5 -39.5t71.5 -19.5q40 0 71.5 19t31.5 63z
M274 -38q26 0 49 -6t37.5 -22t14.5 -46q0 -40 -31.5 -63t-79.5 -23q-17 0 -38.5 4.5t-37 13.5t-15.5 23q0 8 5.5 13.5t15.5 5.5q11 0 26.5 -5.5t31.5 -5.5q26 0 36.5 11t10.5 23q0 27 -20 33.5t-57 6.5v85h52v-48z" />
    <glyph glyph-name="Scaron" unicode="&#x160;" horiz-adv-x="631" 
d="M482 527q-28 0 -43 14t-15 48v51q-4 1 -8 2.5t-9 2.5q-46 13 -101 13q-47 0 -76.5 -19.5t-43 -48t-13.5 -56.5q0 -34 12.5 -56t42.5 -38.5t80 -35.5q88 -31 146 -57t87.5 -60.5t29.5 -92.5q0 -55 -32.5 -99t-94.5 -69.5t-153 -25.5q-46 0 -99.5 10t-88.5 23
q-22 9 -30.5 17.5t-8.5 30.5v60q0 48 43 48q29 0 43.5 -14t14.5 -49v-54q29 -10 59.5 -15.5t62.5 -5.5q57 0 95 19.5t57.5 50t19.5 62.5q0 34 -18 57t-55.5 41.5t-94.5 39.5q-69 26 -120.5 50.5t-80.5 60.5t-29 96q0 80 62 130.5t176 50.5q58 0 102.5 -9t82.5 -20
q23 -7 32 -16t9 -31v-58q0 -48 -43 -48zM315 834l56 54q17 17 35.5 24t34.5 7q18 0 29.5 -6.5t11.5 -15.5q0 -5 -4 -9l-110 -109q-19 -19 -49 -19q-17 0 -31 4.5t-25 14.5l-110 109q-4 4 -4 9q0 9 11.5 15.5t29.5 6.5q16 0 34 -7t36 -24z" />
    <glyph glyph-name="scaron" unicode="&#x161;" horiz-adv-x="494" 
d="M349 122q0 30 -17.5 48t-47.5 31t-66 25q-46 16 -82.5 32.5t-58 42t-21.5 68.5q0 42 20 68.5t50.5 40.5t61.5 19t53 5q38 0 72 -6t58 -19q20 -10 36.5 -27t16.5 -40q0 -16 -12 -26t-27 -10q-22 0 -34 10t-20 26q-10 20 -29.5 36t-59.5 16q-34 0 -60 -17.5t-26 -56.5
q0 -27 16 -44t43.5 -29t61.5 -24q41 -14 81 -31.5t66.5 -43.5t26.5 -67q0 -45 -26.5 -78.5t-73 -52t-107.5 -18.5q-46 0 -84 9.5t-62 22.5q-20 11 -34.5 27.5t-14.5 38.5q0 17 13 27t26 10q22 0 35 -9.5t20 -26.5q10 -20 31.5 -39.5t71.5 -19.5q40 0 71.5 19t31.5 63z
M247 629l52 52q16 17 33 23.5t32 6.5q17 0 27.5 -6.5t10.5 -14.5q0 -5 -4 -9l-102 -106q-8 -9 -21.5 -13.5t-27.5 -4.5t-27.5 4.5t-21.5 13.5l-102 106q-4 4 -4 9q0 8 11 14.5t27 6.5q15 0 32 -6.5t33 -23.5z" />
    <glyph glyph-name="uni0162" unicode="&#x162;" horiz-adv-x="650" 
d="M379 656v-596q0 -36 -15.5 -48t-46.5 -12q-46 0 -46 50v606h-150v-71q0 -36 -14.5 -50.5t-43.5 -14.5q-43 0 -43 50v102q0 23 15.5 30t44.5 7h490q29 0 44.5 -7t15.5 -30v-102q0 -50 -43 -50q-28 0 -43 14.5t-15 50.5v71h-150zM352 -38q26 0 49 -6t37.5 -22t14.5 -46
q0 -40 -31.5 -63t-79.5 -23q-17 0 -38.5 4.5t-37 13.5t-15.5 23q0 8 5.5 13.5t15.5 5.5q11 0 26.5 -5.5t31.5 -5.5q26 0 36.5 11t10.5 23q0 27 -20 33.5t-57 6.5v85h52v-48z" />
    <glyph glyph-name="uni0163" unicode="&#x163;" horiz-adv-x="426" 
d="M261 0q-60 0 -93 21t-46 56.5t-13 80.5v295h-60q-26 0 -26 23q0 13 13 18t33.5 14.5t43.5 34.5q24 25 33.5 44t17 30t22.5 11q18 0 22.5 -13t4.5 -42v-71h121q11 0 17.5 -7.5t6.5 -17.5q0 -9 -6.5 -16.5t-17.5 -7.5h-121v-318q0 -52 19.5 -71.5t40.5 -19.5q30 0 46 14
t25.5 33t19 33t26.5 14q26 0 26 -24q0 -8 -5 -20t-10 -18q-26 -39 -63 -57.5t-77 -18.5zM280 -38q26 0 49 -6t37.5 -22t14.5 -46q0 -40 -31.5 -63t-79.5 -23q-17 0 -38.5 4.5t-37 13.5t-15.5 23q0 8 5.5 13.5t15.5 5.5q11 0 26.5 -5.5t31.5 -5.5q26 0 36.5 11t10.5 23
q0 27 -20 33.5t-57 6.5v85h52v-48z" />
    <glyph glyph-name="Tcaron" unicode="&#x164;" horiz-adv-x="650" 
d="M379 656v-596q0 -36 -15.5 -48t-46.5 -12q-46 0 -46 50v606h-150v-71q0 -36 -14.5 -50.5t-43.5 -14.5q-43 0 -43 50v102q0 23 15.5 30t44.5 7h490q29 0 44.5 -7t15.5 -30v-102q0 -50 -43 -50q-28 0 -43 14.5t-15 50.5v71h-150zM324 834l56 54q17 17 35.5 24t34.5 7
q18 0 29.5 -6.5t11.5 -15.5q0 -5 -4 -9l-110 -109q-19 -19 -49 -19q-17 0 -31 4.5t-25 14.5l-110 109q-4 4 -4 9q0 9 11.5 15.5t29.5 6.5q16 0 34 -7t36 -24z" />
    <glyph glyph-name="tcaron" unicode="&#x165;" horiz-adv-x="426" 
d="M261 0q-60 0 -93 21t-46 56.5t-13 80.5v295h-60q-26 0 -26 23q0 13 13 18t33.5 14.5t43.5 34.5q24 25 33.5 44t17 30t22.5 11q18 0 22.5 -13t4.5 -42v-71h121q11 0 17.5 -7.5t6.5 -17.5q0 -9 -6.5 -16.5t-17.5 -7.5h-121v-318q0 -52 19.5 -71.5t40.5 -19.5q30 0 46 14
t25.5 33t19 33t26.5 14q26 0 26 -24q0 -8 -5 -20t-10 -18q-26 -39 -63 -57.5t-77 -18.5zM322 602q-17 -21 -37 -21q-9 0 -15 5t-6 13l19 105q4 18 15.5 26t30.5 8q20 0 31.5 -8t11.5 -26q0 -20 -11 -43.5t-39 -58.5z" />
    <glyph glyph-name="Tbar" unicode="&#x166;" horiz-adv-x="650" 
d="M379 656v-596q0 -36 -15.5 -48t-46.5 -12q-46 0 -46 50v606h-150v-71q0 -36 -14.5 -50.5t-43.5 -14.5q-43 0 -43 50v102q0 23 15.5 30t44.5 7h490q29 0 44.5 -7t15.5 -30v-102q0 -50 -43 -50q-28 0 -43 14.5t-15 50.5v71h-150zM149 330q-13 0 -18.5 7.5t-5.5 16.5
q0 10 5.5 17.5t18.5 7.5h352q11 0 17.5 -7.5t6.5 -17.5q0 -9 -6.5 -16.5t-17.5 -7.5h-352z" />
    <glyph glyph-name="tbar" unicode="&#x167;" horiz-adv-x="426" 
d="M261 0q-60 0 -93 21t-46 56.5t-13 80.5v157h-62q-13 0 -18.5 7.5t-5.5 16.5q0 10 5.5 17.5t18.5 7.5h62v89h-60q-26 0 -26 23q0 13 13 18t33.5 14.5t43.5 34.5q24 25 33.5 44t17 30t22.5 11q18 0 22.5 -13t4.5 -42v-71h121q11 0 17.5 -7.5t6.5 -17.5q0 -9 -6.5 -16.5
t-17.5 -7.5h-121v-89h121q11 0 17.5 -7.5t6.5 -17.5q0 -9 -6.5 -16.5t-17.5 -7.5h-121v-180q0 -52 19.5 -71.5t40.5 -19.5q30 0 46 14t25.5 33t19 33t26.5 14q26 0 26 -24q0 -8 -5 -20t-10 -18q-26 -39 -63 -57.5t-77 -18.5z" />
    <glyph glyph-name="Utilde" unicode="&#x168;" horiz-adv-x="718" 
d="M201 219q0 -81 47 -127t130 -46q53 0 90.5 23t57.5 63.5t20 90.5v430q0 32 14 44t27 12q14 0 26 -10t12 -35v-410q0 -28 -6 -63.5t-22 -71.5t-45.5 -66.5t-77 -49t-116.5 -18.5q-72 0 -120 18.5t-77 48t-43.5 65t-19.5 71t-5 63.5v408q0 28 10.5 39t33.5 11q64 0 64 -77
v-413zM302 813q-16 0 -23 -6.5t-10 -14.5t-8 -14.5t-19 -6.5q-17 0 -22.5 6t-5.5 14q0 18 11.5 40t34 38t54.5 16q8 -1 23 -3.5t40 -11.5q17 -7 31.5 -12.5t30.5 -5.5q14 0 20 5t10 12l10 16t22 8q12 0 17 -5.5t5 -13.5q0 -13 -7 -27q-16 -37 -39 -52t-46 -15q-20 0 -36 5
t-33 12q-24 9 -37 12.5t-23 3.5z" />
    <glyph glyph-name="utilde" unicode="&#x169;" horiz-adv-x="580" 
d="M184 170q0 -59 25.5 -81t59.5 -22q28 0 57.5 15t49.5 41.5t20 58.5v248q0 45 15.5 58.5t48.5 13.5q24 0 32 -12t8 -35v-412q0 -24 -10 -33.5t-33 -9.5q-27 0 -43 19t-16 67v7h-2q-25 -40 -69 -66.5t-106 -26.5q-141 0 -141 151v304q0 23 8 35t32 12q33 0 48.5 -18.5
t15.5 -63.5v-250zM223 606q-16 0 -23 -6.5t-10 -14.5t-8 -14.5t-19 -6.5q-17 0 -22.5 6t-5.5 14q0 18 11.5 40t34 38t54.5 16q8 -1 23 -3.5t40 -11.5q17 -7 31.5 -12.5t30.5 -5.5q14 0 20 5t10 12l10 16t22 8q12 0 17 -5.5t5 -13.5q0 -13 -7 -27q-16 -37 -39 -52t-46 -15
q-20 0 -36 5t-33 12q-24 9 -37 12.5t-23 3.5z" />
    <glyph glyph-name="Umacron" unicode="&#x16a;" horiz-adv-x="718" 
d="M201 219q0 -81 47 -127t130 -46q53 0 90.5 23t57.5 63.5t20 90.5v430q0 32 14 44t27 12q14 0 26 -10t12 -35v-410q0 -28 -6 -63.5t-22 -71.5t-45.5 -66.5t-77 -49t-116.5 -18.5q-72 0 -120 18.5t-77 48t-43.5 65t-19.5 71t-5 63.5v408q0 28 10.5 39t33.5 11q64 0 64 -77
v-413zM242 787q-10 0 -17 8.5t-7 21.5q0 14 7 22.5t17 8.5h254q9 0 16.5 -8.5t7.5 -22.5q0 -30 -24 -30h-254z" />
    <glyph glyph-name="umacron" unicode="&#x16b;" horiz-adv-x="580" 
d="M184 170q0 -59 25.5 -81t59.5 -22q28 0 57.5 15t49.5 41.5t20 58.5v248q0 45 15.5 58.5t48.5 13.5q24 0 32 -12t8 -35v-412q0 -24 -10 -33.5t-33 -9.5q-27 0 -43 19t-16 67v7h-2q-25 -40 -69 -66.5t-106 -26.5q-141 0 -141 151v304q0 23 8 35t32 12q33 0 48.5 -18.5
t15.5 -63.5v-250zM163 597q-10 0 -17 8.5t-7 21.5q0 14 7 22.5t17 8.5h254q9 0 16.5 -8.5t7.5 -22.5q0 -30 -24 -30h-254z" />
    <glyph glyph-name="Ubreve" unicode="&#x16c;" horiz-adv-x="718" 
d="M201 219q0 -81 47 -127t130 -46q53 0 90.5 23t57.5 63.5t20 90.5v430q0 32 14 44t27 12q14 0 26 -10t12 -35v-410q0 -28 -6 -63.5t-22 -71.5t-45.5 -66.5t-77 -49t-116.5 -18.5q-72 0 -120 18.5t-77 48t-43.5 65t-19.5 71t-5 63.5v408q0 28 10.5 39t33.5 11q64 0 64 -77
v-413zM515 890q0 -53 -40 -90t-107 -37q-66 0 -106 37t-40 90q0 11 7 19.5t20 8.5q26 0 36 -27q14 -39 35.5 -50.5t47.5 -11.5q27 0 48.5 11.5t35.5 50.5q10 27 36 27q14 0 20.5 -8.5t6.5 -19.5z" />
    <glyph glyph-name="ubreve" unicode="&#x16d;" horiz-adv-x="600" 
d="M184 170q0 -59 25.5 -81t59.5 -22q28 0 57.5 15t49.5 41.5t20 58.5v248q0 45 15.5 58.5t48.5 13.5q24 0 32 -12t8 -35v-412q0 -24 -10 -33.5t-33 -9.5q-27 0 -43 19t-16 67v7h-2q-25 -40 -69 -66.5t-106 -26.5q-141 0 -141 151v304q0 23 8 35t32 12q33 0 48.5 -18.5
t15.5 -63.5v-250zM418 683q0 -53 -40 -90t-107 -37q-66 0 -106 37t-40 90q0 11 7 19.5t20 8.5q26 0 36 -27q14 -39 35.5 -50.5t47.5 -11.5q27 0 48.5 11.5t35.5 50.5q10 27 36 27q14 0 20.5 -8.5t6.5 -19.5z" />
    <glyph glyph-name="Uring" unicode="&#x16e;" horiz-adv-x="718" 
d="M201 219q0 -81 47 -127t130 -46q53 0 90.5 23t57.5 63.5t20 90.5v430q0 32 14 44t27 12q14 0 26 -10t12 -35v-410q0 -28 -6 -63.5t-22 -71.5t-45.5 -66.5t-77 -49t-116.5 -18.5q-72 0 -120 18.5t-77 48t-43.5 65t-19.5 71t-5 63.5v408q0 28 10.5 39t33.5 11q64 0 64 -77
v-413zM261 869q0 46 31 77t77 31q45 0 76.5 -31t31.5 -77q0 -45 -31.5 -76.5t-76.5 -31.5q-46 0 -77 31.5t-31 76.5zM316 869q0 -21 16 -36.5t37 -15.5q20 0 36 15.5t16 36.5t-16 37t-36 16q-21 0 -37 -16t-16 -37z" />
    <glyph glyph-name="uring" unicode="&#x16f;" horiz-adv-x="580" 
d="M184 170q0 -59 25.5 -81t59.5 -22q28 0 57.5 15t49.5 41.5t20 58.5v248q0 45 15.5 58.5t48.5 13.5q24 0 32 -12t8 -35v-412q0 -24 -10 -33.5t-33 -9.5q-27 0 -43 19t-16 67v7h-2q-25 -40 -69 -66.5t-106 -26.5q-141 0 -141 151v304q0 23 8 35t32 12q33 0 48.5 -18.5
t15.5 -63.5v-250zM182 662q0 46 31 77t77 31q45 0 76.5 -31t31.5 -77q0 -45 -31.5 -76.5t-76.5 -31.5q-46 0 -77 31.5t-31 76.5zM237 662q0 -21 16 -36.5t37 -15.5q20 0 36 15.5t16 36.5t-16 37t-36 16q-21 0 -37 -16t-16 -37z" />
    <glyph glyph-name="Uhungarumlaut" unicode="&#x170;" horiz-adv-x="718" 
d="M201 219q0 -81 47 -127t130 -46q53 0 90.5 23t57.5 63.5t20 90.5v430q0 32 14 44t27 12q14 0 26 -10t12 -35v-410q0 -28 -6 -63.5t-22 -71.5t-45.5 -66.5t-77 -49t-116.5 -18.5q-72 0 -120 18.5t-77 48t-43.5 65t-19.5 71t-5 63.5v408q0 28 10.5 39t33.5 11q64 0 64 -77
v-413zM309 753q-11 -13 -33 -13q-10 0 -17.5 4t-7.5 11q0 2 0.5 4t1.5 4l40 101q8 20 23.5 28t34.5 8q20 0 31.5 -9.5t11.5 -25.5q0 -4 -3 -7zM471 753q-11 -13 -33 -13q-10 0 -17.5 4t-7.5 11q0 2 0.5 4t1.5 4l50 101q11 21 25 28.5t33 7.5q20 0 31.5 -9.5t11.5 -25.5
q0 -4 -3 -7z" />
    <glyph glyph-name="uhungarumlaut" unicode="&#x171;" horiz-adv-x="580" 
d="M184 170q0 -59 25.5 -81t59.5 -22q28 0 57.5 15t49.5 41.5t20 58.5v248q0 45 15.5 58.5t48.5 13.5q24 0 32 -12t8 -35v-412q0 -24 -10 -33.5t-33 -9.5q-27 0 -43 19t-16 67v7h-2q-25 -40 -69 -66.5t-106 -26.5q-141 0 -141 151v304q0 23 8 35t32 12q33 0 48.5 -18.5
t15.5 -63.5v-250zM250 586q-5 -7 -14.5 -11.5t-18.5 -4.5q-10 0 -17.5 5t-7.5 14q0 5 2 9l50 124q5 14 20.5 20t31.5 6q23 0 36 -6.5t13 -17.5q0 -6 -3 -9zM412 586q-5 -7 -14.5 -11.5t-18.5 -4.5q-10 0 -17.5 5t-7.5 14q0 5 2 9l50 124q5 14 20.5 20t31.5 6q23 0 36 -6.5
t13 -17.5q0 -6 -3 -9z" />
    <glyph glyph-name="Uogonek" unicode="&#x172;" horiz-adv-x="718" 
d="M201 219q0 -81 47 -127t130 -46q53 0 90.5 23t57.5 63.5t20 90.5v430q0 32 14 44t27 12q14 0 26 -10t12 -35v-410q0 -28 -6 -63.5t-22 -71.5t-45.5 -66.5t-77 -49t-116.5 -18.5q-72 0 -120 18.5t-77 48t-43.5 65t-19.5 71t-5 63.5v408q0 28 10.5 39t33.5 11q64 0 64 -77
v-413zM488 10q-43 -36 -60 -64.5t-17 -52.5q0 -19 11.5 -31t30.5 -12t29.5 5.5t18.5 11t19 5.5q19 0 19 -19q0 -17 -18 -28.5t-43.5 -17.5t-48.5 -6q-52 0 -73 26t-21 56q0 70 100 127h53z" />
    <glyph glyph-name="uogonek" unicode="&#x173;" horiz-adv-x="580" 
d="M184 170q0 -59 25.5 -81t59.5 -22q28 0 57.5 15t49.5 41.5t20 58.5v248q0 45 15.5 58.5t48.5 13.5q24 0 32 -12t8 -35v-412q0 -24 -10 -33.5t-33 -9.5q-27 0 -43 19t-16 67v7h-2q-25 -40 -69 -66.5t-106 -26.5q-141 0 -141 151v304q0 23 8 35t32 12q33 0 48.5 -18.5
t15.5 -63.5v-250zM491 10q-43 -36 -60 -64.5t-17 -52.5q0 -19 11.5 -31t30.5 -12t29.5 5.5t18.5 11t19 5.5q19 0 19 -19q0 -17 -18 -28.5t-43.5 -17.5t-48.5 -6q-52 0 -73 26t-21 56q0 70 100 127h53z" />
    <glyph glyph-name="Wcircumflex" unicode="&#x174;" horiz-adv-x="849" 
d="M741 656q11 36 26.5 44.5t29.5 8.5t22 -8t8 -19q0 -12 -5 -25l-167 -617q-7 -23 -24.5 -31.5t-37.5 -8.5q-16 0 -35 8t-24 28l-105 481h-2l-116 -477q-6 -23 -24 -31.5t-38 -8.5q-17 0 -35.5 8t-23.5 28l-160 614q-4 11 -4 22q0 15 10 26t32 11q14 0 35.5 -8.5
t32.5 -44.5l124 -543h6l119 533q8 32 19.5 47.5t34.5 15.5t35 -18.5t16 -41.5l114 -536h6zM425 846l-52 -52q-16 -16 -33 -23t-32 -7q-16 0 -27 6.5t-11 14.5q0 5 4 9l102 106q8 9 21.5 13.5t27.5 4.5t27.5 -4.5t21.5 -13.5l102 -106q4 -4 4 -9q0 -8 -10.5 -14.5t-27.5 -6.5
q-15 0 -32 7t-33 23z" />
    <glyph glyph-name="wcircumflex" unicode="&#x175;" horiz-adv-x="768" 
d="M400 502q28 0 38.5 -21.5t23.5 -72.5l81 -310h5l46 135q13 37 23 77t18.5 74.5t13.5 53.5q7 24 18.5 44t38.5 20q13 0 22.5 -5t9.5 -18q0 -16 -5 -27l-150 -427q-4 -13 -21 -19t-37 -6q-18 0 -33 6t-20 19l-86 312h-6l-106 -312q-4 -13 -21 -19t-37 -6q-18 0 -33 6
t-20 19l-128 427q-3 7 -4 13t-1 10q0 17 12 22t25 5q23 0 48 -14.5t34 -52.5l85 -337h5l46 136q13 38 23.5 77.5t19.5 73t15 52.5q12 39 22.5 52t34.5 13zM384 639l-52 -52q-16 -16 -33 -23t-32 -7q-16 0 -27 6.5t-11 14.5q0 5 4 9l102 106q8 9 21.5 13.5t27.5 4.5
t27.5 -4.5t21.5 -13.5l102 -106q4 -4 4 -9q0 -8 -10.5 -14.5t-27.5 -6.5q-15 0 -32 7t-33 23z" />
    <glyph glyph-name="Ycircumflex" unicode="&#x176;" horiz-adv-x="547" 
d="M268 0q-47 0 -47 50v218l-197 381q-6 14 -6 25q0 15 10 25t26 10q25 0 43 -10t34 -42l159 -314h4l150 313q14 29 29 41t32 12q15 0 21.5 -10t6.5 -23q0 -12 -5 -22l-199 -386v-208q0 -36 -15 -48t-46 -12zM284 846l-52 -52q-16 -16 -33 -23t-32 -7q-16 0 -27 6.5
t-11 14.5q0 5 4 9l102 106q8 9 21.5 13.5t27.5 4.5t27.5 -4.5t21.5 -13.5l102 -106q4 -4 4 -9q0 -8 -10.5 -14.5t-27.5 -6.5q-15 0 -32 7t-33 23z" />
    <glyph glyph-name="ycircumflex" unicode="&#x177;" horiz-adv-x="512" 
d="M304 8q-15 -37 -34.5 -77t-44.5 -74.5t-56.5 -55.5t-69.5 -21q-20 0 -34 10.5t-14 25.5q0 25 15 35t39 10q28 0 50 9t36 28t23.5 42t18.5 51l-198 461q-3 7 -4 13t-1 10q0 17 12 22t25 5q23 0 45.5 -15.5t36.5 -51.5l131 -327h5l60 175q18 53 27.5 86t19.5 70
q7 24 19 43.5t39 19.5q13 0 22.5 -5t9.5 -18q0 -9 -1.5 -14.5t-3.5 -12.5zM256 639l-52 -52q-16 -16 -33 -23t-32 -7q-16 0 -27 6.5t-11 14.5q0 5 4 9l102 106q8 9 21.5 13.5t27.5 4.5t27.5 -4.5t21.5 -13.5l102 -106q4 -4 4 -9q0 -8 -10.5 -14.5t-27.5 -6.5q-15 0 -32 7
t-33 23z" />
    <glyph glyph-name="Ydieresis" unicode="&#x178;" horiz-adv-x="547" 
d="M268 0q-47 0 -47 50v218l-197 381q-6 14 -6 25q0 15 10 25t26 10q25 0 43 -10t34 -42l159 -314h4l150 313q14 29 29 41t32 12q15 0 21.5 -10t6.5 -23q0 -12 -5 -22l-199 -386v-208q0 -36 -15 -48t-46 -12zM112 852q0 28 21 48.5t46 20.5q29 0 49.5 -20.5t20.5 -48.5
q0 -26 -20.5 -47t-49.5 -21q-25 0 -46 21t-21 47zM319 851q0 29 20.5 49t47.5 20t48 -20t21 -49q0 -26 -21 -47t-48 -21t-47.5 21t-20.5 47z" />
    <glyph glyph-name="Zacute" unicode="&#x179;" horiz-adv-x="592" 
d="M85 0q-24 0 -34.5 15t-10.5 34q0 9 2 19.5t6 16.5l383 571h-268v-56q0 -36 -14.5 -50.5t-43.5 -14.5q-43 0 -43 50v87q0 23 15.5 30t44.5 7h377q23 0 34 -15.5t11 -35.5q0 -8 -2 -18.5t-6 -15.5l-392 -571h307v56q0 36 15 50.5t43 14.5q43 0 43 -50v-87
q0 -22 -15.5 -29.5t-44.5 -7.5h-407zM313 782q-5 -7 -15.5 -11.5t-21.5 -4.5q-16 0 -23.5 8t-2.5 21l57 142q6 14 23 20t36 6q29 0 46.5 -9.5t6.5 -24.5z" />
    <glyph glyph-name="zacute" unicode="&#x17a;" horiz-adv-x="474" 
d="M407 502q21 0 29 -9.5t8 -19.5q0 -13 -4.5 -24.5t-10.5 -19.5l-288 -382h204v24q0 41 12 52.5t43 11.5q22 0 29.5 -11t7.5 -31v-62q0 -17 -9 -24t-23 -7h-337q-22 0 -30 9.5t-8 19.5q0 13 4.5 24.5t10.5 19.5l286 382h-188v-24q0 -40 -12 -52t-43 -12q-22 0 -29.5 11
t-7.5 31v62q0 17 9 24t23 7h324zM269 586q-13 -16 -37 -16q-11 0 -19 5t-8 14q0 5 2 9l52 125q6 14 22.5 20t34.5 6q25 0 39.5 -6.5t14.5 -17.5q0 -6 -3 -9z" />
    <glyph glyph-name="Zdotaccent" unicode="&#x17b;" horiz-adv-x="592" 
d="M85 0q-24 0 -34.5 15t-10.5 34q0 9 2 19.5t6 16.5l383 571h-268v-56q0 -36 -14.5 -50.5t-43.5 -14.5q-43 0 -43 50v87q0 23 15.5 30t44.5 7h377q23 0 34 -15.5t11 -35.5q0 -8 -2 -18.5t-6 -15.5l-392 -571h307v56q0 36 15 50.5t43 14.5q43 0 43 -50v-87
q0 -22 -15.5 -29.5t-44.5 -7.5h-407zM234 836q0 26 18.5 44t43.5 18q26 0 44 -18t18 -44q0 -25 -18 -43.5t-44 -18.5q-25 0 -43.5 18.5t-18.5 43.5z" />
    <glyph glyph-name="zdotaccent" unicode="&#x17c;" horiz-adv-x="474" 
d="M407 502q21 0 29 -9.5t8 -19.5q0 -13 -4.5 -24.5t-10.5 -19.5l-288 -382h204v24q0 41 12 52.5t43 11.5q22 0 29.5 -11t7.5 -31v-62q0 -17 -9 -24t-23 -7h-337q-22 0 -30 9.5t-8 19.5q0 13 4.5 24.5t10.5 19.5l286 382h-188v-24q0 -40 -12 -52t-43 -12q-22 0 -29.5 11
t-7.5 31v62q0 17 9 24t23 7h324zM186 629q0 26 18.5 44t43.5 18q26 0 44 -18t18 -44q0 -25 -18 -43.5t-44 -18.5q-25 0 -43.5 18.5t-18.5 43.5z" />
    <glyph glyph-name="Zcaron" unicode="&#x17d;" horiz-adv-x="592" 
d="M85 0q-24 0 -34.5 15t-10.5 34q0 9 2 19.5t6 16.5l383 571h-268v-56q0 -36 -14.5 -50.5t-43.5 -14.5q-43 0 -43 50v87q0 23 15.5 30t44.5 7h377q23 0 34 -15.5t11 -35.5q0 -8 -2 -18.5t-6 -15.5l-392 -571h307v56q0 36 15 50.5t43 14.5q43 0 43 -50v-87
q0 -22 -15.5 -29.5t-44.5 -7.5h-407zM295 834l56 54q17 17 35.5 24t34.5 7q18 0 29.5 -6.5t11.5 -15.5q0 -5 -4 -9l-110 -109q-19 -19 -49 -19q-17 0 -31 4.5t-25 14.5l-110 109q-4 4 -4 9q0 9 11.5 15.5t29.5 6.5q16 0 34 -7t36 -24z" />
    <glyph glyph-name="zcaron" unicode="&#x17e;" horiz-adv-x="474" 
d="M407 502q21 0 29 -9.5t8 -19.5q0 -13 -4.5 -24.5t-10.5 -19.5l-288 -382h204v24q0 41 12 52.5t43 11.5q22 0 29.5 -11t7.5 -31v-62q0 -17 -9 -24t-23 -7h-337q-22 0 -30 9.5t-8 19.5q0 13 4.5 24.5t10.5 19.5l286 382h-188v-24q0 -40 -12 -52t-43 -12q-22 0 -29.5 11
t-7.5 31v62q0 17 9 24t23 7h324zM248 629l52 52q16 17 33 23.5t32 6.5q17 0 27.5 -6.5t10.5 -14.5q0 -5 -4 -9l-102 -106q-8 -9 -21.5 -13.5t-27.5 -4.5t-27.5 4.5t-21.5 13.5l-102 106q-4 4 -4 9q0 8 11 14.5t27 6.5q15 0 32 -6.5t33 -23.5z" />
    <glyph glyph-name="uni018F" unicode="&#x18f;" horiz-adv-x="665" 
d="M314 709q156 0 227 -94t71 -261q0 -33 -5.5 -78.5t-22 -93.5t-48 -89t-82.5 -67t-128 -26q-136 0 -205 86t-78 254q-1 23 14.5 38.5t37.5 15.5h403q-4 103 -31.5 160t-73.5 80t-107 23q-31 0 -65 -7.5t-66 -21.5l-19 -8q-2 -1 -4 -1.5t-4 -0.5q-10 0 -17 10t-7 20
q0 14 13 20l17 7q37 15 78.5 24.5t101.5 9.5zM326 51q45 0 76 19.5t50 51.5t29 70.5t13.5 77t4.5 69.5h-304q-18 0 -30 -10t-11 -26q2 -40 11 -83.5t27.5 -82t51 -62.5t82.5 -24z" />
    <glyph glyph-name="florin" unicode="&#x192;" horiz-adv-x="530" 
d="M88 475q4 17 13 21.5t19 5.5h72q16 63 36 102.5t42.5 64t46.5 41.5q34 23 72.5 36.5t83.5 13.5q42 0 64.5 -15t22.5 -34q0 -18 -10 -29.5t-29 -11.5q-16 0 -26 7.5t-18.5 17.5t-19 17.5t-27.5 7.5q-20 0 -43.5 -11.5t-43.5 -42t-32 -88.5l-16 -76h111q17 0 24 -5.5
t7 -13.5q0 -10 -8 -19.5t-25 -9.5h-119l-71 -333q-15 -70 -40 -131t-65 -110q-9 -11 -25 -27.5t-36 -33t-40.5 -28t-37.5 -11.5q-10 0 -20 4t-10 13q1 14 10 24t22 17q18 9 34 20t31.5 31t29.5 57t27 98l87 410h-57q-36 0 -36 21z" />
    <glyph glyph-name="Ohorn" unicode="&#x1a0;" horiz-adv-x="716" 
d="M663 354q0 -33 -6 -78.5t-23.5 -93.5t-51 -89t-88.5 -67t-137 -26t-137 26t-88 67t-50.5 89t-23 93.5t-5.5 78.5q0 32 5.5 77.5t23 93.5t50.5 90t88 68t137 26t137 -26t88.5 -68t51 -90t23.5 -93.5t6 -77.5zM550 354q0 30 -3.5 70t-14 80.5t-31.5 75.5t-56 56.5t-88 21.5
q-52 0 -86.5 -21.5t-55.5 -56.5t-31.5 -75.5t-14 -80.5t-3.5 -70t3.5 -69.5t14 -80.5t31.5 -75.5t55.5 -56t86.5 -21.5q53 0 88 21.5t56 56t31.5 75.5t14 80.5t3.5 69.5zM573 757q0 23 11 34t41 11q29 0 39.5 -12.5t10.5 -39.5q0 -35 -23 -61t-62 -39.5t-87 -13.5v41h38
q19 0 25.5 19.5t6.5 60.5z" />
    <glyph glyph-name="ohorn" unicode="&#x1a1;" horiz-adv-x="558" 
d="M279 0q-106 0 -167.5 61.5t-61.5 189.5q0 88 29 143t80.5 81.5t119.5 26.5q103 0 166 -60t63 -191q0 -128 -61 -189.5t-168 -61.5zM279 40q36 0 63 17t42.5 63t15.5 131t-16 130.5t-43.5 63t-61.5 17.5q-33 0 -60.5 -17.5t-44 -63t-16.5 -130.5q0 -84 15.5 -130t43 -63.5
t62.5 -17.5zM480 549q0 23 11 34t41 11q29 0 39.5 -12.5t10.5 -39.5q0 -35 -23 -61t-62 -39.5t-87 -13.5v41h38q19 0 25.5 19.5t6.5 60.5z" />
    <glyph glyph-name="Uhorn" unicode="&#x1af;" horiz-adv-x="718" 
d="M201 219q0 -81 47 -127t130 -46q53 0 90.5 23t57.5 63.5t20 90.5v430q0 32 14 44t27 12q14 0 26 -10t12 -35v-410q0 -28 -6 -63.5t-22 -71.5t-45.5 -66.5t-77 -49t-116.5 -18.5q-72 0 -120 18.5t-77 48t-43.5 65t-19.5 71t-5 63.5v408q0 28 10.5 39t33.5 11q64 0 64 -77
v-413zM657 789q0 23 11 34t41 11q29 0 39.5 -12.5t10.5 -39.5q0 -35 -23 -61t-62 -39.5t-87 -13.5v41h38q19 0 25.5 19.5t6.5 60.5z" />
    <glyph glyph-name="uhorn" unicode="&#x1b0;" horiz-adv-x="580" 
d="M184 170q0 -59 25.5 -81t59.5 -22q28 0 57.5 15t49.5 41.5t20 58.5v248q0 45 15.5 58.5t48.5 13.5q24 0 32 -12t8 -35v-412q0 -24 -10 -33.5t-33 -9.5q-27 0 -43 19t-16 67v7h-2q-25 -40 -69 -66.5t-106 -26.5q-141 0 -141 151v304q0 23 8 35t32 12q33 0 48.5 -18.5
t15.5 -63.5v-250zM530 582q0 23 11 34t41 11q29 0 39.5 -12.5t10.5 -39.5q0 -35 -23 -61t-62 -39.5t-87 -13.5v41h38q19 0 25.5 19.5t6.5 60.5z" />
    <glyph glyph-name="uni01C4" unicode="&#x1c4;" horiz-adv-x="1285" 
d="M100 659q0 50 46 50h143q44 0 92.5 -7.5t94.5 -28t83 -59.5t59 -101.5t22 -154.5q0 -85 -22.5 -146t-60 -102t-83 -65t-92.5 -34.5t-88 -10.5h-148q-46 0 -46 50v609zM208 656v-603h22v1h47q69 0 126 31t90.5 98t33.5 175q0 111 -33.5 176t-90.5 93.5t-126 28.5h-69z
M778 0q-24 0 -34.5 15t-10.5 34q0 9 2 19.5t6 16.5l383 571h-268v-56q0 -36 -14.5 -50.5t-43.5 -14.5q-43 0 -43 50v87q0 23 15.5 30t44.5 7h377q23 0 34 -15.5t11 -35.5q0 -8 -2 -18.5t-6 -15.5l-392 -571h307v56q0 36 15 50.5t43 14.5q43 0 43 -50v-87q0 -22 -15.5 -29.5
t-44.5 -7.5h-407zM988 834l56 54q17 17 35.5 24t34.5 7q18 0 29.5 -6.5t11.5 -15.5q0 -5 -4 -9l-110 -109q-19 -19 -49 -19q-17 0 -31 4.5t-25 14.5l-110 109q-4 4 -4 9q0 9 11.5 15.5t29.5 6.5q16 0 34 -7t36 -24z" />
    <glyph glyph-name="uni01C5" unicode="&#x1c5;" horiz-adv-x="1167" 
d="M100 659q0 50 46 50h143q44 0 92.5 -7.5t94.5 -28t83 -59.5t59 -101.5t22 -154.5q0 -85 -22.5 -146t-60 -102t-83 -65t-92.5 -34.5t-88 -10.5h-148q-46 0 -46 50v609zM208 656v-603h22v1h47q69 0 126 31t90.5 98t33.5 175q0 111 -33.5 176t-90.5 93.5t-126 28.5h-69z
M1100 502q21 0 29 -9.5t8 -19.5q0 -13 -4.5 -24.5t-10.5 -19.5l-288 -382h204v24q0 41 12 52.5t43 11.5q22 0 29.5 -11t7.5 -31v-62q0 -17 -9 -24t-23 -7h-337q-22 0 -30 9.5t-8 19.5q0 13 4.5 24.5t10.5 19.5l286 382h-188v-24q0 -40 -12 -52t-43 -12q-22 0 -29.5 11
t-7.5 31v62q0 17 9 24t23 7h324zM940 627l56 54q17 17 35.5 24t34.5 7q18 0 29.5 -6.5t11.5 -15.5q0 -5 -4 -9l-110 -109q-19 -19 -49 -19q-17 0 -31 4.5t-25 14.5l-110 109q-4 4 -4 9q0 9 11.5 15.5t29.5 6.5q16 0 34 -7t36 -24z" />
    <glyph glyph-name="uni01C6" unicode="&#x1c6;" horiz-adv-x="1037" 
d="M288 502q24 0 48 -4.5t43 -12.5v193q0 45 15.5 63.5t48.5 18.5q24 0 32 -12t8 -35v-666q0 -22 -7.5 -34.5t-31.5 -12.5q-33 0 -47 27.5t-14 76.5l-3 1q-16 -26 -37 -50.5t-50.5 -39.5t-71.5 -15t-81.5 21t-64.5 71t-25 137q0 144 64.5 208.5t173.5 64.5zM158 237
q0 -64 14 -101t37.5 -53t51.5 -16t55 19.5t45.5 49t18.5 58.5v209q0 20 -23.5 39.5t-68.5 19.5q-39 0 -68.5 -19t-45.5 -68t-16 -138zM970 502q21 0 29 -9.5t8 -19.5q0 -13 -4.5 -24.5t-10.5 -19.5l-288 -382h204v24q0 41 12 52.5t43 11.5q22 0 29.5 -11t7.5 -31v-62
q0 -17 -9 -24t-23 -7h-337q-22 0 -30 9.5t-8 19.5q0 13 4.5 24.5t10.5 19.5l286 382h-188v-24q0 -40 -12 -52t-43 -12q-22 0 -29.5 11t-7.5 31v62q0 17 9 24t23 7h324zM811 629l52 52q16 17 33 23.5t32 6.5q17 0 27.5 -6.5t10.5 -14.5q0 -5 -4 -9l-102 -106
q-8 -9 -21.5 -13.5t-27.5 -4.5t-27.5 4.5t-21.5 13.5l-102 106q-4 4 -4 9q0 8 11 14.5t27 6.5q15 0 32 -6.5t33 -23.5z" />
    <glyph glyph-name="uni01C7" unicode="&#x1c7;" horiz-adv-x="1055" 
d="M493 187q43 0 43 -50v-105q0 -18 -15.5 -25t-44.5 -7h-330q-46 0 -46 50v609q0 28 10.5 39t33.5 11q64 0 64 -77v-579h227v69q0 36 15 50.5t43 14.5zM933 709q46 0 46 -50v-398q0 -27 -4.5 -61.5t-17.5 -69.5t-38.5 -64.5t-67.5 -47.5t-104 -18q-18 0 -42.5 3t-46 7.5
t-32.5 10.5q-20 10 -20 31v67q0 50 43 50q29 0 43.5 -14.5t14.5 -50.5v-49q9 -1 21.5 -2t20.5 -1q49 0 75.5 24.5t36.5 60.5t10 71v436q0 36 15.5 50.5t46.5 14.5z" />
    <glyph glyph-name="uni01C8" unicode="&#x1c8;" horiz-adv-x="837" 
d="M493 187q43 0 43 -50v-105q0 -18 -15.5 -25t-44.5 -7h-330q-46 0 -46 50v609q0 28 10.5 39t33.5 11q64 0 64 -77v-579h227v69q0 36 15 50.5t43 14.5zM656 455q0 23 8 35t32 12q64 0 64 -68v-313q0 -65 -15.5 -128t-45 -114.5t-72.5 -81.5q-10 -7 -21.5 -12t-24.5 -5
q-27 0 -27 25q0 12 6 19.5t17 13.5q50 26 64.5 74.5t14.5 131.5v411zM644 629q0 26 18.5 44t43.5 18q26 0 44 -18t18 -44q0 -25 -18 -43.5t-44 -18.5q-25 0 -43.5 18.5t-18.5 43.5z" />
    <glyph glyph-name="uni01C9" unicode="&#x1c9;" horiz-adv-x="540" 
d="M189 68q0 -45 -15.5 -56.5t-48.5 -11.5q-24 0 -32 12.5t-8 34.5v666q0 23 8 35t32 12q33 0 48.5 -18.5t15.5 -63.5v-610zM359 455q0 23 8 35t32 12q64 0 64 -68v-313q0 -65 -15.5 -128t-45 -114.5t-72.5 -81.5q-10 -7 -21.5 -12t-24.5 -5q-27 0 -27 25q0 12 6 19.5
t17 13.5q50 26 64.5 74.5t14.5 131.5v411zM347 629q0 26 18.5 44t43.5 18q26 0 44 -18t18 -44q0 -25 -18 -43.5t-44 -18.5q-25 0 -43.5 18.5t-18.5 43.5z" />
    <glyph glyph-name="uni01CA" unicode="&#x1ca;" horiz-adv-x="1227" 
d="M138 0q-14 0 -26 10t-12 35v610q0 26 18 40t42 14q20 0 38 -8t34 -34l327 -519h5v505q0 32 14 44t27 12q14 0 26 -10t12 -35v-606q0 -29 -17.5 -43.5t-40.5 -14.5q-25 0 -43 10.5t-30 29.5l-327 521h-6v-505q0 -32 -13.5 -44t-27.5 -12zM1105 709q46 0 46 -50v-398
q0 -27 -4.5 -61.5t-17.5 -69.5t-38.5 -64.5t-67.5 -47.5t-104 -18q-18 0 -42.5 3t-46 7.5t-32.5 10.5q-20 10 -20 31v67q0 50 43 50q29 0 43.5 -14.5t14.5 -50.5v-49q9 -1 21.5 -2t20.5 -1q49 0 75.5 24.5t36.5 60.5t10 71v436q0 36 15.5 50.5t46.5 14.5z" />
    <glyph glyph-name="uni01CB" unicode="&#x1cb;" horiz-adv-x="1009" 
d="M138 0q-14 0 -26 10t-12 35v610q0 26 18 40t42 14q20 0 38 -8t34 -34l327 -519h5v505q0 32 14 44t27 12q14 0 26 -10t12 -35v-606q0 -29 -17.5 -43.5t-40.5 -14.5q-25 0 -43 10.5t-30 29.5l-327 521h-6v-505q0 -32 -13.5 -44t-27.5 -12zM828 455q0 23 8 35t32 12
q64 0 64 -68v-313q0 -65 -15.5 -128t-45 -114.5t-72.5 -81.5q-10 -7 -21.5 -12t-24.5 -5q-27 0 -27 25q0 12 6 19.5t17 13.5q50 26 64.5 74.5t14.5 131.5v411zM816 629q0 26 18.5 44t43.5 18q26 0 44 -18t18 -44q0 -25 -18 -43.5t-44 -18.5q-25 0 -43.5 18.5t-18.5 43.5z
" />
    <glyph glyph-name="uni01CC" unicode="&#x1cc;" horiz-adv-x="806" 
d="M80 459q0 24 10.5 33.5t32.5 9.5q27 0 43 -21t16 -65v-7h2q25 40 69 66.5t106 26.5q141 0 141 -151v-304q0 -22 -8 -34.5t-32 -12.5q-33 0 -48.5 18.5t-15.5 63.5v250q0 59 -25 81t-60 22q-28 0 -57.5 -15t-49.5 -41t-20 -59v-249q0 -45 -15.5 -58t-48.5 -13
q-24 0 -32 12.5t-8 34.5v412zM625 455q0 23 8 35t32 12q64 0 64 -68v-313q0 -65 -15.5 -128t-45 -114.5t-72.5 -81.5q-10 -7 -21.5 -12t-24.5 -5q-27 0 -27 25q0 12 6 19.5t17 13.5q50 26 64.5 74.5t14.5 131.5v411zM613 629q0 26 18.5 44t43.5 18q26 0 44 -18t18 -44
q0 -25 -18 -43.5t-44 -18.5q-25 0 -43.5 18.5t-18.5 43.5z" />
    <glyph glyph-name="uni01CD" unicode="&#x1cd;" horiz-adv-x="617" 
d="M103 53q-13 -35 -30 -44t-31 -9t-20.5 8t-6.5 19q0 12 5 25l235 633q5 12 20.5 18t34.5 6q20 0 38.5 -6.5t22.5 -20.5l229 -634q1 -4 1.5 -7.5t0.5 -7.5q0 -13 -8.5 -23t-30.5 -10q-9 0 -23.5 3.5t-28.5 15t-23 34.5l-53 137h-281zM299 591h-6l-123 -349h250zM308 834
l56 54q17 17 35.5 24t34.5 7q18 0 29.5 -6.5t11.5 -15.5q0 -5 -4 -9l-110 -109q-19 -19 -49 -19q-17 0 -31 4.5t-25 14.5l-110 109q-4 4 -4 9q0 9 11.5 15.5t29.5 6.5q16 0 34 -7t36 -24z" />
    <glyph glyph-name="uni01CE" unicode="&#x1ce;" horiz-adv-x="546" 
d="M370 95q-33 -49 -75.5 -72t-100.5 -23q-76 0 -113.5 37.5t-37.5 97.5q0 32 11 63.5t39 56.5t77 40t125 15h73v28q0 69 -23.5 96.5t-76.5 27.5q-31 0 -52.5 -13t-35.5 -29q-15 -16 -30 -25.5t-31 -9.5q-18 0 -26.5 10.5t-8.5 23.5q0 21 16 33.5t39 22.5q34 14 75.5 20.5
t73.5 6.5q74 0 114 -20.5t55.5 -60.5t15.5 -100v-274q0 -22 -7.5 -34.5t-31.5 -12.5q-33 0 -47 22.5t-14 71.5zM311 268q-64 0 -100 -16t-50 -43t-14 -60q0 -46 24 -64t63 -18q25 0 56.5 12.5t55 38.5t23.5 66v84h-58zM273 629l52 52q16 17 33 23.5t32 6.5q17 0 27.5 -6.5
t10.5 -14.5q0 -5 -4 -9l-102 -106q-8 -9 -21.5 -13.5t-27.5 -4.5t-27.5 4.5t-21.5 13.5l-102 106q-4 4 -4 9q0 8 11 14.5t27 6.5q15 0 32 -6.5t33 -23.5z" />
    <glyph glyph-name="Gcaron" unicode="&#x1e6;" horiz-adv-x="680" 
d="M534 529q-28 0 -43 14.5t-15 50.5v56q-21 5 -40 6.5t-41 1.5q-64 0 -116 -34t-82.5 -103t-30.5 -174q0 -115 27 -179.5t76 -90.5t116 -26q25 0 57 3.5t63 16.5v216h-112q-13 0 -19 8.5t-6 18.5q0 11 7 19.5t21 8.5h170q28 0 36 -10.5t8 -29.5v-207q0 -30 -8.5 -41
t-23.5 -17q-52 -20 -102.5 -28.5t-109.5 -8.5q-111 0 -180 42.5t-101 120.5t-32 186q0 125 45 204.5t120.5 117.5t164.5 38q38 0 77 -5.5t76 -16.5q23 -7 32 -16.5t9 -32.5v-59q0 -50 -43 -50zM379 834l56 54q17 17 35.5 24t34.5 7q18 0 29.5 -6.5t11.5 -15.5q0 -5 -4 -9
l-110 -109q-19 -19 -49 -19q-17 0 -31 4.5t-25 14.5l-110 109q-4 4 -4 9q0 9 11.5 15.5t29.5 6.5q16 0 34 -7t36 -24z" />
    <glyph glyph-name="gcaron" unicode="&#x1e7;" horiz-adv-x="568" 
d="M263 -180q47 0 82 18t54.5 45.5t19.5 56.5q0 36 -27.5 55.5t-71 28.5t-91.5 12q-79 6 -128 26t-49 66q0 21 12.5 35t32 23.5t40.5 18t38 20.5v3q-40 16 -57 50.5t-17 65.5q0 58 29 92.5t75 50t97 15.5q25 0 62.5 -7t62.5 -24q8 4 10 16.5t4.5 27t12.5 25t33 10.5
q14 0 24.5 -12.5t10.5 -29.5q0 -20 -18.5 -37t-38.5 -29q16 -17 26.5 -41.5t10.5 -50.5q0 -46 -28 -80t-73 -52.5t-98 -18.5q-17 0 -40 2t-40 7q-25 -19 -41 -27.5t-16 -28.5q0 -8 8 -16.5t32 -15t71 -8.5q128 -6 186.5 -46.5t58.5 -96.5q0 -53 -34.5 -96t-98.5 -68
t-153 -25q-83 0 -132 35t-49 88q0 33 17 55.5t38 34.5t33 12q11 0 17 -6t6 -14q0 -7 -8.5 -15.5t-16.5 -22t-8 -37.5q0 -41 38 -65.5t92 -24.5zM399 352q0 48 -25 79t-72 31q-45 0 -71.5 -30.5t-26.5 -83.5q0 -48 25.5 -78.5t72.5 -30.5q44 0 70.5 31.5t26.5 81.5zM294 629
l52 52q16 17 33 23.5t32 6.5q17 0 27.5 -6.5t10.5 -14.5q0 -5 -4 -9l-102 -106q-8 -9 -21.5 -13.5t-27.5 -4.5t-27.5 4.5t-21.5 13.5l-102 106q-4 4 -4 9q0 8 11 14.5t27 6.5q15 0 32 -6.5t33 -23.5z" />
    <glyph glyph-name="uni01EA" unicode="&#x1ea;" horiz-adv-x="716" 
d="M663 354q0 -33 -6 -78.5t-23.5 -93.5t-51 -89t-88.5 -67t-137 -26t-137 26t-88 67t-50.5 89t-23 93.5t-5.5 78.5q0 32 5.5 77.5t23 93.5t50.5 90t88 68t137 26t137 -26t88.5 -68t51 -90t23.5 -93.5t6 -77.5zM550 354q0 30 -3.5 70t-14 80.5t-31.5 75.5t-56 56.5t-88 21.5
q-52 0 -86.5 -21.5t-55.5 -56.5t-31.5 -75.5t-14 -80.5t-3.5 -70t3.5 -69.5t14 -80.5t31.5 -75.5t55.5 -56t86.5 -21.5q53 0 88 21.5t56 56t31.5 75.5t14 80.5t3.5 69.5zM498 29q-43 -36 -60 -64.5t-17 -52.5q0 -19 11.5 -31t30.5 -12t29.5 5.5t18.5 11t19 5.5q19 0 19 -19
q0 -17 -18 -28.5t-43.5 -17.5t-48.5 -6q-52 0 -73 26t-21 56q0 70 100 127h53z" />
    <glyph glyph-name="uni01EB" unicode="&#x1eb;" horiz-adv-x="600" 
d="M279 0q-106 0 -167.5 61.5t-61.5 189.5q0 88 29 143t80.5 81.5t119.5 26.5q103 0 166 -60t63 -191q0 -128 -61 -189.5t-168 -61.5zM279 40q36 0 63 17t42.5 63t15.5 131t-16 130.5t-43.5 63t-61.5 17.5q-33 0 -60.5 -17.5t-44 -63t-16.5 -130.5q0 -84 15.5 -130t43 -63.5
t62.5 -17.5zM373 20q-43 -36 -60 -64.5t-17 -52.5q0 -19 11.5 -31t30.5 -12t29.5 5.5t18.5 11t19 5.5q19 0 19 -19q0 -17 -18 -28.5t-43.5 -17.5t-48.5 -6q-52 0 -73 26t-21 56q0 70 100 127h53z" />
    <glyph glyph-name="uni01F1" unicode="&#x1f1;" horiz-adv-x="1285" 
d="M100 659q0 50 46 50h143q44 0 92.5 -7.5t94.5 -28t83 -59.5t59 -101.5t22 -154.5q0 -85 -22.5 -146t-60 -102t-83 -65t-92.5 -34.5t-88 -10.5h-148q-46 0 -46 50v609zM208 656v-603h22v1h47q69 0 126 31t90.5 98t33.5 175q0 111 -33.5 176t-90.5 93.5t-126 28.5h-69z
M778 0q-24 0 -34.5 15t-10.5 34q0 9 2 19.5t6 16.5l383 571h-268v-56q0 -36 -14.5 -50.5t-43.5 -14.5q-43 0 -43 50v87q0 23 15.5 30t44.5 7h377q23 0 34 -15.5t11 -35.5q0 -8 -2 -18.5t-6 -15.5l-392 -571h307v56q0 36 15 50.5t43 14.5q43 0 43 -50v-87q0 -22 -15.5 -29.5
t-44.5 -7.5h-407z" />
    <glyph glyph-name="uni01F2" unicode="&#x1f2;" horiz-adv-x="1167" 
d="M100 659q0 50 46 50h143q44 0 92.5 -7.5t94.5 -28t83 -59.5t59 -101.5t22 -154.5q0 -85 -22.5 -146t-60 -102t-83 -65t-92.5 -34.5t-88 -10.5h-148q-46 0 -46 50v609zM208 656v-603h22v1h47q69 0 126 31t90.5 98t33.5 175q0 111 -33.5 176t-90.5 93.5t-126 28.5h-69z
M1100 502q21 0 29 -9.5t8 -19.5q0 -13 -4.5 -24.5t-10.5 -19.5l-288 -382h204v24q0 41 12 52.5t43 11.5q22 0 29.5 -11t7.5 -31v-62q0 -17 -9 -24t-23 -7h-337q-22 0 -30 9.5t-8 19.5q0 13 4.5 24.5t10.5 19.5l286 382h-188v-24q0 -40 -12 -52t-43 -12q-22 0 -29.5 11
t-7.5 31v62q0 17 9 24t23 7h324z" />
    <glyph glyph-name="uni01F3" unicode="&#x1f3;" horiz-adv-x="1037" 
d="M288 502q24 0 48 -4.5t43 -12.5v193q0 45 15.5 63.5t48.5 18.5q24 0 32 -12t8 -35v-666q0 -22 -7.5 -34.5t-31.5 -12.5q-33 0 -47 27.5t-14 76.5l-3 1q-16 -26 -37 -50.5t-50.5 -39.5t-71.5 -15t-81.5 21t-64.5 71t-25 137q0 144 64.5 208.5t173.5 64.5zM158 237
q0 -64 14 -101t37.5 -53t51.5 -16t55 19.5t45.5 49t18.5 58.5v209q0 20 -23.5 39.5t-68.5 19.5q-39 0 -68.5 -19t-45.5 -68t-16 -138zM970 502q21 0 29 -9.5t8 -19.5q0 -13 -4.5 -24.5t-10.5 -19.5l-288 -382h204v24q0 41 12 52.5t43 11.5q22 0 29.5 -11t7.5 -31v-62
q0 -17 -9 -24t-23 -7h-337q-22 0 -30 9.5t-8 19.5q0 13 4.5 24.5t10.5 19.5l286 382h-188v-24q0 -40 -12 -52t-43 -12q-22 0 -29.5 11t-7.5 31v62q0 17 9 24t23 7h324z" />
    <glyph glyph-name="Aringacute" unicode="&#x1fa;" horiz-adv-x="617" 
d="M103 53q-13 -35 -30 -44t-31 -9t-20.5 8t-6.5 19q0 12 5 25l235 633q5 12 20.5 18t34.5 6q20 0 38.5 -6.5t22.5 -20.5l229 -634q1 -4 1.5 -7.5t0.5 -7.5q0 -13 -8.5 -23t-30.5 -10q-9 0 -23.5 3.5t-28.5 15t-23 34.5l-53 137h-281zM299 591h-6l-123 -349h250zM201 762
q0 46 31 77t77 31q45 0 76.5 -31t31.5 -77q0 -45 -31.5 -76.5t-76.5 -31.5q-46 0 -77 31.5t-31 76.5zM256 762q0 -21 16 -36.5t37 -15.5q20 0 36 15.5t16 36.5t-16 37t-36 16q-21 0 -37 -16t-16 -37zM477 826q-12 -14 -34 -14q-10 0 -17 4.5t-7 12.5q0 5 2 8l47 113
q5 12 20 17.5t31 5.5q22 0 35.5 -6t13.5 -15q0 -6 -3 -9z" />
    <glyph glyph-name="aringacute" unicode="&#x1fb;" horiz-adv-x="546" 
d="M370 95q-33 -49 -75.5 -72t-100.5 -23q-76 0 -113.5 37.5t-37.5 97.5q0 32 11 63.5t39 56.5t77 40t125 15h73v28q0 69 -23.5 96.5t-76.5 27.5q-31 0 -52.5 -13t-35.5 -29q-15 -16 -30 -25.5t-31 -9.5q-18 0 -26.5 10.5t-8.5 23.5q0 21 16 33.5t39 22.5q34 14 75.5 20.5
t73.5 6.5q74 0 114 -20.5t55.5 -60.5t15.5 -100v-274q0 -22 -7.5 -34.5t-31.5 -12.5q-33 0 -47 22.5t-14 71.5zM311 268q-64 0 -100 -16t-50 -43t-14 -60q0 -46 24 -64t63 -18q25 0 56.5 12.5t55 38.5t23.5 66v84h-58zM165 662q0 46 31 77t77 31q45 0 76.5 -31t31.5 -77
q0 -45 -31.5 -76.5t-76.5 -31.5q-46 0 -77 31.5t-31 76.5zM220 662q0 -21 16 -36.5t37 -15.5q20 0 36 15.5t16 36.5t-16 37t-36 16q-21 0 -37 -16t-16 -37zM413 769q-12 -14 -34 -14q-10 0 -17 4.5t-7 12.5q0 5 2 8l47 113q5 12 20 17.5t31 5.5q22 0 35.5 -6t13.5 -15
q0 -6 -3 -9z" />
    <glyph glyph-name="AEacute" unicode="&#x1fc;" horiz-adv-x="838" 
d="M103 53q-13 -35 -30 -44t-31 -9q-20 0 -25 16t3 36l325 633q5 11 14 17.5t24 6.5h340q29 0 44.5 -7t15.5 -30v-87q0 -50 -43 -50q-28 0 -43 14.5t-15 50.5v56h-187v-262h160q14 0 21 -8.5t7 -19.5q0 -10 -8.5 -18.5t-19.5 -8.5h-160v-286h202v56q0 36 15 50.5t43 14.5
q43 0 43 -50v-87q0 -22 -15.5 -29.5t-44.5 -7.5h-305q-46 0 -46 50v140h-213zM383 591l-182 -349h186v349h-4zM496 782q-5 -7 -15.5 -11.5t-21.5 -4.5q-16 0 -23.5 8t-2.5 21l57 142q6 14 23 20t36 6q29 0 46.5 -9.5t6.5 -24.5z" />
    <glyph glyph-name="aeacute" unicode="&#x1fd;" horiz-adv-x="844" 
d="M204 0q-84 0 -122.5 37.5t-38.5 97.5q0 32 11 63.5t39 56.5t77 40t125 15h73v28q0 69 -23.5 96.5t-76.5 27.5q-31 0 -52.5 -13t-35.5 -29q-15 -16 -30 -25.5t-31 -9.5q-18 0 -26.5 10.5t-8.5 23.5q0 21 16 33.5t39 22.5q34 14 75.5 20.5t73.5 6.5q63 0 96.5 -23t46.5 -76
q50 99 172 99q89 0 145 -50.5t56 -150.5q0 -31 -18.5 -40t-38.5 -9h-269q-1 -6 -1 -11.5v-10.5q0 -82 32.5 -134t106.5 -52q41 0 66.5 14.5t42.5 34t29 33.5q10 11 25 11q8 0 15.5 -5.5t7.5 -15.5q0 -18 -13 -34q-28 -34 -72 -58t-112 -24q-69 0 -115 29.5t-68 82.5
q-21 -37 -56.5 -62t-78 -37.5t-83.5 -12.5zM597 462q-46 0 -77.5 -39t-38.5 -129h187q17 0 25.5 6t8.5 23q0 48 -15.5 79t-39.5 45.5t-50 14.5zM311 268q-64 0 -100 -16t-50 -43t-14 -60q0 -46 24 -64t63 -18q25 0 56.5 12.5t55 38.5t23.5 66v84h-58zM433 586
q-13 -16 -37 -16q-11 0 -19 5t-8 14q0 5 2 9l52 125q6 14 22.5 20t34.5 6q25 0 39.5 -6.5t14.5 -17.5q0 -6 -3 -9z" />
    <glyph glyph-name="Oslashacute" unicode="&#x1fe;" horiz-adv-x="716" 
d="M558 640q34 -30 54.5 -68.5t31.5 -78.5t15 -76t4 -63q0 -33 -6 -78.5t-23.5 -93.5t-51 -89t-88.5 -67t-137 -26q-45 0 -82 8.5t-66 23.5l-58 -102q-4 -6 -13 -6q-13 0 -27.5 10.5t-14.5 20.5q0 3 1 5l60 107q-34 30 -54.5 68t-31 78t-14.5 77t-4 64q0 32 5.5 77.5
t23 93.5t50.5 90t88 68t137 26q45 0 81.5 -8.5t65.5 -23.5l58 102q3 6 12 6q14 0 29 -12t15 -23q0 -4 -1 -6zM166 354q0 -27 2.5 -62.5t11 -73t24.5 -70.5l266 469q-21 19 -48.5 30t-64.5 11q-52 0 -86.5 -21.5t-55.5 -56.5t-31.5 -75.5t-14 -80.5t-3.5 -70zM550 354
q0 28 -2.5 63t-10.5 72.5t-25 70.5l-268 -468q20 -19 48 -30t65 -11q53 0 88 21.5t56 56t31.5 75.5t14 80.5t3.5 69.5zM375 782q-5 -7 -15.5 -11.5t-21.5 -4.5q-16 0 -23.5 8t-2.5 21l57 142q6 14 23 20t36 6q29 0 46.5 -9.5t6.5 -24.5z" />
    <glyph glyph-name="oslashacute" unicode="&#x1ff;" horiz-adv-x="558" 
d="M425 459q39 -29 61 -80.5t22 -127.5q0 -128 -61 -189.5t-168 -61.5q-31 0 -58 5t-50 15l-52 -91q-3 -6 -12 -6q-13 0 -26 8.5t-13 18.5q0 3 1 5l54 95q-35 31 -54 81t-19 120q0 88 29 143t80.5 81.5t119.5 26.5q51 0 93 -15l44 78q3 6 13 6q14 0 28 -9t14 -20q0 -3 -1 -5
zM158 251q0 -74 12 -119l175 309q-14 11 -30.5 16t-35.5 5q-33 0 -60.5 -17.5t-44 -63t-16.5 -130.5zM279 40q36 0 63 17t42.5 63t15.5 131q0 44 -5 77t-13 57l-181 -314q15 -17 35 -24t43 -7zM300 586q-13 -16 -37 -16q-11 0 -19 5t-8 14q0 5 2 9l52 125q6 14 22.5 20
t34.5 6q25 0 39.5 -6.5t14.5 -17.5q0 -6 -3 -9z" />
    <glyph glyph-name="uni0200" unicode="&#x200;" horiz-adv-x="617" 
d="M103 53q-13 -35 -30 -44t-31 -9t-20.5 8t-6.5 19q0 12 5 25l235 633q5 12 20.5 18t34.5 6q20 0 38.5 -6.5t22.5 -20.5l229 -634q1 -4 1.5 -7.5t0.5 -7.5q0 -13 -8.5 -23t-30.5 -10q-9 0 -23.5 3.5t-28.5 15t-23 34.5l-53 137h-281zM299 591h-6l-123 -349h250zM148 923
q-3 3 -3 9q0 11 13 17.5t36 6.5q16 0 31 -6t20 -20l47 -125q2 -4 2 -9q0 -9 -7.5 -14t-17.5 -5q-22 0 -33 16zM288 923q-3 3 -3 9q0 11 13 17.5t36 6.5q16 0 31 -6t20 -20l47 -125q2 -4 2 -9q0 -9 -7.5 -14t-17.5 -5q-22 0 -33 16z" />
    <glyph glyph-name="uni0201" unicode="&#x201;" horiz-adv-x="546" 
d="M370 95q-33 -49 -75.5 -72t-100.5 -23q-76 0 -113.5 37.5t-37.5 97.5q0 32 11 63.5t39 56.5t77 40t125 15h73v28q0 69 -23.5 96.5t-76.5 27.5q-31 0 -52.5 -13t-35.5 -29q-15 -16 -30 -25.5t-31 -9.5q-18 0 -26.5 10.5t-8.5 23.5q0 21 16 33.5t39 22.5q34 14 75.5 20.5
t73.5 6.5q74 0 114 -20.5t55.5 -60.5t15.5 -100v-274q0 -22 -7.5 -34.5t-31.5 -12.5q-33 0 -47 22.5t-14 71.5zM311 268q-64 0 -100 -16t-50 -43t-14 -60q0 -46 24 -64t63 -18q25 0 56.5 12.5t55 38.5t23.5 66v84h-58zM112 716q-3 3 -3 9q0 11 13 17.5t36 6.5q16 0 31 -6
t20 -20l47 -125q2 -4 2 -9q0 -9 -7.5 -14t-17.5 -5q-22 0 -33 16zM252 716q-3 3 -3 9q0 11 13 17.5t36 6.5q16 0 31 -6t20 -20l47 -125q2 -4 2 -9q0 -9 -7.5 -14t-17.5 -5q-22 0 -33 16z" />
    <glyph glyph-name="uni0202" unicode="&#x202;" horiz-adv-x="617" 
d="M103 53q-13 -35 -30 -44t-31 -9t-20.5 8t-6.5 19q0 12 5 25l235 633q5 12 20.5 18t34.5 6q20 0 38.5 -6.5t22.5 -20.5l229 -634q1 -4 1.5 -7.5t0.5 -7.5q0 -13 -8.5 -23t-30.5 -10q-9 0 -23.5 3.5t-28.5 15t-23 34.5l-53 137h-281zM299 591h-6l-123 -349h250zM455 791
q0 -11 -6.5 -19.5t-20.5 -8.5q-26 0 -36 27q-14 39 -35.5 50.5t-48.5 11.5q-26 0 -47.5 -11.5t-35.5 -50.5q-10 -27 -36 -27q-13 0 -20 8.5t-7 19.5q0 53 40 90t106 37q67 0 107 -37t40 -90z" />
    <glyph glyph-name="uni0203" unicode="&#x203;" horiz-adv-x="546" 
d="M370 95q-33 -49 -75.5 -72t-100.5 -23q-76 0 -113.5 37.5t-37.5 97.5q0 32 11 63.5t39 56.5t77 40t125 15h73v28q0 69 -23.5 96.5t-76.5 27.5q-31 0 -52.5 -13t-35.5 -29q-15 -16 -30 -25.5t-31 -9.5q-18 0 -26.5 10.5t-8.5 23.5q0 21 16 33.5t39 22.5q34 14 75.5 20.5
t73.5 6.5q74 0 114 -20.5t55.5 -60.5t15.5 -100v-274q0 -22 -7.5 -34.5t-31.5 -12.5q-33 0 -47 22.5t-14 71.5zM311 268q-64 0 -100 -16t-50 -43t-14 -60q0 -46 24 -64t63 -18q25 0 56.5 12.5t55 38.5t23.5 66v84h-58zM419 584q0 -11 -6.5 -19.5t-20.5 -8.5q-26 0 -36 27
q-14 39 -35.5 50.5t-48.5 11.5q-26 0 -47.5 -11.5t-35.5 -50.5q-10 -27 -36 -27q-13 0 -20 8.5t-7 19.5q0 53 40 90t106 37q67 0 107 -37t40 -90z" />
    <glyph glyph-name="uni0204" unicode="&#x204;" horiz-adv-x="601" 
d="M503 535q-28 0 -43 14.5t-15 50.5v56h-237v-262h210q14 0 21 -8.5t7 -19.5q0 -10 -8.5 -18.5t-19.5 -8.5h-210v-286h252v56q0 36 15 50.5t43 14.5q43 0 43 -50v-87q0 -22 -15.5 -29.5t-44.5 -7.5h-355q-46 0 -46 50v609q0 50 46 50h340q29 0 44.5 -7t15.5 -30v-87
q0 -50 -43 -50zM186 923q-3 3 -3 9q0 11 13 17.5t36 6.5q16 0 31 -6t20 -20l47 -125q2 -4 2 -9q0 -9 -7.5 -14t-17.5 -5q-22 0 -33 16zM326 923q-3 3 -3 9q0 11 13 17.5t36 6.5q16 0 31 -6t20 -20l47 -125q2 -4 2 -9q0 -9 -7.5 -14t-17.5 -5q-22 0 -33 16z" />
    <glyph glyph-name="uni0205" unicode="&#x205;" horiz-adv-x="525" 
d="M435 126q10 11 25 11q8 0 15.5 -5.5t7.5 -15.5q0 -18 -13 -34q-28 -34 -72 -58t-112 -24q-120 0 -178 65t-58 174q0 128 60 195.5t174 67.5q89 0 145 -50.5t56 -150.5q0 -31 -18.5 -40t-38.5 -9h-269q-1 -6 -1 -11.5v-10.5q0 -82 32.5 -134t106.5 -52q41 0 67 14.5
t42.5 34t28.5 33.5zM278 462q-46 0 -77.5 -39t-38.5 -129h187q17 0 25.5 6t8.5 23q0 48 -15.5 79t-39.5 45.5t-50 14.5zM114 716q-3 3 -3 9q0 11 13 17.5t36 6.5q16 0 31 -6t20 -20l47 -125q2 -4 2 -9q0 -9 -7.5 -14t-17.5 -5q-22 0 -33 16zM254 716q-3 3 -3 9q0 11 13 17.5
t36 6.5q16 0 31 -6t20 -20l47 -125q2 -4 2 -9q0 -9 -7.5 -14t-17.5 -5q-22 0 -33 16z" />
    <glyph glyph-name="uni0206" unicode="&#x206;" horiz-adv-x="601" 
d="M503 535q-28 0 -43 14.5t-15 50.5v56h-237v-262h210q14 0 21 -8.5t7 -19.5q0 -10 -8.5 -18.5t-19.5 -8.5h-210v-286h252v56q0 36 15 50.5t43 14.5q43 0 43 -50v-87q0 -22 -15.5 -29.5t-44.5 -7.5h-355q-46 0 -46 50v609q0 50 46 50h340q29 0 44.5 -7t15.5 -30v-87
q0 -50 -43 -50zM493 791q0 -11 -6.5 -19.5t-20.5 -8.5q-26 0 -36 27q-14 39 -35.5 50.5t-48.5 11.5q-26 0 -47.5 -11.5t-35.5 -50.5q-10 -27 -36 -27q-13 0 -20 8.5t-7 19.5q0 53 40 90t106 37q67 0 107 -37t40 -90z" />
    <glyph glyph-name="uni0207" unicode="&#x207;" horiz-adv-x="525" 
d="M435 126q10 11 25 11q8 0 15.5 -5.5t7.5 -15.5q0 -18 -13 -34q-28 -34 -72 -58t-112 -24q-120 0 -178 65t-58 174q0 128 60 195.5t174 67.5q89 0 145 -50.5t56 -150.5q0 -31 -18.5 -40t-38.5 -9h-269q-1 -6 -1 -11.5v-10.5q0 -82 32.5 -134t106.5 -52q41 0 67 14.5
t42.5 34t28.5 33.5zM278 462q-46 0 -77.5 -39t-38.5 -129h187q17 0 25.5 6t8.5 23q0 48 -15.5 79t-39.5 45.5t-50 14.5zM421 584q0 -11 -6.5 -19.5t-20.5 -8.5q-26 0 -36 27q-14 39 -35.5 50.5t-48.5 11.5q-26 0 -47.5 -11.5t-35.5 -50.5q-10 -27 -36 -27q-13 0 -20 8.5
t-7 19.5q0 53 40 90t106 37q67 0 107 -37t40 -90z" />
    <glyph glyph-name="uni0208" unicode="&#x208;" horiz-adv-x="408" 
d="M50 0q-19 0 -24.5 7.5t-5.5 16.5q0 11 7.5 20t32.5 9h90v603h-90q-25 0 -32.5 9t-7.5 20q0 9 5.5 16.5t24.5 7.5h308q20 0 25 -7.5t5 -16.5q0 -11 -7 -20t-33 -9h-90v-603h90q26 0 33 -9t7 -20q0 -9 -5 -16.5t-25 -7.5h-308zM43 923q-3 3 -3 9q0 11 13 17.5t36 6.5
q16 0 31 -6t20 -20l47 -125q2 -4 2 -9q0 -9 -7.5 -14t-17.5 -5q-22 0 -33 16zM183 923q-3 3 -3 9q0 11 13 17.5t36 6.5q16 0 31 -6t20 -20l47 -125q2 -4 2 -9q0 -9 -7.5 -14t-17.5 -5q-22 0 -33 16z" />
    <glyph glyph-name="uni0209" unicode="&#x209;" horiz-adv-x="274" 
d="M189 68q0 -45 -15.5 -56.5t-48.5 -11.5q-24 0 -32 12.5t-8 34.5v408q0 23 8 35t32 12q64 0 64 -67v-367zM-26 716q-3 3 -3 9q0 11 13 17.5t36 6.5q16 0 31 -6t20 -20l47 -125q2 -4 2 -9q0 -9 -7.5 -14t-17.5 -5q-22 0 -33 16zM114 716q-3 3 -3 9q0 11 13 17.5t36 6.5
q16 0 31 -6t20 -20l47 -125q2 -4 2 -9q0 -9 -7.5 -14t-17.5 -5q-22 0 -33 16z" />
    <glyph glyph-name="uni020A" unicode="&#x20a;" horiz-adv-x="408" 
d="M50 0q-19 0 -24.5 7.5t-5.5 16.5q0 11 7.5 20t32.5 9h90v603h-90q-25 0 -32.5 9t-7.5 20q0 9 5.5 16.5t24.5 7.5h308q20 0 25 -7.5t5 -16.5q0 -11 -7 -20t-33 -9h-90v-603h90q26 0 33 -9t7 -20q0 -9 -5 -16.5t-25 -7.5h-308zM350 791q0 -11 -6.5 -19.5t-20.5 -8.5
q-26 0 -36 27q-14 39 -35.5 50.5t-48.5 11.5q-26 0 -47.5 -11.5t-35.5 -50.5q-10 -27 -36 -27q-13 0 -20 8.5t-7 19.5q0 53 40 90t106 37q67 0 107 -37t40 -90z" />
    <glyph glyph-name="uni020B" unicode="&#x20b;" horiz-adv-x="274" 
d="M189 68q0 -45 -15.5 -56.5t-48.5 -11.5q-24 0 -32 12.5t-8 34.5v408q0 23 8 35t32 12q64 0 64 -67v-367zM281 584q0 -11 -6.5 -19.5t-20.5 -8.5q-26 0 -36 27q-14 39 -35.5 50.5t-48.5 11.5q-26 0 -47.5 -11.5t-35.5 -50.5q-10 -27 -36 -27q-13 0 -20 8.5t-7 19.5
q0 53 40 90t106 37q67 0 107 -37t40 -90z" />
    <glyph glyph-name="uni020C" unicode="&#x20c;" horiz-adv-x="716" 
d="M663 354q0 -33 -6 -78.5t-23.5 -93.5t-51 -89t-88.5 -67t-137 -26t-137 26t-88 67t-50.5 89t-23 93.5t-5.5 78.5q0 32 5.5 77.5t23 93.5t50.5 90t88 68t137 26t137 -26t88.5 -68t51 -90t23.5 -93.5t6 -77.5zM550 354q0 30 -3.5 70t-14 80.5t-31.5 75.5t-56 56.5t-88 21.5
q-52 0 -86.5 -21.5t-55.5 -56.5t-31.5 -75.5t-14 -80.5t-3.5 -70t3.5 -69.5t14 -80.5t31.5 -75.5t55.5 -56t86.5 -21.5q53 0 88 21.5t56 56t31.5 75.5t14 80.5t3.5 69.5zM197 923q-3 3 -3 9q0 11 13 17.5t36 6.5q16 0 31 -6t20 -20l47 -125q2 -4 2 -9q0 -9 -7.5 -14
t-17.5 -5q-22 0 -33 16zM337 923q-3 3 -3 9q0 11 13 17.5t36 6.5q16 0 31 -6t20 -20l47 -125q2 -4 2 -9q0 -9 -7.5 -14t-17.5 -5q-22 0 -33 16z" />
    <glyph glyph-name="uni020D" unicode="&#x20d;" horiz-adv-x="558" 
d="M279 0q-106 0 -167.5 61.5t-61.5 189.5q0 88 29 143t80.5 81.5t119.5 26.5q103 0 166 -60t63 -191q0 -128 -61 -189.5t-168 -61.5zM279 40q36 0 63 17t42.5 63t15.5 131t-16 130.5t-43.5 63t-61.5 17.5q-33 0 -60.5 -17.5t-44 -63t-16.5 -130.5q0 -84 15.5 -130t43 -63.5
t62.5 -17.5zM128 716q-3 3 -3 9q0 11 13 17.5t36 6.5q16 0 31 -6t20 -20l47 -125q2 -4 2 -9q0 -9 -7.5 -14t-17.5 -5q-22 0 -33 16zM268 716q-3 3 -3 9q0 11 13 17.5t36 6.5q16 0 31 -6t20 -20l47 -125q2 -4 2 -9q0 -9 -7.5 -14t-17.5 -5q-22 0 -33 16z" />
    <glyph glyph-name="uni020E" unicode="&#x20e;" horiz-adv-x="716" 
d="M663 354q0 -33 -6 -78.5t-23.5 -93.5t-51 -89t-88.5 -67t-137 -26t-137 26t-88 67t-50.5 89t-23 93.5t-5.5 78.5q0 32 5.5 77.5t23 93.5t50.5 90t88 68t137 26t137 -26t88.5 -68t51 -90t23.5 -93.5t6 -77.5zM550 354q0 30 -3.5 70t-14 80.5t-31.5 75.5t-56 56.5t-88 21.5
q-52 0 -86.5 -21.5t-55.5 -56.5t-31.5 -75.5t-14 -80.5t-3.5 -70t3.5 -69.5t14 -80.5t31.5 -75.5t55.5 -56t86.5 -21.5q53 0 88 21.5t56 56t31.5 75.5t14 80.5t3.5 69.5zM504 791q0 -11 -6.5 -19.5t-20.5 -8.5q-26 0 -36 27q-14 39 -35.5 50.5t-48.5 11.5q-26 0 -47.5 -11.5
t-35.5 -50.5q-10 -27 -36 -27q-13 0 -20 8.5t-7 19.5q0 53 40 90t106 37q67 0 107 -37t40 -90z" />
    <glyph glyph-name="uni020F" unicode="&#x20f;" horiz-adv-x="558" 
d="M279 0q-106 0 -167.5 61.5t-61.5 189.5q0 88 29 143t80.5 81.5t119.5 26.5q103 0 166 -60t63 -191q0 -128 -61 -189.5t-168 -61.5zM279 40q36 0 63 17t42.5 63t15.5 131t-16 130.5t-43.5 63t-61.5 17.5q-33 0 -60.5 -17.5t-44 -63t-16.5 -130.5q0 -84 15.5 -130t43 -63.5
t62.5 -17.5zM435 584q0 -11 -6.5 -19.5t-20.5 -8.5q-26 0 -36 27q-14 39 -35.5 50.5t-48.5 11.5q-26 0 -47.5 -11.5t-35.5 -50.5q-10 -27 -36 -27q-13 0 -20 8.5t-7 19.5q0 53 40 90t106 37q67 0 107 -37t40 -90z" />
    <glyph glyph-name="uni0210" unicode="&#x210;" horiz-adv-x="643" 
d="M100 659q0 28 10.5 39t33.5 11h189q50 0 95.5 -8.5t81 -29.5t56 -58.5t20.5 -96.5q0 -51 -26.5 -91.5t-66.5 -66t-82 -32.5l166 -267q9 -13 9 -26q0 -14 -12.5 -23.5t-38.5 -9.5q-18 0 -36.5 8.5t-31.5 29.5l-168 281h-91v-254q0 -36 -15.5 -50.5t-46.5 -14.5
q-46 0 -46 50v609zM208 656v-284h107q35 0 71.5 14t61.5 47t25 89q0 47 -15 74t-38.5 39.5t-49.5 16.5t-47 4h-115zM161 923q-3 3 -3 9q0 11 13 17.5t36 6.5q16 0 31 -6t20 -20l47 -125q2 -4 2 -9q0 -9 -7.5 -14t-17.5 -5q-22 0 -33 16zM301 923q-3 3 -3 9q0 11 13 17.5
t36 6.5q16 0 31 -6t20 -20l47 -125q2 -4 2 -9q0 -9 -7.5 -14t-17.5 -5q-22 0 -33 16z" />
    <glyph glyph-name="uni0211" unicode="&#x211;" horiz-adv-x="395" 
d="M404 459q0 -18 -8.5 -28.5t-30.5 -10.5h-33q-54 0 -86.5 -18.5t-47 -47.5t-14.5 -59v-224q0 -45 -15.5 -58t-48.5 -13q-24 0 -32 12.5t-8 34.5v412q0 24 10.5 33.5t32.5 9.5q27 0 43 -21t16 -65v-25h2q12 19 32.5 45t52.5 46t76 20h12q26 0 36 -11.5t11 -31.5zM95 716
q-3 3 -3 9q0 11 13 17.5t36 6.5q16 0 31 -6t20 -20l47 -125q2 -4 2 -9q0 -9 -7.5 -14t-17.5 -5q-22 0 -33 16zM235 716q-3 3 -3 9q0 11 13 17.5t36 6.5q16 0 31 -6t20 -20l47 -125q2 -4 2 -9q0 -9 -7.5 -14t-17.5 -5q-22 0 -33 16z" />
    <glyph glyph-name="uni0212" unicode="&#x212;" horiz-adv-x="643" 
d="M100 659q0 28 10.5 39t33.5 11h189q50 0 95.5 -8.5t81 -29.5t56 -58.5t20.5 -96.5q0 -51 -26.5 -91.5t-66.5 -66t-82 -32.5l166 -267q9 -13 9 -26q0 -14 -12.5 -23.5t-38.5 -9.5q-18 0 -36.5 8.5t-31.5 29.5l-168 281h-91v-254q0 -36 -15.5 -50.5t-46.5 -14.5
q-46 0 -46 50v609zM208 656v-284h107q35 0 71.5 14t61.5 47t25 89q0 47 -15 74t-38.5 39.5t-49.5 16.5t-47 4h-115zM468 791q0 -11 -6.5 -19.5t-20.5 -8.5q-26 0 -36 27q-14 39 -35.5 50.5t-48.5 11.5q-26 0 -47.5 -11.5t-35.5 -50.5q-10 -27 -36 -27q-13 0 -20 8.5t-7 19.5
q0 53 40 90t106 37q67 0 107 -37t40 -90z" />
    <glyph glyph-name="uni0213" unicode="&#x213;" horiz-adv-x="395" 
d="M404 459q0 -18 -8.5 -28.5t-30.5 -10.5h-33q-54 0 -86.5 -18.5t-47 -47.5t-14.5 -59v-224q0 -45 -15.5 -58t-48.5 -13q-24 0 -32 12.5t-8 34.5v412q0 24 10.5 33.5t32.5 9.5q27 0 43 -21t16 -65v-25h2q12 19 32.5 45t52.5 46t76 20h12q26 0 36 -11.5t11 -31.5zM402 584
q0 -11 -6.5 -19.5t-20.5 -8.5q-26 0 -36 27q-14 39 -35.5 50.5t-48.5 11.5q-26 0 -47.5 -11.5t-35.5 -50.5q-10 -27 -36 -27q-13 0 -20 8.5t-7 19.5q0 53 40 90t106 37q67 0 107 -37t40 -90z" />
    <glyph glyph-name="uni0214" unicode="&#x214;" horiz-adv-x="718" 
d="M201 219q0 -81 47 -127t130 -46q53 0 90.5 23t57.5 63.5t20 90.5v430q0 32 14 44t27 12q14 0 26 -10t12 -35v-410q0 -28 -6 -63.5t-22 -71.5t-45.5 -66.5t-77 -49t-116.5 -18.5q-72 0 -120 18.5t-77 48t-43.5 65t-19.5 71t-5 63.5v408q0 28 10.5 39t33.5 11q64 0 64 -77
v-413zM208 923q-3 3 -3 9q0 11 13 17.5t36 6.5q16 0 31 -6t20 -20l47 -125q2 -4 2 -9q0 -9 -7.5 -14t-17.5 -5q-22 0 -33 16zM348 923q-3 3 -3 9q0 11 13 17.5t36 6.5q16 0 31 -6t20 -20l47 -125q2 -4 2 -9q0 -9 -7.5 -14t-17.5 -5q-22 0 -33 16z" />
    <glyph glyph-name="uni0215" unicode="&#x215;" horiz-adv-x="580" 
d="M184 170q0 -59 25.5 -81t59.5 -22q28 0 57.5 15t49.5 41.5t20 58.5v248q0 45 15.5 58.5t48.5 13.5q24 0 32 -12t8 -35v-412q0 -24 -10 -33.5t-33 -9.5q-27 0 -43 19t-16 67v7h-2q-25 -40 -69 -66.5t-106 -26.5q-141 0 -141 151v304q0 23 8 35t32 12q33 0 48.5 -18.5
t15.5 -63.5v-250zM129 716q-3 3 -3 9q0 11 13 17.5t36 6.5q16 0 31 -6t20 -20l47 -125q2 -4 2 -9q0 -9 -7.5 -14t-17.5 -5q-22 0 -33 16zM269 716q-3 3 -3 9q0 11 13 17.5t36 6.5q16 0 31 -6t20 -20l47 -125q2 -4 2 -9q0 -9 -7.5 -14t-17.5 -5q-22 0 -33 16z" />
    <glyph glyph-name="uni0216" unicode="&#x216;" horiz-adv-x="718" 
d="M201 219q0 -81 47 -127t130 -46q53 0 90.5 23t57.5 63.5t20 90.5v430q0 32 14 44t27 12q14 0 26 -10t12 -35v-410q0 -28 -6 -63.5t-22 -71.5t-45.5 -66.5t-77 -49t-116.5 -18.5q-72 0 -120 18.5t-77 48t-43.5 65t-19.5 71t-5 63.5v408q0 28 10.5 39t33.5 11q64 0 64 -77
v-413zM515 791q0 -11 -6.5 -19.5t-20.5 -8.5q-26 0 -36 27q-14 39 -35.5 50.5t-48.5 11.5q-26 0 -47.5 -11.5t-35.5 -50.5q-10 -27 -36 -27q-13 0 -20 8.5t-7 19.5q0 53 40 90t106 37q67 0 107 -37t40 -90z" />
    <glyph glyph-name="uni0217" unicode="&#x217;" horiz-adv-x="580" 
d="M184 170q0 -59 25.5 -81t59.5 -22q28 0 57.5 15t49.5 41.5t20 58.5v248q0 45 15.5 58.5t48.5 13.5q24 0 32 -12t8 -35v-412q0 -24 -10 -33.5t-33 -9.5q-27 0 -43 19t-16 67v7h-2q-25 -40 -69 -66.5t-106 -26.5q-141 0 -141 151v304q0 23 8 35t32 12q33 0 48.5 -18.5
t15.5 -63.5v-250zM436 584q0 -11 -6.5 -19.5t-20.5 -8.5q-26 0 -36 27q-14 39 -35.5 50.5t-48.5 11.5q-26 0 -47.5 -11.5t-35.5 -50.5q-10 -27 -36 -27q-13 0 -20 8.5t-7 19.5q0 53 40 90t106 37q67 0 107 -37t40 -90z" />
    <glyph glyph-name="uni0218" unicode="&#x218;" horiz-adv-x="631" 
d="M482 527q-28 0 -43 14t-15 48v51q-4 1 -8 2.5t-9 2.5q-46 13 -101 13q-47 0 -76.5 -19.5t-43 -48t-13.5 -56.5q0 -34 12.5 -56t42.5 -38.5t80 -35.5q88 -31 146 -57t87.5 -60.5t29.5 -92.5q0 -55 -32.5 -99t-94.5 -69.5t-153 -25.5q-46 0 -99.5 10t-88.5 23
q-22 9 -30.5 17.5t-8.5 30.5v60q0 48 43 48q29 0 43.5 -14t14.5 -49v-54q29 -10 59.5 -15.5t62.5 -5.5q57 0 95 19.5t57.5 50t19.5 62.5q0 34 -18 57t-55.5 41.5t-94.5 39.5q-69 26 -120.5 50.5t-80.5 60.5t-29 96q0 80 62 130.5t176 50.5q58 0 102.5 -9t82.5 -20
q23 -7 32 -16t9 -31v-58q0 -48 -43 -48zM305 -226q-21 -26 -46 -26q-10 0 -18 6t-8 16l24 131q5 23 19.5 33t37.5 10q25 0 39.5 -10t14.5 -33q0 -24 -14 -53.5t-49 -73.5z" />
    <glyph glyph-name="uni0219" unicode="&#x219;" horiz-adv-x="494" 
d="M349 122q0 30 -17.5 48t-47.5 31t-66 25q-46 16 -82.5 32.5t-58 42t-21.5 68.5q0 42 20 68.5t50.5 40.5t61.5 19t53 5q38 0 72 -6t58 -19q20 -10 36.5 -27t16.5 -40q0 -16 -12 -26t-27 -10q-22 0 -34 10t-20 26q-10 20 -29.5 36t-59.5 16q-34 0 -60 -17.5t-26 -56.5
q0 -27 16 -44t43.5 -29t61.5 -24q41 -14 81 -31.5t66.5 -43.5t26.5 -67q0 -45 -26.5 -78.5t-73 -52t-107.5 -18.5q-46 0 -84 9.5t-62 22.5q-20 11 -34.5 27.5t-14.5 38.5q0 17 13 27t26 10q22 0 35 -9.5t20 -26.5q10 -20 31.5 -39.5t71.5 -19.5q40 0 71.5 19t31.5 63z
M236 -225q-21 -26 -46 -26q-10 0 -18 6t-8 16l24 131q5 23 19.5 33t37.5 10q25 0 39.5 -10t14.5 -33q0 -24 -14 -53.5t-49 -73.5z" />
    <glyph glyph-name="uni021A" unicode="&#x21a;" horiz-adv-x="650" 
d="M379 656v-596q0 -36 -15.5 -48t-46.5 -12q-46 0 -46 50v606h-150v-71q0 -36 -14.5 -50.5t-43.5 -14.5q-43 0 -43 50v102q0 23 15.5 30t44.5 7h490q29 0 44.5 -7t15.5 -30v-102q0 -50 -43 -50q-28 0 -43 14.5t-15 50.5v71h-150zM314 -226q-21 -26 -46 -26q-10 0 -18 6
t-8 16l24 131q5 23 19.5 33t37.5 10q25 0 39.5 -10t14.5 -33q0 -24 -14 -53.5t-49 -73.5z" />
    <glyph glyph-name="uni021B" unicode="&#x21b;" horiz-adv-x="426" 
d="M261 0q-60 0 -93 21t-46 56.5t-13 80.5v295h-60q-26 0 -26 23q0 13 13 18t33.5 14.5t43.5 34.5q24 25 33.5 44t17 30t22.5 11q18 0 22.5 -13t4.5 -42v-71h121q11 0 17.5 -7.5t6.5 -17.5q0 -9 -6.5 -16.5t-17.5 -7.5h-121v-318q0 -52 19.5 -71.5t40.5 -19.5q30 0 46 14
t25.5 33t19 33t26.5 14q26 0 26 -24q0 -8 -5 -20t-10 -18q-26 -39 -63 -57.5t-77 -18.5zM242 -225q-21 -26 -46 -26q-10 0 -18 6t-8 16l24 131q5 23 19.5 33t37.5 10q25 0 39.5 -10t14.5 -33q0 -24 -14 -53.5t-49 -73.5z" />
    <glyph glyph-name="uni022A" unicode="&#x22a;" horiz-adv-x="716" 
d="M663 354q0 -33 -6 -78.5t-23.5 -93.5t-51 -89t-88.5 -67t-137 -26t-137 26t-88 67t-50.5 89t-23 93.5t-5.5 78.5q0 32 5.5 77.5t23 93.5t50.5 90t88 68t137 26t137 -26t88.5 -68t51 -90t23.5 -93.5t6 -77.5zM550 354q0 30 -3.5 70t-14 80.5t-31.5 75.5t-56 56.5t-88 21.5
q-52 0 -86.5 -21.5t-55.5 -56.5t-31.5 -75.5t-14 -80.5t-3.5 -70t3.5 -69.5t14 -80.5t31.5 -75.5t55.5 -56t86.5 -21.5q53 0 88 21.5t56 56t31.5 75.5t14 80.5t3.5 69.5zM186 852q0 28 21 48.5t46 20.5q29 0 49.5 -20.5t20.5 -48.5q0 -26 -20.5 -47t-49.5 -21q-25 0 -46 21
t-21 47zM393 851q0 29 20.5 49t47.5 20t48 -20t21 -49q0 -26 -21 -47t-48 -21t-47.5 21t-20.5 47zM231 969q-10 0 -17 8.5t-7 21.5q0 14 7 22.5t17 8.5h254q9 0 16.5 -8.5t7.5 -22.5q0 -30 -24 -30h-254z" />
    <glyph glyph-name="uni022B" unicode="&#x22b;" horiz-adv-x="558" 
d="M279 0q-106 0 -167.5 61.5t-61.5 189.5q0 88 29 143t80.5 81.5t119.5 26.5q103 0 166 -60t63 -191q0 -128 -61 -189.5t-168 -61.5zM279 40q36 0 63 17t42.5 63t15.5 131t-16 130.5t-43.5 63t-61.5 17.5q-33 0 -60.5 -17.5t-44 -63t-16.5 -130.5q0 -84 15.5 -130t43 -63.5
t62.5 -17.5zM130 628q0 25 18 43t43 18t43 -18t18 -43t-18 -43t-43 -18t-43 18t-18 43zM326 628q0 25 18 43t43 18t43 -18t18 -43t-18 -43t-43 -18t-43 18t-18 43zM162 744q-10 0 -17 8.5t-7 21.5q0 14 7 22.5t17 8.5h254q9 0 16.5 -8.5t7.5 -22.5q0 -30 -24 -30h-254z" />
    <glyph glyph-name="uni022C" unicode="&#x22c;" horiz-adv-x="716" 
d="M663 354q0 -33 -6 -78.5t-23.5 -93.5t-51 -89t-88.5 -67t-137 -26t-137 26t-88 67t-50.5 89t-23 93.5t-5.5 78.5q0 32 5.5 77.5t23 93.5t50.5 90t88 68t137 26t137 -26t88.5 -68t51 -90t23.5 -93.5t6 -77.5zM550 354q0 30 -3.5 70t-14 80.5t-31.5 75.5t-56 56.5t-88 21.5
q-52 0 -86.5 -21.5t-55.5 -56.5t-31.5 -75.5t-14 -80.5t-3.5 -70t3.5 -69.5t14 -80.5t31.5 -75.5t55.5 -56t86.5 -21.5q53 0 88 21.5t56 56t31.5 75.5t14 80.5t3.5 69.5zM291 813q-16 0 -23 -6.5t-10 -14.5t-8 -14.5t-19 -6.5q-17 0 -22.5 6t-5.5 14q0 18 11.5 40t34 38
t54.5 16q8 -1 23 -3.5t40 -11.5q17 -7 31.5 -12.5t30.5 -5.5q14 0 20 5t10 12l10 16t22 8q12 0 17 -5.5t5 -13.5q0 -13 -7 -27q-16 -37 -39 -52t-46 -15q-20 0 -36 5t-33 12q-24 9 -37 12.5t-23 3.5zM224 931q-10 0 -17 8.5t-7 21.5q0 14 7 22.5t17 8.5h254q9 0 16.5 -8.5
t7.5 -22.5q0 -30 -24 -30h-254z" />
    <glyph glyph-name="uni022D" unicode="&#x22d;" horiz-adv-x="558" 
d="M279 0q-106 0 -167.5 61.5t-61.5 189.5q0 88 29 143t80.5 81.5t119.5 26.5q103 0 166 -60t63 -191q0 -128 -61 -189.5t-168 -61.5zM279 40q36 0 63 17t42.5 63t15.5 131t-16 130.5t-43.5 63t-61.5 17.5q-33 0 -60.5 -17.5t-44 -63t-16.5 -130.5q0 -84 15.5 -130t43 -63.5
t62.5 -17.5zM222 606q-16 0 -23 -6.5t-10 -14.5t-8 -14.5t-19 -6.5q-17 0 -22.5 6t-5.5 14q0 18 11.5 40t34 38t54.5 16q8 -1 23 -3.5t40 -11.5q17 -7 31.5 -12.5t30.5 -5.5q14 0 20 5t10 12l10 16t22 8q12 0 17 -5.5t5 -13.5q0 -13 -7 -27q-16 -37 -39 -52t-46 -15
q-20 0 -36 5t-33 12q-24 9 -37 12.5t-23 3.5zM155 741q-10 0 -17 8.5t-7 21.5q0 14 7 22.5t17 8.5h254q9 0 16.5 -8.5t7.5 -22.5q0 -30 -24 -30h-254z" />
    <glyph glyph-name="uni0230" unicode="&#x230;" horiz-adv-x="716" 
d="M663 354q0 -33 -6 -78.5t-23.5 -93.5t-51 -89t-88.5 -67t-137 -26t-137 26t-88 67t-50.5 89t-23 93.5t-5.5 78.5q0 32 5.5 77.5t23 93.5t50.5 90t88 68t137 26t137 -26t88.5 -68t51 -90t23.5 -93.5t6 -77.5zM550 354q0 30 -3.5 70t-14 80.5t-31.5 75.5t-56 56.5t-88 21.5
q-52 0 -86.5 -21.5t-55.5 -56.5t-31.5 -75.5t-14 -80.5t-3.5 -70t3.5 -69.5t14 -80.5t31.5 -75.5t55.5 -56t86.5 -21.5q53 0 88 21.5t56 56t31.5 75.5t14 80.5t3.5 69.5zM296 836q0 26 18.5 44t43.5 18q26 0 44 -18t18 -44q0 -25 -18 -43.5t-44 -18.5q-25 0 -43.5 18.5
t-18.5 43.5zM231 936q-10 0 -17 8.5t-7 21.5q0 14 7 22.5t17 8.5h254q9 0 16.5 -8.5t7.5 -22.5q0 -30 -24 -30h-254z" />
    <glyph glyph-name="uni0231" unicode="&#x231;" horiz-adv-x="558" 
d="M279 0q-106 0 -167.5 61.5t-61.5 189.5q0 88 29 143t80.5 81.5t119.5 26.5q103 0 166 -60t63 -191q0 -128 -61 -189.5t-168 -61.5zM279 40q36 0 63 17t42.5 63t15.5 131t-16 130.5t-43.5 63t-61.5 17.5q-33 0 -60.5 -17.5t-44 -63t-16.5 -130.5q0 -84 15.5 -130t43 -63.5
t62.5 -17.5zM227 629q0 26 18.5 44t43.5 18q26 0 44 -18t18 -44q0 -25 -18 -43.5t-44 -18.5q-25 0 -43.5 18.5t-18.5 43.5zM162 746q-10 0 -17 8.5t-7 21.5q0 14 7 22.5t17 8.5h254q9 0 16.5 -8.5t7.5 -22.5q0 -30 -24 -30h-254z" />
    <glyph glyph-name="uni0232" unicode="&#x232;" horiz-adv-x="547" 
d="M268 0q-47 0 -47 50v218l-197 381q-6 14 -6 25q0 15 10 25t26 10q25 0 43 -10t34 -42l159 -314h4l150 313q14 29 29 41t32 12q15 0 21.5 -10t6.5 -23q0 -12 -5 -22l-199 -386v-208q0 -36 -15 -48t-46 -12zM157 787q-10 0 -17 8.5t-7 21.5q0 14 7 22.5t17 8.5h254
q9 0 16.5 -8.5t7.5 -22.5q0 -30 -24 -30h-254z" />
    <glyph glyph-name="uni0233" unicode="&#x233;" horiz-adv-x="512" 
d="M304 8q-15 -37 -34.5 -77t-44.5 -74.5t-56.5 -55.5t-69.5 -21q-20 0 -34 10.5t-14 25.5q0 25 15 35t39 10q28 0 50 9t36 28t23.5 42t18.5 51l-198 461q-3 7 -4 13t-1 10q0 17 12 22t25 5q23 0 45.5 -15.5t36.5 -51.5l131 -327h5l60 175q18 53 27.5 86t19.5 70
q7 24 19 43.5t39 19.5q13 0 22.5 -5t9.5 -18q0 -9 -1.5 -14.5t-3.5 -12.5zM129 597q-10 0 -17 8.5t-7 21.5q0 14 7 22.5t17 8.5h254q9 0 16.5 -8.5t7.5 -22.5q0 -30 -24 -30h-254z" />
    <glyph glyph-name="uni0237" unicode="&#x237;" horiz-adv-x="266" 
d="M85 455q0 23 8 35t32 12q64 0 64 -68v-313q0 -65 -15.5 -128t-45 -114.5t-72.5 -81.5q-10 -7 -21.5 -12t-24.5 -5q-27 0 -27 25q0 12 6 19.5t17 13.5q50 26 64.5 74.5t14.5 131.5v411z" />
    <glyph glyph-name="uni0259" unicode="&#x259;" horiz-adv-x="525" 
d="M90 376q-10 -11 -25 -11q-8 0 -15.5 5.5t-7.5 15.5q0 18 13 34q28 35 72.5 58.5t111.5 23.5q120 0 178 -65t58 -174q0 -128 -60 -195.5t-174 -67.5q-88 0 -144.5 50.5t-56.5 150.5q0 31 19 40t38 9h269q1 6 1 11.5v10.5q0 82 -32.5 134t-106.5 52q-40 0 -66.5 -14.5
t-43 -33.5t-28.5 -34zM247 40q46 0 77.5 39t38.5 129h-187q-16 0 -25 -6t-9 -23q0 -48 15.5 -78.5t40 -45.5t49.5 -15z" />
    <glyph glyph-name="uni02BC" unicode="&#x2bc;" horiz-adv-x="252" 
d="M112 582q-26 5 -39.5 17.5t-18 28t-4.5 26.5q0 38 26.5 55t52.5 17t49.5 -16.5t23.5 -50.5q0 -19 -5 -35.5t-16 -40.5l-42 -89q-7 -15 -17 -21t-20 -6q-13 0 -21.5 8t-8.5 18q0 3 2 9z" />
    <glyph glyph-name="circumflex" unicode="&#x2c6;" horiz-adv-x="550" 
d="M280 639l-52 -52q-16 -16 -33 -23t-32 -7q-16 0 -27 6.5t-11 14.5q0 5 4 9l102 106q8 9 21.5 13.5t27.5 4.5t27.5 -4.5t21.5 -13.5l102 -106q4 -4 4 -9q0 -8 -10.5 -14.5t-27.5 -6.5q-15 0 -32 7t-33 23z" />
    <glyph glyph-name="caron" unicode="&#x2c7;" horiz-adv-x="600" 
d="M205 629l52 52q16 17 33 23.5t32 6.5q17 0 27.5 -6.5t10.5 -14.5q0 -5 -4 -9l-102 -106q-8 -9 -21.5 -13.5t-27.5 -4.5t-27.5 4.5t-21.5 13.5l-102 106q-4 4 -4 9q0 8 11 14.5t27 6.5q15 0 32 -6.5t33 -23.5z" />
    <glyph glyph-name="uni02C9" unicode="&#x2c9;" horiz-adv-x="437" 
d="M70 575q-10 0 -15 12.5t-5 27.5t5 27.5t15 12.5h297q10 0 15 -12.5t5 -27.5t-5 -27.5t-15 -12.5h-297z" />
    <glyph glyph-name="breve" unicode="&#x2d8;" horiz-adv-x="543" 
d="M418 683q0 -53 -40 -90t-107 -37q-66 0 -106 37t-40 90q0 11 7 19.5t20 8.5q26 0 36 -27q14 -39 35.5 -50.5t47.5 -11.5q27 0 48.5 11.5t35.5 50.5q10 27 36 27q14 0 20.5 -8.5t6.5 -19.5z" />
    <glyph glyph-name="dotaccent" unicode="&#x2d9;" horiz-adv-x="544" 
d="M210 629q0 26 18.5 44t43.5 18q26 0 44 -18t18 -44q0 -25 -18 -43.5t-44 -18.5q-25 0 -43.5 18.5t-18.5 43.5z" />
    <glyph glyph-name="ring" unicode="&#x2da;" horiz-adv-x="536" 
d="M160 662q0 46 31 77t77 31q45 0 76.5 -31t31.5 -77q0 -45 -31.5 -76.5t-76.5 -31.5q-46 0 -77 31.5t-31 76.5zM215 662q0 -21 16 -36.5t37 -15.5q20 0 36 15.5t16 36.5t-16 37t-36 16q-21 0 -37 -16t-16 -37z" />
    </font>
</defs>
</svg>
