<?xml version="1.0" standalone="no"?>
<!DOCTYPE svg PUBLIC "-//W3C//DTD SVG 1.1//EN" "http://www.w3.org/Graphics/SVG/1.1/DTD/svg11.dtd" >
<svg xmlns="http://www.w3.org/2000/svg" xmlns:xlink="http://www.w3.org/1999/xlink" version="1.1">
<metadata>
Created by FontForge 20170731 at Thu Sep  2 18:52:27 2021
 By Aleksey,,,
Copyright 2016 The Dancing Script Project Authors (https://github.com/googlefonts/DancingScript), with Reserved Font Name "Dancing Script".
</metadata>
<defs>
<font id="DancingScript-SemiBold" horiz-adv-x="0" >
  <font-face 
    font-family="Dancing Script SemiBold"
    font-weight="600"
    font-stretch="normal"
    units-per-em="1000"
    panose-1="0 0 0 0 0 0 0 0 0 0"
    ascent="800"
    descent="-200"
    x-height="298"
    cap-height="719"
    bbox="-195 -299 1358 1096"
    underline-thickness="50"
    underline-position="-175"
    unicode-range="U+000D-FB02"
  />
<missing-glyph horiz-adv-x="428" 
d="M0 0v720h428v-720h-428zM80 70h268v580h-268v-580z" />
    <glyph glyph-name="fi" unicode="fi" horiz-adv-x="568" 
d="M-5 -280q-11 0 -25.5 7t-25.5 27t-11 58q0 44 15 114t40.5 155t60 174t74 172t81.5 149t83.5 105t79.5 39q24 0 31.5 -14.5t7.5 -33.5q0 -43 -23.5 -94t-62.5 -102.5t-87 -98t-98 -80.5q-4 -9 -8 -17.5t-7 -19.5q15 -7 23 -26q15 -44 38.5 -62.5t50.5 -18.5q33 0 66.5 19
t58.5 44q15 33 32.5 62t37.5 46.5t39 17.5q11 0 19 -6.5t8 -19.5t-15.5 -40t-36.5 -61.5t-36.5 -72t-15.5 -70.5q0 -34 12 -45t36 -11q34 0 73 34t83 121l14 -14q-32 -88 -87.5 -137t-117.5 -49q-41 0 -63 26t-22 62q0 18 5.5 45t14.5 57q-28 -20 -59.5 -31.5t-62.5 -11.5
q-14 0 -31 3.5t-35 9.5q2 -14 3.5 -28.5t1.5 -27.5q0 -63 -13 -125.5t-35.5 -114.5t-51 -83.5t-59.5 -31.5zM22 -223q14 0 30.5 28t31.5 73t24.5 96.5t9.5 98.5q0 20 -2 40t-7.5 38t-16.5 30q-25 -73 -45 -142t-31 -125t-11 -91q0 -46 17 -46zM159 358q62 57 106.5 113
t68.5 100t24 63q0 10 -10 10q-24 0 -56 -38.5t-66 -103.5t-67 -144zM520 425q-18 0 -32.5 9t-14.5 28q0 16 12.5 29t30.5 20.5t36 7.5q17 0 27.5 -8t10.5 -28t-21.5 -39t-48.5 -19z" />
    <glyph glyph-name="fl" unicode="fl" horiz-adv-x="565" 
d="M-5 -280q-11 0 -25.5 7t-25.5 27t-11 58q0 44 15 114t40.5 155t60 174t74 172t81.5 149t83.5 105t79.5 39q24 0 31.5 -14.5t7.5 -33.5q0 -43 -23.5 -94t-62.5 -102.5t-87 -98t-98 -80.5q-4 -9 -7.5 -17t-7.5 -19q9 -5 15.5 -13.5t7.5 -19.5q8 -54 33.5 -75.5t58.5 -21.5
q24 0 50.5 9.5t50.5 22.5q12 54 34.5 115.5t52 124.5t61 119.5t62 101.5t55.5 70.5t41 25.5q12 0 20.5 -13t13.5 -31.5t5 -33.5q0 -27 -13.5 -70t-37.5 -95.5t-57.5 -107t-74 -103.5t-86.5 -85q-5 -27 -8.5 -53t-3.5 -48q0 -36 11.5 -53.5t31.5 -17.5q27 0 54 24t51 60.5
t41 75.5l22 -12q-42 -88 -91.5 -139t-106.5 -51q-49 0 -68.5 33.5t-19.5 81.5q0 20 4 44q-54 -28 -108 -28q-16 0 -34 4t-35 12q0 -10 1 -20t1 -19q0 -63 -13 -125.5t-35.5 -114.5t-51 -83.5t-59.5 -31.5zM22 -223q14 0 30.5 29t31.5 74t24.5 96.5t9.5 96.5q0 24 -5 53
t-22 50q-25 -73 -44.5 -141.5t-30.5 -123.5t-11 -89q0 -45 17 -45zM159 358q62 57 106.5 113t68.5 100t24 63q0 10 -10 10q-24 0 -56 -38.5t-66 -103.5t-67 -144zM427 230q26 27 54 64.5t55.5 80.5t50 86t37.5 82.5t18 70.5q0 7 -1 11.5t-3 4.5q-7 2 -25.5 -21.5t-43 -64
t-51 -92.5t-50.5 -109t-41 -113z" />
    <glyph glyph-name="b_r" unicode="br" horiz-adv-x="761" 
d="M102 -73q-56 0 -84 35t-28 96q0 50 17 117t45 141t63 144.5t70.5 128t67 91.5t53.5 34q19 0 28.5 -22.5t9.5 -45.5q0 -28 -12 -68t-34 -84.5t-51 -88.5t-63.5 -80.5t-70.5 -57.5q-7 -12 -17.5 -45t-19.5 -74.5t-9 -81.5q0 -41 12.5 -66.5t41.5 -25.5q27 0 57 21.5
t49 54.5q-37 20 -56 56t-19 75q0 48 26 78t63 30q31 0 50.5 -24t19.5 -74q0 -29 -7 -60.5t-22 -64.5q4 -1 7.5 -1h7.5q40 0 70 26t53 66t39.5 82.5t27.5 76.5q-4 5 -6.5 10.5t-2.5 14.5q0 28 16.5 50t31.5 22q11 0 14 -12t3 -16q0 -9 -5.5 -20.5t-5.5 -18.5q0 -10 16 -20.5
t37 -25t37 -36.5t16 -55q0 -29 -12 -60t-24.5 -58t-12.5 -48q0 -14 8 -19t19 -5q24 0 49.5 15t49 38t42 49t28.5 48l16 -11q-19 -44 -52 -86.5t-73.5 -70.5t-85.5 -28q-36 0 -58 19t-22 52q0 28 13.5 61t27 65t13.5 57q0 27 -16.5 41.5t-35.5 26.5q-13 -40 -30 -85
t-42 -85.5t-61 -65.5t-86 -25q-6 0 -13 0.5t-14 1.5q-28 -45 -68.5 -77t-95.5 -32zM241 79q9 20 14.5 42.5t5.5 47.5q0 33 -8 52.5t-22 19.5t-24 -19t-10 -46q0 -25 10 -52.5t34 -44.5zM129 322q26 23 50 54t45 66t37.5 68t26.5 61t12 44v7.5t-2 2.5q-9 -1 -30 -28
t-46.5 -71t-50.5 -97t-42 -107z" />
    <glyph glyph-name="e_e" unicode="ee" horiz-adv-x="677" 
d="M452 -49q-61 0 -93 34t-35 82q-43 -52 -98.5 -81.5t-111.5 -29.5q-64 0 -97 34t-33 85q0 44 22.5 93.5t60.5 93t83.5 71t92.5 27.5q25 0 46.5 -12.5t21.5 -51.5q0 -38 -22.5 -70.5t-59 -58t-81 -41.5t-88.5 -21q-1 -6 -2 -13.5t-1 -15.5q0 -18 6.5 -37t23 -32t49.5 -13
q53 0 104 35.5t89 88.5q9 41 32 81.5t56 73.5t72 53.5t80 20.5q25 0 46.5 -13t21.5 -52q0 -50 -34.5 -88t-88.5 -61.5t-114 -30.5q-1 -6 -2 -13t-1 -15q0 -18 6 -38t22 -33.5t48 -13.5q43 0 86.5 25.5t80.5 66t62 88.5l15 -13q-27 -60 -69.5 -106t-92.5 -72.5t-103 -26.5z
M69 133q28 9 60 26t61.5 39.5t48.5 48.5t19 54q0 9 -3.5 14t-15.5 5q-22 0 -47.5 -16.5t-49.5 -44t-43 -60.5t-30 -66zM409 133q26 9 56.5 23t57.5 32.5t44.5 42.5t17.5 53q0 11 -4 16.5t-16 5.5q-29 0 -60 -25t-56.5 -64.5t-39.5 -83.5z" />
    <glyph glyph-name="l_l" unicode="ll" horiz-adv-x="484" 
d="M90 -30q-45 0 -66.5 30.5t-21.5 77.5q0 48 18 113t47.5 137.5t65 141.5t71 126t66 90.5t48.5 33.5q12 0 20.5 -13t13.5 -31.5t5 -34.5q0 -27 -13.5 -69.5t-38 -94.5t-58 -106t-73.5 -103t-86 -85q-4 -25 -7.5 -52t-3.5 -48q0 -72 43 -72q23 0 46.5 19.5t46 50.5t39.5 67
q10 51 30 110t46.5 119t56 114.5t58.5 97t53 67.5t40 25q12 0 21 -13.5t13.5 -32t4.5 -35.5q0 -32 -17 -83.5t-48.5 -111.5t-76 -118.5t-100.5 -103.5q-6 -24 -9 -50t-3 -47q0 -75 42 -75q26 0 53 24t51 60.5t41 75.5l21 -12q-41 -87 -90 -138t-106 -51q-46 0 -67 32t-20 82
q-34 -54 -73 -84t-83 -30zM103 232q34 35 65.5 78.5t58 89t47 88.5t32 77t11.5 53q0 7 -1 10t-3 4q-7 0 -25.5 -23.5t-43 -64t-50.5 -92t-50 -108.5t-41 -112zM346 231q41 43 76 93t60 99.5t39 90.5t14 64q0 7 -0.5 9.5t-2.5 4.5q-10 0 -32 -30.5t-50 -81.5t-55.5 -115.5
t-48.5 -133.5z" />
    <glyph glyph-name="o_r" unicode="or" horiz-adv-x="748" 
d="M75 -32q-43 0 -64.5 26.5t-21.5 65.5q0 45 16.5 88.5t43.5 81t59 66t63.5 44.5t56.5 16q10 0 19 -3.5t13 -11.5q3 2 6 2.5t6 0.5q25 0 33 -15.5t8 -31.5q0 -15 -9.5 -36.5t-19 -47t-9.5 -57.5q0 -21 11.5 -32t31.5 -11q33 0 57 18.5t42 48t31.5 64.5t22.5 68q-9 11 -9 25
q0 21 8.5 37.5t19.5 25.5t18 9q14 0 16.5 -11t2.5 -18q0 -5 -5.5 -18.5t-5.5 -17.5q0 -11 16 -22t37 -25t37 -35.5t16 -53.5q0 -30 -12 -60t-24.5 -57t-12.5 -46q0 -16 8 -21t19 -5q23 0 48.5 14.5t49.5 37.5t43 48.5t28 46.5l18 -12q-20 -43 -53 -84.5t-74 -69t-85 -27.5
q-36 0 -58.5 19.5t-22.5 49.5t13.5 62t26.5 63t13 56q0 28 -17.5 44t-36.5 27q-11 -35 -27 -73t-37.5 -70t-52 -51.5t-71.5 -19.5q-18 0 -36.5 6.5t-30.5 17.5q-28 -60 -72 -98t-91 -38zM95 16q17 0 38.5 15.5t43 41.5t34.5 56q-16 27 -16 75q0 16 3.5 35t9 37.5t13.5 31.5
q-25 -13 -48.5 -34.5t-43.5 -48.5t-35 -55.5t-23.5 -55.5t-8.5 -49q0 -26 9 -37.5t24 -11.5z" />
    <glyph glyph-name="t_h" unicode="th" horiz-adv-x="781" 
d="M92 -46q-46 0 -72 25.5t-26 76.5q0 30 8 70.5t22 86.5t30 91q-9 2 -17 5.5t-19 7.5v27q15 -3 24.5 -6t23.5 -4q28 71 59.5 131.5t61.5 96.5t51 36q10 0 18 -7t8 -17q0 -12 -10.5 -36t-27.5 -54.5t-35 -62.5t-34 -59.5t-24 -44.5q26 -4 48.5 -6.5t45.5 -2.5q28 0 59 4
t70 11q27 72 59.5 141.5t67 125.5t65.5 90t54 34q20 0 29.5 -22t9.5 -46q0 -34 -17 -81t-47 -97.5t-70.5 -94t-85.5 -70.5q-15 -33 -26 -79.5t-16.5 -90.5t-4.5 -72q24 65 54 120.5t67.5 88.5t81.5 33t64 -29.5t20 -64.5q0 -30 -10.5 -59.5t-21 -56t-10.5 -48.5
q0 -19 8.5 -26.5t19.5 -7.5q22 0 51 22t57.5 59t47.5 79l17 -16q-21 -49 -52 -90.5t-68 -65.5t-78 -24q-36 0 -55.5 19.5t-19.5 48.5q0 21 7.5 46t15 51.5t7.5 48.5q0 24 -10 34.5t-26 10.5q-25 0 -44.5 -19.5t-36 -51t-30.5 -66t-27.5 -65.5t-27 -51t-29.5 -20
q-14 0 -23.5 14t-15 34.5t-7.5 43t0 39.5q-40 -61 -94 -99.5t-114 -38.5zM121 0q50 0 100.5 44t87.5 121q7 31 14 59t19 62q-32 -7 -60.5 -10t-56.5 -3q-27 0 -53.5 3.5t-53.5 7.5q-22 -50 -36.5 -102t-14.5 -104q0 -42 12 -60t42 -18zM438 358q31 26 58 59.5t48 69
t34.5 67.5t16.5 53q2 11 1 17q-8 -2 -26 -22.5t-42 -56.5t-48 -84t-42 -103z" />
    <glyph glyph-name="v_r" unicode="vr" horiz-adv-x="769" 
d="M70 -39q-35 0 -48 33.5t-13 85.5q0 9 1 41.5t3 80.5q2 28 6.5 39t29.5 11q21 0 26.5 -7.5t5.5 -29.5q0 -20 -2 -47.5t-3.5 -56t-1.5 -50.5q0 -29 5 -40.5t16 -11.5q17 0 38.5 19.5t43.5 52t42.5 69t35.5 70.5q1 68 14.5 90.5t34.5 22.5q22 0 32 -15t10 -27l-7 -19.5
t-14 -46t-7 -50.5q0 -23 9.5 -37.5t33.5 -14.5q25 0 45.5 18.5t36.5 48t28.5 62t22.5 60.5q-3 5 -6 11t-3 15q0 27 16 49t32 22q9 0 12.5 -7t3.5 -14q0 -9 -5 -23.5t-5 -19.5q0 -12 16 -23t36.5 -26t37 -36.5t16.5 -54.5q0 -29 -12.5 -59t-24.5 -56.5t-12 -46.5q0 -14 8 -19
t19 -5q24 0 49 15t49 38t43 48.5t28 47.5l16 -11q-19 -43 -51.5 -85.5t-73.5 -70.5t-86 -28q-36 0 -58 19.5t-22 50.5q0 29 14 61t27 64t13 56q0 26 -16 41.5t-36 26.5q-11 -31 -25.5 -66t-34 -66.5t-46 -51t-61.5 -19.5q-31 0 -55.5 17.5t-33.5 43.5q-25 -47 -57.5 -90
t-67.5 -71t-68 -28z" />
    <glyph glyph-name="w_r" unicode="wr" horiz-adv-x="986" 
d="M291 -39q-33 0 -46 30t-13 77q0 18 1.5 33.5t2.5 32.5q-21 -40 -45.5 -78t-52 -62t-58.5 -24q-34 0 -57 30.5t-23 73.5q0 29 9.5 67t24 74.5t29.5 60.5t27 24q5 0 14.5 -3t18.5 -9t9 -14q-11 -18 -26.5 -52.5t-27 -72.5t-11.5 -68q0 -8 2 -23t9 -27t22 -12
q21 0 46.5 27.5t51 70t48.5 85.5q8 42 13 60.5t11.5 23t16.5 4.5q16 0 25.5 -4.5t11.5 -18.5q-9 -35 -18.5 -92t-9.5 -115q0 -24 4 -37.5t15 -13.5q15 0 35 20.5t42.5 53t44 70.5t37.5 72q0 53 5.5 75.5t15.5 27.5t25 5q21 0 31 -15t10 -27q-7 -13 -17.5 -41.5t-10.5 -61.5
q0 -25 11 -40t35 -15t44 17.5t35.5 45t28.5 58.5t22 58q-4 5 -6.5 11.5t-2.5 15.5q0 27 17.5 48.5t30.5 21.5t15 -12t2 -16q0 -8 -6 -19.5t-6 -17.5q0 -11 16.5 -22t37.5 -25.5t37 -35.5t16 -53q0 -30 -12 -60t-24.5 -57t-12.5 -47q0 -15 8 -20t18 -5q24 0 49.5 15t50 38
t43 48.5t27.5 46.5l19 -13q-19 -42 -52.5 -84t-75.5 -69.5t-86 -27.5q-36 0 -57.5 19t-21.5 51q0 29 13 61t26.5 63.5t13.5 55.5q0 28 -17 43.5t-35 25.5q-11 -30 -26 -63.5t-34.5 -63.5t-45 -49t-57.5 -19q-29 0 -51.5 16t-34.5 45q-19 -34 -42.5 -69t-49 -64t-51.5 -46.5
t-51 -17.5z" />
    <glyph glyph-name=".notdef" horiz-adv-x="428" 
d="M0 0v720h428v-720h-428zM80 70h268v580h-268v-580z" />
    <glyph glyph-name=".null" 
 />
    <glyph glyph-name="nonmarkingreturn" horiz-adv-x="333" 
 />
    <glyph glyph-name="NULL" 
 />
    <glyph glyph-name="NULL" 
 />
    <glyph glyph-name="CR" unicode="&#xd;" horiz-adv-x="260" 
 />
    <glyph glyph-name="space" unicode=" " horiz-adv-x="260" 
 />
    <glyph glyph-name="exclam" unicode="!" horiz-adv-x="283" 
d="M108 295q20 52 43 110.5t47 114t47.5 101t45.5 72.5t41 27q10 0 17.5 -8t7.5 -20q0 -14 -16 -53.5t-42 -95.5t-58 -119t-65 -124.5t-63 -113t-51 -83.5q-3 1 -5 2l-4 2q4 32 13 66.5t21 66.5t21 55zM30 -10q-15 0 -26 7.5t-11 24.5q0 18 20 31.5t42 13.5q14 0 23 -6.5
t9 -22.5t-17.5 -32t-39.5 -16z" />
    <glyph glyph-name="quotedbl" unicode="&#x22;" horiz-adv-x="261" 
d="M284 576q-12 7 -18 18t-6 24q0 20 9 44t23.5 41.5t30.5 17.5q11 0 20 -9.5t10 -24.5q-24 -24 -41 -54.5t-28 -56.5zM168 576q-13 7 -18.5 18t-5.5 24q0 20 9 44t23.5 41.5t30.5 17.5q11 0 20 -9.5t10 -24.5q-24 -24 -41.5 -54.5t-27.5 -56.5z" />
    <glyph glyph-name="numbersign" unicode="#" horiz-adv-x="702" 
d="M110 -162q20 24 39.5 73t38.5 115t36 141q-34 -1 -68 -4t-78 -6l-62 -5q2 29 31 45.5t79.5 24t111.5 8.5q2 11 5.5 27t5.5 27q-30 -1 -62.5 -3.5t-71.5 -6.5l-63 -5q2 29 30.5 45t76 24t105.5 9q21 103 36.5 187.5t26.5 137.5q3 15 12 28.5t44 20.5q-4 -19 -14 -74
t-24.5 -133t-30.5 -165q33 -1 63 -1.5t61 -2.5q22 103 37.5 188t26.5 139q3 15 12 28.5t44 20.5q-4 -15 -10.5 -51t-15.5 -87t-20.5 -113t-24.5 -128q54 -2 112 -6t105 -4q-36 -31 -64.5 -36.5t-52.5 -5.5q-32 0 -59 -0.5t-50 -0.5q-4 -17 -7.5 -34.5t-5.5 -31.5
q47 -2 102 -5.5t99 -3.5q-36 -30 -63.5 -35.5t-52.5 -5.5h-50t-46 -1q-21 -110 -42 -184.5t-50 -112t-77 -37.5q20 24 40 74t39 116.5t35 140.5h-121q-22 -109 -42 -183t-49 -111t-77 -37zM412 227l14 61h-67t-58 -2l-11 -56q32 0 62.5 -0.5t59.5 -2.5z" />
    <glyph glyph-name="dollar" unicode="$" horiz-adv-x="553" 
d="M145 -162q14 18 27.5 45t24.5 60q-49 5 -92 22.5t-69.5 50.5t-26.5 81q0 46 23 76t56.5 44t65.5 14q-31 -32 -46.5 -67.5t-15.5 -68.5q0 -48 31.5 -76t87.5 -34q17 59 34.5 129.5t33.5 146.5q-35 19 -67.5 41t-54 53t-21.5 77q0 55 30 101.5t80.5 78t111.5 41.5
q1 13 7 27t19.5 25.5t33.5 14.5q-2 -11 -5 -26t-8 -38q68 -1 93 -31t25 -77q0 -39 -13.5 -82t-36.5 -82q-22 5 -32.5 18.5t-10.5 28.5q0 17 9 43t18 54t9 49t-14.5 33t-52.5 12q-14 -75 -28 -149.5t-28 -150.5q36 -18 70 -40.5t56 -55t22 -81.5q0 -60 -32.5 -103t-85.5 -68
t-114 -31q-19 -51 -47 -78t-67 -27zM272 -15q65 8 102 43.5t37 86.5q0 43 -24.5 71t-60.5 49q-17 -89 -31 -155t-23 -95zM298 346q15 76 29.5 148.5t23.5 122.5q-44 -10 -75.5 -36t-49 -59t-17.5 -66q0 -40 26 -65.5t63 -44.5z" />
    <glyph glyph-name="percent" unicode="%" horiz-adv-x="726" 
d="M85 -87q24 24 61 76t80.5 122.5t88.5 149t86 156t74 144t50 111.5q4 11 18.5 21.5t34 18.5t36.5 8q-4 -15 -24 -57.5t-49 -101.5t-64 -125t-70 -131t-66.5 -119.5t-53.5 -88.5q-52 -82 -101 -133t-101 -51zM195 342q-45 0 -67.5 33.5t-22.5 78.5q0 33 10.5 70.5
t30.5 70.5t48 54t62 21q41 0 66.5 -29.5t25.5 -78.5q0 -32 -11 -70t-31 -72.5t-48 -56t-63 -21.5zM201 389q18 0 33 17.5t27 44.5t18.5 58.5t6.5 58.5q0 25 -6.5 40.5t-22.5 15.5q-21 0 -37.5 -18t-27 -46t-16 -57.5t-5.5 -52.5q0 -27 7.5 -44t22.5 -17zM533 -1
q-47 0 -68.5 33.5t-21.5 78.5q0 33 10.5 70.5t30 70.5t47 54t62.5 21q41 0 66.5 -29.5t25.5 -78.5q0 -31 -11 -69t-31 -72.5t-48 -56.5t-62 -22zM538 47q17 0 33 17t27.5 44.5t18.5 58.5t7 58q0 25 -7.5 41t-22.5 16q-22 0 -38 -18.5t-26.5 -47t-16 -58t-5.5 -52.5
q0 -27 8 -43t22 -16z" />
    <glyph glyph-name="ampersand" unicode="&#x26;" horiz-adv-x="655" 
d="M218 -87q-63 0 -110 25.5t-72.5 67t-25.5 92.5q0 45 19.5 88.5t54 79.5t81.5 60t102 31q-37 32 -55.5 72t-18.5 81q0 54 27 101.5t75.5 77.5t111.5 30q58 0 88.5 -28t30.5 -81q0 -38 -13 -74t-31.5 -59.5t-36.5 -23.5q-13 0 -24.5 11.5t-19.5 26.5q36 31 60 64t24 69
q0 29 -16 47.5t-51 18.5q-46 0 -77 -27t-47.5 -70t-16.5 -94q0 -23 4.5 -51t19.5 -55.5t44 -51.5q-70 -11 -122 -50t-80.5 -91t-28.5 -103q0 -31 12.5 -63.5t41.5 -55t76 -22.5q53 0 102.5 26t90 69t66.5 97.5t33 111.5q-20 -1 -37.5 -3t-39.5 -6t-58 -11q2 48 34 64t76 16
q32 0 58.5 -4t52.5 -8t54 -5q-14 -29 -26 -35t-23 -6q-18 0 -31 -0.5t-26 -0.5q-7 -68 -38 -130.5t-79.5 -111.5t-108.5 -77.5t-126 -28.5z" />
    <glyph glyph-name="quotesingle" unicode="'" horiz-adv-x="145" 
d="M168 576q-13 7 -18.5 18t-5.5 24q0 20 9 44t23.5 41.5t30.5 17.5q11 0 20 -9.5t10 -24.5q-24 -24 -42 -55t-27 -56z" />
    <glyph glyph-name="parenleft" unicode="(" horiz-adv-x="282" 
d="M166 -87q-27 15 -49 56t-34.5 99t-12.5 123q0 95 23 176.5t59.5 147t79 111t82.5 70t69 24.5q-65 -48 -111.5 -112t-75.5 -136.5t-43 -148.5t-14 -148q0 -78 14 -138t38 -98q-5 -10 -11.5 -16t-13.5 -10z" />
    <glyph glyph-name="parenright" unicode=")" horiz-adv-x="299" 
d="M-13 -87q-9 1 -17.5 11.5t-12.5 19.5q72 48 130.5 123.5t94 174.5t35.5 219q0 64 -15 129t-68 133q31 -7 65 -43.5t57 -98.5t23 -147q0 -90 -22.5 -169.5t-58 -144t-76 -111t-76.5 -71.5t-59 -25z" />
    <glyph glyph-name="asterisk" unicode="*" horiz-adv-x="407" 
d="M378 404q-19 20 -44.5 55.5t-51.5 71.5q-25 -47 -51.5 -82t-62.5 -36q17 23 28.5 43.5t21.5 42t21 43.5q-41 0 -74.5 6.5t-41.5 34.5q24 2 54.5 3t61.5 2q-20 32 -33 60t-13 47q0 14 8.5 20.5t10.5 12.5q22 -42 36 -70.5t33 -54.5q17 46 40.5 80.5t61.5 43.5
q-12 -33 -30.5 -67.5t-34.5 -70.5q24 0 49 -1t49 -8.5t45 -25.5l-134 -12q13 -17 24.5 -34.5t18.5 -41.5t8 -62z" />
    <glyph glyph-name="plus" unicode="+" horiz-adv-x="430" 
d="M164 -8q5 30 6.5 54t2 49t0.5 55q-30 0 -54.5 -0.5t-50 -3t-58.5 -7.5q11 32 55.5 44.5t106.5 13.5v44q0 24 6.5 51.5t28.5 60.5q3 -23 7.5 -66t5.5 -90q51 -1 99 -4.5t73 -5.5q-33 -22 -64.5 -29.5t-54.5 -7.5h-53q0 -41 -5 -75.5t-16.5 -56.5t-34.5 -26z" />
    <glyph glyph-name="comma" unicode="," horiz-adv-x="209" 
d="M23 -88q-11 7 -17 18t-6 24q0 20 9 44.5t23.5 42t29.5 17.5q12 0 21 -9.5t9 -21.5q-26 -28 -39 -54.5t-30 -60.5z" />
    <glyph glyph-name="hyphen" unicode="-" horiz-adv-x="499" 
d="M49 143q6 19 25.5 31t45 18t52 7.5t46.5 1.5q18 0 46 -1t59 -2t56.5 -2.5t37.5 -2.5q-19 -23 -54.5 -34t-74.5 -11q-23 0 -53.5 2t-63.5 2q-22 0 -46 -1.5t-44 -3.5t-32 -4z" />
    <glyph glyph-name="period" unicode="." horiz-adv-x="232" 
d="M61 -10q-20 0 -30 10.5t-10 23.5q0 11 10 22.5t24 19t27 7.5q12 0 21.5 -6t9.5 -22q0 -9 -6.5 -22t-18 -23t-27.5 -10z" />
    <glyph glyph-name="slash" unicode="/" horiz-adv-x="346" 
d="M-65 -162q22 21 50.5 67.5t60 109.5t64 136t64 148.5t60 146t51.5 129t38 97.5q4 11 19.5 21.5t36.5 18t43 7.5q-5 -12 -20 -48.5t-37.5 -90t-49 -116t-54 -128t-53.5 -126t-46.5 -109t-32.5 -78.5q-38 -88 -91 -136.5t-103 -48.5z" />
    <glyph glyph-name="zero" unicode="0" horiz-adv-x="650" 
d="M263 -87q-69 0 -114 36.5t-67 97.5t-22 134q0 66 16.5 140.5t48 145t77 128t102.5 91.5t125 34q63 0 110.5 -31.5t73.5 -91t26 -144.5q0 -76 -18 -153t-52 -146t-80.5 -123.5t-103.5 -86t-122 -31.5zM277 -44q45 0 86.5 34t76 90.5t60 126t39.5 142t14 137.5
q0 57 -12 101.5t-39 70.5t-73 26q-45 0 -82.5 -26t-68.5 -69.5t-54 -98t-38.5 -113t-23.5 -114t-8 -100.5q0 -94 33 -150.5t90 -56.5z" />
    <glyph glyph-name="one" unicode="1" horiz-adv-x="383" 
d="M58 -87q-30 0 -53.5 13t-42.5 38q14 -1 23.5 -2t21.5 -1q23 0 51 3.5t54 7.5q18 40 34 100t30.5 128.5t27 138t24 129.5t21.5 103q-55 -37 -78 -48.5t-35 -11.5q-13 0 -20.5 7.5t-7.5 29.5q20 10 56.5 35.5t80.5 61t83 74.5q7 -5 9.5 -15t2.5 -21q0 -24 -8.5 -50
t-13.5 -59q-10 -67 -23.5 -143.5t-31 -156t-40 -155t-51.5 -139.5q9 1 18 1.5t18 0.5q38 0 66.5 -12.5t37.5 -53.5q-23 3 -45.5 4.5t-42.5 1.5q-29 0 -60 -2t-59 -4.5t-47 -2.5z" />
    <glyph glyph-name="two" unicode="2" horiz-adv-x="585" 
d="M424 -87q-31 0 -71.5 12t-84.5 29t-86 34q-32 -20 -61.5 -31t-55.5 -11q-33 0 -54 16t-21 43q0 23 19 37t62 14q22 0 49 -3.5t58 -9.5q46 39 92.5 98t86 128.5t63.5 140.5t24 134q0 73 -30 106.5t-77 33.5q-45 0 -75 -27t-45 -69.5t-15 -89.5q0 -23 3.5 -41t12.5 -40
q-3 0 -6.5 0.5t-7.5 0.5q-30 5 -52 25.5t-22 68.5q0 54 28 101.5t77.5 77t114.5 29.5q56 0 95 -25.5t59 -69t20 -97.5q0 -43 -11.5 -89t-30.5 -91q-26 -59 -64.5 -117.5t-84.5 -110t-94 -90.5q68 -15 121.5 -25t87.5 -10q23 0 40.5 6.5t46.5 22.5q-15 -57 -41.5 -84
t-69.5 -27zM63 -18q15 0 31.5 6.5t34.5 18.5q-20 6 -37.5 10t-29.5 4q-19 0 -25.5 -6.5t-6.5 -12.5q0 -8 10.5 -14t22.5 -6z" />
    <glyph glyph-name="three" unicode="3" horiz-adv-x="531" 
d="M190 -87q-64 0 -102.5 23t-55.5 57t-17 67q0 26 9.5 51t28.5 42t48 17q5 0 11 -0.5t18 -2.5q-17 -14 -28 -42t-11 -54q0 -29 13.5 -56t38 -44t56.5 -17q39 0 75.5 27t60 74.5t23.5 109.5q0 39 -11.5 76.5t-39 66.5t-76.5 42q54 23 93 64t60 89t21 90q0 50 -27.5 70.5
t-62.5 20.5q-27 0 -52.5 -11.5t-42.5 -34t-17 -54.5q0 -15 4.5 -32.5t14.5 -35.5q-6 -11 -19.5 -22t-26.5 -11t-23.5 13.5t-15.5 33t-5 38.5q0 49 29 82.5t74 51.5t92 18q42 0 79.5 -15.5t61.5 -46t24 -75.5q0 -31 -12.5 -65t-34.5 -65t-52.5 -55t-65.5 -37q54 -17 85.5 -49
t45 -70t13.5 -73q0 -47 -20.5 -92.5t-58.5 -82.5t-89 -59t-113 -22z" />
    <glyph glyph-name="four" unicode="4" horiz-adv-x="498" 
d="M326 -87q-42 3 -65 16.5t-23 35.5q0 4 1.5 19t7 49t16.5 94q4 16 9 44.5t12 60.5q-21 1 -42.5 2t-32.5 1q-15 0 -38 -1t-49 -2.5t-51 -3.5t-44 -4.5t-28 -5.5q0 22 11.5 37.5t27.5 29.5q38 38 91 89t112.5 109.5t113 119.5t91.5 117q6 -3 13 -10t7 -22q0 -24 -20 -55
q-5 -23 -15.5 -72t-23.5 -118t-29 -150h12.5h12.5q31 0 49.5 2t37.5 8q-23 -31 -53 -51t-58 -21h-5.5h-6.5q-2 -7 -4 -20.5t-5 -31.5q-4 -26 -9.5 -62t-11 -75t-8.5 -73.5t-3 -55.5zM106 295q20 2 43.5 2.5t49.5 0.5q27 0 52 -0.5t47 -1.5q13 62 27 122t29 110
q-32 -31 -69 -64.5t-72.5 -66t-67.5 -63.5l-20 -20z" />
    <glyph glyph-name="five" unicode="5" horiz-adv-x="503" 
d="M185 -87q-68 0 -107.5 23t-56 56.5t-16.5 66.5q0 26 9.5 51.5t28.5 42.5t48 17q5 0 11 -0.5t18 -2.5q-17 -14 -27.5 -41.5t-10.5 -57.5q0 -28 10 -54t33 -43t59 -17q40 0 70.5 19.5t52 51.5t32.5 70.5t11 76.5q0 40 -13.5 75t-43 56.5t-78.5 21.5q-18 0 -44 -3t-56 -9
q4 31 14 74.5t23 91.5t26.5 94t24.5 83t16 58q33 -7 61 -10t51 -3q43 0 81.5 6t80.5 14q3 -11 4.5 -19t1.5 -16q0 -29 -20 -45.5t-50 -23.5t-60 -7q-37 0 -64.5 6t-47.5 6q-6 0 -9.5 -3t-7.5 -11q-9 -15 -18.5 -42.5t-18 -60t-16.5 -64t-14 -55t-9 -32.5q21 4 42 6.5t42 2.5
q71 0 117.5 -25.5t69.5 -69t23 -99.5q0 -71 -34.5 -129t-96 -92.5t-142.5 -34.5z" />
    <glyph glyph-name="six" unicode="6" horiz-adv-x="581" 
d="M272 -87q-77 0 -125 33.5t-70 91t-22 127.5q0 66 17.5 142t50.5 149t81.5 132.5t109.5 95.5t133 36q44 0 73.5 -15t29.5 -47q0 -15 -11 -29.5t-44 -23.5q0 8 1 15.5t1 15.5q0 21 -10.5 36.5t-42.5 15.5q-48 0 -89.5 -32.5t-75 -86t-59.5 -118.5t-42 -130q34 28 77.5 43
t89.5 15q52 0 96.5 -21t71.5 -64.5t27 -112.5q0 -76 -34 -136.5t-94 -96t-140 -35.5zM277 -46q38 0 68.5 20.5t51.5 53.5t32.5 74.5t11.5 82.5q0 53 -17 86t-46.5 48.5t-66.5 15.5q-57 0 -91.5 -27.5t-49.5 -71t-15 -93.5q0 -27 5.5 -59.5t18 -62t37 -48.5t61.5 -19z" />
    <glyph glyph-name="seven" unicode="7" horiz-adv-x="427" 
d="M115 -87q-15 0 -27.5 12.5t-12.5 37.5q0 27 17 76t46.5 114.5t66.5 140.5q-19 0 -44 -1.5t-50.5 -3.5t-45.5 -5q1 31 22 46.5t54.5 21.5t71.5 7h13.5h12.5q31 52 72.5 121.5t88.5 145.5q-22 0 -49.5 -1.5t-54.5 -3t-51 -1.5q-64 0 -88.5 15t-24.5 37q0 20 16 47
q30 -5 59 -10t61 -7.5t70 -2.5q48 0 97.5 6t87.5 18q-13 -18 -28.5 -39.5t-30.5 -40.5q-43 -62 -82 -131.5t-80 -156.5q22 -2 42.5 -3t42.5 -1q15 0 28 1t26 4q-22 -29 -44 -45.5t-48 -16.5h-35h-40q-18 -41 -38.5 -90.5t-34.5 -97.5t-14 -86q0 -13 2.5 -24t11.5 -17
q-18 -37 -45 -51.5t-41 -14.5z" />
    <glyph glyph-name="eight" unicode="8" horiz-adv-x="549" 
d="M225 -87q-54 0 -89.5 16t-57 41.5t-31 55t-9.5 56.5q0 43 20 78t51.5 64.5t69.5 57t75 55.5q-28 30 -55 62.5t-43.5 70t-16.5 83.5q0 60 28.5 96t73.5 53t90 17q71 0 116.5 -37t45.5 -111q0 -48 -19.5 -87t-51 -72t-71.5 -64q34 -33 64 -67.5t48.5 -72.5t18.5 -84
q0 -64 -37 -111.5t-96 -73.5t-124 -26zM234 -39q37 0 72 19.5t58.5 55.5t23.5 83q0 54 -30 97t-70 86q-45 -31 -85.5 -64.5t-66.5 -71t-26 -83.5q0 -37 18 -65t46.5 -42.5t59.5 -14.5zM318 384q46 39 76.5 84t30.5 103q0 56 -27 84t-65 28q-22 0 -46.5 -11.5t-42 -37.5
t-17.5 -69q0 -53 26.5 -96.5t64.5 -84.5z" />
    <glyph glyph-name="nine" unicode="9" horiz-adv-x="587" 
d="M204 -87q-44 0 -74.5 15.5t-30.5 48.5q0 15 10.5 29.5t42.5 23.5v-14t1 -15q2 -22 13 -39t41 -17q47 0 87 32.5t72 86t55 118.5t36 130q-32 -27 -75.5 -42t-89.5 -15q-54 0 -99.5 22.5t-72.5 68.5t-27 115q0 75 32 133.5t90 92t135 33.5q83 0 132.5 -37.5t71.5 -99.5
t22 -136q0 -68 -16.5 -142t-48 -143.5t-76.5 -125.5t-103 -89.5t-128 -33.5zM328 298q76 0 111 47.5t35 124.5q0 33 -6 69.5t-20 68t-39 51.5t-63 20q-36 0 -65.5 -19.5t-49.5 -51.5t-30.5 -71.5t-10.5 -79.5q0 -54 18 -89.5t49.5 -52.5t70.5 -17z" />
    <glyph glyph-name="colon" unicode=":" horiz-adv-x="239" 
d="M119 232q-14 0 -25.5 7.5t-11.5 23.5q0 19 21 32t41 13q15 0 23 -6.5t8 -22.5q0 -15 -17 -31t-39 -16zM62 -10q-14 0 -25.5 7.5t-11.5 23.5q0 19 20 32t42 13q14 0 22.5 -6.5t8.5 -22.5q0 -15 -17.5 -31t-38.5 -16z" />
    <glyph glyph-name="semicolon" unicode=";" horiz-adv-x="237" 
d="M40 -88q-13 7 -18.5 18.5t-5.5 23.5q0 21 9 46.5t24 44t31 18.5q12 0 21.5 -9.5t10.5 -22.5q-26 -28 -41 -55.5t-31 -63.5zM119 233q-15 0 -26 7.5t-11 23.5q0 19 20 32t42 13q14 0 23 -6t9 -22t-17.5 -32t-39.5 -16z" />
    <glyph glyph-name="less" unicode="&#x3c;" horiz-adv-x="322" 
d="M195 44q-19 0 -45.5 12.5t-53 31.5t-45.5 39t-24 36q36 13 72 38.5t67.5 57t53.5 62.5q4 -4 7.5 -13t3.5 -19q0 -20 -15.5 -39.5t-40 -38t-53 -35t-53.5 -29.5q21 -14 40.5 -26t48 -24.5t74.5 -29.5q-7 -8 -16.5 -15.5t-20.5 -7.5z" />
    <glyph glyph-name="equal" unicode="=" horiz-adv-x="512" 
d="M57 198q6 25 33 37t68 16t88 4q35 0 69.5 -2t64 -4t45.5 -4q-32 -23 -63 -30t-52 -7h-98q-30 0 -53.5 -0.5t-47.5 -2.5t-54 -7zM59 106q4 25 31 37t68.5 16t89.5 4q34 0 69 -2t64 -4t46 -4q-32 -23 -63.5 -30t-52.5 -7h-97q-30 0 -53.5 -0.5t-47.5 -2.5t-54 -7z" />
    <glyph glyph-name="greater" unicode="&#x3e;" horiz-adv-x="333" 
d="M110 44q-13 0 -23.5 7.5t-15.5 15.5q46 17 74 29.5t47 24.5t39 26q-25 13 -54.5 29.5t-54.5 35t-41.5 38t-16.5 39.5q0 7 3 15.5t6 14.5q22 -28 55.5 -58.5t71.5 -56.5t73 -41q-4 -15 -22.5 -35.5t-44 -39.5t-52 -31.5t-44.5 -12.5z" />
    <glyph glyph-name="question" unicode="?" horiz-adv-x="453" 
d="M254 121q-23 12 -30.5 22t-7.5 31q0 47 19 85.5t47.5 73.5t57 70.5t47.5 76.5t19 92q0 55 -22 83.5t-55 28.5q-35 0 -69.5 -27.5t-57 -73.5t-22.5 -102q0 -17 2.5 -32t7.5 -33q-45 8 -60 29.5t-15 52.5q0 57 26.5 107.5t76 82.5t114.5 32q66 0 105.5 -35t39.5 -101
q0 -44 -16 -78.5t-40.5 -64t-52 -59.5t-51 -64.5t-37.5 -80.5q-10 -34 -12 -60t-14 -56zM212 -10q-15 0 -26 8t-11 23q0 19 20.5 32.5t41.5 13.5q14 0 23 -6.5t9 -20.5q0 -18 -17.5 -34t-39.5 -16z" />
    <glyph glyph-name="at" unicode="@" horiz-adv-x="603" 
d="M233 -121q-77 0 -126.5 30t-73 78.5t-23.5 103.5q0 56 23 110.5t65.5 98t103 69.5t134.5 26q76 0 125 -26.5t73.5 -68.5t24.5 -89q0 -37 -14 -73t-38.5 -66t-57 -48t-69.5 -18q-32 0 -48 13.5t-21 35.5q-1 7 -1.5 13.5t0.5 13.5q-34 -41 -66 -65t-63 -24
q-26 0 -45.5 17.5t-19.5 52.5t20 77.5t53.5 81t73.5 63t81 24.5q33 0 55.5 -17t22.5 -41q0 -18 -8.5 -26t-19.5 -10.5t-19 -1.5q2 5 2.5 11t0.5 11q0 18 -6 32t-28 14q-28 0 -57.5 -23.5t-54 -59.5t-39.5 -73t-15 -64q0 -16 5.5 -22t12.5 -6q14 0 38 17.5t50.5 45t48.5 57
t35 52.5q11 -1 24.5 -8t13.5 -16q0 -11 -11.5 -30t-23 -40.5t-11.5 -40.5q0 -8 6 -17.5t26 -9.5q31 0 59.5 23.5t47 61t18.5 77.5q0 36 -18.5 71t-58 58t-103.5 23t-116 -23.5t-89.5 -63t-57 -87t-19.5 -96.5q0 -43 18 -83t59 -66.5t110 -26.5q51 0 107 19.5t109 67.5
l12 -14q-40 -45 -99.5 -75t-137.5 -30z" />
    <glyph glyph-name="A" unicode="A" horiz-adv-x="618" 
d="M36 -87q-27 15 -34.5 31t-7.5 28q0 27 20 73.5t53.5 106t75.5 124.5q-33 2 -60.5 3t-62.5 1h-23q13 34 42.5 47.5t69.5 13.5q17 0 35.5 -2t38.5 -4q50 73 100 140t94.5 120t77.5 85q42 41 63 41q13 0 29 -10t34 -26q-10 -8 -25.5 -41.5t-33 -84.5t-35 -112t-31.5 -123.5
t-22.5 -119.5t-8.5 -101q0 -39 8 -59t27 -20q24 0 58 35.5t75 113.5l15 -16q-31 -82 -79.5 -134t-102.5 -52q-45 0 -64.5 39.5t-19.5 108.5q0 26 3.5 58t10.5 74q-44 7 -79 11t-66 8q-47 -85 -92 -176.5t-83 -180.5zM365 295q14 62 32.5 124.5t39 120t39.5 102.5
q-30 -22 -68.5 -68.5t-80.5 -110.5t-86 -139q32 -7 63 -14.5t61 -14.5z" />
    <glyph glyph-name="B" unicode="B" horiz-adv-x="636" 
d="M153 -87q-59 0 -89 19.5t-30 64.5q0 8 8 8q9 0 27 -5t70 -5q87 0 161 19t128 51.5t84 73t30 83.5q0 40 -23.5 64t-61.5 36.5t-83 17t-89 4.5q-19 0 -38 -0.5t-36 -0.5q-23 -78 -44 -159.5t-44 -158.5q-29 0 -49 15t-20 37q0 10 4 25t10 33q6 19 20.5 64t35 106
t45.5 128.5t52 132t53 115.5q-41 -8 -67.5 -20.5t-42 -22t-23.5 -9.5q-5 0 -14 6.5t-16 14.5t-7 14q53 22 109.5 39t137.5 17q35 0 77 -5.5t80 -22t62.5 -48.5t24.5 -86q0 -45 -19.5 -77.5t-51.5 -55t-70 -36.5t-75 -22q66 -6 109 -23.5t67 -40.5t34 -48t10 -49
q0 -58 -31 -105t-81 -82t-109.5 -58.5t-118.5 -35.5t-106 -12zM219 376q56 2 110 12.5t98 32.5t70.5 57.5t26.5 87.5q0 50 -25.5 76.5t-66 37t-86.5 10.5h-5t-5 -1q-34 -68 -62.5 -148t-54.5 -165z" />
    <glyph glyph-name="C" unicode="C" horiz-adv-x="558" 
d="M239 -87q-74 0 -120.5 36t-68 92.5t-21.5 117.5q0 79 24 158.5t66 152t95.5 128.5t114 88.5t120.5 32.5q43 0 71.5 -20t28.5 -69q0 -30 -10.5 -67t-28 -71t-39 -56t-43.5 -22q-9 0 -19 6.5t-18 21.5q15 17 33.5 42t35.5 53t28 54.5t11 47.5q0 18 -10.5 29.5t-36.5 11.5
q-43 0 -89.5 -34t-89.5 -90.5t-78 -126t-55 -143t-20 -139.5q0 -48 14 -92t46 -71.5t83 -27.5q54 0 107 30t97.5 79t71.5 106l22 -15q-35 -66 -83 -121.5t-108.5 -88.5t-130.5 -33z" />
    <glyph glyph-name="D" unicode="D" horiz-adv-x="675" 
d="M181 -87q-33 0 -63.5 9t-52.5 39q6 32 18.5 81.5t29.5 108t35.5 118.5t36 114t31.5 94.5t21 59.5q3 8 10 24t17.5 32.5t24.5 28t31 11.5q16 0 34 -12q-31 -71 -62.5 -157t-60 -177t-52.5 -177.5t-39 -157.5q10 -3 23 -4.5t25 -1.5q64 0 123.5 31t109.5 83t87.5 118
t58 137t20.5 137q0 81 -27 132.5t-74 75.5t-109 24q-65 0 -117 -24.5t-81.5 -66t-29.5 -94.5q0 -12 2 -23t5 -22q-39 0 -56 18t-17 44q0 35 25.5 70.5t70 66t103.5 49t127 18.5q95 0 152.5 -37t83.5 -100t26 -141q0 -86 -27 -165t-75.5 -145t-111 -115.5t-133.5 -76.5
t-143 -27z" />
    <glyph glyph-name="E" unicode="E" horiz-adv-x="521" 
d="M199 -87q-63 0 -109.5 25.5t-72 67.5t-25.5 93q0 45 19.5 88t54.5 79t81.5 60t101.5 31q-37 32 -55.5 72t-18.5 82q0 53 27 100.5t75.5 77.5t111.5 30q59 0 90.5 -29t31.5 -84q0 -38 -13.5 -73.5t-33 -57.5t-37.5 -22q-13 0 -24.5 11.5t-19.5 26.5q36 31 61.5 65t25.5 71
q0 30 -19.5 46t-52.5 16q-45 0 -76.5 -27.5t-47 -71t-15.5 -91.5q0 -41 14 -84t54 -74q-70 -11 -122 -50t-80.5 -91t-28.5 -103q0 -31 12.5 -64.5t41 -56t76.5 -22.5q54 0 107 30.5t97 80t71 106.5l23 -15q-37 -69 -86 -124t-109 -87t-130 -32z" />
    <glyph glyph-name="F" unicode="F" horiz-adv-x="508" 
d="M176 -87q-51 4 -65.5 25.5t-14.5 54.5q0 37 13.5 89t35 112t46.5 120q-12 -1 -32 -3t-43 -4.5t-44 -6.5q3 30 22.5 46.5t51 24t68.5 8.5q27 74 55 144t56 128q-7 1 -15.5 1.5t-21.5 0.5q-62 0 -96 -13t-46.5 -38t-12.5 -62q0 -24 4 -44t13 -42q-42 7 -60.5 29t-18.5 55
q0 52 38 91.5t102.5 62.5t144.5 23q53 0 104.5 -7t97.5 -7q24 0 45 3t47 10q-44 -49 -72.5 -66t-56.5 -17q-24 0 -61.5 6.5t-82.5 10.5q-13 -33 -28 -76.5t-31 -93t-33 -100.5q52 -4 94.5 -9t88.5 -7q-10 -15 -22 -23.5t-32 -12t-55 -5.5t-91 -3q-8 -27 -17 -57t-15.5 -53.5
t-9.5 -30.5q-26 -90 -38 -152.5t-12 -111.5z" />
    <glyph glyph-name="G" unicode="G" horiz-adv-x="574" 
d="M228 -87q-55 0 -100 29.5t-72 85.5t-27 135q0 77 24 156t65.5 150.5t95.5 128t113.5 89t119.5 32.5q42 0 67 -16.5t36 -43t11 -56.5q0 -35 -12.5 -69.5t-33.5 -57.5t-46 -23q-11 0 -20.5 6.5t-17.5 23.5q14 10 32.5 35.5t32.5 56.5t14 56q0 21 -13 35t-43 14
q-45 0 -92 -34t-90 -90.5t-78 -126.5t-55 -142.5t-20 -137.5q0 -91 39 -142t95 -51q40 0 75 27t61.5 70.5t42.5 94.5t20 99q-29 6 -54 8.5t-51 2.5q-15 0 -30.5 -0.5t-33.5 -0.5q8 33 27 47.5t48 14.5q30 0 60.5 -9.5t61 -20.5t57.5 -17l-9 -32q-18 -53 -29.5 -90t-18 -63.5
t-8.5 -47.5t-2 -41t1 -41t2 -48q-25 5 -39 17t-19 29t-5 34q0 7 0.5 14t2.5 15q-35 -46 -81 -75.5t-104 -29.5z" />
    <glyph glyph-name="H" unicode="H" horiz-adv-x="647" 
d="M66 -87q6 36 14 72.5t19.5 82t29.5 104t43 137.5q-15 -1 -32 -3t-33 -4q0 30 23.5 46t62.5 24q5 16 9.5 29t9.5 29.5t13.5 39t20.5 58.5t30 89q3 7 8 22.5t5 29.5q0 8 -2.5 11t-10.5 3q-22 0 -43 -18.5t-38 -47t-27 -59t-10 -53.5q0 -9 1.5 -18.5t6.5 -23.5q-39 0 -56 18
t-17 45q0 34 20.5 68t52.5 62.5t68 46t66 17.5t41 -16.5t11 -36.5q0 -11 -2.5 -22t-5.5 -21l-74 -244q12 1 25.5 1h26.5q49 0 91.5 -2t82.5 -6q23 77 41 133.5t32.5 96t25.5 63.5q4 8 11 21t20.5 23.5t34.5 10.5q-13 -36 -31.5 -93.5t-37.5 -125t-36 -134.5q16 0 39 -1.5
t44 -1.5q-28 -29 -51 -35.5t-43 -6.5q-10 -43 -19 -82t-15 -74q-14 -71 -20 -122.5t-6 -84.5q0 -14 1 -25.5t3 -21.5q-47 5 -64.5 24t-17.5 64q0 24 4.5 56t14.5 72q8 35 22 83.5t33 109.5q-61 0 -101.5 -1t-70.5 -2t-60 -4q-6 -22 -15 -50t-20.5 -66t-28 -91.5
t-40.5 -127.5q-11 -36 -36 -51.5t-43 -15.5z" />
    <glyph glyph-name="I" unicode="I" horiz-adv-x="488" 
d="M-25 -88q4 41 27.5 59.5t61 24t80.5 5.5q18 39 35 93.5t33 116.5t31 127t28.5 125.5t25.5 109.5t23 80q-52 -1 -90.5 -3.5t-72 -7.5t-70.5 -12q9 46 60 67.5t155 21.5q52 0 107.5 -4t101.5 -9t72 -9q-31 -29 -59.5 -36t-50.5 -7h-58t-50 -1q-6 -29 -14.5 -76.5t-19 -104
t-21 -114.5t-21 -109t-19.5 -86q-14 -56 -32.5 -99t-43.5 -64q53 -4 108.5 -10.5t114.5 -8.5q-36 -34 -70.5 -42.5t-57.5 -8.5q-57 0 -99.5 -0.5t-77 -2t-67 -5.5t-70.5 -10z" />
    <glyph glyph-name="J" unicode="J" horiz-adv-x="430" 
d="M95 -86q-25 0 -52.5 9.5t-46 38t-18.5 85.5q0 40 9 79t27 65.5t44 26.5q13 0 35 -10q-19 -47 -28.5 -87.5t-9.5 -73.5q0 -41 17 -65t46 -24q24 0 44.5 22t41.5 79q16 43 33 104t34 130.5t32.5 138t28 127.5t19.5 99q-49 0 -84.5 -2.5t-64.5 -7t-61 -12.5q6 43 47.5 62.5
t126.5 19.5q41 0 84.5 -4t81 -9t57.5 -9q-15 -24 -42 -30.5t-45 -6.5q-17 0 -34 -0.5t-28 -0.5q8 -8 12 -20t4 -21q0 -13 -7 -57t-20 -106.5t-30 -133t-38 -138t-45 -120.5q-26 -58 -53.5 -90.5t-57 -45t-59.5 -12.5z" />
    <glyph glyph-name="K" unicode="K" horiz-adv-x="621" 
d="M526 -87q-23 0 -53 25t-64 66t-66.5 90t-61 98t-48.5 88l-93 -300q-7 -24 -24.5 -34t-37.5 -12.5t-39 -2.5q13 30 27 65.5t31.5 86t42 122t59.5 173t84 239.5q2 7 7 20.5t5 24.5q0 10 -4.5 15.5t-16.5 5.5q-24 0 -45.5 -19t-38.5 -47.5t-27 -58.5t-10 -53q0 -21 8 -42
q-39 0 -56 18t-17 45q0 34 21 68t53 62.5t68 46t66 17.5q31 0 41 -17.5t10 -37.5q0 -11 -2 -21t-5 -20l-77 -251q12 12 29 25t46 35q52 41 103.5 89t96.5 99.5t77 100.5q10 -9 13 -25t3 -26q0 -31 -25.5 -67.5t-66.5 -75.5t-90 -77.5t-97.5 -71.5t-87.5 -58
q31 -50 60.5 -94.5t64.5 -87.5t82.5 -89t113.5 -98q-8 -16 -25 -27.5t-34 -11.5z" />
    <glyph glyph-name="L" unicode="L" horiz-adv-x="596" 
d="M423 -87q-36 0 -81.5 15t-93 36t-93.5 41q-25 -28 -53 -43t-61 -15q-34 0 -58.5 15.5t-37 37t-12.5 38.5q0 19 17.5 33.5t61.5 14.5q26 0 58.5 -5.5t66.5 -14.5q23 40 43 95t39 115.5t39 119.5q-49 16 -76 46t-27 62q0 20 9.5 39t26.5 32t41 13q-11 -14 -14.5 -33.5
t-3.5 -32.5q0 -35 15.5 -58.5t38.5 -37.5q19 58 40.5 111t48 94t58.5 65t72 24q22 0 46.5 -9.5t42 -32t17.5 -64.5q0 -34 -14.5 -73t-44.5 -74.5t-77.5 -59t-113.5 -24.5h-4.5h-8.5q-19 -59 -40.5 -119.5t-46 -115.5t-52.5 -97q41 -12 88.5 -26.5t94 -24t82.5 -9.5
q23 0 42.5 5t39.5 15q-18 -52 -46.5 -75t-68.5 -23zM33 -19q25 0 42 12t33 30q-31 12 -58.5 20t-49.5 8q-19 0 -27 -6.5t-8 -16.5q0 -16 20 -31.5t48 -15.5zM340 411q44 2 79 27t59.5 61.5t37 74t12.5 65.5q0 27 -10 37t-24 10q-29 0 -55.5 -38t-50.5 -100.5t-48 -136.5z
" />
    <glyph glyph-name="M" unicode="M" horiz-adv-x="791" 
d="M-9 -87q5 15 30.5 70.5t67.5 147t98.5 214t123.5 270.5q3 7 6 17t3 18q0 11 -6 17.5t-25 6.5q-42 0 -68.5 -26.5t-39.5 -65.5t-13 -76q0 -10 0.5 -20t2.5 -23q-22 0 -36 14.5t-21.5 35t-7.5 38.5q0 33 18.5 63t48 54t65.5 38t71 14t60 -20t38 -71.5t13 -148.5
q0 -64 -4.5 -131.5t-9.5 -129t-6 -107.5q19 60 48.5 127t64 133.5t68 125.5t60.5 102.5t41 64.5t24.5 32t28.5 11q14 0 40 -10q-8 -19 -20 -58.5t-26 -92.5q-15 -61 -30.5 -134.5t-28 -148.5t-20 -142.5t-7.5 -116.5q0 -25 2 -39t6.5 -24.5t9.5 -28.5q-40 0 -61 12.5
t-28 39.5t-7 72q0 114 27 241t63 263q-28 -39 -58.5 -94.5t-60.5 -118t-57 -124t-47.5 -114t-31.5 -87.5q-8 -3 -11 -4t-8 -1q-33 0 -42 39t-9 108q0 39 1.5 88t4 100t4 100t1.5 91q0 16 -0.5 30.5t-0.5 27.5q-78 -181 -131 -308.5t-90 -207t-66.5 -116.5t-61.5 -37z" />
    <glyph glyph-name="N" unicode="N" horiz-adv-x="662" 
d="M53 -87q14 49 32.5 108.5t43.5 140.5t58.5 192t77.5 263l4 16t3 24q0 8 -3 12.5t-11 4.5q-22 0 -42 -17.5t-35.5 -44t-24.5 -55t-9 -51.5q0 -22 8 -43q-40 0 -56.5 18t-16.5 45q0 34 21 68t53 62.5t67 46t64 17.5q33 0 54.5 -25.5t35 -69.5t23 -100t17.5 -118
q10 -69 17 -117.5t12 -82t9 -58.5t8 -49q10 47 23 102.5t27 114t28.5 114t28.5 103.5t26 83t21 52q8 15 27 33.5t48 18.5q-17 -46 -38.5 -112.5t-43.5 -144t-42.5 -158t-37 -155.5t-26 -137t-9.5 -101q-35 0 -57 17.5t-33 66.5q-4 20 -12 62t-17.5 97t-19.5 115t-19.5 118
t-17.5 104.5t-13 73.5q-46 -167 -78.5 -283t-56.5 -188.5t-42.5 -112.5t-36.5 -55t-39 -15z" />
    <glyph glyph-name="O" unicode="O" horiz-adv-x="644" 
d="M232 -87q-58 0 -104 30.5t-73 86.5t-27 133t24.5 155.5t66.5 150.5t97 128.5t116.5 89t125.5 32.5q13 0 31 -3.5t34 -19.5q-6 1 -11.5 1.5t-11.5 0.5q-52 0 -105 -33.5t-101 -89.5t-85.5 -126.5t-59.5 -146.5t-22 -148q0 -52 13.5 -97.5t44.5 -73t80 -27.5q56 0 104 33.5
t87.5 90.5t67.5 126.5t43 144t15 141.5q0 29 -4 62t-13.5 56.5t-27.5 23.5q-17 0 -37.5 -21.5t-39.5 -55t-33.5 -70t-20.5 -65.5q-31 7 -44.5 21.5t-13.5 33.5q0 27 19 60t48.5 63.5t62 50.5t60.5 20q29 0 46.5 -21t27.5 -53.5t14 -69t4 -68.5q0 -104 -25 -190.5t-67 -152.5
t-94 -111.5t-107 -68.5t-105 -23z" />
    <glyph glyph-name="P" unicode="P" horiz-adv-x="548" 
d="M107 -87q-29 0 -53.5 15.5t-24.5 39.5q0 12 4.5 27t8.5 28q31 96 58.5 179.5t55 161t58.5 155.5t69 163q-38 -7 -65.5 -20t-45 -23t-24.5 -10q-5 0 -14 6.5t-15.5 14.5t-6.5 14q27 12 64 25t80 22t86 9q46 0 94 -12.5t88 -37t65 -60.5t25 -85q0 -53 -24 -90.5t-63 -63.5
t-84 -42t-90 -24t-80.5 -11t-52.5 -3h-7q-29 -100 -56 -199t-50 -179zM220 317q56 4 112 19t102 42t74 68t28 95q0 52 -26 84t-67.5 48t-88.5 17q-36 -71 -69.5 -169t-64.5 -204z" />
    <glyph glyph-name="Q" unicode="Q" horiz-adv-x="716" 
d="M544 -119q-47 0 -87.5 25t-78.5 56q-24 -12 -50 -19t-54 -7q-37 0 -60 10.5t-35 25.5t-16.5 30t-4.5 24q0 19 17.5 38.5t61.5 19.5q41 0 81 -18.5t82 -43.5q43 39 77 98.5t57 127.5t35.5 134t12.5 118q0 82 -32 133t-103 51q-58 0 -108 -33.5t-90 -89t-69 -124.5
t-44 -143t-15 -141q0 -21 2.5 -45t8.5 -50q-36 0 -55.5 20.5t-27.5 53t-8 68.5q0 75 20 149.5t56.5 141t87 118.5t112 81.5t129.5 29.5q101 0 158.5 -66t57.5 -180q0 -62 -16.5 -129t-46.5 -131.5t-71 -119.5t-89 -94q33 -17 69.5 -29t75.5 -12q24 0 35.5 4.5t30.5 9.5
q-11 -40 -30 -60t-38.5 -26t-37.5 -6zM262 -35q25 0 47 7.5t38 15.5q-29 25 -59 43.5t-62 18.5q-21 0 -30 -8.5t-9 -20.5q0 -10 6.5 -23t23 -23t45.5 -10z" />
    <glyph glyph-name="R" unicode="R" horiz-adv-x="603" 
d="M491 -121q-23 0 -53.5 26.5t-63.5 69.5t-65.5 94t-60.5 103t-47 93q-28 -94 -53 -185t-47 -168q-28 0 -51.5 15.5t-23.5 40.5q0 11 5 26t9 29l51 153t44.5 129t44 119t49 122t59.5 138q-40 -7 -70 -20.5t-49 -24t-26 -10.5q-4 0 -13.5 6t-16.5 14.5t-7 14.5
q28 11 64.5 24t80.5 22.5t91 9.5q44 0 91 -10.5t86.5 -33.5t64 -59.5t24.5 -87.5q0 -48 -21.5 -82.5t-57 -58.5t-78 -39t-85 -23t-78 -11t-57.5 -4q32 -51 62 -100t64.5 -97t81 -96.5t110.5 -98.5q-5 -17 -24 -28.5t-34 -11.5zM221 337q56 3 110.5 17.5t99.5 40t72 64
t27 90.5q0 53 -26 83.5t-67 43.5t-86 14q-34 -68 -66.5 -160.5t-63.5 -192.5z" />
    <glyph glyph-name="S" unicode="S" horiz-adv-x="556" 
d="M223 -87q-57 0 -108 20t-82.5 60.5t-31.5 101.5q0 53 22.5 83t56.5 42t66 12q-31 -32 -46.5 -68t-15.5 -69q0 -35 17 -65.5t52 -49.5t87 -19q45 0 87.5 15.5t70 46.5t27.5 77q0 42 -23 72t-59 53.5t-76.5 45t-76.5 46.5t-59 57.5t-23 78.5q0 41 20.5 87.5t58 87.5
t91 66.5t119.5 25.5q65 0 91.5 -29t26.5 -74q0 -37 -12.5 -79t-31 -79.5t-35.5 -64.5q-21 5 -30.5 17t-9.5 31q0 21 8.5 47.5t20 55t20.5 55t9 47.5q0 19 -11 29.5t-44 10.5q-47 0 -87 -21.5t-69.5 -54.5t-46 -69t-16.5 -66q0 -36 22.5 -62t58 -47t75.5 -42.5t75.5 -47.5
t58 -61.5t22.5 -87.5t-23 -92t-62.5 -67t-87.5 -41.5t-96 -14.5z" />
    <glyph glyph-name="T" unicode="T" horiz-adv-x="523" 
d="M217 -87q-51 0 -71 21t-20 54q0 29 11.5 69.5t23.5 77.5q22 63 47.5 131t52 135t52.5 129t49 113q-68 -1 -116.5 -3.5t-88 -6.5t-83.5 -12q4 39 37.5 60.5t90.5 30t129 8.5q50 0 91 -3t78.5 -6.5t73.5 -5.5q30 -15 39.5 -19t3.5 -4q-23 -18 -57.5 -26.5t-71.5 -10.5
t-71 -2q-42 -105 -82.5 -230t-77.5 -259q-13 -50 -22.5 -86.5t-14.5 -66.5t-5 -61q0 -5 0.5 -11.5t1.5 -15.5z" />
    <glyph glyph-name="U" unicode="U" horiz-adv-x="735" 
d="M572 -99q-37 0 -62 32.5t-25 77.5q0 10 1 27t3 38q-36 -72 -88.5 -118t-125.5 -46q-66 0 -101.5 40t-35.5 107q0 42 12 94.5t30.5 109.5t36.5 115t30 113t12 102q0 90 -54 90q-27 0 -46.5 -17.5t-32 -43.5t-19 -53t-6.5 -47q0 -15 3.5 -31t7.5 -28q-44 0 -63 21.5
t-19 52.5t15 63t42.5 59t63.5 43.5t78 16.5q58 0 84.5 -34t26.5 -92q0 -37 -9 -82t-23 -93t-29 -94q-24 -79 -41 -141.5t-17 -110.5q0 -46 19 -78t64 -32q41 0 75 25.5t60 66.5t44 87t27 85q14 59 31 126.5t35.5 132.5t37.5 118t37 84.5t36 31.5q9 0 25.5 -9.5t33.5 -26.5
q-9 -7 -26 -42.5t-38 -91t-42 -122.5t-39 -137t-29 -134t-11 -113q0 -64 20.5 -85.5t69.5 -21.5q-14 -17 -37 -26t-42 -9z" />
    <glyph glyph-name="V" unicode="V" horiz-adv-x="656" 
d="M233 -87q-15 0 -37 6.5t-39 25t-17 54.5q0 30 12.5 75t31 100.5t36.5 119t30.5 130t12.5 133.5q0 35 -4.5 64t-17 45.5t-39.5 16.5t-45.5 -15.5t-30.5 -40.5t-17.5 -52t-5.5 -50q0 -17 3.5 -32t9.5 -30q-45 0 -65 22.5t-20 55.5q0 30 15 61.5t41 58t60.5 43t73.5 16.5
q66 0 99.5 -49t33.5 -134q0 -56 -12.5 -117t-31 -122.5t-37.5 -118.5t-31.5 -106t-12.5 -84q0 -16 5 -26t20 -10q29 0 65.5 27.5t76 75t76.5 107.5t67 125.5t47.5 129t17.5 117.5q0 52 -17.5 78.5t-44.5 35.5q14 28 32.5 40.5t33.5 12.5q25 0 47.5 -31.5t22.5 -92.5
q0 -54 -20.5 -123.5t-56 -144.5t-81 -145.5t-95.5 -127.5t-99 -90.5t-93 -33.5z" />
    <glyph glyph-name="W" unicode="W" horiz-adv-x="937" 
d="M234 -87q-11 0 -26.5 3t-31 11.5t-26 26t-10.5 45.5t12.5 74.5t36.5 121.5q17 57 34 115t28.5 118.5t11.5 124.5q0 40 -4.5 69.5t-17.5 45.5t-39 16q-25 0 -44 -14t-31 -37t-18 -50t-6 -53q0 -40 13 -67q-45 0 -65 22.5t-20 55.5q0 30 15 61.5t41 58t60.5 43t73.5 16.5
q65 0 99 -49.5t34 -137.5q0 -71 -19 -147.5t-46 -161.5q-12 -38 -26 -79t-24 -80.5t-10 -75.5q0 -19 5 -27.5t20 -8.5q26 0 56.5 23.5t61.5 62.5t60 87.5t53 99t40.5 96t20.5 79.5q37 0 55.5 -19.5t18.5 -37.5q0 -12 -10 -39t-30 -72q-15 -37 -31.5 -79t-28 -83.5
t-11.5 -77.5q0 -20 5.5 -30t21.5 -10q28 0 64.5 28t76 76t76.5 108.5t67 125.5t47.5 128t17.5 116t-18 76t-45 32q16 28 35 40.5t34 12.5q22 0 45 -28.5t23 -89.5q0 -54 -20.5 -123.5t-55.5 -144t-80.5 -145.5t-96 -128t-101.5 -90.5t-96 -33.5q-23 0 -43.5 9.5t-32.5 28
t-12 44.5q0 13 3.5 29.5t9.5 35.5q-50 -66 -100.5 -106.5t-99.5 -40.5z" />
    <glyph glyph-name="X" unicode="X" horiz-adv-x="691" 
d="M38 -112q3 27 9.5 44t16.5 30t25 29q33 35 60.5 65t53.5 59.5t54 63t61 74.5q-3 34 -5.5 62.5t-4.5 55t-2.5 53t-1.5 55.5q-3 72 -6 118t-14.5 68t-38.5 22q-25 0 -43.5 -15.5t-31 -40t-19 -52t-6.5 -51.5q0 -34 11 -59q-45 0 -63.5 21.5t-18.5 51.5q0 32 16 63.5
t42.5 58t61.5 42.5t73 16q45 0 71.5 -23t39.5 -62t17 -86t4.5 -96.5t1.5 -93.5q78 107 133 199t89 166q8 -5 17.5 -21t9.5 -30q0 -20 -19.5 -59t-53.5 -90.5t-79 -111.5t-95 -122q3 -63 9.5 -122t17.5 -105.5t28 -73.5t40 -27q32 0 75 56.5t99 154.5l19 -15
q-40 -80 -74 -133.5t-68 -81t-76 -27.5q-43 0 -70.5 25.5t-43.5 67t-24 89.5t-12 93q-58 -70 -114.5 -132t-101.5 -108t-69 -65z" />
    <glyph glyph-name="Y" unicode="Y" horiz-adv-x="692" 
d="M275 -187q-59 0 -100.5 25t-41.5 72q0 30 18 53t53 32q-5 -23 -7.5 -37t-2.5 -27q0 -40 22 -63t68 -23q36 0 64 14t49.5 39t37 55.5t27 64t18.5 64.5q13 54 22.5 113t22.5 105q-40 -67 -91.5 -110t-120.5 -43q-64 0 -91 36t-27 89q0 38 10 82t23 90t22.5 88.5t9.5 76.5
q0 30 -11.5 52t-43.5 22q-27 0 -46.5 -16.5t-32.5 -42t-19.5 -54t-6.5 -54.5q0 -15 2.5 -26.5t8.5 -26.5q-45 0 -63.5 21.5t-18.5 52.5q0 30 15 62.5t42 59.5t63.5 44t77.5 17q40 0 64.5 -15t36.5 -39.5t12 -52.5q0 -24 -8.5 -58.5t-21.5 -83.5q-14 -49 -24.5 -94.5
t-10.5 -85.5q0 -42 16 -68.5t54 -26.5q35 0 65.5 20.5t57.5 55t49 78t38 89.5q13 44 27 92.5t29.5 91.5t32.5 70t35 27q11 0 29.5 -9.5t34.5 -26.5q-21 -33 -36.5 -63t-29 -65t-27.5 -82.5t-31 -115.5t-41 -165q-13 -51 -29 -105t-38.5 -103t-54.5 -88t-76.5 -61.5
t-104.5 -22.5z" />
    <glyph glyph-name="Z" unicode="Z" horiz-adv-x="663" 
d="M475 -87q-39 0 -84 14.5t-89.5 35t-84.5 38.5q-34 -26 -67 -40.5t-64 -14.5q-32 0 -54 13t-34 33t-12 39q0 21 18.5 38t63.5 17q30 0 65.5 -7t74.5 -18q47 48 96 115.5t94 139.5q-32 -1 -61 -3.5t-72 -8.5l-31 -4q2 32 23 49t56 24t75 7q14 0 24.5 -0.5t21.5 -1.5
q38 65 68 124t46 101q-19 6 -37.5 12.5t-42.5 14.5q-69 26 -117.5 39.5t-83.5 13.5q-31 0 -56.5 -13t-40 -44.5t-14.5 -89.5q0 2 1 -4t3 -14t3 -13q-35 6 -51 25.5t-16 51.5q0 67 52.5 102.5t148.5 35.5q54 0 101.5 -9.5t90.5 -22t83.5 -22t81.5 -9.5q10 0 22.5 0.5
t21.5 2.5q-20 -19 -34 -29t-25 -15q-21 -50 -53.5 -113.5t-72.5 -131.5q35 -3 60 -5.5t51 -2.5q-14 -20 -29.5 -29t-41 -12t-71.5 -4q-49 -77 -104 -149t-110 -125q65 -19 129.5 -36t111.5 -17q24 0 43.5 5t40.5 15q-20 -54 -48 -76t-70 -22zM79 -23q19 0 40 12.5t46 32.5
q-31 13 -59.5 22t-49.5 9q-22 0 -30.5 -7.5t-8.5 -18.5q0 -16 17.5 -33t44.5 -17z" />
    <glyph glyph-name="bracketleft" unicode="[" horiz-adv-x="423" 
d="M220 -87q-32 0 -67.5 4t-65 9t-45.5 8q2 5 5 12t7.5 24.5t11.5 52.5t18 95t28 153t40 226q16 85 39 129.5t48.5 61t47.5 16.5q13 0 33 -1.5t41 -1.5q27 0 55 4t53 18q-2 -41 -18 -60.5t-40.5 -25.5t-53.5 -6q-25 0 -53 6t-55 11q-14 -42 -27.5 -100t-26 -124
t-24.5 -133.5t-22.5 -129t-19.5 -109.5t-17 -75q54 0 89.5 1t61.5 3t47 6t45 11q-1 -43 -33 -64t-102 -21z" />
    <glyph glyph-name="backslash" unicode="\" horiz-adv-x="589" 
d="M470 -165q-47 8 -78 53t-59 138q-10 35 -22 83t-25 106.5t-26.5 122t-28.5 129.5t-30 131t-31 125q26 0 47 -16.5t28 -34.5q15 -39 32 -100.5t35 -136.5t35.5 -154t35 -153.5t33.5 -137t30 -104t24 -51.5z" />
    <glyph glyph-name="bracketright" unicode="]" horiz-adv-x="441" 
d="M4 -88q3 33 19.5 50.5t42 24t52.5 6.5q26 0 59.5 -3t63.5 -5q17 47 33.5 118t32.5 151.5t30.5 159.5t27 145.5t21.5 107.5h-66q-58 -1 -106.5 -5.5t-95.5 -17.5q0 49 35.5 63t95.5 14q43 0 88.5 -5.5t91.5 -15.5q-2 -16 -7 -53.5t-12.5 -88.5t-16.5 -108.5t-18.5 -115
t-18.5 -109t-16 -90.5q-4 -24 -12.5 -58t-23.5 -68t-38.5 -56.5t-59.5 -22.5q-55 0 -107.5 -2.5t-94.5 -15.5z" />
    <glyph glyph-name="asciicircum" unicode="^" horiz-adv-x="208" 
d="M186 406q-16 28 -33 46.5t-39 38.5q-29 -9 -52.5 -21t-48.5 -30q-7 5 -9.5 11.5t-2.5 11.5q0 15 13.5 30t33 27.5t38 20.5t29.5 8q12 0 27.5 -10.5t30.5 -27.5t25 -35.5t10 -33.5q0 -10 -5 -20t-17 -16z" />
    <glyph glyph-name="underscore" unicode="_" horiz-adv-x="873" 
d="M-8 -71q5 38 47.5 57.5t115 26t166.5 6.5q71 0 127.5 -2.5t104.5 -6t94 -6.5t95 -3q-48 -32 -92.5 -44.5t-74.5 -12.5q-79 0 -146.5 1.5t-119 3.5t-83.5 1q-42 0 -72 -1t-55.5 -3.5t-50.5 -6.5t-56 -10z" />
    <glyph glyph-name="grave" unicode="`" horiz-adv-x="134" 
d="M112 403q-22 28 -49 54.5t-66 57.5q2 19 10.5 27.5t18.5 8.5q15 0 33.5 -14t35.5 -34.5t27.5 -39t10.5 -27.5q0 -6 -5 -17t-16 -16z" />
    <glyph glyph-name="a" unicode="a" horiz-adv-x="441" 
d="M53 -47q-32 0 -55.5 21.5t-23.5 64.5q0 36 16 77t44 81t64 73t76.5 53t80.5 20q42 0 70.5 -21.5t28.5 -56.5q0 -27 -17 -38t-42 -7q2 8 3.5 17.5t1.5 18.5q0 21 -9 37t-35 16q-28 0 -57 -19t-56 -50t-48 -68t-33 -73t-12 -64q0 -34 25 -34q23 0 50.5 22t56 56t54.5 69.5
t45 62.5q4 5 7 5q5 -1 16 -4.5t20 -9.5t9 -16t-9 -25.5t-20 -34.5t-20 -38t-9 -37q0 -13 7.5 -25.5t24.5 -12.5q25 0 68.5 36.5t88.5 119.5l16 -16q-23 -54 -56.5 -95t-70.5 -64.5t-74 -23.5q-40 0 -59 24.5t-21 53.5q0 3 0.5 6.5t0.5 6.5q-41 -51 -75 -79.5t-72 -28.5z" />
    <glyph glyph-name="b" unicode="b" horiz-adv-x="404" 
d="M101 -73q-55 0 -83.5 35t-28.5 96q0 49 17 116.5t45 141t62.5 144.5t70.5 128.5t67.5 91.5t53.5 34q19 0 28 -22.5t10 -44.5q0 -28 -12 -68t-34 -85t-51 -89t-63 -80.5t-71 -57.5q-6 -12 -17 -45t-20 -75t-9 -83t12 -68.5t41 -27.5q27 0 57.5 23.5t49.5 58.5
q-37 20 -55.5 56t-18.5 75q0 49 26 78.5t62 29.5q31 0 51 -24t20 -73q0 -30 -8.5 -63.5t-23.5 -65.5q5 -1 9.5 -1.5t11.5 -0.5q35 0 59.5 18.5t41.5 44.5t27 47l14 -18q-26 -62 -63 -90.5t-89 -28.5q-6 0 -12.5 0.5t-12.5 1.5q-27 -45 -68 -77t-96 -32zM241 79q9 21 14 43
t5 47q0 36 -8.5 54t-21.5 18q-14 0 -24 -19t-10 -46q0 -23 9.5 -51.5t35.5 -45.5zM129 322q26 23 50.5 54.5t45.5 67t37.5 69.5t26.5 61.5t11 43.5v4.5t-1 1.5q-9 -2 -30 -28.5t-47 -70t-51 -96.5t-42 -107z" />
    <glyph glyph-name="c" unicode="c" horiz-adv-x="330" 
d="M111 -56q-51 0 -84 32.5t-33 98.5q0 49 19.5 96t51.5 85t71 60t79 22q42 0 59.5 -22t17.5 -49q0 -29 -13.5 -54t-36.5 -25q-19 0 -31 18q12 7 23 28t11 48q0 10 -4 15t-16 5q-26 0 -53.5 -23t-51.5 -59.5t-39 -76.5t-15 -75q0 -29 15 -53t57 -24q39 0 79.5 22t76.5 62
t57 95l18 -16q-24 -60 -65.5 -107.5t-92 -75t-100.5 -27.5z" />
    <glyph glyph-name="d" unicode="d" horiz-adv-x="485" 
d="M66 -30q-19 0 -37.5 9t-31.5 29t-13 50q0 33 16 74t43.5 82t63.5 75t76 55t80 21q22 0 34.5 -7.5t12.5 -24.5q0 -5 -1.5 -10t-6.5 -10q-5 7 -14.5 9.5t-21.5 2.5q-33 0 -63 -18.5t-55.5 -48.5t-44 -64.5t-28.5 -67t-10 -55.5q0 -20 8.5 -32t24.5 -12q27 0 65 32.5
t77.5 93t71.5 143.5q22 57 46 116.5t48 115t47 98.5t44 68.5t39 25.5q10 0 17.5 -8t7.5 -20q0 -16 -16.5 -54t-42.5 -90.5t-55.5 -114t-55 -125.5t-42 -125t-16.5 -114q0 -25 4 -35.5t17 -10.5q21 0 48.5 17.5t55.5 51t50 79.5l17 -13q-21 -54 -54.5 -95.5t-72 -65
t-75.5 -23.5q-39 0 -54.5 25.5t-15.5 57.5q0 16 3 36.5t8 42.5q-31 -48 -66 -85.5t-68.5 -59t-63.5 -21.5z" />
    <glyph glyph-name="e" unicode="e" horiz-adv-x="338" 
d="M113 -44q-63 0 -96 34t-33 85q0 45 22.5 94.5t60.5 93t83.5 71t90.5 27.5q25 0 47.5 -13t22.5 -52q0 -38 -22.5 -71.5t-59 -59.5t-81 -42.5t-88.5 -20.5l-2 -12t-1 -16q0 -8 2.5 -21.5t10 -27t23.5 -22.5t42 -9q42 0 84.5 24t79.5 63.5t62 87.5l17 -14
q-27 -60 -69 -104.5t-92.5 -69.5t-103.5 -25zM69 133q26 5 59 20.5t63 39t49.5 51.5t19.5 57q0 11 -4 16t-14 5q-24 0 -49.5 -17.5t-50 -45t-43.5 -61t-30 -65.5z" />
    <glyph glyph-name="f" unicode="f" horiz-adv-x="324" 
d="M-5 -280q-11 0 -25.5 7t-25.5 27t-11 59q0 44 15 113.5t40.5 154.5t60 174t74 172t81.5 149t83.5 105t79.5 39q24 0 31.5 -14.5t7.5 -34.5q0 -43 -23.5 -94t-62.5 -102.5t-87 -97.5t-98 -79q-4 -11 -8.5 -21.5t-8.5 -21.5q11 -4 17.5 -13.5t7.5 -20.5q8 -44 16 -78
t24.5 -53.5t47.5 -19.5q35 0 61 26t54 73l19 -14q-29 -63 -68.5 -91.5t-70.5 -28.5q-18 0 -36.5 7.5t-35.5 21.5q-1 -63 -14.5 -124t-36 -110.5t-50.5 -79.5t-58 -30zM22 -223q11 0 24 19.5t25.5 51t23 69.5t17 75.5t6.5 67.5t-7 53.5t-24 53.5q-24 -71 -42.5 -137
t-29 -119.5t-10.5 -88.5q0 -45 17 -45zM159 358q63 58 107.5 114.5t68 100t23.5 61.5q0 10 -10 10q-24 0 -56 -38.5t-66 -103.5t-67 -144z" />
    <glyph glyph-name="g" unicode="g" horiz-adv-x="398" 
d="M46 -280q-24 0 -44.5 14.5t-20.5 47.5q0 31 18.5 56.5t48.5 47t65 39.5t67 34q12 30 23 64t21 75q-36 -48 -75.5 -79.5t-80.5 -31.5q-38 0 -60.5 27.5t-22.5 72.5q0 53 26.5 99.5t68 83t89 57t89.5 20.5q31 0 46 -11t15 -25q0 -11 -6.5 -17.5t-8.5 -7.5q-8 10 -18.5 13.5
t-24.5 3.5q-39 0 -75 -22t-64 -57t-44 -72.5t-16 -68.5q0 -21 9 -32.5t23 -11.5q29 0 69 37.5t77 90.5q3 10 4.5 18t3.5 18q8 31 21 49.5t38 18.5q5 0 12 -0.5t15 -2.5q0 -18 -10 -59.5t-27 -96.5t-39 -113q32 14 63.5 38t58.5 57t41 73l16 -15q-16 -46 -49 -83.5t-71.5 -65
t-70.5 -42.5q-28 -66 -59 -121t-66 -87.5t-75 -32.5zM42 -239q19 0 51.5 36t70.5 122q-38 -19 -70 -38.5t-52 -41.5t-20 -47q0 -14 6 -22.5t14 -8.5z" />
    <glyph glyph-name="h" unicode="h" horiz-adv-x="488" 
d="M46 -38q-21 0 -31 33.5t-10 76.5q0 47 16 112t42 137.5t58.5 142t67 126t65.5 90.5t54 34q20 0 30 -22.5t10 -45.5q0 -28 -12.5 -67.5t-34.5 -84.5t-51.5 -89t-63.5 -80t-71 -58q-12 -32 -20 -63.5t-11.5 -60.5t-3.5 -55q0 -7 0.5 -13.5t1.5 -11.5q7 18 18.5 47.5
t28 62.5t39 63t51.5 48.5t64 18.5q32 0 50.5 -14.5t26 -36.5t7.5 -45q0 -31 -10.5 -59.5t-21 -54t-10.5 -48.5q0 -18 8 -26t20 -8q22 0 51.5 22t58 58.5t49.5 80.5l15 -15q-22 -50 -53 -91t-67.5 -65.5t-77.5 -24.5q-37 0 -56 19.5t-19 48.5q0 21 7.5 46.5t14.5 52t7 48.5
q0 24 -10.5 34t-25.5 10q-25 0 -45 -20t-36.5 -51t-30.5 -65.5t-27.5 -66t-28.5 -51t-33 -19.5zM134 323q26 23 51 55.5t46.5 68.5t37.5 70t25.5 61t10.5 42q0 2 -0.5 3t-1.5 1q-6 0 -26 -25.5t-46.5 -68.5t-52.5 -97t-44 -110z" />
    <glyph glyph-name="i" unicode="i" horiz-adv-x="243" 
d="M77 -29q-42 0 -63 25.5t-21 62.5q0 23 8 58t22.5 73.5t33.5 72.5t40.5 55.5t42.5 21.5q11 0 19.5 -7t8.5 -20t-15.5 -39t-36.5 -60.5t-36.5 -71.5t-15.5 -71q0 -33 12 -44t35 -11q34 0 73.5 34t82.5 119l13 -14q-33 -88 -87.5 -136t-115.5 -48zM196 425q-18 0 -32.5 9
t-14.5 27q0 24 25.5 40.5t52.5 16.5q17 0 28 -8t11 -27q0 -21 -22 -39.5t-48 -18.5z" />
    <glyph glyph-name="j" unicode="j" horiz-adv-x="224" 
d="M-136 -280q-28 0 -43.5 16t-15.5 40q0 39 35.5 81t91.5 75q16 8 32.5 16t34.5 16q18 44 33.5 98.5t27.5 119.5q-11 -19 -21.5 -35t-17.5 -30l-15 23q18 33 32 69.5t26.5 68t26.5 51.5t31 20q13 0 21 -10t8 -25q0 -11 -5 -41t-14.5 -74t-23.5 -95t-32 -103q29 17 57 35.5
t56.5 48t56.5 78.5l16 -10q-29 -63 -64 -97.5t-70 -54.5t-66 -39q-22 -61 -52 -116.5t-67 -90.5t-79 -35zM-146 -237q18 0 53.5 39.5t72.5 116.5q-70 -35 -105 -71.5t-35 -64.5q0 -11 4 -15.5t10 -4.5zM138 428q-18 0 -32.5 9t-14.5 27q0 17 12.5 30t31 20.5t35.5 7.5
q16 0 27 -8t11 -25q0 -24 -21.5 -42.5t-48.5 -18.5z" />
    <glyph glyph-name="k" unicode="k" horiz-adv-x="457" 
d="M310 -38q-30 0 -52 19.5t-35 49.5t-19.5 61t-6.5 54q13 2 34 8t43 16.5t37 27t15 39.5q0 19 -13 30.5t-33 11.5q-29 0 -55 -19.5t-47.5 -51t-38.5 -68t-30 -70t-22 -57.5q-9 -26 -19.5 -35t-27.5 -9q-10 0 -19 7.5t-13.5 25.5t-4.5 48q0 58 17 129.5t45.5 146.5t62.5 144
t68.5 124t64.5 87.5t49 32.5q16 0 26.5 -20t10.5 -50q0 -34 -15 -76t-42.5 -84.5t-65 -80.5t-83.5 -65q-29 -71 -44.5 -139t-18.5 -118q17 41 40 85.5t51.5 84.5t61.5 64.5t70 24.5q39 0 67.5 -27t28.5 -68q0 -30 -16.5 -52.5t-40 -36.5t-47 -21t-39.5 -7q2 -12 7 -32
t14.5 -40.5t23.5 -34.5t33 -14q27 0 53 22.5t51 60t45 83.5l12 -15q-16 -49 -45 -94.5t-65 -73.5t-73 -28zM166 396q34 29 65.5 68t52 80.5t21.5 74.5q0 3 -0.5 4l-0.5 1q-10 -2 -32.5 -34t-50.5 -82.5t-55 -111.5z" />
    <glyph glyph-name="l" unicode="l" horiz-adv-x="242" 
d="M85 -30q-46 0 -64.5 31t-18.5 74q0 49 18 115t47.5 138.5t65 142t71 126t66 90t48.5 33.5q12 0 20.5 -13t13.5 -31.5t5 -33.5q0 -27 -13.5 -70.5t-38 -96t-58 -107t-73.5 -104t-86 -85.5q-4 -25 -7.5 -50t-3.5 -46q0 -37 11.5 -54.5t31.5 -17.5q26 0 52.5 24t50.5 60.5
t42 75.5l21 -12q-42 -87 -93 -138t-108 -51zM103 232q35 36 66 80t57.5 90.5t46.5 90t31 78t12 54.5q0 4 -1 5.5l-1 1.5q-8 0 -26.5 -23.5t-43 -63.5t-50.5 -92t-50 -109t-41 -112z" />
    <glyph glyph-name="m" unicode="m" horiz-adv-x="655" 
d="M517 -31q-38 0 -56 22.5t-18 53.5q0 24 7 47.5t14.5 46.5t7.5 42q0 18 -7.5 25t-17.5 7q-24 0 -54 -36.5t-76 -104.5q-16 -24 -29 -50t-24 -45q-8 0 -22 3t-24.5 8t-10.5 13q0 9 10 35t23 61t22.5 69.5t9.5 58.5q0 15 -5 23.5t-17 8.5q-21 0 -51 -25.5t-63 -66.5
t-61.5 -91.5t-46.5 -100.5q-11 0 -26 4t-26 10t-11 11q0 3 8 31t19.5 69t22 84t16.5 76q4 9 21 17t31 8t22.5 -8t8.5 -22q0 -11 -5 -34.5t-13 -52.5q21 30 45 59.5t50.5 53.5t53 38.5t52.5 14.5q35 0 47.5 -25t12.5 -56q0 -17 -3.5 -35t-8 -34t-10.5 -32q19 31 43 59
t51 44.5t58 16.5q37 0 51 -22t14 -49q0 -26 -8.5 -55.5t-17.5 -56t-9 -45.5q0 -11 5.5 -20t21.5 -9q27 0 52 25t46 61.5t36 69.5l15 -18q-16 -42 -41 -84t-59 -70t-76 -28z" />
    <glyph glyph-name="n" unicode="n" horiz-adv-x="471" 
d="M332 -20q-37 0 -56.5 19t-19.5 48q0 21 7 43.5t14 46t7 45.5q0 24 -11 33t-26 9q-30 0 -61.5 -25t-61.5 -62.5t-56 -78.5t-45 -73q-18 0 -34 6t-27 21q1 5 11.5 30.5t23.5 62t23.5 75.5t10.5 72q7 7 21 15t29 8q32 0 32 -29q0 -13 -6 -41.5t-16 -62.5q26 37 58 71.5
t67 56.5t71 22q41 0 60.5 -28.5t19.5 -63.5q0 -30 -10 -56.5t-19.5 -50t-9.5 -46.5q0 -17 7.5 -24.5t18.5 -7.5q24 0 49.5 23.5t49 59t41.5 71.5l15 -13q-21 -49 -47 -89t-58 -63.5t-72 -23.5z" />
    <glyph glyph-name="o" unicode="o" horiz-adv-x="370" 
d="M67 -32q-44 0 -61 28.5t-17 64.5q0 32 10 65t27 62t38 47t43 18q6 0 14.5 -2.5t12.5 -6.5q-11 -12 -23.5 -34t-23 -47.5t-17 -51t-6.5 -46.5q0 -23 8 -36t26 -13q20 0 47.5 21.5t52.5 52.5q-31 27 -45.5 62.5t-14.5 80.5q0 25 11 53t34 47t60 19q42 0 58.5 -23.5
t16.5 -56.5q0 -37 -19.5 -83.5t-46.5 -88.5q14 -8 31 -8q15 0 36 7t40.5 23.5t31.5 43.5l16 -12q-21 -49 -57.5 -71.5t-70.5 -22.5q-13 0 -26 2.5t-24 7.5q-34 -42 -76.5 -72t-85.5 -30zM221 120q25 35 41.5 75.5t16.5 74.5q0 25 -7.5 36.5t-20.5 11.5q-20 0 -40 -27.5
t-20 -69.5q0 -24 7.5 -53.5t22.5 -47.5z" />
    <glyph glyph-name="p" unicode="p" horiz-adv-x="406" 
d="M-58 -280q-8 0 -16.5 6t-14.5 13t-6 10q21 65 37 113.5t28.5 93.5t23.5 97.5t22 124t23 174.5q2 11 5 16t18 5q29 0 42 -16t13 -35q0 -11 -4.5 -39.5t-12.5 -68.5q18 31 43 59.5t56 47.5t67 19q48 0 78.5 -32.5t30.5 -85.5q0 -39 -17.5 -82.5t-49 -82t-76 -63
t-97.5 -24.5q-30 0 -48 7.5t-18 15.5q0 6 7.5 7.5t16.5 1.5q45 0 82.5 19.5t66 50.5t44 67t15.5 72q0 30 -13.5 52.5t-42.5 22.5q-26 0 -51.5 -16.5t-47.5 -41t-39 -51.5t-26 -48q-19 -69 -35.5 -135.5t-31 -123t-29 -94.5t-28.5 -50q-7 -6 -15 -6z" />
    <glyph glyph-name="q" unicode="q" horiz-adv-x="412" 
d="M209 -280q-16 0 -28.5 16t-12.5 61q0 32 6.5 81t17.5 103.5t26 102.5q-40 -52 -78 -85t-74 -33q-17 0 -36 9t-31.5 29t-12.5 52q0 35 16 76t44.5 81t65 72.5t78 52t83.5 19.5q37 0 61.5 -15t24.5 -39q0 -8 -4 -18t-13 -15q-7 -5 -21 -1q0 21 -14.5 35.5t-41.5 14.5
q-33 0 -63.5 -19t-55.5 -48.5t-43.5 -63.5t-28.5 -66t-10 -54q0 -19 9 -32t25 -13q19 0 42 19t47 49.5t48.5 67t48.5 71.5q8 12 14 19t13 13q7 5 21 2t19 -8q6 -7 6 -17q0 -19 -16 -45t-36.5 -65.5t-34.5 -99.5q42 5 84.5 36t80.5 101l15 -14q-35 -75 -83.5 -109.5
t-97.5 -41.5q8 -25 12.5 -52t4.5 -56q0 -48 -9.5 -87.5t-27.5 -62.5t-40 -23zM232 -218q6 0 10.5 18t6.5 45.5t2 54.5q0 18 -1 31t-4 26q-9 -45 -14.5 -83.5t-5.5 -68.5q0 -13 1.5 -18t4.5 -5z" />
    <glyph glyph-name="r" unicode="r" horiz-adv-x="358" 
d="M181 -26q-36 0 -58 19t-22 51q0 28 14 60.5t28.5 64t14.5 56.5q0 26 -16.5 41.5t-35.5 26.5q-23 -57 -49.5 -109t-43.5 -80l-13 25q14 26 37 74.5t44 109.5q-10 10 -10 26q0 27 16.5 49t29.5 22q11 0 15.5 -12.5t4.5 -17.5t-5 -18.5t-6 -18.5q0 -12 16.5 -22.5t37 -25
t36.5 -35t16 -52.5q0 -30 -13 -60t-26 -57t-13 -46q0 -16 8 -21t19 -5q24 0 50 15t50.5 38t43.5 48.5t29 46.5l20 -15q-19 -43 -54 -84t-78 -67.5t-87 -26.5z" />
    <glyph glyph-name="s" unicode="s" horiz-adv-x="349" 
d="M113 -51q-49 0 -78.5 20.5t-42 51.5t-12.5 63q0 29 8 45t20 24t22.5 12t14.5 8q27 29 53 64t45 76v11q0 39 13 55t30 16q11 0 16 -5.5t5 -12.5q0 -5 -2.5 -14t-2.5 -24q0 -31 14 -69.5t28 -81.5t14 -88q0 -13 -1 -23.5t-4 -20.5q33 7 63 33.5t58 79.5l11 -9
q-19 -57 -55.5 -89.5t-83.5 -39.5q-16 -42 -52 -62t-81 -20zM109 -10q17 0 35 9.5t29 32.5q-42 9 -74.5 32.5t-50.5 48.5q-16 -3 -16 -30q0 -34 19.5 -63.5t57.5 -29.5zM180 58q2 8 2.5 18t0.5 18q-1 46 -12 90.5t-21 89.5q-20 -34 -44.5 -69.5t-45.5 -57.5q15 -29 46.5 -54
t73.5 -35z" />
    <glyph glyph-name="t" unicode="t" horiz-adv-x="287" 
d="M89 -46q-44 0 -69.5 25.5t-25.5 77.5q0 42 16 104t40 128q-8 2 -17.5 3.5t-17.5 5.5v27q13 -2 23.5 -3t22.5 -2q21 53 45.5 103t48.5 89t46 62t38 23q10 0 18 -7t8 -20q0 -19 -20.5 -56.5t-51 -88t-58.5 -108.5h16.5h16.5q40 0 76 1.5t73 5.5v-28q-55 -6 -100.5 -9
t-84.5 -3h-6.5h-6.5q-22 -51 -37.5 -104t-15.5 -103q0 -42 13 -59.5t42 -17.5q50 0 102 46t90 124l14 -10q-25 -58 -63 -105t-82.5 -74t-92.5 -27z" />
    <glyph glyph-name="u" unicode="u" horiz-adv-x="440" 
d="M76 -30q-34 0 -55.5 31t-21.5 72q0 28 9.5 66t23.5 74.5t29.5 60.5t27.5 24q7 0 20.5 -7t23.5 -17q-11 -16 -26.5 -50t-27.5 -72.5t-12 -70.5q0 -5 1.5 -20.5t8 -28.5t22.5 -13q17 0 37 18.5t40.5 48.5t39.5 65t35 67t26 54q8 -1 21.5 -4.5t24 -9.5t10.5 -17
q0 -3 -9.5 -25t-22.5 -53t-22.5 -63t-9.5 -56q0 -15 6 -26t23 -11q21 0 50.5 19t60.5 55.5t55 86.5l14 -11q-22 -54 -56.5 -96.5t-74 -66.5t-76.5 -24q-28 0 -43 12.5t-20.5 32.5t-5.5 41q0 7 0.5 15t1.5 15q-17 -29 -37.5 -55.5t-43 -43.5t-47.5 -17z" />
    <glyph glyph-name="v" unicode="v" horiz-adv-x="409" 
d="M71 -39q-35 0 -48.5 32.5t-13.5 84.5q0 8 1 36.5t3 86.5q2 29 7 39.5t29 10.5q22 0 26.5 -8.5t4.5 -34.5q0 -31 -3 -68.5t-3 -71.5q0 -30 3.5 -44.5t15.5 -14.5q18 0 39.5 20t43.5 51.5t42 68t35 69.5q2 68 15.5 91t34.5 23q23 0 32 -15t9 -27q0 -14 -8.5 -27t-16.5 -35
t-8 -65q0 -15 2.5 -32t12 -28.5t29.5 -11.5t39 16.5t39 57.5l12 -10q-23 -53 -50.5 -73.5t-53.5 -20.5q-33 0 -54 26t-30 69q-24 -47 -55.5 -91.5t-65 -74t-65.5 -29.5z" />
    <glyph glyph-name="w" unicode="w" horiz-adv-x="626" 
d="M288 -38q-33 0 -44.5 29t-12.5 70q0 14 1 36t3 39q-21 -40 -46.5 -78.5t-53.5 -63t-59 -24.5q-33 0 -55 30.5t-22 72.5q0 29 9.5 67t24 74.5t30 60.5t26.5 24q7 0 24 -7.5t19 -18.5q-11 -17 -26.5 -50.5t-27 -72t-11.5 -70.5q0 -6 1.5 -21.5t8.5 -27.5t22 -12
q22 0 47 27.5t50.5 69.5t47.5 86q9 42 15 61t12 24t15 5q17 0 27 -6.5t10 -19.5q0 -2 -1.5 -8t-2.5 -8q-7 -22 -12.5 -54t-8.5 -67t-3 -69q0 -24 3.5 -37.5t15.5 -13.5q14 0 33 17.5t40 46.5t41 63.5t36 68.5q0 52 7.5 79t19.5 37.5t26 10.5q23 0 32 -15t9 -26
q0 -9 -4 -17.5t-8 -15.5q-7 -15 -14 -37t-7 -57q0 -17 3 -34.5t13 -29t29 -11.5t37.5 16.5t39.5 59.5l17 -14q-22 -51 -49.5 -69.5t-52.5 -18.5q-32 0 -54.5 23t-34.5 60q-25 -44 -56 -86.5t-64 -70t-65 -27.5z" />
    <glyph glyph-name="x" unicode="x" horiz-adv-x="426" 
d="M51 -59q-7 0 -11 6t-4 12q0 14 21 44.5t55 71t73 82.5q-7 49 -15 77.5t-30 28.5q-23 0 -42 -21.5t-37 -54.5t-38 -67l-14 24q14 26 26.5 54.5t27.5 54.5t37.5 42t56.5 16q40 0 60 -24.5t29 -63.5q46 46 83.5 77.5t50.5 31.5q6 0 16.5 -5t14.5 -16q-13 0 -37 -18
t-55.5 -49t-64.5 -68q3 -20 5 -46.5t7 -52t15.5 -42.5t28.5 -17q17 0 37 15t39.5 38.5t36 49t26.5 47.5l14 -14q-16 -44 -45 -85.5t-64.5 -68.5t-72.5 -27q-31 0 -48.5 19t-26.5 48t-14 61q-41 -47 -74.5 -88t-50.5 -64q-7 -8 -16 -8z" />
    <glyph glyph-name="y" unicode="y" horiz-adv-x="396" 
d="M46 -280q-25 0 -45.5 15t-20.5 46q0 32 18 57.5t47 46.5t63.5 39t68.5 35q12 31 26 76t25 89q-31 -46 -66.5 -80.5t-78.5 -34.5q-18 0 -37.5 7.5t-32.5 26t-13 48.5q0 27 9.5 64t24 72t30 58.5t27.5 23.5q5 0 16 -4t21.5 -11t12.5 -15q-9 -12 -20 -35t-21 -51t-16.5 -55
t-6.5 -46q0 -16 6.5 -27t24.5 -11q21 0 44.5 18t46.5 46.5t41 58.5q3 9 5 22.5t6 28.5q4 16 16.5 31.5t35.5 15.5q7 0 13.5 -1t15.5 -3q0 -15 -10.5 -58.5t-27.5 -101t-39 -115.5q44 17 89 57.5t73 111.5l16 -12q-15 -50 -45.5 -86.5t-68.5 -62t-76 -42.5
q-27 -65 -58 -120.5t-65.5 -88.5t-73.5 -33zM38 -245q18 0 52.5 40t70.5 126q-35 -18 -68 -39.5t-55 -45.5t-22 -52q0 -9 5 -19t17 -10z" />
    <glyph glyph-name="z" unicode="z" horiz-adv-x="326" 
d="M4 -280q-34 0 -53.5 13t-19.5 43q0 33 21.5 60t58 51.5t80.5 49.5t88 55q0 33 -17.5 62.5t-61.5 61.5q38 11 64 35t39.5 53t13.5 55q0 19 -9 34t-31 15q-31 0 -57 -26t-49 -67t-45 -88l-17 14q22 59 46 107t57 76.5t80 28.5q38 0 65.5 -22.5t27.5 -64.5q0 -33 -16 -63
t-42 -54t-57 -40q24 -18 41 -40t26 -45q37 29 66 63t45 78l13 -15q-15 -44 -45 -82t-70 -67q2 -7 3 -15t1 -18q0 -45 -20 -88.5t-55 -79.5t-79 -58t-92 -22zM-8 -245q18 0 46.5 14t58.5 40t52 63.5t29 85.5q-38 -25 -76.5 -46.5t-69.5 -42t-49.5 -41.5t-18.5 -44
q0 -15 8 -22t20 -7z" />
    <glyph glyph-name="braceleft" unicode="{" horiz-adv-x="289" 
d="M127 -87q-42 0 -58 21.5t-16 48.5t11 57.5t26 64t26 66.5t11 65q0 25 -9 51t-38 48q40 4 59.5 31t26.5 68.5t11 86.5q3 37 7 72t13.5 64t28.5 46t53 17q12 0 26.5 -5t23.5 -18.5t4 -39.5q-15 8 -23 11.5t-14 3.5q-20 0 -31 -24.5t-17 -62t-11 -79.5q-5 -44 -12 -83.5
t-19.5 -66.5t-36.5 -34q12 -13 17.5 -28.5t5.5 -39.5q0 -43 -11 -81.5t-26 -73t-26 -65t-11 -59.5q0 -13 8.5 -20.5t22.5 -7.5q16 0 30 9q-2 -27 -18 -35t-34 -8z" />
    <glyph glyph-name="bar" unicode="|" horiz-adv-x="282" 
d="M70 -132q13 34 23 90.5t18 126.5t14.5 145.5t12 149t10.5 138t10.5 111.5t11.5 69q17 -7 24 -21t9.5 -29.5t2.5 -27.5q0 -37 -1.5 -94.5t-4.5 -124.5t-6 -133.5t-7 -122t-7 -91.5q-8 -85 -34 -135.5t-76 -50.5z" />
    <glyph glyph-name="braceright" unicode="}" horiz-adv-x="286" 
d="M58 -87q-13 0 -27.5 6t-24.5 20.5t-9 39.5q24 -16 40 -16q19 0 30.5 25t18.5 64t11 80q5 44 12.5 88t21.5 78t41 50q-14 16 -19 33.5t-5 36.5q0 32 10.5 67.5t24.5 69.5t24.5 62.5t10.5 45.5q0 11 -5.5 15t-13.5 4q-6 0 -14.5 -3t-17.5 -10q-2 21 15 39t51 18
q25 0 40 -11t15 -32q0 -19 -11 -47t-25.5 -61.5t-25.5 -69.5t-11 -72q0 -25 8.5 -51.5t36.5 -44.5q-39 -10 -59.5 -40t-28.5 -73t-12 -90q-3 -40 -7 -80t-12.5 -71.5t-28 -50.5t-54.5 -19z" />
    <glyph glyph-name="asciitilde" unicode="~" horiz-adv-x="463" 
d="M290 125q-25 0 -58.5 10.5l-67 21t-60.5 10.5q-10 0 -23.5 -1.5t-27.5 -6.5q17 21 38.5 34.5t46.5 13.5q18 0 42 -6t50 -14t51.5 -14t47.5 -6q8 0 18.5 1.5t30.5 4.5q-27 -27 -47.5 -37.5t-40.5 -10.5z" />
    <glyph glyph-name="uni00A0" unicode="&#xa0;" horiz-adv-x="260" 
 />
    <glyph glyph-name="exclamdown" unicode="&#xa1;" horiz-adv-x="286" 
d="M-41 -250q-10 0 -17.5 8t-7.5 20q0 14 15.5 54t41.5 95.5t58.5 118.5t65.5 125t62.5 113.5t51.5 82.5l4 -2t5 -2q-3 -31 -13 -66t-21.5 -66.5t-20.5 -55.5q-20 -52 -43 -110t-47 -114t-47.5 -101.5t-45.5 -72.5t-41 -27zM235 404q-14 0 -22.5 6.5t-8.5 21.5q0 17 18 32.5
t38 15.5q15 0 26.5 -7.5t11.5 -23.5q0 -18 -20 -31.5t-43 -13.5z" />
    <glyph glyph-name="cent" unicode="&#xa2;" horiz-adv-x="418" 
d="M73 -162q14 16 31 56t34.5 96t33.5 121q-49 2 -82 35t-33 95q0 45 17.5 87.5t47 78.5t66 61t73.5 36q10 49 18 93t12 75q2 14 11.5 28t43.5 21l-39 -210q41 0 60.5 -22.5t19.5 -57.5q0 -27 -12 -49.5t-35 -22.5q-17 0 -31 18q11 6 19 25.5t8 39.5q0 14 -9.5 23t-26.5 8
q-14 -79 -29.5 -159.5t-29.5 -151.5q30 6 60.5 20.5t57.5 38.5l21 -22q-33 -30 -71 -51t-76 -30q-19 -86 -39 -149.5t-47.5 -97t-73.5 -33.5zM184 159q20 75 36 149.5t32 145.5q-35 -21 -62.5 -58.5t-43.5 -80t-16 -79.5q0 -26 12 -49t42 -28z" />
    <glyph glyph-name="sterling" unicode="&#xa3;" horiz-adv-x="677" 
d="M477 -87q-37 0 -82 15t-92.5 36t-93.5 41q-25 -28 -53.5 -43t-60.5 -15q-34 0 -58.5 15.5t-37.5 37t-13 38.5q0 19 17.5 33.5t61.5 14.5q27 0 59 -5.5t66 -14.5q33 64 62 148.5t59 181.5q-47 16 -74.5 45t-27.5 63q0 19 9 38.5t26 32.5t41 13q-10 -13 -13.5 -31.5
t-3.5 -32.5q0 -35 14.5 -59.5t39.5 -38.5q26 79 56.5 145.5t70 107.5t91.5 41q22 0 46.5 -9t42 -32t17.5 -65q0 -34 -14.5 -74t-46 -76t-81.5 -59t-120 -22q-25 -76 -47 -136t-44 -108t-48 -88q44 -14 91.5 -27.5t92 -23t80.5 -9.5q24 0 43 5t40 15q-19 -52 -47.5 -75
t-67.5 -23zM84 -20q22 0 42.5 12.5t35.5 30.5q-31 12 -59 20t-50 8q-17 0 -27 -5t-10 -14t9 -21.5t25 -21.5t34 -9zM123 215q7 22 35 37t70.5 22.5t91.5 7.5q55 0 106.5 -6.5t92.5 -9.5q-16 -20 -39.5 -29t-67.5 -10.5t-118 -1.5q-58 0 -101 -2.5t-70 -7.5zM393 411
q45 2 79.5 27t59 61.5t37.5 74t13 65.5q0 27 -10.5 37t-23.5 10q-30 0 -56 -38t-50 -100.5t-49 -136.5z" />
    <glyph glyph-name="currency" unicode="&#xa4;" horiz-adv-x="722" 
d="M631 21q-21 34 -59.5 66.5t-87.5 80.5q-26 -32 -58 -51.5t-69 -19.5q-28 0 -49.5 10.5t-35.5 27.5q-47 -49 -94 -69t-90 -20q25 24 49 40t50.5 38t55.5 62q-4 15 -7 31.5t-3 33.5q0 41 11 86.5t33 87.5q-34 36 -65.5 65t-54.5 49q-9 8 -14.5 26.5t-6.5 37.5q0 9 2 19.5
t7 20.5q14 -13 59.5 -58.5t104.5 -108.5q26 33 59 53.5t72 20.5q37 0 65 -17t44 -47q25 31 43.5 58t42.5 43.5t65 16.5q5 0 12.5 -0.5t14.5 -2.5q-13 -20 -54.5 -66.5t-104.5 -118.5q0 -6 0.5 -11.5t0.5 -10.5q0 -42 -14 -88t-38 -89q51 -44 84.5 -87.5t33.5 -80.5v-10
t-4 -18zM365 160q25 0 50 24t45.5 63t33 82.5t12.5 81.5q0 35 -20 57.5t-43 22.5q-31 0 -57 -26.5t-45.5 -66.5t-30 -82t-10.5 -74q0 -37 21.5 -59.5t43.5 -22.5z" />
    <glyph glyph-name="yen" unicode="&#xa5;" horiz-adv-x="848" 
d="M368 -187q-40 0 -73.5 11.5t-54 33t-20.5 53.5q0 28 17.5 49t54.5 33q-4 -15 -7 -33t-3 -31q0 -36 23 -59t65 -23q39 0 68.5 18.5t52 48t37.5 61.5q-35 0 -73 -2.5t-82 -9.5q13 34 61 46t113 13q5 14 9.5 26.5t8.5 25.5q-45 -1 -92 -2.5t-101 -9.5q9 25 37.5 37.5
t72 17.5t94.5 5q9 31 17 82t19 104q-26 -46 -57.5 -82t-69.5 -57.5t-84 -21.5q-63 0 -90.5 34.5t-27.5 89.5q0 39 9.5 83.5t22.5 90.5t23 88t10 75q0 30 -12 53.5t-44 23.5q-27 0 -46.5 -16.5t-32.5 -42.5t-19.5 -54t-6.5 -52q0 -32 12 -57q-45 0 -64 21.5t-19 52.5t15.5 63
t42.5 59t63 44t77 17t66 -16t36 -40t11 -50q0 -27 -9.5 -65.5t-22.5 -83t-23 -89.5t-10 -84q0 -43 16.5 -69.5t53.5 -26.5q35 0 66 22t58 58t49 79t38 84q17 73 37 137t42 104t45 40q11 0 29.5 -10t33.5 -26q-25 -40 -43.5 -80t-33 -83t-27.5 -90.5t-26 -103.5t-30 -122
q-5 -21 -11 -42.5t-13 -43.5q35 -1 66.5 -3.5t47.5 -4.5q-33 -22 -66 -29.5t-60 -7.5q-4 -13 -8.5 -26t-9.5 -27q40 -1 75 -3.5t70 -4.5q-33 -24 -65 -31t-54 -7h-46q-22 -46 -53 -83t-74 -58t-101 -21z" />
    <glyph glyph-name="brokenbar" unicode="&#xa6;" horiz-adv-x="283" 
d="M71 -132q12 33 21.5 84t17 114.5t13.5 131.5q8 10 22 17t29 7q10 0 13.5 -9.5t3.5 -17.5q-2 -102 -12 -175t-35 -112.5t-73 -39.5zM130 287q8 91 14 174.5t12.5 146t14.5 90.5q16 -6 23.5 -19t10 -26t2.5 -22q0 -38 -4 -106.5t-4 -143.5q0 -10 -6 -32t-27 -37z" />
    <glyph glyph-name="section" unicode="&#xa7;" horiz-adv-x="434" 
d="M158 -87q-36 0 -68.5 13t-53 39.5t-20.5 65.5q0 35 15.5 54.5t38 27t44.5 7.5q-21 -20 -32 -44t-11 -45q0 -33 25 -58.5t75 -25.5q29 0 55.5 10t43 29.5t16.5 47.5q0 31 -20.5 53.5t-51.5 42t-62 41t-52 50.5t-21 70q0 39 20 72t58.5 52.5t94.5 17.5q-23 14 -44.5 29
t-35 35.5t-13.5 48.5q0 27 13 57t37.5 56.5t59 43t76.5 16.5q43 0 59.5 -18.5t16.5 -49.5q0 -24 -8 -50.5t-19.5 -51t-22.5 -41.5q-17 2 -22.5 11.5t-5.5 20.5q0 19 9 43l18 48t9 41q0 11 -6.5 17t-24.5 6q-40 0 -72 -23t-50 -54t-18 -57q0 -28 19 -46t46.5 -33.5
t55.5 -34.5t47 -49t19 -78q0 -44 -19 -73.5t-51.5 -44t-72.5 -14.5q-9 0 -15.5 0.5t-11.5 2.5q15 -9 34 -20.5t38 -28t31 -38t12 -51.5q0 -43 -28 -74.5t-69.5 -48.5t-84.5 -17zM234 232q47 0 71 22t24 61q0 34 -20.5 58.5t-66.5 24.5q-39 0 -70 -21t-31 -64q0 -12 6 -31.5
t26 -34.5t61 -15z" />
    <glyph glyph-name="dieresis" unicode="&#xa8;" horiz-adv-x="233" 
d="M182 410q-16 0 -28 8t-12 25q0 19 22 33t44 14q15 0 25 -6.5t10 -24.5q0 -17 -19 -33t-42 -16zM38 430q-16 0 -28.5 8t-12.5 25q0 19 22 33.5t45 14.5q15 0 24.5 -6.5t9.5 -24.5q0 -17 -18.5 -33.5t-41.5 -16.5z" />
    <glyph glyph-name="copyright" unicode="&#xa9;" horiz-adv-x="610" 
d="M337 100q-44 0 -88 16t-81 48t-59.5 80.5t-23.5 113.5q0 67 23 116.5t60.5 81.5t82.5 48t89 16t89 -16t83 -48t61.5 -80.5t23.5 -113.5q0 -67 -23.5 -116.5t-62.5 -81.5t-84.5 -48t-89.5 -16zM337 137q65 0 115 28.5t79 79.5t29 117q0 64 -28 113.5t-77.5 78.5t-114.5 29
q-63 0 -112.5 -28.5t-77.5 -78t-28 -115.5q0 -64 26.5 -115t75 -80t113.5 -29zM344 207q-37 0 -63.5 21t-26.5 72v130q0 51 24.5 72t61.5 21q33 0 52.5 -13.5t28 -30.5t8.5 -30q0 -14 -6.5 -18t-13.5 -4q-10 0 -13.5 5t-5.5 11q-2 9 -5.5 19t-13 17.5t-29.5 7.5
q-24 0 -36.5 -14t-12.5 -43v-130q0 -30 12 -44t40 -14q20 0 29.5 8t13 18.5t5.5 18.5q1 7 5 11t11 4q21 0 21 -19q0 -31 -22.5 -53.5t-63.5 -22.5z" />
    <glyph glyph-name="ordfeminine" unicode="&#xaa;" horiz-adv-x="401" 
d="M173 447q-22 0 -38.5 15.5t-16.5 46.5t17 67t45.5 69t63 54t70.5 21q29 0 49 -14.5t20 -38.5q0 -16 -13.5 -24.5t-30.5 -7.5q2 7 3.5 13.5t1.5 11.5q0 13 -7.5 23t-24.5 10q-24 0 -48 -19.5t-44 -49t-32.5 -61t-12.5 -55.5q0 -23 15 -23q16 0 35 16.5t40 40.5t38.5 48.5
t29.5 41.5q14 -4 25 -9t11 -13q0 -9 -10 -25t-20 -33.5t-10 -33.5q0 -8 4.5 -17t15.5 -9q18 0 47.5 27t61.5 81l9 -13q-22 -58 -61.5 -93t-76.5 -35q-24 0 -34.5 13.5t-12.5 30.5q0 5 -0.5 10.5t0.5 10.5q-30 -36 -56.5 -56.5t-52.5 -20.5z" />
    <glyph glyph-name="guillemotleft" unicode="&#xab;" horiz-adv-x="465" 
d="M340 44q-19 0 -45.5 12.5t-53 31.5t-46 39t-23.5 36q35 15 71.5 40t69 55t54.5 60q2 -2 6 -13t4 -16q0 -20 -15.5 -39.5t-40.5 -38t-53.5 -35t-53.5 -29.5q21 -14 40.5 -26t48 -24.5t74.5 -29.5q-7 -8 -16.5 -15.5t-20.5 -7.5zM188 44q-19 0 -45.5 12.5t-53 31.5
t-45.5 39t-24 36q35 15 71.5 40t69 55t54.5 60q2 -2 6 -13t4 -16q0 -20 -15.5 -39.5t-40.5 -38t-53.5 -35t-53.5 -29.5q21 -14 40.5 -26t48 -24.5t74.5 -29.5q-7 -8 -16.5 -15.5t-20.5 -7.5z" />
    <glyph glyph-name="logicalnot" unicode="&#xac;" horiz-adv-x="673" 
d="M493 28q6 26 8.5 49.5t3.5 50.5t1 62q-12 -1 -24 -1.5t-21 -0.5q-68 -1 -116 -1t-85 -0.5t-68.5 -1.5t-66.5 -3.5t-81 -6.5q15 25 58.5 38t109 17.5t142.5 4.5q41 0 80.5 -0.5t73.5 -2.5q3 13 11 26.5t23 28.5q1 -12 3 -25t5 -32q24 -1 44.5 -1.5t33.5 -2.5
q-18 -15 -37 -21.5t-39 -10.5q0 -23 -0.5 -49t-5.5 -50t-17 -42t-36 -25z" />
    <glyph glyph-name="uni00AD" unicode="&#xad;" horiz-adv-x="485" 
d="M40 143q7 19 26.5 31t45 18t51.5 7.5t46 1.5q18 0 46.5 -1t59 -2t56.5 -2.5t38 -2.5q-12 -19 -43 -31.5t-73 -13.5q-23 0 -60 2t-75 1q-22 0 -44.5 -1t-42 -3t-31.5 -4z" />
    <glyph glyph-name="registered" unicode="&#xae;" horiz-adv-x="610" 
d="M336 100q-44 0 -88.5 16t-81 48t-59 80.5t-22.5 113.5q0 67 23.5 116.5t61.5 81.5t83 48t89 16t89 -16t82.5 -48t60.5 -80.5t23 -113.5q0 -67 -24 -116.5t-63 -81.5t-84.5 -48t-89.5 -16zM336 137q64 0 114.5 28.5t80 79.5t29.5 118q0 63 -27 112.5t-76 78.5t-114 29
q-63 0 -113 -28t-79 -78t-29 -118q0 -63 26 -113.5t74 -79.5t114 -29zM282 208q-7 0 -13.5 5t-6.5 14l-3 278q0 7 5 12t14 5h64q24 0 45.5 -7.5t35.5 -26.5t14 -53q0 -36 -16.5 -56.5t-42.5 -26.5l23.5 -47t21 -41.5t14.5 -27.5q1 -1 1.5 -4t0.5 -6q0 -7 -6 -12.5t-14 -5.5
q-9 0 -16.5 11.5t-11.5 18.5l-54 110h-35v-121q0 -9 -6.5 -14t-13.5 -5zM300 384h44q24 0 38.5 12t14.5 39q0 28 -15.5 40t-37.5 12h-44v-103z" />
    <glyph glyph-name="macron" unicode="&#xaf;" horiz-adv-x="411" 
d="M311 420q-23 0 -56 5.5t-69.5 13.5t-69.5 15t-56 10q11 29 49 29q36 0 78.5 -7.5t85.5 -18.5t78 -23q-13 -24 -40 -24z" />
    <glyph glyph-name="degree" unicode="&#xb0;" horiz-adv-x="283" 
d="M182 396q-41 0 -59 16.5t-18 39.5q0 24 16.5 49.5t44.5 43t63 17.5q43 0 61 -16.5t18 -39.5t-17 -49t-45.5 -43.5t-63.5 -17.5zM186 423q20 0 39 14t31.5 33t12.5 36q0 13 -9.5 20.5t-30.5 7.5t-40 -13.5t-31 -32t-12 -35.5q0 -12 9.5 -21t30.5 -9z" />
    <glyph glyph-name="plusminus" unicode="&#xb1;" horiz-adv-x="473" 
d="M194 109q6 35 8 67.5t2 67.5q-27 0 -48.5 -0.5t-45 -2t-53.5 -6.5q10 26 51 36.5t96 12.5v34q0 18 6 41t26 48q3 -18 6.5 -52.5t4.5 -70.5q31 0 62.5 -2t57 -3.5t38.5 -2.5q-32 -20 -61 -26t-49 -6h-48q-1 -50 -10.5 -86.5t-42.5 -48.5zM55 27q5 22 32 32.5t67 14.5t83 4
q50 0 97.5 -3t72.5 -6q-23 -12 -44.5 -18.5t-50 -8.5t-75.5 -3q-29 -1 -50.5 -1.5t-41 -1.5t-41 -3.5t-49.5 -5.5z" />
    <glyph glyph-name="uni00B2" unicode="&#xb2;" horiz-adv-x="383" 
d="M306 302q-15 0 -35.5 5t-42 13.5t-41.5 17.5q-33 -20 -58 -20q-18 0 -31 9.5t-13 24.5q0 30 46 30q11 0 23.5 -2t27.5 -5q30 27 59.5 68t49 88t19.5 89q0 34 -13.5 49t-33.5 15q-28 0 -44 -25.5t-16 -64.5q0 -10 2 -18.5t8 -23.5h-15q-21 5 -32.5 16t-11.5 34
q0 29 14.5 53.5t41 40t61.5 15.5q40 0 66 -28t26 -68q0 -43 -19 -89t-50 -87.5t-67 -71.5q28 -6 51.5 -11t40.5 -5q8 0 19 5t33 18q-9 -37 -24.5 -54.5t-40.5 -17.5zM127 345q5 0 9.5 2t10.5 5q-6 2 -11.5 2.5t-8.5 0.5q-6 0 -8 -1.5t-2 -2.5q0 -2 3.5 -4t6.5 -2z" />
    <glyph glyph-name="uni00B3" unicode="&#xb3;" horiz-adv-x="321" 
d="M188 314q-50 0 -71 25.5t-21 50.5q0 20 12 39.5t37 19.5q3 0 8 -1t17 -5q-11 -8 -17 -21t-6 -25q0 -20 11.5 -38.5t33.5 -18.5q27 0 49.5 28.5t22.5 71.5q0 28 -14.5 54.5t-56.5 36.5q30 13 51 33.5t32.5 44t11.5 42.5q0 22 -12 33.5t-26 11.5q-19 0 -34 -14.5t-15 -37.5
q0 -7 2.5 -14.5t6.5 -16.5q-4 -8 -13 -14t-16 -6q-12 0 -19 15.5t-7 29.5q0 38 31.5 59t69.5 21q33 0 59.5 -17.5t26.5 -51.5q0 -20 -9 -42t-25.5 -41t-38.5 -29q35 -15 49 -42.5t14 -51.5q0 -31 -18.5 -61t-51 -49t-74.5 -19z" />
    <glyph glyph-name="acute" unicode="&#xb4;" horiz-adv-x="136" 
d="M112 404q-11 5 -16 15.5t-5 15.5q0 8 10 27t26 39.5t34 35.5t33 15q10 0 18 -7.5t10 -26.5q-36 -33 -62.5 -59.5t-47.5 -54.5z" />
    <glyph glyph-name="uni00B5" unicode="&#xb5;" horiz-adv-x="605" 
d="M4 -280q-10 0 -18.5 10t-13 20.5t-5.5 12.5q14 49 28.5 87t29.5 78t29 93.5t28 133t27 197.5q2 11 5 16t19 5q28 0 40.5 -15.5t13.5 -34.5q-22 -97 -34.5 -162t-12.5 -101q0 -45 27 -45q19 0 39 19.5t40 50.5t39 66.5t35.5 68t27.5 53.5q7 -1 20 -4.5t24 -9.5t11 -17
q0 -1 -9.5 -22.5t-22.5 -53.5t-23 -65.5t-10 -59.5q0 -16 6.5 -26t23.5 -10q21 0 51 19t61 55.5t56 87.5l20 -14q-22 -55 -57 -97.5t-75 -66t-77 -23.5q-38 0 -57.5 22t-19.5 56q0 7 0.5 14t2.5 14q-27 -44 -57.5 -75t-67.5 -31q-11 0 -23 5t-19 13q-36 -128 -61 -196
t-41 -68z" />
    <glyph glyph-name="paragraph" unicode="&#xb6;" horiz-adv-x="672" 
d="M348 -87q3 53 8 114.5t10 125.5q-25 2 -62.5 7t-78.5 16.5t-77 32t-58 51.5t-22 76q0 56 28.5 99t75.5 74t102.5 49t109.5 22q-3 69 -11 127q11 5 19.5 7t14.5 2q17 0 26 -14t12.5 -35t4 -44t0.5 -42q9 -1 22 -2.5t21 -3.5q-2 40 -4 74t-5 57q9 6 17 8t15 2
q13 0 21.5 -22t13.5 -57.5t8 -77.5q26 -8 48 -17t40 -17q-3 -6 -13 -14t-20 -14t-15 -6t-13.5 5.5t-24.5 12.5q2 -27 2.5 -53.5t0.5 -51.5q0 -202 -4 -313t-8 -126q-8 -24 -31 -38t-49 -14q1 3 3.5 33t5.5 79.5t6 111.5t5 131.5t2.5 139t-1.5 130.5q-8 3 -19.5 5t-20.5 3
q3 -42 4 -81t2 -74.5t1 -71.5q0 -68 -1.5 -129.5t-3.5 -110t-4 -78.5t-4 -35q-5 -15 -21.5 -27t-37.5 -19t-40 -7z" />
    <glyph glyph-name="periodcentered" unicode="&#xb7;" horiz-adv-x="230" 
d="M89 118q-20 0 -29 10t-9 24q0 11 10 21.5t24.5 17.5t27.5 7q11 0 21 -5.5t10 -21.5q0 -9 -7.5 -21.5t-19.5 -22t-28 -9.5z" />
    <glyph glyph-name="cedilla" unicode="&#xb8;" horiz-adv-x="227" 
d="M79 -226q-29 0 -46.5 13t-17.5 27q0 8 7 18.5t22 20.5q7 -24 18 -34.5t22 -10.5q18 0 36.5 14.5t32 34.5t13.5 36q0 8 -4 13.5t-12 5.5q-13 0 -29 -9.5t-30 -19.5t-22 -10q-9 0 -14 8.5t-5 14.5q0 2 9 14.5t22 30.5t26.5 34.5t23.5 24.5h15l-49 -77q9 5 24.5 10.5
t33.5 5.5q23 0 37 -12t14 -35q0 -28 -17.5 -55t-46.5 -45t-63 -18z" />
    <glyph glyph-name="uni00B9" unicode="&#xb9;" horiz-adv-x="292" 
d="M133 314q-10 0 -25.5 8.5t-27.5 24.5q27 0 43 0.5t35 3.5q11 24 19.5 62.5t16 80t14 77.5t12.5 56q-21 -12 -31 -16.5t-15 -4.5q-9 0 -14 5.5t-5 20.5q9 5 28 18t42.5 31t44.5 36h5q2 -2 3 -4.5t1 -4.5q2 -6 1 -12.5t-1 -10.5q-2 -10 -7.5 -39.5t-14 -70t-17.5 -88.5
l-13 -60q-4 -24 -9.5 -41.5t-12.5 -29.5q23 1 40 -6.5t23 -34.5q-10 1 -24.5 2t-24.5 1q-27 0 -46 -2t-40 -2z" />
    <glyph glyph-name="ordmasculine" unicode="&#xba;" horiz-adv-x="299" 
d="M181 452q-28 0 -44.5 17.5t-16.5 45.5t14.5 62.5t39 67t55.5 53.5t64 21q13 0 20.5 -3.5t11.5 -9.5q17 -1 24.5 -11.5t7.5 -18.5q0 -10 -6.5 -24t-13.5 -29t-7 -30q0 -8 5 -10.5t12 -2.5q8 0 14 1t11 2q-1 -14 -13 -22t-27 -8t-25 10q-22 -49 -55 -80t-71 -31zM198 489
q15 0 32.5 14t34 37t27.5 49q-2 9 -3 17t-1 21q0 22 2 35t6 20q-27 -2 -49.5 -20.5t-39 -44.5t-26 -52t-9.5 -43q0 -15 7 -24t19 -9z" />
    <glyph glyph-name="guillemotright" unicode="&#xbb;" horiz-adv-x="479" 
d="M253 44q-11 0 -20.5 7.5t-16.5 15.5q47 17 75 29.5t48 24.5t40 26q-25 13 -53.5 29.5t-53.5 35t-40.5 38t-15.5 39.5q0 5 4 16t6 13q22 -30 54.5 -60t69 -55t71.5 -40q-5 -16 -24 -36t-45.5 -39t-53.5 -31.5t-45 -12.5zM101 44q-11 0 -20.5 7.5t-16.5 15.5q47 17 75 29.5
t48 24.5t40 26q-25 13 -53.5 29.5t-53.5 35t-40.5 38t-15.5 39.5q0 5 4 16t6 13q22 -30 54.5 -60t69 -55t71.5 -40q-5 -16 -24 -36t-45.5 -39t-53 -31.5t-45.5 -12.5z" />
    <glyph glyph-name="onequarter" unicode="&#xbc;" horiz-adv-x="671" 
d="M50 -87q24 24 61 76t80.5 122.5t88.5 149t86.5 156t73.5 144t50 111.5q4 11 19.5 21t35.5 16t38 4q-5 -14 -25.5 -55t-50.5 -99t-65 -124t-70.5 -130.5t-66.5 -119t-53 -88.5q-52 -82 -101 -133t-101 -51zM543 -27q-28 2 -43 10t-15 22q0 6 4 33t18 94q-7 1 -15 1h-19
q-30 0 -57.5 -2.5t-47.5 -7.5q0 13 3.5 21t7.5 12q32 27 73 64t80 79t62 82q18 -2 18 -19q0 -8 -12.5 -50t-31.5 -141h13q8 0 19.5 2t27.5 5q-15 -21 -33 -34t-34 -13q-1 -9 -4 -29t-6.5 -44t-5.5 -47t-2 -38zM441 173q12 1 32 0.5t44 -0.5q6 25 8.5 40.5t5.5 27t7 24.5
l-33 -31q-15 -14 -25.5 -23.5t-19.5 -18t-19 -19.5zM129 314q-10 0 -25.5 8.5t-27.5 24.5q28 0 43.5 0.5t34.5 3.5q11 24 20 62.5t16 80t13.5 77.5t12.5 56q-21 -12 -31 -16.5t-15 -4.5q-8 0 -13.5 5.5t-5.5 20.5q9 5 28 18t42 31t45 36h5q2 -2 3 -4.5t1 -4.5q2 -6 1 -12.5
t-1 -10.5q-2 -16 -15 -79t-37 -179q-4 -24 -9.5 -41.5t-12.5 -29.5q23 1 40 -6.5t23 -34.5q-10 1 -24.5 2t-24.5 1q-27 0 -46 -2t-40 -2z" />
    <glyph glyph-name="onehalf" unicode="&#xbd;" horiz-adv-x="728" 
d="M57 -87q24 24 61 76t80.5 122.5t89 149t86.5 156t73.5 144t49.5 111.5q4 11 19 21.5t34 18.5t37 8q-5 -15 -24.5 -57.5t-49.5 -101.5t-64.5 -125t-70 -131t-66 -119.5t-52.5 -88.5q-53 -82 -101.5 -133t-101.5 -51zM408 17q5 0 9 1.5t11 5.5q-7 2 -12 2.5t-8 0.5
q-6 0 -8 -1.5t-2 -3.5t3 -3.5t7 -1.5zM587 -27q-15 0 -35.5 5.5t-42.5 14t-42 17.5q-33 -21 -58 -21q-18 0 -31 9.5t-13 24.5q0 30 46 30q12 0 24.5 -1.5t27.5 -4.5q30 26 59 67.5t48.5 88t19.5 88.5q0 35 -13.5 50t-33.5 15q-28 0 -44 -26t-16 -64q0 -10 2 -18.5t8 -23.5
h-15q-21 5 -32.5 16t-11.5 34q0 28 14.5 52.5t41 40t61.5 15.5q41 0 66.5 -27.5t25.5 -67.5q0 -44 -18.5 -89.5t-50 -87t-67.5 -72.5q28 -6 51.5 -10.5t40.5 -4.5q8 0 19.5 5t32.5 17q-9 -36 -24 -54t-40 -18zM131 314q-10 0 -25.5 8.5t-27.5 24.5q28 0 43.5 0.5t34.5 3.5
q11 24 20 62.5t16 80t13.5 77.5t12.5 56q-21 -12 -30.5 -16.5t-14.5 -4.5q-9 0 -14.5 5.5t-5.5 20.5q9 5 28 18t42.5 31t44.5 36h5q2 -2 3 -4.5t1 -4.5q2 -6 1 -12.5t-1 -10.5q-2 -16 -15 -79t-37 -179q-4 -24 -9.5 -41.5t-12.5 -29.5q23 1 40 -6.5t23 -34.5q-10 1 -24.5 2
t-24.5 1q-27 0 -46 -2t-40 -2z" />
    <glyph glyph-name="threequarters" unicode="&#xbe;" horiz-adv-x="717" 
d="M96 -87q45 53 89.5 117t87 134t81 141.5t72.5 138.5t62 125.5t48 102.5q5 12 19.5 22.5t33.5 18t37 7.5q-5 -16 -23.5 -56.5t-47.5 -97t-62.5 -121t-69 -129.5t-68 -121.5t-58.5 -96.5q-52 -83 -100 -134t-101 -51zM184 309q-33 0 -53.5 12.5t-29.5 30.5t-9 34
q0 21 12 40t37 19q5 0 10 -0.5t15 -3.5q-11 -9 -17 -22.5t-6 -26.5q0 -20 13 -37.5t33 -17.5q27 0 50.5 29t23.5 71q0 29 -15 56t-58 36q30 13 51.5 34t33 44.5t11.5 42.5q0 23 -12 34t-27 11q-18 0 -34 -14t-16 -35q0 -7 3 -15.5t7 -17.5q-4 -8 -13 -14.5t-16 -6.5
q-12 0 -19 15.5t-8 29.5q0 26 15 44t38.5 27.5t48.5 9.5q33 0 60 -17t27 -54q0 -19 -9 -41.5t-26 -41.5t-39 -29q35 -14 49.5 -41.5t14.5 -53.5q0 -31 -18.5 -61t-51 -50t-76.5 -20zM589 -27q-28 2 -43 10t-15 22q0 6 4.5 33t18.5 94q-7 1 -15 1h-19q-30 0 -57.5 -2.5
t-48.5 -7.5q0 13 3.5 21t7.5 12q32 27 73 64t80 79t62 82q18 -2 19 -19q0 -8 -13 -50t-31 -141h12q8 0 19.5 2t27.5 5q-15 -21 -33 -34t-33 -13q-1 -9 -4.5 -29t-6.5 -44t-5.5 -47t-2.5 -38zM487 173q13 1 32.5 0.5t44.5 -0.5q5 25 8 40.5t6 27t7 24.5l-34 -31
q-15 -14 -25.5 -23.5t-19.5 -18t-19 -19.5z" />
    <glyph glyph-name="questiondown" unicode="&#xbf;" horiz-adv-x="430" 
d="M101 -280q-65 0 -105 34t-40 98q0 38 16 68t40.5 55.5t52 51t51 56t36.5 70.5q11 34 13 59t14 54q23 -12 30.5 -21t7.5 -30q0 -42 -19.5 -76t-47.5 -64.5t-56.5 -62t-48 -68t-19.5 -81.5q0 -53 22.5 -80.5t55.5 -27.5q35 0 69 26.5t57 71.5t23 98q0 16 -2.5 30.5
t-7.5 31.5q45 -6 60 -27t15 -52q0 -54 -27 -103t-75.5 -80t-114.5 -31zM195 320q-14 0 -23 6.5t-9 20.5q0 19 17.5 34.5t39.5 15.5q15 0 26 -7.5t11 -23.5q0 -19 -20.5 -32.5t-41.5 -13.5z" />
    <glyph glyph-name="Agrave" unicode="&#xc0;" horiz-adv-x="618" 
d="M36 -87q-27 15 -34.5 31t-7.5 28q0 27 20 73.5t53.5 106t75.5 124.5q-33 2 -60.5 3t-62.5 1h-23q13 34 42.5 47.5t69.5 13.5q17 0 35.5 -2t38.5 -4q50 73 100 140t94.5 120t77.5 85q42 41 63 41q13 0 29 -10t34 -26q-10 -8 -25.5 -41.5t-33 -84.5t-35 -112t-31.5 -123.5
t-22.5 -119.5t-8.5 -101q0 -39 8 -59t27 -20q24 0 58 35.5t75 113.5l15 -16q-31 -82 -79.5 -134t-102.5 -52q-45 0 -64.5 39.5t-19.5 108.5q0 26 3.5 58t10.5 74q-44 7 -79 11t-66 8q-47 -85 -92 -176.5t-83 -180.5zM365 295q14 62 32.5 124.5t39 120t39.5 102.5
q-30 -22 -68.5 -68.5t-80.5 -110.5t-86 -139q32 -7 63 -14.5t61 -14.5zM568 748q-22 28 -49 54.5t-66 57.5q2 19 10.5 27.5t18.5 8.5q15 0 33.5 -14t35.5 -34.5t27.5 -39t10.5 -27.5q0 -6 -5 -17t-16 -16z" />
    <glyph glyph-name="Aacute" unicode="&#xc1;" horiz-adv-x="618" 
d="M36 -87q-27 15 -34.5 31t-7.5 28q0 27 20 73.5t53.5 106t75.5 124.5q-33 2 -60.5 3t-62.5 1h-23q13 34 42.5 47.5t69.5 13.5q17 0 35.5 -2t38.5 -4q50 73 100 140t94.5 120t77.5 85q42 41 63 41q13 0 29 -10t34 -26q-10 -8 -25.5 -41.5t-33 -84.5t-35 -112t-31.5 -123.5
t-22.5 -119.5t-8.5 -101q0 -39 8 -59t27 -20q24 0 58 35.5t75 113.5l15 -16q-31 -82 -79.5 -134t-102.5 -52q-45 0 -64.5 39.5t-19.5 108.5q0 26 3.5 58t10.5 74q-44 7 -79 11t-66 8q-47 -85 -92 -176.5t-83 -180.5zM365 295q14 62 32.5 124.5t39 120t39.5 102.5
q-30 -22 -68.5 -68.5t-80.5 -110.5t-86 -139q32 -7 63 -14.5t61 -14.5zM575 748q-11 5 -16 15.5t-5 15.5q0 8 10 27t26 39.5t34 35.5t33 15q10 0 18 -7.5t10 -26.5q-36 -33 -62.5 -59.5t-47.5 -54.5z" />
    <glyph glyph-name="Acircumflex" unicode="&#xc2;" horiz-adv-x="618" 
d="M36 -87q-27 15 -34.5 31t-7.5 28q0 27 20 73.5t53.5 106t75.5 124.5q-33 2 -60.5 3t-62.5 1h-23q13 34 42.5 47.5t69.5 13.5q17 0 35.5 -2t38.5 -4q50 73 100 140t94.5 120t77.5 85q42 41 63 41q13 0 29 -10t34 -26q-10 -8 -25.5 -41.5t-33 -84.5t-35 -112t-31.5 -123.5
t-22.5 -119.5t-8.5 -101q0 -39 8 -59t27 -20q24 0 58 35.5t75 113.5l15 -16q-31 -82 -79.5 -134t-102.5 -52q-45 0 -64.5 39.5t-19.5 108.5q0 26 3.5 58t10.5 74q-44 7 -79 11t-66 8q-47 -85 -92 -176.5t-83 -180.5zM365 295q14 62 32.5 124.5t39 120t39.5 102.5
q-30 -22 -68.5 -68.5t-80.5 -110.5t-86 -139q32 -7 63 -14.5t61 -14.5zM664 744q-15 28 -32.5 47t-39.5 39q-29 -10 -53.5 -23t-49.5 -31q-6 5 -9 13t-3 12q0 15 13.5 30t33.5 28t39 21t30 8q12 0 28 -10.5t31 -27.5t24.5 -35.5t9.5 -34.5q0 -10 -4.5 -20t-17.5 -16z" />
    <glyph glyph-name="Atilde" unicode="&#xc3;" horiz-adv-x="618" 
d="M36 -87q-27 15 -34.5 31t-7.5 28q0 27 20 73.5t53.5 106t75.5 124.5q-33 2 -60.5 3t-62.5 1h-23q13 34 42.5 47.5t69.5 13.5q17 0 35.5 -2t38.5 -4q50 73 100 140t94.5 120t77.5 85q42 41 63 41q13 0 29 -10t34 -26q-10 -8 -25.5 -41.5t-33 -84.5t-35 -112t-31.5 -123.5
t-22.5 -119.5t-8.5 -101q0 -39 8 -59t27 -20q24 0 58 35.5t75 113.5l15 -16q-31 -82 -79.5 -134t-102.5 -52q-45 0 -64.5 39.5t-19.5 108.5q0 26 3.5 58t10.5 74q-44 7 -79 11t-66 8q-47 -85 -92 -176.5t-83 -180.5zM365 295q14 62 32.5 124.5t39 120t39.5 102.5
q-30 -22 -68.5 -68.5t-80.5 -110.5t-86 -139q32 -7 63 -14.5t61 -14.5zM651 757q-28 0 -57.5 12t-59 23.5t-57.5 11.5q-15 0 -30 -2.5t-31 -10.5q15 29 37.5 42.5t51.5 13.5q28 0 57.5 -12t60 -24t61.5 -12q25 0 50 9q-15 -26 -35 -38.5t-48 -12.5z" />
    <glyph glyph-name="Adieresis" unicode="&#xc4;" horiz-adv-x="618" 
d="M36 -87q-27 15 -34.5 31t-7.5 28q0 27 20 73.5t53.5 106t75.5 124.5q-33 2 -60.5 3t-62.5 1h-23q13 34 42.5 47.5t69.5 13.5q17 0 35.5 -2t38.5 -4q50 73 100 140t94.5 120t77.5 85q42 41 63 41q13 0 29 -10t34 -26q-10 -8 -25.5 -41.5t-33 -84.5t-35 -112t-31.5 -123.5
t-22.5 -119.5t-8.5 -101q0 -39 8 -59t27 -20q24 0 58 35.5t75 113.5l15 -16q-31 -82 -79.5 -134t-102.5 -52q-45 0 -64.5 39.5t-19.5 108.5q0 26 3.5 58t10.5 74q-44 7 -79 11t-66 8q-47 -85 -92 -176.5t-83 -180.5zM365 295q14 62 32.5 124.5t39 120t39.5 102.5
q-30 -22 -68.5 -68.5t-80.5 -110.5t-86 -139q32 -7 63 -14.5t61 -14.5zM647 753q-16 0 -28 8t-12 25q0 19 22 33t44 14q15 0 25 -6.5t10 -24.5q0 -17 -19 -33t-42 -16zM503 773q-16 0 -28.5 8t-12.5 25q0 19 22 33.5t45 14.5q15 0 24.5 -6.5t9.5 -24.5q0 -17 -18.5 -33.5
t-41.5 -16.5z" />
    <glyph glyph-name="Aring" unicode="&#xc5;" horiz-adv-x="618" 
d="M36 -87q-27 15 -34.5 31t-7.5 28q0 27 20 73.5t53.5 106t75.5 124.5q-33 2 -60.5 3t-62.5 1h-23q13 34 42.5 47.5t69.5 13.5q17 0 35.5 -2t38.5 -4q50 73 100 140t94.5 120t77.5 85q42 41 63 41q13 0 29 -10t34 -26q-10 -8 -25.5 -41.5t-33 -84.5t-35 -112t-31.5 -123.5
t-22.5 -119.5t-8.5 -101q0 -39 8 -59t27 -20q24 0 58 35.5t75 113.5l15 -16q-31 -82 -79.5 -134t-102.5 -52q-45 0 -64.5 39.5t-19.5 108.5q0 26 3.5 58t10.5 74q-44 7 -79 11t-66 8q-47 -85 -92 -176.5t-83 -180.5zM365 295q14 62 32.5 124.5t39 120t39.5 102.5
q-30 -22 -68.5 -68.5t-80.5 -110.5t-86 -139q32 -7 63 -14.5t61 -14.5zM567 754q-39 0 -57.5 16.5t-18.5 39.5q0 24 16.5 49.5t44 43t63.5 17.5q43 0 61.5 -16.5t18.5 -39.5t-17.5 -49t-46 -43.5t-64.5 -17.5zM576 784q18 0 34.5 12t27 29t10.5 32q0 12 -8.5 21t-29.5 9
q-18 0 -34.5 -11t-26.5 -27.5t-10 -32.5q1 -10 9.5 -21t27.5 -11z" />
    <glyph glyph-name="AE" unicode="&#xc6;" horiz-adv-x="775" 
d="M35 -87q-27 15 -34 31t-7 27q0 27 19.5 74t53 106.5t75.5 124.5q-35 2 -60 3t-42 1h-43q13 34 42.5 47.5t69.5 13.5q17 0 35 -2t38 -4q52 76 104 145.5t98.5 124t81 85.5t52.5 31q41 0 88 -2.5t93 -6t83.5 -7.5t60.5 -7q-7 -18 -34 -28t-65.5 -13t-81.5 -3
q-28 0 -53.5 0.5t-50.5 1.5q-16 -34 -38 -97t-42 -139q71 -1 124.5 -10t90.5 -13q-7 -19 -34 -28.5t-65.5 -13t-81.5 -3.5h-28.5t-22.5 1q-17 -71 -27 -138.5t-10 -116.5q0 -11 1 -19.5t2 -16.5q33 -5 73 -8.5t80 -6.5t74.5 -6.5t55.5 -8.5q-7 -19 -33.5 -28.5t-65 -12.5
t-81.5 -3t-83.5 0.5t-71.5 3.5q-19 17 -27 51.5t-8 75.5q0 30 4.5 63t10.5 69q-44 7 -78.5 11t-65.5 8q-48 -85 -93 -176.5t-83 -180.5zM364 295q14 62 32.5 124.5t39 120t39.5 102.5q-30 -22 -68 -68.5t-80.5 -110.5t-85.5 -139q32 -7 64.5 -15t58.5 -14z" />
    <glyph glyph-name="Ccedilla" unicode="&#xc7;" horiz-adv-x="558" 
d="M239 -87q-74 0 -120.5 36t-68 92.5t-21.5 117.5q0 79 24 158.5t66 152t95.5 128.5t114 88.5t120.5 32.5q43 0 71.5 -20t28.5 -69q0 -30 -10.5 -67t-28 -71t-39 -56t-43.5 -22q-9 0 -19 6.5t-18 21.5q15 17 33.5 42t35.5 53t28 54.5t11 47.5q0 18 -10.5 29.5t-36.5 11.5
q-43 0 -89.5 -34t-89.5 -90.5t-78 -126t-55 -143t-20 -139.5q0 -48 14 -92t46 -71.5t83 -27.5q54 0 107 30t97.5 79t71.5 106l22 -15q-35 -66 -83 -121.5t-108.5 -88.5t-130.5 -33zM377 -226q-29 0 -46.5 13t-17.5 27q0 8 7 18.5t22 20.5q7 -24 18 -34.5t22 -10.5
q18 0 36.5 14.5t32 34.5t13.5 36q0 8 -4 13.5t-12 5.5q-13 0 -29 -9.5t-30 -19.5t-22 -10q-9 0 -14 8.5t-5 14.5q0 2 9 14.5t22 30.5t26.5 34.5t23.5 24.5h15l-49 -77q9 5 24.5 10.5t33.5 5.5q23 0 37 -12t14 -35q0 -28 -17.5 -55t-46.5 -45t-63 -18z" />
    <glyph glyph-name="Egrave" unicode="&#xc8;" horiz-adv-x="521" 
d="M199 -87q-63 0 -109.5 25.5t-72 67.5t-25.5 93q0 45 19.5 88t54.5 79t81.5 60t101.5 31q-37 32 -55.5 72t-18.5 82q0 53 27 100.5t75.5 77.5t111.5 30q59 0 90.5 -29t31.5 -84q0 -38 -13.5 -73.5t-33 -57.5t-37.5 -22q-13 0 -24.5 11.5t-19.5 26.5q36 31 61.5 65t25.5 71
q0 30 -19.5 46t-52.5 16q-45 0 -76.5 -27.5t-47 -71t-15.5 -91.5q0 -41 14 -84t54 -74q-70 -11 -122 -50t-80.5 -91t-28.5 -103q0 -31 12.5 -64.5t41 -56t76.5 -22.5q54 0 107 30.5t97 80t71 106.5l23 -15q-37 -69 -86 -124t-109 -87t-130 -32zM440 748q-22 28 -49 54.5
t-66 57.5q2 19 10.5 27.5t18.5 8.5q15 0 33.5 -14t35.5 -34.5t27.5 -39t10.5 -27.5q0 -6 -5 -17t-16 -16z" />
    <glyph glyph-name="Eacute" unicode="&#xc9;" horiz-adv-x="521" 
d="M199 -87q-63 0 -109.5 25.5t-72 67.5t-25.5 93q0 45 19.5 88t54.5 79t81.5 60t101.5 31q-37 32 -55.5 72t-18.5 82q0 53 27 100.5t75.5 77.5t111.5 30q59 0 90.5 -29t31.5 -84q0 -38 -13.5 -73.5t-33 -57.5t-37.5 -22q-13 0 -24.5 11.5t-19.5 26.5q36 31 61.5 65t25.5 71
q0 30 -19.5 46t-52.5 16q-45 0 -76.5 -27.5t-47 -71t-15.5 -91.5q0 -41 14 -84t54 -74q-70 -11 -122 -50t-80.5 -91t-28.5 -103q0 -31 12.5 -64.5t41 -56t76.5 -22.5q54 0 107 30.5t97 80t71 106.5l23 -15q-37 -69 -86 -124t-109 -87t-130 -32zM446 748q-11 5 -16 15.5
t-5 15.5q0 8 10 27t26 39.5t34 35.5t33 15q10 0 18 -7.5t10 -26.5q-36 -33 -62.5 -59.5t-47.5 -54.5z" />
    <glyph glyph-name="Ecircumflex" unicode="&#xca;" horiz-adv-x="521" 
d="M199 -87q-63 0 -109.5 25.5t-72 67.5t-25.5 93q0 45 19.5 88t54.5 79t81.5 60t101.5 31q-37 32 -55.5 72t-18.5 82q0 53 27 100.5t75.5 77.5t111.5 30q59 0 90.5 -29t31.5 -84q0 -38 -13.5 -73.5t-33 -57.5t-37.5 -22q-13 0 -24.5 11.5t-19.5 26.5q36 31 61.5 65t25.5 71
q0 30 -19.5 46t-52.5 16q-45 0 -76.5 -27.5t-47 -71t-15.5 -91.5q0 -41 14 -84t54 -74q-70 -11 -122 -50t-80.5 -91t-28.5 -103q0 -31 12.5 -64.5t41 -56t76.5 -22.5q54 0 107 30.5t97 80t71 106.5l23 -15q-37 -69 -86 -124t-109 -87t-130 -32zM536 744q-15 28 -32.5 47
t-39.5 39q-29 -10 -53.5 -23t-49.5 -31q-6 5 -9 13t-3 12q0 15 13.5 30t33.5 28t39 21t30 8q12 0 28 -10.5t31 -27.5t24.5 -35.5t9.5 -34.5q0 -10 -4.5 -20t-17.5 -16z" />
    <glyph glyph-name="Edieresis" unicode="&#xcb;" horiz-adv-x="521" 
d="M199 -87q-63 0 -109.5 25.5t-72 67.5t-25.5 93q0 45 19.5 88t54.5 79t81.5 60t101.5 31q-37 32 -55.5 72t-18.5 82q0 53 27 100.5t75.5 77.5t111.5 30q59 0 90.5 -29t31.5 -84q0 -38 -13.5 -73.5t-33 -57.5t-37.5 -22q-13 0 -24.5 11.5t-19.5 26.5q36 31 61.5 65t25.5 71
q0 30 -19.5 46t-52.5 16q-45 0 -76.5 -27.5t-47 -71t-15.5 -91.5q0 -41 14 -84t54 -74q-70 -11 -122 -50t-80.5 -91t-28.5 -103q0 -31 12.5 -64.5t41 -56t76.5 -22.5q54 0 107 30.5t97 80t71 106.5l23 -15q-37 -69 -86 -124t-109 -87t-130 -32zM519 753q-16 0 -28 8t-12 25
q0 19 22 33t44 14q15 0 25 -6.5t10 -24.5q0 -17 -19 -33t-42 -16zM375 773q-16 0 -28.5 8t-12.5 25q0 19 22 33.5t45 14.5q15 0 24.5 -6.5t9.5 -24.5q0 -17 -18.5 -33.5t-41.5 -16.5z" />
    <glyph glyph-name="Igrave" unicode="&#xcc;" horiz-adv-x="488" 
d="M-25 -88q4 41 27.5 59.5t61 24t80.5 5.5q18 39 35 93.5t33 116.5t31 127t28.5 125.5t25.5 109.5t23 80q-52 -1 -90.5 -3.5t-72 -7.5t-70.5 -12q9 46 60 67.5t155 21.5q52 0 107.5 -4t101.5 -9t72 -9q-31 -29 -59.5 -36t-50.5 -7h-58t-50 -1q-6 -29 -14.5 -76.5t-19 -104
t-21 -114.5t-21 -109t-19.5 -86q-14 -56 -32.5 -99t-43.5 -64q53 -4 108.5 -10.5t114.5 -8.5q-36 -34 -70.5 -42.5t-57.5 -8.5q-57 0 -99.5 -0.5t-77 -2t-67 -5.5t-70.5 -10zM362 747q-22 28 -49 54.5t-66 57.5q2 19 10.5 27.5t18.5 8.5q15 0 33.5 -14t35.5 -34.5t27.5 -39
t10.5 -27.5q0 -6 -5 -17t-16 -16z" />
    <glyph glyph-name="Iacute" unicode="&#xcd;" horiz-adv-x="488" 
d="M-25 -88q4 41 27.5 59.5t61 24t80.5 5.5q18 39 35 93.5t33 116.5t31 127t28.5 125.5t25.5 109.5t23 80q-52 -1 -90.5 -3.5t-72 -7.5t-70.5 -12q9 46 60 67.5t155 21.5q52 0 107.5 -4t101.5 -9t72 -9q-31 -29 -59.5 -36t-50.5 -7h-58t-50 -1q-6 -29 -14.5 -76.5t-19 -104
t-21 -114.5t-21 -109t-19.5 -86q-14 -56 -32.5 -99t-43.5 -64q53 -4 108.5 -10.5t114.5 -8.5q-36 -34 -70.5 -42.5t-57.5 -8.5q-57 0 -99.5 -0.5t-77 -2t-67 -5.5t-70.5 -10zM369 747q-11 5 -16 15.5t-5 15.5q0 8 10 27t26 39.5t34 35.5t33 15q10 0 18 -7.5t10 -26.5
q-36 -33 -62.5 -59.5t-47.5 -54.5z" />
    <glyph glyph-name="Icircumflex" unicode="&#xce;" horiz-adv-x="488" 
d="M-25 -88q4 41 27.5 59.5t61 24t80.5 5.5q18 39 35 93.5t33 116.5t31 127t28.5 125.5t25.5 109.5t23 80q-52 -1 -90.5 -3.5t-72 -7.5t-70.5 -12q9 46 60 67.5t155 21.5q52 0 107.5 -4t101.5 -9t72 -9q-31 -29 -59.5 -36t-50.5 -7h-58t-50 -1q-6 -29 -14.5 -76.5t-19 -104
t-21 -114.5t-21 -109t-19.5 -86q-14 -56 -32.5 -99t-43.5 -64q53 -4 108.5 -10.5t114.5 -8.5q-36 -34 -70.5 -42.5t-57.5 -8.5q-57 0 -99.5 -0.5t-77 -2t-67 -5.5t-70.5 -10zM458 743q-15 28 -32.5 47t-39.5 39q-29 -10 -53.5 -23t-49.5 -31q-6 5 -9 13t-3 12q0 15 13.5 30
t33.5 28t39 21t30 8q12 0 28 -10.5t31 -27.5t24.5 -35.5t9.5 -34.5q0 -10 -4.5 -20t-17.5 -16z" />
    <glyph glyph-name="Idieresis" unicode="&#xcf;" horiz-adv-x="488" 
d="M-25 -88q4 41 27.5 59.5t61 24t80.5 5.5q18 39 35 93.5t33 116.5t31 127t28.5 125.5t25.5 109.5t23 80q-52 -1 -90.5 -3.5t-72 -7.5t-70.5 -12q9 46 60 67.5t155 21.5q52 0 107.5 -4t101.5 -9t72 -9q-31 -29 -59.5 -36t-50.5 -7h-58t-50 -1q-6 -29 -14.5 -76.5t-19 -104
t-21 -114.5t-21 -109t-19.5 -86q-14 -56 -32.5 -99t-43.5 -64q53 -4 108.5 -10.5t114.5 -8.5q-36 -34 -70.5 -42.5t-57.5 -8.5q-57 0 -99.5 -0.5t-77 -2t-67 -5.5t-70.5 -10zM441 752q-16 0 -28 8t-12 25q0 19 22 33t44 14q15 0 25 -6.5t10 -24.5q0 -17 -19 -33t-42 -16z
M297 772q-16 0 -28.5 8t-12.5 25q0 19 22 33.5t45 14.5q15 0 24.5 -6.5t9.5 -24.5q0 -17 -18.5 -33.5t-41.5 -16.5z" />
    <glyph glyph-name="Eth" unicode="&#xd0;" horiz-adv-x="676" 
d="M182 -87q-34 0 -64 9t-52 39q14 69 37 154t48 165q-27 -1 -57.5 -4t-64.5 -8q14 30 50.5 42.5t86.5 15.5q22 70 42 128.5t29 82.5q3 8 10 24t18 32.5t25 28t30 11.5t34 -12q-28 -64 -56 -139.5t-53 -153.5q52 0 101 -4t75 -6q-33 -23 -64.5 -30t-54.5 -7h-72
q-28 -89 -51 -173.5t-39 -155.5q12 -2 21 -3t19 -1q64 0 124 28.5t111.5 78.5t90.5 114t60.5 136.5t21.5 144.5q0 120 -58.5 177t-152.5 57q-65 0 -116.5 -24.5t-81.5 -66.5t-30 -94q0 -12 2 -23t6 -22q-40 0 -56.5 18t-16.5 44q0 35 25 70.5t70 66t103.5 49t125.5 18.5
q96 0 154 -38t84 -102t26 -141q0 -87 -27.5 -165.5t-75.5 -144t-110.5 -114t-133.5 -75.5t-143 -27z" />
    <glyph glyph-name="Ntilde" unicode="&#xd1;" horiz-adv-x="662" 
d="M53 -87q14 49 32.5 108.5t43.5 140.5t58.5 192t77.5 263l4 16t3 24q0 8 -3 12.5t-11 4.5q-22 0 -42 -17.5t-35.5 -44t-24.5 -55t-9 -51.5q0 -22 8 -43q-40 0 -56.5 18t-16.5 45q0 34 21 68t53 62.5t67 46t64 17.5q33 0 54.5 -25.5t35 -69.5t23 -100t17.5 -118
q10 -69 17 -117.5t12 -82t9 -58.5t8 -49q10 47 23 102.5t27 114t28.5 114t28.5 103.5t26 83t21 52q8 15 27 33.5t48 18.5q-17 -46 -38.5 -112.5t-43.5 -144t-42.5 -158t-37 -155.5t-26 -137t-9.5 -101q-35 0 -57 17.5t-33 66.5q-4 20 -12 62t-17.5 97t-19.5 115t-19.5 118
t-17.5 104.5t-13 73.5q-46 -167 -78.5 -283t-56.5 -188.5t-42.5 -112.5t-36.5 -55t-39 -15zM580 757q-28 0 -57.5 12t-59 23.5t-57.5 11.5q-15 0 -30 -2.5t-31 -10.5q15 29 37.5 42.5t51.5 13.5q28 0 57.5 -12t60 -24t61.5 -12q25 0 50 9q-15 -26 -35 -38.5t-48 -12.5z" />
    <glyph glyph-name="Ograve" unicode="&#xd2;" horiz-adv-x="644" 
d="M232 -87q-58 0 -104 30.5t-73 86.5t-27 133t24.5 155.5t66.5 150.5t97 128.5t116.5 89t125.5 32.5q13 0 31 -3.5t34 -19.5q-6 1 -11.5 1.5t-11.5 0.5q-52 0 -105 -33.5t-101 -89.5t-85.5 -126.5t-59.5 -146.5t-22 -148q0 -52 13.5 -97.5t44.5 -73t80 -27.5q56 0 104 33.5
t87.5 90.5t67.5 126.5t43 144t15 141.5q0 29 -4 62t-13.5 56.5t-27.5 23.5q-17 0 -37.5 -21.5t-39.5 -55t-33.5 -70t-20.5 -65.5q-31 7 -44.5 21.5t-13.5 33.5q0 27 19 60t48.5 63.5t62 50.5t60.5 20q29 0 46.5 -21t27.5 -53.5t14 -69t4 -68.5q0 -104 -25 -190.5t-67 -152.5
t-94 -111.5t-107 -68.5t-105 -23zM532 748q-22 28 -49 54.5t-66 57.5q2 19 10.5 27.5t18.5 8.5q15 0 33.5 -14t35.5 -34.5t27.5 -39t10.5 -27.5q0 -6 -5 -17t-16 -16z" />
    <glyph glyph-name="Oacute" unicode="&#xd3;" horiz-adv-x="644" 
d="M232 -87q-58 0 -104 30.5t-73 86.5t-27 133t24.5 155.5t66.5 150.5t97 128.5t116.5 89t125.5 32.5q13 0 31 -3.5t34 -19.5q-6 1 -11.5 1.5t-11.5 0.5q-52 0 -105 -33.5t-101 -89.5t-85.5 -126.5t-59.5 -146.5t-22 -148q0 -52 13.5 -97.5t44.5 -73t80 -27.5q56 0 104 33.5
t87.5 90.5t67.5 126.5t43 144t15 141.5q0 29 -4 62t-13.5 56.5t-27.5 23.5q-17 0 -37.5 -21.5t-39.5 -55t-33.5 -70t-20.5 -65.5q-31 7 -44.5 21.5t-13.5 33.5q0 27 19 60t48.5 63.5t62 50.5t60.5 20q29 0 46.5 -21t27.5 -53.5t14 -69t4 -68.5q0 -104 -25 -190.5t-67 -152.5
t-94 -111.5t-107 -68.5t-105 -23zM539 748q-11 5 -16 15.5t-5 15.5q0 8 10 27t26 39.5t34 35.5t33 15q10 0 18 -7.5t10 -26.5q-36 -33 -62.5 -59.5t-47.5 -54.5z" />
    <glyph glyph-name="Ocircumflex" unicode="&#xd4;" horiz-adv-x="644" 
d="M232 -87q-58 0 -104 30.5t-73 86.5t-27 133t24.5 155.5t66.5 150.5t97 128.5t116.5 89t125.5 32.5q13 0 31 -3.5t34 -19.5q-6 1 -11.5 1.5t-11.5 0.5q-52 0 -105 -33.5t-101 -89.5t-85.5 -126.5t-59.5 -146.5t-22 -148q0 -52 13.5 -97.5t44.5 -73t80 -27.5q56 0 104 33.5
t87.5 90.5t67.5 126.5t43 144t15 141.5q0 29 -4 62t-13.5 56.5t-27.5 23.5q-17 0 -37.5 -21.5t-39.5 -55t-33.5 -70t-20.5 -65.5q-31 7 -44.5 21.5t-13.5 33.5q0 27 19 60t48.5 63.5t62 50.5t60.5 20q29 0 46.5 -21t27.5 -53.5t14 -69t4 -68.5q0 -104 -25 -190.5t-67 -152.5
t-94 -111.5t-107 -68.5t-105 -23zM628 744q-15 28 -32.5 47t-39.5 39q-29 -10 -53.5 -23t-49.5 -31q-6 5 -9 13t-3 12q0 15 13.5 30t33.5 28t39 21t30 8q12 0 28 -10.5t31 -27.5t24.5 -35.5t9.5 -34.5q0 -10 -4.5 -20t-17.5 -16z" />
    <glyph glyph-name="Otilde" unicode="&#xd5;" horiz-adv-x="644" 
d="M232 -87q-58 0 -104 30.5t-73 86.5t-27 133t24.5 155.5t66.5 150.5t97 128.5t116.5 89t125.5 32.5q13 0 31 -3.5t34 -19.5q-6 1 -11.5 1.5t-11.5 0.5q-52 0 -105 -33.5t-101 -89.5t-85.5 -126.5t-59.5 -146.5t-22 -148q0 -52 13.5 -97.5t44.5 -73t80 -27.5q56 0 104 33.5
t87.5 90.5t67.5 126.5t43 144t15 141.5q0 29 -4 62t-13.5 56.5t-27.5 23.5q-17 0 -37.5 -21.5t-39.5 -55t-33.5 -70t-20.5 -65.5q-31 7 -44.5 21.5t-13.5 33.5q0 27 19 60t48.5 63.5t62 50.5t60.5 20q29 0 46.5 -21t27.5 -53.5t14 -69t4 -68.5q0 -104 -25 -190.5t-67 -152.5
t-94 -111.5t-107 -68.5t-105 -23zM615 757q-28 0 -57.5 12t-59 23.5t-57.5 11.5q-15 0 -30 -2.5t-31 -10.5q15 29 37.5 42.5t51.5 13.5q28 0 57.5 -12t60 -24t61.5 -12q25 0 50 9q-15 -26 -35 -38.5t-48 -12.5z" />
    <glyph glyph-name="Odieresis" unicode="&#xd6;" horiz-adv-x="644" 
d="M232 -87q-58 0 -104 30.5t-73 86.5t-27 133t24.5 155.5t66.5 150.5t97 128.5t116.5 89t125.5 32.5q13 0 31 -3.5t34 -19.5q-6 1 -11.5 1.5t-11.5 0.5q-52 0 -105 -33.5t-101 -89.5t-85.5 -126.5t-59.5 -146.5t-22 -148q0 -52 13.5 -97.5t44.5 -73t80 -27.5q56 0 104 33.5
t87.5 90.5t67.5 126.5t43 144t15 141.5q0 29 -4 62t-13.5 56.5t-27.5 23.5q-17 0 -37.5 -21.5t-39.5 -55t-33.5 -70t-20.5 -65.5q-31 7 -44.5 21.5t-13.5 33.5q0 27 19 60t48.5 63.5t62 50.5t60.5 20q29 0 46.5 -21t27.5 -53.5t14 -69t4 -68.5q0 -104 -25 -190.5t-67 -152.5
t-94 -111.5t-107 -68.5t-105 -23zM611 753q-16 0 -28 8t-12 25q0 19 22 33t44 14q15 0 25 -6.5t10 -24.5q0 -17 -19 -33t-42 -16zM467 773q-16 0 -28.5 8t-12.5 25q0 19 22 33.5t45 14.5q15 0 24.5 -6.5t9.5 -24.5q0 -17 -18.5 -33.5t-41.5 -16.5z" />
    <glyph glyph-name="multiply" unicode="&#xd7;" horiz-adv-x="395" 
d="M311 20q-20 15 -59.5 47.5t-82.5 72.5q-20 -19 -37 -37t-33.5 -37t-35.5 -45q-8 13 -8 24q0 26 23 58.5t57 69.5q-30 32 -49 60t-19 51q0 5 1 10.5t6 14.5q24 -32 45.5 -55t47.5 -50q38 36 75 67t56 45q-6 -41 -23.5 -67.5t-35.5 -43.5l-36 -33l51 -48q14 -14 31.5 -40.5
t25.5 -63.5z" />
    <glyph glyph-name="Oslash" unicode="&#xd8;" horiz-adv-x="643" 
d="M62 -101q-7 0 -14.5 1t-16.5 3q18 11 35 26.5t34 34.5q-34 32 -53.5 82.5t-19.5 117.5q0 77 24.5 155t67 150t96.5 128t115 88.5t121 32.5q19 0 35 -4t27 -17h-13q-52 0 -105 -33t-101.5 -89.5t-86 -127t-59.5 -146.5t-22 -147q0 -36 6.5 -70.5t20.5 -60.5
q40 49 84.5 109t91 125t90 129t81 120t65.5 99q-5 13 -12 21t-16 8q-18 0 -38.5 -22.5t-39.5 -56t-34 -69.5t-21 -64q-30 7 -43.5 21.5t-13.5 33.5q0 27 19.5 59.5t49 63t61.5 50.5t58 20q17 0 31 -8t23 -21q9 11 33.5 20.5t47.5 9.5q5 0 9.5 -0.5t14.5 -1.5
q-9 -12 -27 -38.5t-47 -69.5q6 -24 8 -49.5t2 -48.5q0 -106 -25.5 -193t-67.5 -153.5t-94 -112t-106.5 -69t-103.5 -23.5q-24 0 -44.5 5t-40.5 14q-23 -16 -45.5 -24t-40.5 -8zM263 -44q56 0 105 34t88.5 91t67.5 128.5t43 148t15 147.5q-33 -47 -71 -101.5t-77 -110
t-73.5 -104.5t-61 -87t-39.5 -56q-15 -21 -30.5 -40t-31.5 -33q14 -8 29.5 -12.5t35.5 -4.5z" />
    <glyph glyph-name="Ugrave" unicode="&#xd9;" horiz-adv-x="735" 
d="M572 -99q-37 0 -62 32.5t-25 77.5q0 10 1 27t3 38q-36 -72 -88.5 -118t-125.5 -46q-66 0 -101.5 40t-35.5 107q0 42 12 94.5t30.5 109.5t36.5 115t30 113t12 102q0 90 -54 90q-27 0 -46.5 -17.5t-32 -43.5t-19 -53t-6.5 -47q0 -15 3.5 -31t7.5 -28q-44 0 -63 21.5
t-19 52.5t15 63t42.5 59t63.5 43.5t78 16.5q58 0 84.5 -34t26.5 -92q0 -37 -9 -82t-23 -93t-29 -94q-24 -79 -41 -141.5t-17 -110.5q0 -46 19 -78t64 -32q41 0 75 25.5t60 66.5t44 87t27 85q14 59 31 126.5t35.5 132.5t37.5 118t37 84.5t36 31.5q9 0 25.5 -9.5t33.5 -26.5
q-9 -7 -26 -42.5t-38 -91t-42 -122.5t-39 -137t-29 -134t-11 -113q0 -64 20.5 -85.5t69.5 -21.5q-14 -17 -37 -26t-42 -9zM501 748q-22 28 -49 54.5t-66 57.5q2 19 10.5 27.5t18.5 8.5q15 0 33.5 -14t35.5 -34.5t27.5 -39t10.5 -27.5q0 -6 -5 -17t-16 -16z" />
    <glyph glyph-name="Uacute" unicode="&#xda;" horiz-adv-x="735" 
d="M572 -99q-37 0 -62 32.5t-25 77.5q0 10 1 27t3 38q-36 -72 -88.5 -118t-125.5 -46q-66 0 -101.5 40t-35.5 107q0 42 12 94.5t30.5 109.5t36.5 115t30 113t12 102q0 90 -54 90q-27 0 -46.5 -17.5t-32 -43.5t-19 -53t-6.5 -47q0 -15 3.5 -31t7.5 -28q-44 0 -63 21.5
t-19 52.5t15 63t42.5 59t63.5 43.5t78 16.5q58 0 84.5 -34t26.5 -92q0 -37 -9 -82t-23 -93t-29 -94q-24 -79 -41 -141.5t-17 -110.5q0 -46 19 -78t64 -32q41 0 75 25.5t60 66.5t44 87t27 85q14 59 31 126.5t35.5 132.5t37.5 118t37 84.5t36 31.5q9 0 25.5 -9.5t33.5 -26.5
q-9 -7 -26 -42.5t-38 -91t-42 -122.5t-39 -137t-29 -134t-11 -113q0 -64 20.5 -85.5t69.5 -21.5q-14 -17 -37 -26t-42 -9zM508 748q-11 5 -16 15.5t-5 15.5q0 8 10 27t26 39.5t34 35.5t33 15q10 0 18 -7.5t10 -26.5q-36 -33 -62.5 -59.5t-47.5 -54.5z" />
    <glyph glyph-name="Ucircumflex" unicode="&#xdb;" horiz-adv-x="735" 
d="M572 -99q-37 0 -62 32.5t-25 77.5q0 10 1 27t3 38q-36 -72 -88.5 -118t-125.5 -46q-66 0 -101.5 40t-35.5 107q0 42 12 94.5t30.5 109.5t36.5 115t30 113t12 102q0 90 -54 90q-27 0 -46.5 -17.5t-32 -43.5t-19 -53t-6.5 -47q0 -15 3.5 -31t7.5 -28q-44 0 -63 21.5
t-19 52.5t15 63t42.5 59t63.5 43.5t78 16.5q58 0 84.5 -34t26.5 -92q0 -37 -9 -82t-23 -93t-29 -94q-24 -79 -41 -141.5t-17 -110.5q0 -46 19 -78t64 -32q41 0 75 25.5t60 66.5t44 87t27 85q14 59 31 126.5t35.5 132.5t37.5 118t37 84.5t36 31.5q9 0 25.5 -9.5t33.5 -26.5
q-9 -7 -26 -42.5t-38 -91t-42 -122.5t-39 -137t-29 -134t-11 -113q0 -64 20.5 -85.5t69.5 -21.5q-14 -17 -37 -26t-42 -9zM597 744q-15 28 -32.5 47t-39.5 39q-29 -10 -53.5 -23t-49.5 -31q-6 5 -9 13t-3 12q0 15 13.5 30t33.5 28t39 21t30 8q12 0 28 -10.5t31 -27.5
t24.5 -35.5t9.5 -34.5q0 -10 -4.5 -20t-17.5 -16z" />
    <glyph glyph-name="Udieresis" unicode="&#xdc;" horiz-adv-x="735" 
d="M572 -99q-37 0 -62 32.5t-25 77.5q0 10 1 27t3 38q-36 -72 -88.5 -118t-125.5 -46q-66 0 -101.5 40t-35.5 107q0 42 12 94.5t30.5 109.5t36.5 115t30 113t12 102q0 90 -54 90q-27 0 -46.5 -17.5t-32 -43.5t-19 -53t-6.5 -47q0 -15 3.5 -31t7.5 -28q-44 0 -63 21.5
t-19 52.5t15 63t42.5 59t63.5 43.5t78 16.5q58 0 84.5 -34t26.5 -92q0 -37 -9 -82t-23 -93t-29 -94q-24 -79 -41 -141.5t-17 -110.5q0 -46 19 -78t64 -32q41 0 75 25.5t60 66.5t44 87t27 85q14 59 31 126.5t35.5 132.5t37.5 118t37 84.5t36 31.5q9 0 25.5 -9.5t33.5 -26.5
q-9 -7 -26 -42.5t-38 -91t-42 -122.5t-39 -137t-29 -134t-11 -113q0 -64 20.5 -85.5t69.5 -21.5q-14 -17 -37 -26t-42 -9zM580 753q-16 0 -28 8t-12 25q0 19 22 33t44 14q15 0 25 -6.5t10 -24.5q0 -17 -19 -33t-42 -16zM436 773q-16 0 -28.5 8t-12.5 25q0 19 22 33.5
t45 14.5q15 0 24.5 -6.5t9.5 -24.5q0 -17 -18.5 -33.5t-41.5 -16.5z" />
    <glyph glyph-name="Yacute" unicode="&#xdd;" horiz-adv-x="692" 
d="M275 -187q-59 0 -100.5 25t-41.5 72q0 30 18 53t53 32q-5 -23 -7.5 -37t-2.5 -27q0 -40 22 -63t68 -23q36 0 64 14t49.5 39t37 55.5t27 64t18.5 64.5q13 54 22.5 113t22.5 105q-40 -67 -91.5 -110t-120.5 -43q-64 0 -91 36t-27 89q0 38 10 82t23 90t22.5 88.5t9.5 76.5
q0 30 -11.5 52t-43.5 22q-27 0 -46.5 -16.5t-32.5 -42t-19.5 -54t-6.5 -54.5q0 -15 2.5 -26.5t8.5 -26.5q-45 0 -63.5 21.5t-18.5 52.5q0 30 15 62.5t42 59.5t63.5 44t77.5 17q40 0 64.5 -15t36.5 -39.5t12 -52.5q0 -24 -8.5 -58.5t-21.5 -83.5q-14 -49 -24.5 -94.5
t-10.5 -85.5q0 -42 16 -68.5t54 -26.5q35 0 65.5 20.5t57.5 55t49 78t38 89.5q13 44 27 92.5t29.5 91.5t32.5 70t35 27q11 0 29.5 -9.5t34.5 -26.5q-21 -33 -36.5 -63t-29 -65t-27.5 -82.5t-31 -115.5t-41 -165q-13 -51 -29 -105t-38.5 -103t-54.5 -88t-76.5 -61.5
t-104.5 -22.5zM497 748q-11 5 -16 15.5t-5 15.5q0 8 10 27t26 39.5t34 35.5t33 15q10 0 18 -7.5t10 -26.5q-36 -33 -62.5 -59.5t-47.5 -54.5z" />
    <glyph glyph-name="Thorn" unicode="&#xde;" horiz-adv-x="531" 
d="M122 -87q-29 0 -54 15.5t-25 39.5q0 11 4.5 26.5t8.5 28.5q41 128 85.5 259t97.5 264q-40 -6 -70.5 -19.5t-49.5 -24.5t-26 -11q-4 0 -13.5 6t-16.5 14.5t-7 14.5q36 14 88 31.5t109 22.5q8 18 16 41t19 45t24.5 36t32.5 14q6 0 13.5 -2.5t16.5 -12.5
q-13 -26 -26.5 -56.5t-26.5 -64.5q43 -5 84.5 -19t76 -38t55 -59t20.5 -81q0 -56 -28 -95.5t-72.5 -65t-95 -40t-97 -21.5t-77.5 -8q-19 -64 -34.5 -125.5t-31.5 -114.5zM196 182q53 7 103.5 23.5t91.5 43.5t65.5 65.5t24.5 88.5t-24.5 82t-63.5 47.5t-83 17.5
q-31 -84 -59 -178t-55 -190z" />
    <glyph glyph-name="germandbls" unicode="&#xdf;" horiz-adv-x="456" 
d="M-43 -115q13 17 23.5 61.5t20.5 107.5t21.5 136.5t26.5 148.5t36 144t49.5 123.5t67 86t89.5 31.5q48 0 81 -30t33 -85q0 -52 -27 -96.5t-66 -79t-78 -59.5q47 -15 80 -49t50.5 -78.5t17.5 -90.5q0 -42 -14 -84.5t-39 -77.5t-57.5 -56.5t-70.5 -21.5q-33 0 -52.5 20
t-27 51t-7.5 63t7 60t21.5 45.5t36.5 17.5q4 0 10.5 -0.5t20.5 -3.5q-13 -6 -23.5 -28.5t-16.5 -53.5t-6 -63q0 -31 7 -54.5t24 -23.5t36 19t36 51t27.5 70.5t10.5 76.5q0 54 -22 103t-60 79q-7 6 -14.5 14t-7.5 17t7.5 18t18.5 18q26 23 52 51.5t44 64.5t18 81
q0 19 -4.5 37t-17 30t-36.5 12q-38 0 -65 -32t-46.5 -86t-33.5 -122t-26.5 -141.5t-26 -144t-30 -129.5t-40.5 -98.5t-58 -49.5z" />
    <glyph glyph-name="agrave" unicode="&#xe0;" horiz-adv-x="441" 
d="M53 -47q-32 0 -55.5 21.5t-23.5 64.5q0 36 16 77t44 81t64 73t76.5 53t80.5 20q42 0 70.5 -21.5t28.5 -56.5q0 -27 -17 -38t-42 -7q2 8 3.5 17.5t1.5 18.5q0 21 -9 37t-35 16q-28 0 -57 -19t-56 -50t-48 -68t-33 -73t-12 -64q0 -34 25 -34q23 0 50.5 22t56 56t54.5 69.5
t45 62.5q4 5 7 5q5 -1 16 -4.5t20 -9.5t9 -16t-9 -25.5t-20 -34.5t-20 -38t-9 -37q0 -13 7.5 -25.5t24.5 -12.5q25 0 68.5 36.5t88.5 119.5l16 -16q-23 -54 -56.5 -95t-70.5 -64.5t-74 -23.5q-40 0 -59 24.5t-21 53.5q0 3 0.5 6.5t0.5 6.5q-41 -51 -75 -79.5t-72 -28.5z
M329 409q-22 28 -49 54.5t-66 57.5q2 19 10.5 27.5t18.5 8.5q15 0 33.5 -14t35.5 -34.5t27.5 -39t10.5 -27.5q0 -6 -5 -17t-16 -16z" />
    <glyph glyph-name="aacute" unicode="&#xe1;" horiz-adv-x="441" 
d="M53 -47q-32 0 -55.5 21.5t-23.5 64.5q0 36 16 77t44 81t64 73t76.5 53t80.5 20q42 0 70.5 -21.5t28.5 -56.5q0 -27 -17 -38t-42 -7q2 8 3.5 17.5t1.5 18.5q0 21 -9 37t-35 16q-28 0 -57 -19t-56 -50t-48 -68t-33 -73t-12 -64q0 -34 25 -34q23 0 50.5 22t56 56t54.5 69.5
t45 62.5q4 5 7 5q5 -1 16 -4.5t20 -9.5t9 -16t-9 -25.5t-20 -34.5t-20 -38t-9 -37q0 -13 7.5 -25.5t24.5 -12.5q25 0 68.5 36.5t88.5 119.5l16 -16q-23 -54 -56.5 -95t-70.5 -64.5t-74 -23.5q-40 0 -59 24.5t-21 53.5q0 3 0.5 6.5t0.5 6.5q-41 -51 -75 -79.5t-72 -28.5z
M302 410q-11 5 -16 15.5t-5 15.5q0 8 10 27t26 39.5t34 35.5t33 15q10 0 18 -7.5t10 -26.5q-36 -33 -62.5 -59.5t-47.5 -54.5z" />
    <glyph glyph-name="acircumflex" unicode="&#xe2;" horiz-adv-x="441" 
d="M53 -47q-32 0 -55.5 21.5t-23.5 64.5q0 36 16 77t44 81t64 73t76.5 53t80.5 20q42 0 70.5 -21.5t28.5 -56.5q0 -27 -17 -38t-42 -7q2 8 3.5 17.5t1.5 18.5q0 21 -9 37t-35 16q-28 0 -57 -19t-56 -50t-48 -68t-33 -73t-12 -64q0 -34 25 -34q23 0 50.5 22t56 56t54.5 69.5
t45 62.5q4 5 7 5q5 -1 16 -4.5t20 -9.5t9 -16t-9 -25.5t-20 -34.5t-20 -38t-9 -37q0 -13 7.5 -25.5t24.5 -12.5q25 0 68.5 36.5t88.5 119.5l16 -16q-23 -54 -56.5 -95t-70.5 -64.5t-74 -23.5q-40 0 -59 24.5t-21 53.5q0 3 0.5 6.5t0.5 6.5q-41 -51 -75 -79.5t-72 -28.5z
M393 402q-15 28 -32.5 47t-39.5 39q-29 -10 -53.5 -23t-49.5 -31q-6 5 -9 13t-3 12q0 15 13.5 30t33.5 28t39 21t30 8q12 0 28 -10.5t31 -27.5t24.5 -35.5t9.5 -34.5q0 -10 -4.5 -20t-17.5 -16z" />
    <glyph glyph-name="atilde" unicode="&#xe3;" horiz-adv-x="441" 
d="M53 -47q-32 0 -55.5 21.5t-23.5 64.5q0 36 16 77t44 81t64 73t76.5 53t80.5 20q42 0 70.5 -21.5t28.5 -56.5q0 -27 -17 -38t-42 -7q2 8 3.5 17.5t1.5 18.5q0 21 -9 37t-35 16q-28 0 -57 -19t-56 -50t-48 -68t-33 -73t-12 -64q0 -34 25 -34q23 0 50.5 22t56 56t54.5 69.5
t45 62.5q4 5 7 5q5 -1 16 -4.5t20 -9.5t9 -16t-9 -25.5t-20 -34.5t-20 -38t-9 -37q0 -13 7.5 -25.5t24.5 -12.5q25 0 68.5 36.5t88.5 119.5l16 -16q-23 -54 -56.5 -95t-70.5 -64.5t-74 -23.5q-40 0 -59 24.5t-21 53.5q0 3 0.5 6.5t0.5 6.5q-41 -51 -75 -79.5t-72 -28.5z
M398 399q-28 0 -57.5 12t-59 23.5t-57.5 11.5q-15 0 -30 -2.5t-31 -10.5q15 29 37.5 42.5t51.5 13.5q28 0 57.5 -12t60 -24t61.5 -12q25 0 50 9q-15 -26 -35 -38.5t-48 -12.5z" />
    <glyph glyph-name="adieresis" unicode="&#xe4;" horiz-adv-x="441" 
d="M53 -47q-32 0 -55.5 21.5t-23.5 64.5q0 36 16 77t44 81t64 73t76.5 53t80.5 20q42 0 70.5 -21.5t28.5 -56.5q0 -27 -17 -38t-42 -7q2 8 3.5 17.5t1.5 18.5q0 21 -9 37t-35 16q-28 0 -57 -19t-56 -50t-48 -68t-33 -73t-12 -64q0 -34 25 -34q23 0 50.5 22t56 56t54.5 69.5
t45 62.5q4 5 7 5q5 -1 16 -4.5t20 -9.5t9 -16t-9 -25.5t-20 -34.5t-20 -38t-9 -37q0 -13 7.5 -25.5t24.5 -12.5q25 0 68.5 36.5t88.5 119.5l16 -16q-23 -54 -56.5 -95t-70.5 -64.5t-74 -23.5q-40 0 -59 24.5t-21 53.5q0 3 0.5 6.5t0.5 6.5q-41 -51 -75 -79.5t-72 -28.5z
M372 416q-16 0 -28 8t-12 25q0 19 22 33t44 14q15 0 25 -6.5t10 -24.5q0 -17 -19 -33t-42 -16zM228 436q-16 0 -28.5 8t-12.5 25q0 19 22 33.5t45 14.5q15 0 24.5 -6.5t9.5 -24.5q0 -17 -18.5 -33.5t-41.5 -16.5z" />
    <glyph glyph-name="aring" unicode="&#xe5;" horiz-adv-x="441" 
d="M53 -47q-32 0 -55.5 21.5t-23.5 64.5q0 36 16 77t44 81t64 73t76.5 53t80.5 20q42 0 70.5 -21.5t28.5 -56.5q0 -27 -17 -38t-42 -7q2 8 3.5 17.5t1.5 18.5q0 21 -9 37t-35 16q-28 0 -57 -19t-56 -50t-48 -68t-33 -73t-12 -64q0 -34 25 -34q23 0 50.5 22t56 56t54.5 69.5
t45 62.5q4 5 7 5q5 -1 16 -4.5t20 -9.5t9 -16t-9 -25.5t-20 -34.5t-20 -38t-9 -37q0 -13 7.5 -25.5t24.5 -12.5q25 0 68.5 36.5t88.5 119.5l16 -16q-23 -54 -56.5 -95t-70.5 -64.5t-74 -23.5q-40 0 -59 24.5t-21 53.5q0 3 0.5 6.5t0.5 6.5q-41 -51 -75 -79.5t-72 -28.5z
M313 398q-39 0 -57.5 16.5t-18.5 39.5q0 24 16.5 49.5t44 43t63.5 17.5q43 0 61.5 -16.5t18.5 -39.5t-17.5 -49t-46 -43.5t-64.5 -17.5zM322 428q18 0 34.5 12t27 29t10.5 32q0 12 -8.5 21t-29.5 9q-18 0 -34.5 -11t-26.5 -27.5t-10 -32.5q1 -10 9.5 -21t27.5 -11z" />
    <glyph glyph-name="ae" unicode="&#xe6;" horiz-adv-x="552" 
d="M55 -47q-33 0 -57 21.5t-24 64.5q0 36 16 77t44 81t64 73.5t76.5 53.5t81.5 20q28 0 46 -10.5t26 -28.5q31 24 65 39.5t67 15.5q25 0 46.5 -12.5t21.5 -51.5q0 -38 -22.5 -71.5t-59 -59.5t-81 -42.5t-88.5 -20.5l-2 -16t-1 -15q2 -28 17.5 -52.5t60.5 -24.5q43 0 85 24
t78 63.5t61 87.5l16 -14q-27 -61 -69 -105.5t-91.5 -69t-100.5 -24.5q-58 0 -90.5 30t-38.5 73q-41 -51 -76 -78.5t-71 -27.5zM77 3q26 0 60 30t65 70q7 44 33 90.5t63 83.5q-4 13 -14.5 21.5t-29.5 8.5q-28 0 -56.5 -18.5t-54.5 -49.5t-46.5 -67t-32 -71.5t-11.5 -63.5
q0 -34 24 -34zM285 133q27 9 60 26t62.5 39.5t48.5 48.5t19 56q0 8 -3.5 12.5t-14.5 4.5q-22 0 -48 -16.5t-50 -44t-43.5 -60.5t-30.5 -66z" />
    <glyph glyph-name="ccedilla" unicode="&#xe7;" horiz-adv-x="330" 
d="M111 -56q-51 0 -84 32.5t-33 98.5q0 49 19.5 96t51.5 85t71 60t79 22q42 0 59.5 -22t17.5 -49q0 -29 -13.5 -54t-36.5 -25q-19 0 -31 18q12 7 23 28t11 48q0 10 -4 15t-16 5q-26 0 -53.5 -23t-51.5 -59.5t-39 -76.5t-15 -75q0 -29 15 -53t57 -24q39 0 79.5 22t76.5 62
t57 95l18 -16q-24 -60 -65.5 -107.5t-92 -75t-100.5 -27.5zM188 -226q-29 0 -46.5 13t-17.5 27q0 8 7 18.5t22 20.5q7 -24 18 -34.5t22 -10.5q18 0 36.5 14.5t32 34.5t13.5 36q0 8 -4 13.5t-12 5.5q-13 0 -29 -9.5t-30 -19.5t-22 -10q-9 0 -14 8.5t-5 14.5q0 2 9 14.5
t22 30.5t26.5 34.5t23.5 24.5h15l-49 -77q9 5 24.5 10.5t33.5 5.5q23 0 37 -12t14 -35q0 -28 -17.5 -55t-46.5 -45t-63 -18z" />
    <glyph glyph-name="egrave" unicode="&#xe8;" horiz-adv-x="338" 
d="M113 -44q-63 0 -96 34t-33 85q0 45 22.5 94.5t60.5 93t83.5 71t90.5 27.5q25 0 47.5 -13t22.5 -52q0 -38 -22.5 -71.5t-59 -59.5t-81 -42.5t-88.5 -20.5l-2 -12t-1 -16q0 -8 2.5 -21.5t10 -27t23.5 -22.5t42 -9q42 0 84.5 24t79.5 63.5t62 87.5l17 -14
q-27 -60 -69 -104.5t-92.5 -69.5t-103.5 -25zM69 133q26 5 59 20.5t63 39t49.5 51.5t19.5 57q0 11 -4 16t-14 5q-24 0 -49.5 -17.5t-50 -45t-43.5 -61t-30 -65.5zM306 418q-22 28 -49 54.5t-66 57.5q2 19 10.5 27.5t18.5 8.5q15 0 33.5 -14t35.5 -34.5t27.5 -39t10.5 -27.5
q0 -6 -5 -17t-16 -16z" />
    <glyph glyph-name="eacute" unicode="&#xe9;" horiz-adv-x="338" 
d="M113 -44q-63 0 -96 34t-33 85q0 45 22.5 94.5t60.5 93t83.5 71t90.5 27.5q25 0 47.5 -13t22.5 -52q0 -38 -22.5 -71.5t-59 -59.5t-81 -42.5t-88.5 -20.5l-2 -12t-1 -16q0 -8 2.5 -21.5t10 -27t23.5 -22.5t42 -9q42 0 84.5 24t79.5 63.5t62 87.5l17 -14
q-27 -60 -69 -104.5t-92.5 -69.5t-103.5 -25zM69 133q26 5 59 20.5t63 39t49.5 51.5t19.5 57q0 11 -4 16t-14 5q-24 0 -49.5 -17.5t-50 -45t-43.5 -61t-30 -65.5zM280 419q-11 5 -16 15.5t-5 15.5q0 8 10 27t26 39.5t34 35.5t33 15q10 0 18 -7.5t10 -26.5
q-36 -33 -62.5 -59.5t-47.5 -54.5z" />
    <glyph glyph-name="ecircumflex" unicode="&#xea;" horiz-adv-x="338" 
d="M113 -44q-63 0 -96 34t-33 85q0 45 22.5 94.5t60.5 93t83.5 71t90.5 27.5q25 0 47.5 -13t22.5 -52q0 -38 -22.5 -71.5t-59 -59.5t-81 -42.5t-88.5 -20.5l-2 -12t-1 -16q0 -8 2.5 -21.5t10 -27t23.5 -22.5t42 -9q42 0 84.5 24t79.5 63.5t62 87.5l17 -14
q-27 -60 -69 -104.5t-92.5 -69.5t-103.5 -25zM69 133q26 5 59 20.5t63 39t49.5 51.5t19.5 57q0 11 -4 16t-14 5q-24 0 -49.5 -17.5t-50 -45t-43.5 -61t-30 -65.5zM371 411q-15 28 -32.5 47t-39.5 39q-29 -10 -53.5 -23t-49.5 -31q-6 5 -9 13t-3 12q0 15 13.5 30t33.5 28
t39 21t30 8q12 0 28 -10.5t31 -27.5t24.5 -35.5t9.5 -34.5q0 -10 -4.5 -20t-17.5 -16z" />
    <glyph glyph-name="edieresis" unicode="&#xeb;" horiz-adv-x="338" 
d="M113 -44q-63 0 -96 34t-33 85q0 45 22.5 94.5t60.5 93t83.5 71t90.5 27.5q25 0 47.5 -13t22.5 -52q0 -38 -22.5 -71.5t-59 -59.5t-81 -42.5t-88.5 -20.5l-2 -12t-1 -16q0 -8 2.5 -21.5t10 -27t23.5 -22.5t42 -9q42 0 84.5 24t79.5 63.5t62 87.5l17 -14
q-27 -60 -69 -104.5t-92.5 -69.5t-103.5 -25zM69 133q26 5 59 20.5t63 39t49.5 51.5t19.5 57q0 11 -4 16t-14 5q-24 0 -49.5 -17.5t-50 -45t-43.5 -61t-30 -65.5zM349 425q-16 0 -28 8t-12 25q0 19 22 33t44 14q15 0 25 -6.5t10 -24.5q0 -17 -19 -33t-42 -16zM205 445
q-16 0 -28.5 8t-12.5 25q0 19 22 33.5t45 14.5q15 0 24.5 -6.5t9.5 -24.5q0 -17 -18.5 -33.5t-41.5 -16.5z" />
    <glyph glyph-name="igrave" unicode="&#xec;" horiz-adv-x="243" 
d="M77 -29q-42 0 -63 25.5t-21 62.5q0 23 8 58t22.5 73.5t33.5 72.5t40.5 55.5t42.5 21.5q11 0 19.5 -7t8.5 -20t-15.5 -39t-36.5 -60.5t-36.5 -71.5t-15.5 -71q0 -33 12 -44t35 -11q34 0 73.5 34t82.5 119l13 -14q-33 -88 -87.5 -136t-115.5 -48zM204 414q-22 28 -49 54.5
t-66 57.5q2 19 10.5 27.5t18.5 8.5q15 0 33.5 -14t35.5 -34.5t27.5 -39t10.5 -27.5q0 -6 -5 -17t-16 -16z" />
    <glyph glyph-name="iacute" unicode="&#xed;" horiz-adv-x="233" 
d="M77 -29q-42 0 -63 25.5t-21 62.5q0 23 8 58t22.5 73.5t33.5 72.5t40.5 55.5t42.5 21.5q11 0 19.5 -7t8.5 -20t-15.5 -39t-36.5 -60.5t-36.5 -71.5t-15.5 -71q0 -33 12 -44t35 -11q34 0 73.5 34t82.5 119l13 -14q-33 -88 -87.5 -136t-115.5 -48zM188 410q-11 5 -16 15.5
t-5 15.5q0 8 10 27t26 39.5t34 35.5t33 15q10 0 18 -7.5t10 -26.5q-36 -33 -62.5 -59.5t-47.5 -54.5z" />
    <glyph glyph-name="icircumflex" unicode="&#xee;" horiz-adv-x="260" 
d="M77 -29q-42 0 -63 25.5t-21 62.5q0 23 8 58t22.5 73.5t33.5 72.5t40.5 55.5t42.5 21.5q11 0 19.5 -7t8.5 -20t-15.5 -39t-36.5 -60.5t-36.5 -71.5t-15.5 -71q0 -33 12 -44t35 -11q34 0 73.5 34t82.5 119l13 -14q-33 -88 -87.5 -136t-115.5 -48zM286 402q-15 28 -32.5 47
t-39.5 39q-29 -10 -53.5 -23t-49.5 -31q-6 5 -9 13t-3 12q0 15 13.5 30t33.5 28t39 21t30 8q12 0 28 -10.5t31 -27.5t24.5 -35.5t9.5 -34.5q0 -10 -4.5 -20t-17.5 -16z" />
    <glyph glyph-name="idieresis" unicode="&#xef;" horiz-adv-x="233" 
d="M77 -29q-42 0 -63 25.5t-21 62.5q0 23 8 58t22.5 73.5t33.5 72.5t40.5 55.5t42.5 21.5q11 0 19.5 -7t8.5 -20t-15.5 -39t-36.5 -60.5t-36.5 -71.5t-15.5 -71q0 -33 12 -44t35 -11q34 0 73.5 34t82.5 119l13 -14q-33 -88 -87.5 -136t-115.5 -48zM244 415q-16 0 -28 8
t-12 25q0 19 22 33t44 14q15 0 25 -6.5t10 -24.5q0 -17 -19 -33t-42 -16zM100 435q-16 0 -28.5 8t-12.5 25q0 19 22 33.5t45 14.5q15 0 24.5 -6.5t9.5 -24.5q0 -17 -18.5 -33.5t-41.5 -16.5z" />
    <glyph glyph-name="eth" unicode="&#xf0;" horiz-adv-x="483" 
d="M59 -30q-27 0 -52 21t-25 66q0 33 16 74t43.5 82.5t62.5 75.5t73.5 55t76.5 21q27 0 41.5 -10.5t14.5 -27.5q0 -5 -1.5 -10t-4.5 -12q-16 20 -46 20q-31 0 -60 -18.5t-54 -49t-43.5 -65.5t-29 -68t-10.5 -56q0 -20 8.5 -32t23.5 -12q22 0 50.5 21t59.5 58.5t60 85.5
t51 102q18 44 30.5 93.5t12.5 97.5q0 11 -1 20.5t-3 22.5q-14 -2 -38 -7t-46.5 -9.5t-36.5 -8.5q0 24 15.5 37t41 19.5t54.5 10.5q-11 34 -33 66t-59 62q19 24 47 24q32 0 56.5 -20.5t42.5 -53.5t28 -69q23 2 53.5 6t46.5 9q-13 -22 -25.5 -33t-28 -15.5t-38.5 -7.5
q2 -11 3 -21.5t1 -22.5q0 -49 -16.5 -106.5t-38 -116t-38 -112t-16.5 -94.5q0 -18 5 -28.5t20 -10.5q21 0 49 18.5t56.5 52t49.5 79.5l16 -11q-21 -55 -55 -97.5t-72 -66.5t-75 -24q-40 0 -55.5 26t-15.5 58q0 18 4 40.5t9 44.5q-31 -47 -67 -86.5t-71.5 -63t-66.5 -23.5z
" />
    <glyph glyph-name="ntilde" unicode="&#xf1;" horiz-adv-x="471" 
d="M332 -20q-37 0 -56.5 19t-19.5 48q0 21 7 43.5t14 46t7 45.5q0 24 -11 33t-26 9q-30 0 -61.5 -25t-61.5 -62.5t-56 -78.5t-45 -73q-18 0 -34 6t-27 21q1 5 11.5 30.5t23.5 62t23.5 75.5t10.5 72q7 7 21 15t29 8q32 0 32 -29q0 -13 -6 -41.5t-16 -62.5q26 37 58 71.5
t67 56.5t71 22q41 0 60.5 -28.5t19.5 -63.5q0 -30 -10 -56.5t-19.5 -50t-9.5 -46.5q0 -17 7.5 -24.5t18.5 -7.5q24 0 49.5 23.5t49 59t41.5 71.5l15 -13q-21 -49 -47 -89t-58 -63.5t-72 -23.5zM364 353q-28 0 -57.5 12t-59 23.5t-57.5 11.5q-15 0 -30 -2.5t-31 -10.5
q15 29 37.5 42.5t51.5 13.5q28 0 57.5 -12t60 -24t61.5 -12q25 0 50 9q-15 -26 -35 -38.5t-48 -12.5z" />
    <glyph glyph-name="ograve" unicode="&#xf2;" horiz-adv-x="370" 
d="M67 -32q-44 0 -61 28.5t-17 64.5q0 32 10 65t27 62t38 47t43 18q6 0 14.5 -2.5t12.5 -6.5q-11 -12 -23.5 -34t-23 -47.5t-17 -51t-6.5 -46.5q0 -23 8 -36t26 -13q20 0 47.5 21.5t52.5 52.5q-31 27 -45.5 62.5t-14.5 80.5q0 25 11 53t34 47t60 19q42 0 58.5 -23.5
t16.5 -56.5q0 -37 -19.5 -83.5t-46.5 -88.5q14 -8 31 -8q15 0 36 7t40.5 23.5t31.5 43.5l16 -12q-21 -49 -57.5 -71.5t-70.5 -22.5q-13 0 -26 2.5t-24 7.5q-34 -42 -76.5 -72t-85.5 -30zM221 120q25 35 41.5 75.5t16.5 74.5q0 25 -7.5 36.5t-20.5 11.5q-20 0 -40 -27.5
t-20 -69.5q0 -24 7.5 -53.5t22.5 -47.5zM306 423q-22 28 -49 54.5t-66 57.5q2 19 10.5 27.5t18.5 8.5q15 0 33.5 -14t35.5 -34.5t27.5 -39t10.5 -27.5q0 -6 -5 -17t-16 -16z" />
    <glyph glyph-name="oacute" unicode="&#xf3;" horiz-adv-x="370" 
d="M67 -32q-44 0 -61 28.5t-17 64.5q0 32 10 65t27 62t38 47t43 18q6 0 14.5 -2.5t12.5 -6.5q-11 -12 -23.5 -34t-23 -47.5t-17 -51t-6.5 -46.5q0 -23 8 -36t26 -13q20 0 47.5 21.5t52.5 52.5q-31 27 -45.5 62.5t-14.5 80.5q0 25 11 53t34 47t60 19q42 0 58.5 -23.5
t16.5 -56.5q0 -37 -19.5 -83.5t-46.5 -88.5q14 -8 31 -8q15 0 36 7t40.5 23.5t31.5 43.5l16 -12q-21 -49 -57.5 -71.5t-70.5 -22.5q-13 0 -26 2.5t-24 7.5q-34 -42 -76.5 -72t-85.5 -30zM221 120q25 35 41.5 75.5t16.5 74.5q0 25 -7.5 36.5t-20.5 11.5q-20 0 -40 -27.5
t-20 -69.5q0 -24 7.5 -53.5t22.5 -47.5zM279 424q-11 5 -16 15.5t-5 15.5q0 8 10 27t26 39.5t34 35.5t33 15q10 0 18 -7.5t10 -26.5q-36 -33 -62.5 -59.5t-47.5 -54.5z" />
    <glyph glyph-name="ocircumflex" unicode="&#xf4;" horiz-adv-x="370" 
d="M67 -32q-44 0 -61 28.5t-17 64.5q0 32 10 65t27 62t38 47t43 18q6 0 14.5 -2.5t12.5 -6.5q-11 -12 -23.5 -34t-23 -47.5t-17 -51t-6.5 -46.5q0 -23 8 -36t26 -13q20 0 47.5 21.5t52.5 52.5q-31 27 -45.5 62.5t-14.5 80.5q0 25 11 53t34 47t60 19q42 0 58.5 -23.5
t16.5 -56.5q0 -37 -19.5 -83.5t-46.5 -88.5q14 -8 31 -8q15 0 36 7t40.5 23.5t31.5 43.5l16 -12q-21 -49 -57.5 -71.5t-70.5 -22.5q-13 0 -26 2.5t-24 7.5q-34 -42 -76.5 -72t-85.5 -30zM221 120q25 35 41.5 75.5t16.5 74.5q0 25 -7.5 36.5t-20.5 11.5q-20 0 -40 -27.5
t-20 -69.5q0 -24 7.5 -53.5t22.5 -47.5zM370 416q-15 28 -32.5 47t-39.5 39q-29 -10 -53.5 -23t-49.5 -31q-6 5 -9 13t-3 12q0 15 13.5 30t33.5 28t39 21t30 8q12 0 28 -10.5t31 -27.5t24.5 -35.5t9.5 -34.5q0 -10 -4.5 -20t-17.5 -16z" />
    <glyph glyph-name="otilde" unicode="&#xf5;" horiz-adv-x="370" 
d="M67 -32q-44 0 -61 28.5t-17 64.5q0 32 10 65t27 62t38 47t43 18q6 0 14.5 -2.5t12.5 -6.5q-11 -12 -23.5 -34t-23 -47.5t-17 -51t-6.5 -46.5q0 -23 8 -36t26 -13q20 0 47.5 21.5t52.5 52.5q-31 27 -45.5 62.5t-14.5 80.5q0 25 11 53t34 47t60 19q42 0 58.5 -23.5
t16.5 -56.5q0 -37 -19.5 -83.5t-46.5 -88.5q14 -8 31 -8q15 0 36 7t40.5 23.5t31.5 43.5l16 -12q-21 -49 -57.5 -71.5t-70.5 -22.5q-13 0 -26 2.5t-24 7.5q-34 -42 -76.5 -72t-85.5 -30zM221 120q25 35 41.5 75.5t16.5 74.5q0 25 -7.5 36.5t-20.5 11.5q-20 0 -40 -27.5
t-20 -69.5q0 -24 7.5 -53.5t22.5 -47.5zM375 413q-28 0 -57.5 12t-59 23.5t-57.5 11.5q-15 0 -30 -2.5t-31 -10.5q15 29 37.5 42.5t51.5 13.5q28 0 57.5 -12t60 -24t61.5 -12q25 0 50 9q-15 -26 -35 -38.5t-48 -12.5z" />
    <glyph glyph-name="odieresis" unicode="&#xf6;" horiz-adv-x="356" 
d="M67 -32q-44 0 -61 28.5t-17 64.5q0 32 10 65t27 62t38 47t43 18q6 0 14.5 -2.5t12.5 -6.5q-11 -12 -23.5 -34t-23 -47.5t-17 -51t-6.5 -46.5q0 -23 8 -36t26 -13q20 0 47.5 21.5t52.5 52.5q-31 27 -45.5 62.5t-14.5 80.5q0 25 11 53t34 47t60 19q42 0 58.5 -23.5
t16.5 -56.5q0 -37 -19.5 -83.5t-46.5 -88.5q14 -8 31 -8q15 0 36 7t40.5 23.5t31.5 43.5l16 -12q-21 -49 -57.5 -71.5t-70.5 -22.5q-13 0 -26 2.5t-24 7.5q-34 -42 -76.5 -72t-85.5 -30zM221 120q25 35 41.5 75.5t16.5 74.5q0 25 -7.5 36.5t-20.5 11.5q-20 0 -40 -27.5
t-20 -69.5q0 -24 7.5 -53.5t22.5 -47.5zM350 412q-16 0 -28 8t-12 25q0 19 22 33t44 14q15 0 25 -6.5t10 -24.5q0 -17 -19 -33t-42 -16zM206 432q-16 0 -28.5 8t-12.5 25q0 19 22 33.5t45 14.5q15 0 24.5 -6.5t9.5 -24.5q0 -17 -18.5 -33.5t-41.5 -16.5z" />
    <glyph glyph-name="divide" unicode="&#xf7;" horiz-adv-x="480" 
d="M26 119q8 26 37.5 38.5t72.5 16t92 3.5q36 0 72 -2t66 -4t46 -4q-19 -13 -42.5 -21t-58.5 -12t-90 -4q-43 0 -89.5 -1.5t-105.5 -9.5zM180 -13q-14 0 -26 7.5t-12 23.5q0 18 21 31.5t42 13.5q14 0 22.5 -6.5t8.5 -22.5t-17 -31.5t-39 -15.5zM239 236q-14 0 -26 7.5
t-12 23.5q0 18 21 31.5t42 13.5q14 0 22.5 -6.5t8.5 -22.5q0 -15 -17 -31t-39 -16z" />
    <glyph glyph-name="oslash" unicode="&#xf8;" horiz-adv-x="369" 
d="M67 -32q-18 0 -30 5q-18 -13 -36 -20.5t-36 -7.5q-4 0 -8 0.5t-9 1.5q12 7 27 19.5t31 29.5q-9 13 -13 29.5t-4 35.5q0 32 10 65t27 62t38 47t43 18q7 0 13 -2.5t14 -5.5q-9 -6 -21.5 -26.5t-23.5 -49t-18.5 -57.5t-6.5 -52q23 27 45.5 55t39.5 51q-5 16 -7.5 33t-2.5 36
q0 34 12.5 60.5t36 41.5t55.5 15q21 0 36 -8q5 7 10 14.5t11 14.5q4 7 16.5 11t27.5 4q4 0 9.5 -0.5t10.5 -1.5q-2 -5 -17 -25.5t-36 -48.5q7 -18 7 -40q0 -37 -19.5 -83.5t-46.5 -88.5q17 -10 37 -10q27 0 55.5 18.5t46.5 57.5l16 -12q-21 -49 -57.5 -71.5t-70.5 -22.5
q-13 0 -26 2.5t-24 7.5q-34 -42 -76.5 -72t-85.5 -30zM198 90q-8 7 -15.5 15t-12.5 17q-22 -29 -42.5 -55.5t-41.5 -48.5q5 -2 12 -2q20 0 47.5 21.5t52.5 52.5zM221 120q25 35 41 75.5t16 73.5q-20 -28 -40.5 -56t-37.5 -52q4 -11 9.5 -22t11.5 -19zM259 316q-1 2 -3.5 2
h-4.5q-13 0 -27 -12.5t-23.5 -34.5t-9.5 -50q17 23 34 47z" />
    <glyph glyph-name="ugrave" unicode="&#xf9;" horiz-adv-x="440" 
d="M76 -30q-34 0 -55.5 31t-21.5 72q0 28 9.5 66t23.5 74.5t29.5 60.5t27.5 24q7 0 20.5 -7t23.5 -17q-11 -16 -26.5 -50t-27.5 -72.5t-12 -70.5q0 -5 1.5 -20.5t8 -28.5t22.5 -13q17 0 37 18.5t40.5 48.5t39.5 65t35 67t26 54q8 -1 21.5 -4.5t24 -9.5t10.5 -17
q0 -3 -9.5 -25t-22.5 -53t-22.5 -63t-9.5 -56q0 -15 6 -26t23 -11q21 0 50.5 19t60.5 55.5t55 86.5l14 -11q-22 -54 -56.5 -96.5t-74 -66.5t-76.5 -24q-28 0 -43 12.5t-20.5 32.5t-5.5 41q0 7 0.5 15t1.5 15q-17 -29 -37.5 -55.5t-43 -43.5t-47.5 -17zM265 369
q-22 28 -49 54.5t-66 57.5q2 19 10.5 27.5t18.5 8.5q15 0 33.5 -14t35.5 -34.5t27.5 -39t10.5 -27.5q0 -6 -5 -17t-16 -16z" />
    <glyph glyph-name="uacute" unicode="&#xfa;" horiz-adv-x="440" 
d="M76 -30q-34 0 -55.5 31t-21.5 72q0 28 9.5 66t23.5 74.5t29.5 60.5t27.5 24q7 0 20.5 -7t23.5 -17q-11 -16 -26.5 -50t-27.5 -72.5t-12 -70.5q0 -5 1.5 -20.5t8 -28.5t22.5 -13q17 0 37 18.5t40.5 48.5t39.5 65t35 67t26 54q8 -1 21.5 -4.5t24 -9.5t10.5 -17
q0 -3 -9.5 -25t-22.5 -53t-22.5 -63t-9.5 -56q0 -15 6 -26t23 -11q21 0 50.5 19t60.5 55.5t55 86.5l14 -11q-22 -54 -56.5 -96.5t-74 -66.5t-76.5 -24q-28 0 -43 12.5t-20.5 32.5t-5.5 41q0 7 0.5 15t1.5 15q-17 -29 -37.5 -55.5t-43 -43.5t-47.5 -17zM238 370
q-11 5 -16 15.5t-5 15.5q0 8 10 27t26 39.5t34 35.5t33 15q10 0 18 -7.5t10 -26.5q-36 -33 -62.5 -59.5t-47.5 -54.5z" />
    <glyph glyph-name="ucircumflex" unicode="&#xfb;" horiz-adv-x="440" 
d="M76 -30q-34 0 -55.5 31t-21.5 72q0 28 9.5 66t23.5 74.5t29.5 60.5t27.5 24q7 0 20.5 -7t23.5 -17q-11 -16 -26.5 -50t-27.5 -72.5t-12 -70.5q0 -5 1.5 -20.5t8 -28.5t22.5 -13q17 0 37 18.5t40.5 48.5t39.5 65t35 67t26 54q8 -1 21.5 -4.5t24 -9.5t10.5 -17
q0 -3 -9.5 -25t-22.5 -53t-22.5 -63t-9.5 -56q0 -15 6 -26t23 -11q21 0 50.5 19t60.5 55.5t55 86.5l14 -11q-22 -54 -56.5 -96.5t-74 -66.5t-76.5 -24q-28 0 -43 12.5t-20.5 32.5t-5.5 41q0 7 0.5 15t1.5 15q-17 -29 -37.5 -55.5t-43 -43.5t-47.5 -17zM329 362
q-15 28 -32.5 47t-39.5 39q-29 -10 -53.5 -23t-49.5 -31q-6 5 -9 13t-3 12q0 15 13.5 30t33.5 28t39 21t30 8q12 0 28 -10.5t31 -27.5t24.5 -35.5t9.5 -34.5q0 -10 -4.5 -20t-17.5 -16z" />
    <glyph glyph-name="udieresis" unicode="&#xfc;" horiz-adv-x="440" 
d="M76 -30q-34 0 -55.5 31t-21.5 72q0 28 9.5 66t23.5 74.5t29.5 60.5t27.5 24q7 0 20.5 -7t23.5 -17q-11 -16 -26.5 -50t-27.5 -72.5t-12 -70.5q0 -5 1.5 -20.5t8 -28.5t22.5 -13q17 0 37 18.5t40.5 48.5t39.5 65t35 67t26 54q8 -1 21.5 -4.5t24 -9.5t10.5 -17
q0 -3 -9.5 -25t-22.5 -53t-22.5 -63t-9.5 -56q0 -15 6 -26t23 -11q21 0 50.5 19t60.5 55.5t55 86.5l14 -11q-22 -54 -56.5 -96.5t-74 -66.5t-76.5 -24q-28 0 -43 12.5t-20.5 32.5t-5.5 41q0 7 0.5 15t1.5 15q-17 -29 -37.5 -55.5t-43 -43.5t-47.5 -17zM308 376q-16 0 -28 8
t-12 25q0 19 22 33t44 14q15 0 25 -6.5t10 -24.5q0 -17 -19 -33t-42 -16zM164 396q-16 0 -28.5 8t-12.5 25q0 19 22 33.5t45 14.5q15 0 24.5 -6.5t9.5 -24.5q0 -17 -18.5 -33.5t-41.5 -16.5z" />
    <glyph glyph-name="yacute" unicode="&#xfd;" horiz-adv-x="396" 
d="M46 -280q-25 0 -45.5 15t-20.5 46q0 32 18 57.5t47 46.5t63.5 39t68.5 35q12 31 26 76t25 89q-31 -46 -66.5 -80.5t-78.5 -34.5q-18 0 -37.5 7.5t-32.5 26t-13 48.5q0 27 9.5 64t24 72t30 58.5t27.5 23.5q5 0 16 -4t21.5 -11t12.5 -15q-9 -12 -20 -35t-21 -51t-16.5 -55
t-6.5 -46q0 -16 6.5 -27t24.5 -11q21 0 44.5 18t46.5 46.5t41 58.5q3 9 5 22.5t6 28.5q4 16 16.5 31.5t35.5 15.5q7 0 13.5 -1t15.5 -3q0 -15 -10.5 -58.5t-27.5 -101t-39 -115.5q44 17 89 57.5t73 111.5l16 -12q-15 -50 -45.5 -86.5t-68.5 -62t-76 -42.5
q-27 -65 -58 -120.5t-65.5 -88.5t-73.5 -33zM38 -245q18 0 52.5 40t70.5 126q-35 -18 -68 -39.5t-55 -45.5t-22 -52q0 -9 5 -19t17 -10zM233 381q-11 5 -16 15.5t-5 15.5q0 8 10 27t26 39.5t34 35.5t33 15q10 0 18 -7.5t10 -26.5q-36 -33 -62.5 -59.5t-47.5 -54.5z" />
    <glyph glyph-name="thorn" unicode="&#xfe;" horiz-adv-x="407" 
d="M-57 -280q-9 0 -17 9.5t-13.5 20.5t-5.5 13q22 73 43 147t41 159t37 191t32 242q2 12 5 16.5t19 4.5q28 0 40 -13t12 -41q0 -11 -2.5 -33.5t-6.5 -50.5t-8.5 -59t-9.5 -59.5t-9 -52.5q18 31 43 60t56.5 48t67.5 19q47 0 78 -32t31 -86q0 -39 -17.5 -83t-49.5 -82.5
t-76.5 -62.5t-98.5 -24q-30 0 -47.5 7t-17.5 16q0 7 9.5 8t20.5 1q40 0 76.5 18.5t65 49.5t45 68t16.5 74q0 30 -13 51.5t-43 21.5q-26 0 -51.5 -16.5t-47.5 -41t-39.5 -51t-25.5 -47.5q-19 -78 -36.5 -146.5t-33.5 -122.5t-30.5 -88.5t-25.5 -46.5q-6 -6 -13 -6z" />
    <glyph glyph-name="ydieresis" unicode="&#xff;" horiz-adv-x="396" 
d="M46 -280q-25 0 -45.5 15t-20.5 46q0 32 18 57.5t47 46.5t63.5 39t68.5 35q12 31 26 76t25 89q-31 -46 -66.5 -80.5t-78.5 -34.5q-18 0 -37.5 7.5t-32.5 26t-13 48.5q0 27 9.5 64t24 72t30 58.5t27.5 23.5q5 0 16 -4t21.5 -11t12.5 -15q-9 -12 -20 -35t-21 -51t-16.5 -55
t-6.5 -46q0 -16 6.5 -27t24.5 -11q21 0 44.5 18t46.5 46.5t41 58.5q3 9 5 22.5t6 28.5q4 16 16.5 31.5t35.5 15.5q7 0 13.5 -1t15.5 -3q0 -15 -10.5 -58.5t-27.5 -101t-39 -115.5q44 17 89 57.5t73 111.5l16 -12q-15 -50 -45.5 -86.5t-68.5 -62t-76 -42.5
q-27 -65 -58 -120.5t-65.5 -88.5t-73.5 -33zM38 -245q18 0 52.5 40t70.5 126q-35 -18 -68 -39.5t-55 -45.5t-22 -52q0 -9 5 -19t17 -10zM303 387q-16 0 -28 8t-12 25q0 19 22 33t44 14q15 0 25 -6.5t10 -24.5q0 -17 -19 -33t-42 -16zM159 407q-16 0 -28.5 8t-12.5 25
q0 19 22 33.5t45 14.5q15 0 24.5 -6.5t9.5 -24.5q0 -17 -18.5 -33.5t-41.5 -16.5z" />
    <glyph glyph-name="Amacron" unicode="&#x100;" horiz-adv-x="618" 
d="M36 -87q-27 15 -34.5 31t-7.5 28q0 27 20 73.5t53.5 106t75.5 124.5q-33 2 -60.5 3t-62.5 1h-23q13 34 42.5 47.5t69.5 13.5q17 0 35.5 -2t38.5 -4q50 73 100 140t94.5 120t77.5 85q42 41 63 41q13 0 29 -10t34 -26q-10 -8 -25.5 -41.5t-33 -84.5t-35 -112t-31.5 -123.5
t-22.5 -119.5t-8.5 -101q0 -39 8 -59t27 -20q24 0 58 35.5t75 113.5l15 -16q-31 -82 -79.5 -134t-102.5 -52q-45 0 -64.5 39.5t-19.5 108.5q0 26 3.5 58t10.5 74q-44 7 -79 11t-66 8q-47 -85 -92 -176.5t-83 -180.5zM365 295q14 62 32.5 124.5t39 120t39.5 102.5
q-30 -22 -68.5 -68.5t-80.5 -110.5t-86 -139q32 -7 63 -14.5t61 -14.5zM668 757q-23 0 -56 5.5t-69.5 13.5t-69.5 15t-56 10q11 29 49 29q36 0 78.5 -7.5t85.5 -18.5t78 -23q-13 -24 -40 -24z" />
    <glyph glyph-name="amacron" unicode="&#x101;" horiz-adv-x="441" 
d="M53 -47q-32 0 -55.5 21.5t-23.5 64.5q0 36 16 77t44 81t64 73t76.5 53t80.5 20q42 0 70.5 -21.5t28.5 -56.5q0 -27 -17 -38t-42 -7q2 8 3.5 17.5t1.5 18.5q0 21 -9 37t-35 16q-28 0 -57 -19t-56 -50t-48 -68t-33 -73t-12 -64q0 -34 25 -34q23 0 50.5 22t56 56t54.5 69.5
t45 62.5q4 5 7 5q5 -1 16 -4.5t20 -9.5t9 -16t-9 -25.5t-20 -34.5t-20 -38t-9 -37q0 -13 7.5 -25.5t24.5 -12.5q25 0 68.5 36.5t88.5 119.5l16 -16q-23 -54 -56.5 -95t-70.5 -64.5t-74 -23.5q-40 0 -59 24.5t-21 53.5q0 3 0.5 6.5t0.5 6.5q-41 -51 -75 -79.5t-72 -28.5z
M398 426q-23 0 -56 5.5t-69.5 13.5t-69.5 15t-56 10q11 29 49 29q36 0 78.5 -7.5t85.5 -18.5t78 -23q-13 -24 -40 -24z" />
    <glyph glyph-name="Abreve" unicode="&#x102;" horiz-adv-x="618" 
d="M36 -87q-27 15 -34.5 31t-7.5 28q0 27 20 73.5t53.5 106t75.5 124.5q-33 2 -60.5 3t-62.5 1h-23q13 34 42.5 47.5t69.5 13.5q17 0 35.5 -2t38.5 -4q50 73 100 140t94.5 120t77.5 85q42 41 63 41q13 0 29 -10t34 -26q-10 -8 -25.5 -41.5t-33 -84.5t-35 -112t-31.5 -123.5
t-22.5 -119.5t-8.5 -101q0 -39 8 -59t27 -20q24 0 58 35.5t75 113.5l15 -16q-31 -82 -79.5 -134t-102.5 -52q-45 0 -64.5 39.5t-19.5 108.5q0 26 3.5 58t10.5 74q-44 7 -79 11t-66 8q-47 -85 -92 -176.5t-83 -180.5zM365 295q14 62 32.5 124.5t39 120t39.5 102.5
q-30 -22 -68.5 -68.5t-80.5 -110.5t-86 -139q32 -7 63 -14.5t61 -14.5zM601 758q-40 0 -64 16t-34.5 37.5t-10.5 40.5q0 18 7 30t20 19q4 -31 23.5 -57.5t60.5 -26.5q37 0 59 17.5t34 35.5q7 -7 9.5 -16t2.5 -16q0 -34 -32.5 -57t-74.5 -23z" />
    <glyph glyph-name="abreve" unicode="&#x103;" horiz-adv-x="441" 
d="M53 -47q-32 0 -55.5 21.5t-23.5 64.5q0 36 16 77t44 81t64 73t76.5 53t80.5 20q42 0 70.5 -21.5t28.5 -56.5q0 -27 -17 -38t-42 -7q2 8 3.5 17.5t1.5 18.5q0 21 -9 37t-35 16q-28 0 -57 -19t-56 -50t-48 -68t-33 -73t-12 -64q0 -34 25 -34q23 0 50.5 22t56 56t54.5 69.5
t45 62.5q4 5 7 5q5 -1 16 -4.5t20 -9.5t9 -16t-9 -25.5t-20 -34.5t-20 -38t-9 -37q0 -13 7.5 -25.5t24.5 -12.5q25 0 68.5 36.5t88.5 119.5l16 -16q-23 -54 -56.5 -95t-70.5 -64.5t-74 -23.5q-40 0 -59 24.5t-21 53.5q0 3 0.5 6.5t0.5 6.5q-41 -51 -75 -79.5t-72 -28.5z
M326 410q-40 0 -64 16t-34.5 37.5t-10.5 40.5q0 18 7 30t20 19q4 -31 23.5 -57.5t60.5 -26.5q37 0 59 17.5t34 35.5q7 -7 9.5 -16t2.5 -16q0 -34 -32.5 -57t-74.5 -23z" />
    <glyph glyph-name="Aogonek" unicode="&#x104;" horiz-adv-x="618" 
d="M36 -87q-27 15 -34.5 31t-7.5 28q0 27 20 73.5t53.5 106t75.5 124.5q-33 2 -60.5 3t-62.5 1h-23q13 34 42.5 47.5t69.5 13.5q17 0 35.5 -2t38.5 -4q50 73 100 140t94.5 120t77.5 85q42 41 63 41q13 0 29 -10t34 -26q-10 -8 -25.5 -41.5t-33 -84.5t-35 -112t-31.5 -123.5
t-22.5 -119.5t-8.5 -101q0 -39 8 -59t27 -20q24 0 58 35.5t75 113.5l15 -16q-31 -82 -79.5 -134t-102.5 -52q-45 0 -64.5 39.5t-19.5 108.5q0 26 3.5 58t10.5 74q-44 7 -79 11t-66 8q-47 -85 -92 -176.5t-83 -180.5zM365 295q14 62 32.5 124.5t39 120t39.5 102.5
q-30 -22 -68.5 -68.5t-80.5 -110.5t-86 -139q32 -7 63 -14.5t61 -14.5zM495 -154q-33 0 -53 20.5t-20 51.5q0 33 23 54.5t53 24.5q-14 -10 -22.5 -24.5t-8.5 -33.5q0 -16 11 -29t33 -13q16 0 29 5t26 14q-1 -33 -20.5 -51.5t-50.5 -18.5z" />
    <glyph glyph-name="aogonek" unicode="&#x105;" horiz-adv-x="441" 
d="M53 -47q-32 0 -55.5 21.5t-23.5 64.5q0 36 16 77t44 81t64 73t76.5 53t80.5 20q42 0 70.5 -21.5t28.5 -56.5q0 -27 -17 -38t-42 -7q2 8 3.5 17.5t1.5 18.5q0 21 -9 37t-35 16q-28 0 -57 -19t-56 -50t-48 -68t-33 -73t-12 -64q0 -34 25 -34q23 0 50.5 22t56 56t54.5 69.5
t45 62.5q4 5 7 5q5 -1 16 -4.5t20 -9.5t9 -16t-9 -25.5t-20 -34.5t-20 -38t-9 -37q0 -13 7.5 -25.5t24.5 -12.5q25 0 68.5 36.5t88.5 119.5l16 -16q-23 -54 -56.5 -95t-70.5 -64.5t-74 -23.5q-40 0 -59 24.5t-21 53.5q0 3 0.5 6.5t0.5 6.5q-41 -51 -75 -79.5t-72 -28.5z
M360 -151q-33 0 -53 20.5t-20 51.5q0 33 23 54.5t53 24.5q-14 -10 -22.5 -24.5t-8.5 -33.5q0 -16 11 -29t33 -13q16 0 29 5t26 14q-1 -33 -20.5 -51.5t-50.5 -18.5z" />
    <glyph glyph-name="Cacute" unicode="&#x106;" horiz-adv-x="558" 
d="M239 -87q-74 0 -120.5 36t-68 92.5t-21.5 117.5q0 79 24 158.5t66 152t95.5 128.5t114 88.5t120.5 32.5q43 0 71.5 -20t28.5 -69q0 -30 -10.5 -67t-28 -71t-39 -56t-43.5 -22q-9 0 -19 6.5t-18 21.5q15 17 33.5 42t35.5 53t28 54.5t11 47.5q0 18 -10.5 29.5t-36.5 11.5
q-43 0 -89.5 -34t-89.5 -90.5t-78 -126t-55 -143t-20 -139.5q0 -48 14 -92t46 -71.5t83 -27.5q54 0 107 30t97.5 79t71.5 106l22 -15q-35 -66 -83 -121.5t-108.5 -88.5t-130.5 -33zM515 747q-11 5 -16 15.5t-5 15.5q0 8 10 27t26 39.5t34 35.5t33 15q10 0 18 -7.5t10 -26.5
q-36 -33 -62.5 -59.5t-47.5 -54.5z" />
    <glyph glyph-name="cacute" unicode="&#x107;" horiz-adv-x="330" 
d="M111 -56q-51 0 -84 32.5t-33 98.5q0 49 19.5 96t51.5 85t71 60t79 22q42 0 59.5 -22t17.5 -49q0 -29 -13.5 -54t-36.5 -25q-19 0 -31 18q12 7 23 28t11 48q0 10 -4 15t-16 5q-26 0 -53.5 -23t-51.5 -59.5t-39 -76.5t-15 -75q0 -29 15 -53t57 -24q39 0 79.5 22t76.5 62
t57 95l18 -16q-24 -60 -65.5 -107.5t-92 -75t-100.5 -27.5zM266 404q-11 5 -16 15.5t-5 15.5q0 8 10 27t26 39.5t34 35.5t33 15q10 0 18 -7.5t10 -26.5q-36 -33 -62.5 -59.5t-47.5 -54.5z" />
    <glyph glyph-name="Ccircumflex" unicode="&#x108;" horiz-adv-x="558" 
d="M239 -87q-74 0 -120.5 36t-68 92.5t-21.5 117.5q0 79 24 158.5t66 152t95.5 128.5t114 88.5t120.5 32.5q43 0 71.5 -20t28.5 -69q0 -30 -10.5 -67t-28 -71t-39 -56t-43.5 -22q-9 0 -19 6.5t-18 21.5q15 17 33.5 42t35.5 53t28 54.5t11 47.5q0 18 -10.5 29.5t-36.5 11.5
q-43 0 -89.5 -34t-89.5 -90.5t-78 -126t-55 -143t-20 -139.5q0 -48 14 -92t46 -71.5t83 -27.5q54 0 107 30t97.5 79t71.5 106l22 -15q-35 -66 -83 -121.5t-108.5 -88.5t-130.5 -33zM605 743q-15 28 -32.5 47t-39.5 39q-29 -10 -53.5 -23t-49.5 -31q-6 5 -9 13t-3 12
q0 15 13.5 30t33.5 28t39 21t30 8q12 0 28 -10.5t31 -27.5t24.5 -35.5t9.5 -34.5q0 -10 -4.5 -20t-17.5 -16z" />
    <glyph glyph-name="ccircumflex" unicode="&#x109;" horiz-adv-x="330" 
d="M111 -56q-51 0 -84 32.5t-33 98.5q0 49 19.5 96t51.5 85t71 60t79 22q42 0 59.5 -22t17.5 -49q0 -29 -13.5 -54t-36.5 -25q-19 0 -31 18q12 7 23 28t11 48q0 10 -4 15t-16 5q-26 0 -53.5 -23t-51.5 -59.5t-39 -76.5t-15 -75q0 -29 15 -53t57 -24q39 0 79.5 22t76.5 62
t57 95l18 -16q-24 -60 -65.5 -107.5t-92 -75t-100.5 -27.5zM357 396q-15 28 -32.5 47t-39.5 39q-29 -10 -53.5 -23t-49.5 -31q-6 5 -9 13t-3 12q0 15 13.5 30t33.5 28t39 21t30 8q12 0 28 -10.5t31 -27.5t24.5 -35.5t9.5 -34.5q0 -10 -4.5 -20t-17.5 -16z" />
    <glyph glyph-name="Cdotaccent" unicode="&#x10a;" horiz-adv-x="558" 
d="M239 -87q-74 0 -120.5 36t-68 92.5t-21.5 117.5q0 79 24 158.5t66 152t95.5 128.5t114 88.5t120.5 32.5q43 0 71.5 -20t28.5 -69q0 -30 -10.5 -67t-28 -71t-39 -56t-43.5 -22q-9 0 -19 6.5t-18 21.5q15 17 33.5 42t35.5 53t28 54.5t11 47.5q0 18 -10.5 29.5t-36.5 11.5
q-43 0 -89.5 -34t-89.5 -90.5t-78 -126t-55 -143t-20 -139.5q0 -48 14 -92t46 -71.5t83 -27.5q54 0 107 30t97.5 79t71.5 106l22 -15q-35 -66 -83 -121.5t-108.5 -88.5t-130.5 -33zM509 767q-19 0 -31 9.5t-12 27.5q0 23 22 37t45 14q20 0 29.5 -9.5t9.5 -25.5
q0 -21 -20 -37t-43 -16z" />
    <glyph glyph-name="cdotaccent" unicode="&#x10b;" horiz-adv-x="330" 
d="M111 -56q-51 0 -84 32.5t-33 98.5q0 49 19.5 96t51.5 85t71 60t79 22q42 0 59.5 -22t17.5 -49q0 -29 -13.5 -54t-36.5 -25q-19 0 -31 18q12 7 23 28t11 48q0 10 -4 15t-16 5q-26 0 -53.5 -23t-51.5 -59.5t-39 -76.5t-15 -75q0 -29 15 -53t57 -24q39 0 79.5 22t76.5 62
t57 95l18 -16q-24 -60 -65.5 -107.5t-92 -75t-100.5 -27.5zM262 403q-19 0 -31 9.5t-12 27.5q0 23 22 37t45 14q20 0 29.5 -9.5t9.5 -25.5q0 -21 -20 -37t-43 -16z" />
    <glyph glyph-name="Ccaron" unicode="&#x10c;" horiz-adv-x="558" 
d="M239 -87q-74 0 -120.5 36t-68 92.5t-21.5 117.5q0 79 24 158.5t66 152t95.5 128.5t114 88.5t120.5 32.5q43 0 71.5 -20t28.5 -69q0 -30 -10.5 -67t-28 -71t-39 -56t-43.5 -22q-9 0 -19 6.5t-18 21.5q15 17 33.5 42t35.5 53t28 54.5t11 47.5q0 18 -10.5 29.5t-36.5 11.5
q-43 0 -89.5 -34t-89.5 -90.5t-78 -126t-55 -143t-20 -139.5q0 -48 14 -92t46 -71.5t83 -27.5q54 0 107 30t97.5 79t71.5 106l22 -15q-35 -66 -83 -121.5t-108.5 -88.5t-130.5 -33zM500 753q-13 0 -30 11.5t-32 30t-25 38.5t-10 37q0 11 5 20t17 14q15 -29 33 -51t43 -45
q30 12 55.5 26.5t46.5 32.5q7 -4 11 -11t4 -14q0 -15 -14 -30.5t-34 -29t-39.5 -21.5t-30.5 -8z" />
    <glyph glyph-name="ccaron" unicode="&#x10d;" horiz-adv-x="330" 
d="M111 -56q-51 0 -84 32.5t-33 98.5q0 49 19.5 96t51.5 85t71 60t79 22q42 0 59.5 -22t17.5 -49q0 -29 -13.5 -54t-36.5 -25q-19 0 -31 18q12 7 23 28t11 48q0 10 -4 15t-16 5q-26 0 -53.5 -23t-51.5 -59.5t-39 -76.5t-15 -75q0 -29 15 -53t57 -24q39 0 79.5 22t76.5 62
t57 95l18 -16q-24 -60 -65.5 -107.5t-92 -75t-100.5 -27.5zM270 404q-13 0 -30 11.5t-32 30t-25 38.5t-10 37q0 11 5 20t17 14q15 -29 33 -51t43 -45q30 12 55.5 26.5t46.5 32.5q7 -4 11 -11t4 -14q0 -15 -14 -30.5t-34 -29t-39.5 -21.5t-30.5 -8z" />
    <glyph glyph-name="Dcaron" unicode="&#x10e;" horiz-adv-x="675" 
d="M181 -87q-33 0 -63.5 9t-52.5 39q6 32 18.5 81.5t29.5 108t35.5 118.5t36 114t31.5 94.5t21 59.5q3 8 10 24t17.5 32.5t24.5 28t31 11.5q16 0 34 -12q-31 -71 -62.5 -157t-60 -177t-52.5 -177.5t-39 -157.5q10 -3 23 -4.5t25 -1.5q64 0 123.5 31t109.5 83t87.5 118
t58 137t20.5 137q0 81 -27 132.5t-74 75.5t-109 24q-65 0 -117 -24.5t-81.5 -66t-29.5 -94.5q0 -12 2 -23t5 -22q-39 0 -56 18t-17 44q0 35 25.5 70.5t70 66t103.5 49t127 18.5q95 0 152.5 -37t83.5 -100t26 -141q0 -86 -27 -165t-75.5 -145t-111 -115.5t-133.5 -76.5
t-143 -27zM510 754q-13 0 -30 11.5t-32 30t-25 38.5t-10 37q0 11 5 20t17 14q15 -29 33 -51t43 -45q30 12 55.5 26.5t46.5 32.5q7 -4 11 -11t4 -14q0 -15 -14 -30.5t-34 -29t-39.5 -21.5t-30.5 -8z" />
    <glyph glyph-name="dcaron" unicode="&#x10f;" horiz-adv-x="485" 
d="M66 -30q-19 0 -37.5 9t-31.5 29t-13 50q0 33 16 74t43.5 82t63.5 75t76 55t80 21q22 0 34.5 -7.5t12.5 -24.5q0 -5 -1.5 -10t-6.5 -10q-5 7 -14.5 9.5t-21.5 2.5q-33 0 -63 -18.5t-55.5 -48.5t-44 -64.5t-28.5 -67t-10 -55.5q0 -20 8.5 -32t24.5 -12q27 0 65 32.5
t77.5 93t71.5 143.5q22 57 46 116.5t48 115t47 98.5t44 68.5t39 25.5q10 0 17.5 -8t7.5 -20q0 -16 -16.5 -54t-42.5 -90.5t-55.5 -114t-55 -125.5t-42 -125t-16.5 -114q0 -25 4 -35.5t17 -10.5q21 0 48.5 17.5t55.5 51t50 79.5l17 -13q-21 -54 -54.5 -95.5t-72 -65
t-75.5 -23.5q-39 0 -54.5 25.5t-15.5 57.5q0 16 3 36.5t8 42.5q-31 -48 -66 -85.5t-68.5 -59t-63.5 -21.5zM582 526q-10 0 -19 7.5t-9 22.5q0 20 14.5 43.5t36 41t40.5 17.5q10 0 18 -7q-18 -26 -35 -58.5t-28 -61.5q-7 -5 -18 -5z" />
    <glyph glyph-name="Dcroat" unicode="&#x110;" horiz-adv-x="676" 
d="M182 -87q-34 0 -64 9t-52 39q14 69 37 154t48 165q-27 -1 -57.5 -4t-64.5 -8q14 30 50.5 42.5t86.5 15.5q22 70 42 128.5t29 82.5q3 8 10 24t18 32.5t25 28t30 11.5t34 -12q-28 -64 -56 -139.5t-53 -153.5q52 0 101 -4t75 -6q-33 -23 -64.5 -30t-54.5 -7h-72
q-28 -89 -51 -173.5t-39 -155.5q12 -2 21 -3t19 -1q64 0 124 28.5t111.5 78.5t90.5 114t60.5 136.5t21.5 144.5q0 120 -58.5 177t-152.5 57q-65 0 -116.5 -24.5t-81.5 -66.5t-30 -94q0 -12 2 -23t6 -22q-40 0 -56.5 18t-16.5 44q0 35 25 70.5t70 66t103.5 49t125.5 18.5
q96 0 154 -38t84 -102t26 -141q0 -87 -27.5 -165.5t-75.5 -144t-110.5 -114t-133.5 -75.5t-143 -27z" />
    <glyph glyph-name="dcroat" unicode="&#x111;" horiz-adv-x="486" 
d="M256 518q17 37 64 48t117 11q39 2 78.5 0t73 -4.5t53.5 -4.5q-33 -23 -65 -30t-54 -7q-61 0 -102 -0.5t-69 -2.5t-50.5 -4t-45.5 -6zM66 -30q-19 0 -37.5 9t-31.5 29t-13 50q0 33 16 74t43.5 82t63.5 75t76 55t80 21q22 0 34.5 -7.5t12.5 -24.5q0 -5 -1.5 -10t-6.5 -10
q-5 7 -14.5 9.5t-21.5 2.5q-33 0 -63 -18.5t-55.5 -48.5t-44 -64.5t-28.5 -67t-10 -55.5q0 -20 8.5 -32t24.5 -12q27 0 65 32.5t77.5 93t71.5 143.5q22 57 46 116.5t48 115t47 98.5t44 68.5t39 25.5q10 0 17.5 -8t7.5 -20q0 -16 -16.5 -54t-42.5 -90.5t-55.5 -114
t-55 -125.5t-42 -125t-16.5 -114q0 -25 4 -35.5t17 -10.5q21 0 48.5 17.5t55.5 51t50 79.5l17 -13q-21 -54 -54.5 -95.5t-72 -65t-75.5 -23.5q-39 0 -54.5 25.5t-15.5 57.5q0 16 3 36.5t8 42.5q-31 -48 -66 -85.5t-68.5 -59t-63.5 -21.5z" />
    <glyph glyph-name="Emacron" unicode="&#x112;" horiz-adv-x="521" 
d="M199 -87q-63 0 -109.5 25.5t-72 67.5t-25.5 93q0 45 19.5 88t54.5 79t81.5 60t101.5 31q-37 32 -55.5 72t-18.5 82q0 53 27 100.5t75.5 77.5t111.5 30q59 0 90.5 -29t31.5 -84q0 -38 -13.5 -73.5t-33 -57.5t-37.5 -22q-13 0 -24.5 11.5t-19.5 26.5q36 31 61.5 65t25.5 71
q0 30 -19.5 46t-52.5 16q-45 0 -76.5 -27.5t-47 -71t-15.5 -91.5q0 -41 14 -84t54 -74q-70 -11 -122 -50t-80.5 -91t-28.5 -103q0 -31 12.5 -64.5t41 -56t76.5 -22.5q54 0 107 30.5t97 80t71 106.5l23 -15q-37 -69 -86 -124t-109 -87t-130 -32zM539 757q-23 0 -56 5.5
t-69.5 13.5t-69.5 15t-56 10q11 29 49 29q36 0 78.5 -7.5t85.5 -18.5t78 -23q-13 -24 -40 -24z" />
    <glyph glyph-name="emacron" unicode="&#x113;" horiz-adv-x="338" 
d="M113 -44q-63 0 -96 34t-33 85q0 45 22.5 94.5t60.5 93t83.5 71t90.5 27.5q25 0 47.5 -13t22.5 -52q0 -38 -22.5 -71.5t-59 -59.5t-81 -42.5t-88.5 -20.5l-2 -12t-1 -16q0 -8 2.5 -21.5t10 -27t23.5 -22.5t42 -9q42 0 84.5 24t79.5 63.5t62 87.5l17 -14
q-27 -60 -69 -104.5t-92.5 -69.5t-103.5 -25zM69 133q26 5 59 20.5t63 39t49.5 51.5t19.5 57q0 11 -4 16t-14 5q-24 0 -49.5 -17.5t-50 -45t-43.5 -61t-30 -65.5zM375 434q-23 0 -56 5.5t-69.5 13.5t-69.5 15t-56 10q11 29 49 29q36 0 78.5 -7.5t85.5 -18.5t78 -23
q-13 -24 -40 -24z" />
    <glyph glyph-name="Ebreve" unicode="&#x114;" horiz-adv-x="521" 
d="M199 -87q-63 0 -109.5 25.5t-72 67.5t-25.5 93q0 45 19.5 88t54.5 79t81.5 60t101.5 31q-37 32 -55.5 72t-18.5 82q0 53 27 100.5t75.5 77.5t111.5 30q59 0 90.5 -29t31.5 -84q0 -38 -13.5 -73.5t-33 -57.5t-37.5 -22q-13 0 -24.5 11.5t-19.5 26.5q36 31 61.5 65t25.5 71
q0 30 -19.5 46t-52.5 16q-45 0 -76.5 -27.5t-47 -71t-15.5 -91.5q0 -41 14 -84t54 -74q-70 -11 -122 -50t-80.5 -91t-28.5 -103q0 -31 12.5 -64.5t41 -56t76.5 -22.5q54 0 107 30.5t97 80t71 106.5l23 -15q-37 -69 -86 -124t-109 -87t-130 -32zM473 758q-40 0 -64 16
t-34.5 37.5t-10.5 40.5q0 18 7 30t20 19q4 -31 23.5 -57.5t60.5 -26.5q37 0 59 17.5t34 35.5q7 -7 9.5 -16t2.5 -16q0 -34 -32.5 -57t-74.5 -23z" />
    <glyph glyph-name="ebreve" unicode="&#x115;" horiz-adv-x="338" 
d="M113 -44q-63 0 -96 34t-33 85q0 45 22.5 94.5t60.5 93t83.5 71t90.5 27.5q25 0 47.5 -13t22.5 -52q0 -38 -22.5 -71.5t-59 -59.5t-81 -42.5t-88.5 -20.5l-2 -12t-1 -16q0 -8 2.5 -21.5t10 -27t23.5 -22.5t42 -9q42 0 84.5 24t79.5 63.5t62 87.5l17 -14
q-27 -60 -69 -104.5t-92.5 -69.5t-103.5 -25zM69 133q26 5 59 20.5t63 39t49.5 51.5t19.5 57q0 11 -4 16t-14 5q-24 0 -49.5 -17.5t-50 -45t-43.5 -61t-30 -65.5zM304 419q-40 0 -64 16t-34.5 37.5t-10.5 40.5q0 18 7 30t20 19q4 -31 23.5 -57.5t60.5 -26.5q37 0 59 17.5
t34 35.5q7 -7 9.5 -16t2.5 -16q0 -34 -32.5 -57t-74.5 -23z" />
    <glyph glyph-name="Edotaccent" unicode="&#x116;" horiz-adv-x="521" 
d="M199 -87q-63 0 -109.5 25.5t-72 67.5t-25.5 93q0 45 19.5 88t54.5 79t81.5 60t101.5 31q-37 32 -55.5 72t-18.5 82q0 53 27 100.5t75.5 77.5t111.5 30q59 0 90.5 -29t31.5 -84q0 -38 -13.5 -73.5t-33 -57.5t-37.5 -22q-13 0 -24.5 11.5t-19.5 26.5q36 31 61.5 65t25.5 71
q0 30 -19.5 46t-52.5 16q-45 0 -76.5 -27.5t-47 -71t-15.5 -91.5q0 -41 14 -84t54 -74q-70 -11 -122 -50t-80.5 -91t-28.5 -103q0 -31 12.5 -64.5t41 -56t76.5 -22.5q54 0 107 30.5t97 80t71 106.5l23 -15q-37 -69 -86 -124t-109 -87t-130 -32zM440 768q-19 0 -31 9.5
t-12 27.5q0 23 22 37t45 14q20 0 29.5 -9.5t9.5 -25.5q0 -21 -20 -37t-43 -16z" />
    <glyph glyph-name="edotaccent" unicode="&#x117;" horiz-adv-x="338" 
d="M113 -44q-63 0 -96 34t-33 85q0 45 22.5 94.5t60.5 93t83.5 71t90.5 27.5q25 0 47.5 -13t22.5 -52q0 -38 -22.5 -71.5t-59 -59.5t-81 -42.5t-88.5 -20.5l-2 -12t-1 -16q0 -8 2.5 -21.5t10 -27t23.5 -22.5t42 -9q42 0 84.5 24t79.5 63.5t62 87.5l17 -14
q-27 -60 -69 -104.5t-92.5 -69.5t-103.5 -25zM69 133q26 5 59 20.5t63 39t49.5 51.5t19.5 57q0 11 -4 16t-14 5q-24 0 -49.5 -17.5t-50 -45t-43.5 -61t-30 -65.5zM276 418q-19 0 -31 9.5t-12 27.5q0 23 22 37t45 14q20 0 29.5 -9.5t9.5 -25.5q0 -21 -20 -37t-43 -16z" />
    <glyph glyph-name="Eogonek" unicode="&#x118;" horiz-adv-x="521" 
d="M199 -87q-63 0 -109.5 25.5t-72 67.5t-25.5 93q0 45 19.5 88t54.5 79t81.5 60t101.5 31q-37 32 -55.5 72t-18.5 82q0 53 27 100.5t75.5 77.5t111.5 30q59 0 90.5 -29t31.5 -84q0 -38 -13.5 -73.5t-33 -57.5t-37.5 -22q-13 0 -24.5 11.5t-19.5 26.5q36 31 61.5 65t25.5 71
q0 30 -19.5 46t-52.5 16q-45 0 -76.5 -27.5t-47 -71t-15.5 -91.5q0 -41 14 -84t54 -74q-70 -11 -122 -50t-80.5 -91t-28.5 -103q0 -31 12.5 -64.5t41 -56t76.5 -22.5q54 0 107 30.5t97 80t71 106.5l23 -15q-37 -69 -86 -124t-109 -87t-130 -32zM369 -179q-33 0 -53 20.5
t-20 51.5q0 33 23 54.5t53 24.5q-14 -10 -22.5 -24.5t-8.5 -33.5q0 -16 11 -29t33 -13q16 0 29 5t26 14q-1 -33 -20.5 -51.5t-50.5 -18.5z" />
    <glyph glyph-name="eogonek" unicode="&#x119;" horiz-adv-x="338" 
d="M113 -44q-63 0 -96 34t-33 85q0 45 22.5 94.5t60.5 93t83.5 71t90.5 27.5q25 0 47.5 -13t22.5 -52q0 -38 -22.5 -71.5t-59 -59.5t-81 -42.5t-88.5 -20.5l-2 -12t-1 -16q0 -8 2.5 -21.5t10 -27t23.5 -22.5t42 -9q42 0 84.5 24t79.5 63.5t62 87.5l17 -14
q-27 -60 -69 -104.5t-92.5 -69.5t-103.5 -25zM69 133q26 5 59 20.5t63 39t49.5 51.5t19.5 57q0 11 -4 16t-14 5q-24 0 -49.5 -17.5t-50 -45t-43.5 -61t-30 -65.5zM246 -151q-33 0 -53 20.5t-20 51.5q0 33 23 54.5t53 24.5q-14 -10 -22.5 -24.5t-8.5 -33.5q0 -16 11 -29
t33 -13q16 0 29 5t26 14q-1 -33 -20.5 -51.5t-50.5 -18.5z" />
    <glyph glyph-name="Ecaron" unicode="&#x11a;" horiz-adv-x="521" 
d="M199 -87q-63 0 -109.5 25.5t-72 67.5t-25.5 93q0 45 19.5 88t54.5 79t81.5 60t101.5 31q-37 32 -55.5 72t-18.5 82q0 53 27 100.5t75.5 77.5t111.5 30q59 0 90.5 -29t31.5 -84q0 -38 -13.5 -73.5t-33 -57.5t-37.5 -22q-13 0 -24.5 11.5t-19.5 26.5q36 31 61.5 65t25.5 71
q0 30 -19.5 46t-52.5 16q-45 0 -76.5 -27.5t-47 -71t-15.5 -91.5q0 -41 14 -84t54 -74q-70 -11 -122 -50t-80.5 -91t-28.5 -103q0 -31 12.5 -64.5t41 -56t76.5 -22.5q54 0 107 30.5t97 80t71 106.5l23 -15q-37 -69 -86 -124t-109 -87t-130 -32zM431 754q-13 0 -30 11.5
t-32 30t-25 38.5t-10 37q0 11 5 20t17 14q15 -29 33 -51t43 -45q30 12 55.5 26.5t46.5 32.5q7 -4 11 -11t4 -14q0 -15 -14 -30.5t-34 -29t-39.5 -21.5t-30.5 -8z" />
    <glyph glyph-name="ecaron" unicode="&#x11b;" horiz-adv-x="338" 
d="M113 -44q-63 0 -96 34t-33 85q0 45 22.5 94.5t60.5 93t83.5 71t90.5 27.5q25 0 47.5 -13t22.5 -52q0 -38 -22.5 -71.5t-59 -59.5t-81 -42.5t-88.5 -20.5l-2 -12t-1 -16q0 -8 2.5 -21.5t10 -27t23.5 -22.5t42 -9q42 0 84.5 24t79.5 63.5t62 87.5l17 -14
q-27 -60 -69 -104.5t-92.5 -69.5t-103.5 -25zM69 133q26 5 59 20.5t63 39t49.5 51.5t19.5 57q0 11 -4 16t-14 5q-24 0 -49.5 -17.5t-50 -45t-43.5 -61t-30 -65.5zM284 419q-13 0 -30 11.5t-32 30t-25 38.5t-10 37q0 11 5 20t17 14q15 -29 33 -51t43 -45q30 12 55.5 26.5
t46.5 32.5q7 -4 11 -11t4 -14q0 -15 -14 -30.5t-34 -29t-39.5 -21.5t-30.5 -8z" />
    <glyph glyph-name="Gcircumflex" unicode="&#x11c;" horiz-adv-x="574" 
d="M228 -87q-55 0 -100 29.5t-72 85.5t-27 135q0 77 24 156t65.5 150.5t95.5 128t113.5 89t119.5 32.5q42 0 67 -16.5t36 -43t11 -56.5q0 -35 -12.5 -69.5t-33.5 -57.5t-46 -23q-11 0 -20.5 6.5t-17.5 23.5q14 10 32.5 35.5t32.5 56.5t14 56q0 21 -13 35t-43 14
q-45 0 -92 -34t-90 -90.5t-78 -126.5t-55 -142.5t-20 -137.5q0 -91 39 -142t95 -51q40 0 75 27t61.5 70.5t42.5 94.5t20 99q-29 6 -54 8.5t-51 2.5q-15 0 -30.5 -0.5t-33.5 -0.5q8 33 27 47.5t48 14.5q30 0 60.5 -9.5t61 -20.5t57.5 -17l-9 -32q-18 -53 -29.5 -90t-18 -63.5
t-8.5 -47.5t-2 -41t1 -41t2 -48q-25 5 -39 17t-19 29t-5 34q0 7 0.5 14t2.5 15q-35 -46 -81 -75.5t-104 -29.5zM611 744q-15 28 -32.5 47t-39.5 39q-29 -10 -53.5 -23t-49.5 -31q-6 5 -9 13t-3 12q0 15 13.5 30t33.5 28t39 21t30 8q12 0 28 -10.5t31 -27.5t24.5 -35.5
t9.5 -34.5q0 -10 -4.5 -20t-17.5 -16z" />
    <glyph glyph-name="gcircumflex" unicode="&#x11d;" horiz-adv-x="398" 
d="M46 -280q-24 0 -44.5 14.5t-20.5 47.5q0 31 18.5 56.5t48.5 47t65 39.5t67 34q12 30 23 64t21 75q-36 -48 -75.5 -79.5t-80.5 -31.5q-38 0 -60.5 27.5t-22.5 72.5q0 53 26.5 99.5t68 83t89 57t89.5 20.5q31 0 46 -11t15 -25q0 -11 -6.5 -17.5t-8.5 -7.5q-8 10 -18.5 13.5
t-24.5 3.5q-39 0 -75 -22t-64 -57t-44 -72.5t-16 -68.5q0 -21 9 -32.5t23 -11.5q29 0 69 37.5t77 90.5q3 10 4.5 18t3.5 18q8 31 21 49.5t38 18.5q5 0 12 -0.5t15 -2.5q0 -18 -10 -59.5t-27 -96.5t-39 -113q32 14 63.5 38t58.5 57t41 73l16 -15q-16 -46 -49 -83.5t-71.5 -65
t-70.5 -42.5q-28 -66 -59 -121t-66 -87.5t-75 -32.5zM42 -239q19 0 51.5 36t70.5 122q-38 -19 -70 -38.5t-52 -41.5t-20 -47q0 -14 6 -22.5t14 -8.5zM389 397q-15 28 -32.5 47t-39.5 39q-29 -10 -53.5 -23t-49.5 -31q-6 5 -9 13t-3 12q0 15 13.5 30t33.5 28t39 21t30 8
q12 0 28 -10.5t31 -27.5t24.5 -35.5t9.5 -34.5q0 -10 -4.5 -20t-17.5 -16z" />
    <glyph glyph-name="Gbreve" unicode="&#x11e;" horiz-adv-x="574" 
d="M228 -87q-55 0 -100 29.5t-72 85.5t-27 135q0 77 24 156t65.5 150.5t95.5 128t113.5 89t119.5 32.5q42 0 67 -16.5t36 -43t11 -56.5q0 -35 -12.5 -69.5t-33.5 -57.5t-46 -23q-11 0 -20.5 6.5t-17.5 23.5q14 10 32.5 35.5t32.5 56.5t14 56q0 21 -13 35t-43 14
q-45 0 -92 -34t-90 -90.5t-78 -126.5t-55 -142.5t-20 -137.5q0 -91 39 -142t95 -51q40 0 75 27t61.5 70.5t42.5 94.5t20 99q-29 6 -54 8.5t-51 2.5q-15 0 -30.5 -0.5t-33.5 -0.5q8 33 27 47.5t48 14.5q30 0 60.5 -9.5t61 -20.5t57.5 -17l-9 -32q-18 -53 -29.5 -90t-18 -63.5
t-8.5 -47.5t-2 -41t1 -41t2 -48q-25 5 -39 17t-19 29t-5 34q0 7 0.5 14t2.5 15q-35 -46 -81 -75.5t-104 -29.5zM548 758q-40 0 -64 16t-34.5 37.5t-10.5 40.5q0 18 7 30t20 19q4 -31 23.5 -57.5t60.5 -26.5q37 0 59 17.5t34 35.5q7 -7 9.5 -16t2.5 -16q0 -34 -32.5 -57
t-74.5 -23z" />
    <glyph glyph-name="gbreve" unicode="&#x11f;" horiz-adv-x="398" 
d="M46 -280q-24 0 -44.5 14.5t-20.5 47.5q0 31 18.5 56.5t48.5 47t65 39.5t67 34q12 30 23 64t21 75q-36 -48 -75.5 -79.5t-80.5 -31.5q-38 0 -60.5 27.5t-22.5 72.5q0 53 26.5 99.5t68 83t89 57t89.5 20.5q31 0 46 -11t15 -25q0 -11 -6.5 -17.5t-8.5 -7.5q-8 10 -18.5 13.5
t-24.5 3.5q-39 0 -75 -22t-64 -57t-44 -72.5t-16 -68.5q0 -21 9 -32.5t23 -11.5q29 0 69 37.5t77 90.5q3 10 4.5 18t3.5 18q8 31 21 49.5t38 18.5q5 0 12 -0.5t15 -2.5q0 -18 -10 -59.5t-27 -96.5t-39 -113q32 14 63.5 38t58.5 57t41 73l16 -15q-16 -46 -49 -83.5t-71.5 -65
t-70.5 -42.5q-28 -66 -59 -121t-66 -87.5t-75 -32.5zM42 -239q19 0 51.5 36t70.5 122q-38 -19 -70 -38.5t-52 -41.5t-20 -47q0 -14 6 -22.5t14 -8.5zM322 405q-40 0 -64 16t-34.5 37.5t-10.5 40.5q0 18 7 30t20 19q4 -31 23.5 -57.5t60.5 -26.5q37 0 59 17.5t34 35.5
q7 -7 9.5 -16t2.5 -16q0 -34 -32.5 -57t-74.5 -23z" />
    <glyph glyph-name="Gdotaccent" unicode="&#x120;" horiz-adv-x="574" 
d="M228 -87q-55 0 -100 29.5t-72 85.5t-27 135q0 77 24 156t65.5 150.5t95.5 128t113.5 89t119.5 32.5q42 0 67 -16.5t36 -43t11 -56.5q0 -35 -12.5 -69.5t-33.5 -57.5t-46 -23q-11 0 -20.5 6.5t-17.5 23.5q14 10 32.5 35.5t32.5 56.5t14 56q0 21 -13 35t-43 14
q-45 0 -92 -34t-90 -90.5t-78 -126.5t-55 -142.5t-20 -137.5q0 -91 39 -142t95 -51q40 0 75 27t61.5 70.5t42.5 94.5t20 99q-29 6 -54 8.5t-51 2.5q-15 0 -30.5 -0.5t-33.5 -0.5q8 33 27 47.5t48 14.5q30 0 60.5 -9.5t61 -20.5t57.5 -17l-9 -32q-18 -53 -29.5 -90t-18 -63.5
t-8.5 -47.5t-2 -41t1 -41t2 -48q-25 5 -39 17t-19 29t-5 34q0 7 0.5 14t2.5 15q-35 -46 -81 -75.5t-104 -29.5zM515 768q-19 0 -31 9.5t-12 27.5q0 23 22 37t45 14q20 0 29.5 -9.5t9.5 -25.5q0 -21 -20 -37t-43 -16z" />
    <glyph glyph-name="gdotaccent" unicode="&#x121;" horiz-adv-x="398" 
d="M46 -280q-24 0 -44.5 14.5t-20.5 47.5q0 31 18.5 56.5t48.5 47t65 39.5t67 34q12 30 23 64t21 75q-36 -48 -75.5 -79.5t-80.5 -31.5q-38 0 -60.5 27.5t-22.5 72.5q0 53 26.5 99.5t68 83t89 57t89.5 20.5q31 0 46 -11t15 -25q0 -11 -6.5 -17.5t-8.5 -7.5q-8 10 -18.5 13.5
t-24.5 3.5q-39 0 -75 -22t-64 -57t-44 -72.5t-16 -68.5q0 -21 9 -32.5t23 -11.5q29 0 69 37.5t77 90.5q3 10 4.5 18t3.5 18q8 31 21 49.5t38 18.5q5 0 12 -0.5t15 -2.5q0 -18 -10 -59.5t-27 -96.5t-39 -113q32 14 63.5 38t58.5 57t41 73l16 -15q-16 -46 -49 -83.5t-71.5 -65
t-70.5 -42.5q-28 -66 -59 -121t-66 -87.5t-75 -32.5zM42 -239q19 0 51.5 36t70.5 122q-38 -19 -70 -38.5t-52 -41.5t-20 -47q0 -14 6 -22.5t14 -8.5zM294 404q-19 0 -31 9.5t-12 27.5q0 23 22 37t45 14q20 0 29.5 -9.5t9.5 -25.5q0 -21 -20 -37t-43 -16z" />
    <glyph glyph-name="uni0122" unicode="&#x122;" horiz-adv-x="574" 
d="M228 -87q-55 0 -100 29.5t-72 85.5t-27 135q0 77 24 156t65.5 150.5t95.5 128t113.5 89t119.5 32.5q42 0 67 -16.5t36 -43t11 -56.5q0 -35 -12.5 -69.5t-33.5 -57.5t-46 -23q-11 0 -20.5 6.5t-17.5 23.5q14 10 32.5 35.5t32.5 56.5t14 56q0 21 -13 35t-43 14
q-45 0 -92 -34t-90 -90.5t-78 -126.5t-55 -142.5t-20 -137.5q0 -91 39 -142t95 -51q40 0 75 27t61.5 70.5t42.5 94.5t20 99q-29 6 -54 8.5t-51 2.5q-15 0 -30.5 -0.5t-33.5 -0.5q8 33 27 47.5t48 14.5q30 0 60.5 -9.5t61 -20.5t57.5 -17l-9 -32q-18 -53 -29.5 -90t-18 -63.5
t-8.5 -47.5t-2 -41t1 -41t2 -48q-25 5 -39 17t-19 29t-5 34q0 7 0.5 14t2.5 15q-35 -46 -81 -75.5t-104 -29.5zM190 -278q-11 7 -17 18t-6 24q0 20 9 44.5t23.5 42t29.5 17.5q12 0 21 -9.5t9 -21.5q-26 -28 -39 -54.5t-30 -60.5z" />
    <glyph glyph-name="uni0123" unicode="&#x123;" horiz-adv-x="398" 
d="M46 -280q-24 0 -44.5 14.5t-20.5 47.5q0 31 18.5 56.5t48.5 47t65 39.5t67 34q12 30 23 64t21 75q-36 -48 -75.5 -79.5t-80.5 -31.5q-38 0 -60.5 27.5t-22.5 72.5q0 53 26.5 99.5t68 83t89 57t89.5 20.5q31 0 46 -11t15 -25q0 -11 -6.5 -17.5t-8.5 -7.5q-8 10 -18.5 13.5
t-24.5 3.5q-39 0 -75 -22t-64 -57t-44 -72.5t-16 -68.5q0 -21 9 -32.5t23 -11.5q29 0 69 37.5t77 90.5q3 10 4.5 18t3.5 18q8 31 21 49.5t38 18.5q5 0 12 -0.5t15 -2.5q0 -18 -10 -59.5t-27 -96.5t-39 -113q32 14 63.5 38t58.5 57t41 73l16 -15q-16 -46 -49 -83.5t-71.5 -65
t-70.5 -42.5q-28 -66 -59 -121t-66 -87.5t-75 -32.5zM42 -239q19 0 51.5 36t70.5 122q-38 -19 -70 -38.5t-52 -41.5t-20 -47q0 -14 6 -22.5t14 -8.5zM276 386q-10 0 -19 8t-9 23q0 20 14.5 43.5t36 41t40.5 17.5q10 0 18 -7q-18 -26 -35 -58.5t-28 -61.5q-7 -6 -18 -6z" />
    <glyph glyph-name="Hcircumflex" unicode="&#x124;" horiz-adv-x="647" 
d="M66 -87q6 36 14 72.5t19.5 82t29.5 104t43 137.5q-15 -1 -32 -3t-33 -4q0 30 23.5 46t62.5 24q5 16 9.5 29t9.5 29.5t13.5 39t20.5 58.5t30 89q3 7 8 22.5t5 29.5q0 8 -2.5 11t-10.5 3q-22 0 -43 -18.5t-38 -47t-27 -59t-10 -53.5q0 -9 1.5 -18.5t6.5 -23.5q-39 0 -56 18
t-17 45q0 34 20.5 68t52.5 62.5t68 46t66 17.5t41 -16.5t11 -36.5q0 -11 -2.5 -22t-5.5 -21l-74 -244q12 1 25.5 1h26.5q49 0 91.5 -2t82.5 -6q23 77 41 133.5t32.5 96t25.5 63.5q4 8 11 21t20.5 23.5t34.5 10.5q-13 -36 -31.5 -93.5t-37.5 -125t-36 -134.5q16 0 39 -1.5
t44 -1.5q-28 -29 -51 -35.5t-43 -6.5q-10 -43 -19 -82t-15 -74q-14 -71 -20 -122.5t-6 -84.5q0 -14 1 -25.5t3 -21.5q-47 5 -64.5 24t-17.5 64q0 24 4.5 56t14.5 72q8 35 22 83.5t33 109.5q-61 0 -101.5 -1t-70.5 -2t-60 -4q-6 -22 -15 -50t-20.5 -66t-28 -91.5
t-40.5 -127.5q-11 -36 -36 -51.5t-43 -15.5zM575 744q-15 28 -32.5 47t-39.5 39q-29 -10 -53.5 -23t-49.5 -31q-6 5 -9 13t-3 12q0 15 13.5 30t33.5 28t39 21t30 8q12 0 28 -10.5t31 -27.5t24.5 -35.5t9.5 -34.5q0 -10 -4.5 -20t-17.5 -16z" />
    <glyph glyph-name="hcircumflex" unicode="&#x125;" horiz-adv-x="488" 
d="M46 -38q-21 0 -31 33.5t-10 76.5q0 47 16 112t42 137.5t58.5 142t67 126t65.5 90.5t54 34q20 0 30 -22.5t10 -45.5q0 -28 -12.5 -67.5t-34.5 -84.5t-51.5 -89t-63.5 -80t-71 -58q-12 -32 -20 -63.5t-11.5 -60.5t-3.5 -55q0 -7 0.5 -13.5t1.5 -11.5q7 18 18.5 47.5
t28 62.5t39 63t51.5 48.5t64 18.5q32 0 50.5 -14.5t26 -36.5t7.5 -45q0 -31 -10.5 -59.5t-21 -54t-10.5 -48.5q0 -18 8 -26t20 -8q22 0 51.5 22t58 58.5t49.5 80.5l15 -15q-22 -50 -53 -91t-67.5 -65.5t-77.5 -24.5q-37 0 -56 19.5t-19 48.5q0 21 7.5 46.5t14.5 52t7 48.5
q0 24 -10.5 34t-25.5 10q-25 0 -45 -20t-36.5 -51t-30.5 -65.5t-27.5 -66t-28.5 -51t-33 -19.5zM134 323q26 23 51 55.5t46.5 68.5t37.5 70t25.5 61t10.5 42q0 2 -0.5 3t-1.5 1q-6 0 -26 -25.5t-46.5 -68.5t-52.5 -97t-44 -110zM434 738q-15 28 -32.5 47t-39.5 39
q-29 -10 -53.5 -23t-49.5 -31q-6 5 -9 13t-3 12q0 15 13.5 30t33.5 28t39 21t30 8q12 0 28 -10.5t31 -27.5t24.5 -35.5t9.5 -34.5q0 -10 -4.5 -20t-17.5 -16z" />
    <glyph glyph-name="Hbar" unicode="&#x126;" horiz-adv-x="648" 
d="M66 -87q9 50 20 100.5t27.5 108t39.5 128.5t53.5 161t69.5 206q3 7 8 22.5t5 29.5t-13 14q-25 0 -48.5 -17.5t-39 -45t-15.5 -57.5q0 -8 0.5 -15.5t1.5 -14.5q-34 2 -50 15t-16 34q0 29 16 54t41.5 44t55 29.5t57.5 10.5q43 0 58 -16.5t15 -36.5q0 -11 -2.5 -22t-5.5 -21
q-28 -90 -49.5 -159t-37.5 -123t-29.5 -98t-26.5 -84.5t-26 -84t-30 -95.5q-11 -36 -36 -51.5t-43 -15.5zM489 -87q-47 5 -64.5 24t-17.5 64q0 27 8.5 72t22.5 101q10 37 22.5 81.5t27 93t29.5 96t29.5 90.5t27 77t21.5 54q4 8 11 21t20.5 23.5t34.5 10.5q-13 -34 -27 -79.5
t-29.5 -98t-31 -109.5t-29 -113t-23.5 -107q-17 -80 -26.5 -145t-9.5 -109q0 -14 1 -25.5t3 -21.5zM106 279q0 26 18.5 41t48.5 22.5t65.5 10t68.5 2.5q84 0 168.5 -7t162.5 -7q-15 -18 -38 -28t-57.5 -14t-84.5 -5t-120 -1q-40 0 -81.5 -2t-80.5 -4.5t-70 -7.5zM136 418
q2 25 36.5 41.5t89.5 24.5t118 8q84 0 156 -2t140 -7q-5 -22 -37 -32t-96 -13t-166 -3q-91 0 -146 -3.5t-95 -13.5z" />
    <glyph glyph-name="hbar" unicode="&#x127;" horiz-adv-x="489" 
d="M46 -38q-21 0 -31 33.5t-10 76.5q0 48 16 115t43.5 141t61 144.5t68.5 125.5q33 52 70.5 81.5t84.5 29.5q-41 -46 -80.5 -106t-73.5 -126.5t-59.5 -134.5t-40.5 -131.5t-15 -115.5q0 -9 0.5 -17t1.5 -15q7 18 18.5 47.5t28 62.5t39 63t51.5 48.5t64 18.5q32 0 50.5 -14.5
t26 -36.5t7.5 -45q0 -31 -10.5 -59.5t-21 -54t-10.5 -48.5q0 -18 8 -26t20 -8q22 0 51.5 22t58 58.5t49.5 80.5l15 -15q-22 -50 -53 -91t-67.5 -65.5t-77.5 -24.5q-37 0 -56 19.5t-19 48.5q0 21 7.5 46.5t14.5 52t7 48.5q0 24 -10.5 34t-25.5 10q-25 0 -45 -20t-36.5 -51
t-30.5 -65.5t-27.5 -66t-28.5 -51t-33 -19.5zM37 518q17 37 66 47.5t121 11.5q39 1 78.5 -1t73.5 -4t53 -4q-33 -23 -65 -30t-54 -7q-61 0 -103 -0.5t-71.5 -2t-52.5 -4t-46 -6.5z" />
    <glyph glyph-name="Itilde" unicode="&#x128;" horiz-adv-x="488" 
d="M-25 -88q4 41 27.5 59.5t61 24t80.5 5.5q18 39 35 93.5t33 116.5t31 127t28.5 125.5t25.5 109.5t23 80q-52 -1 -90.5 -3.5t-72 -7.5t-70.5 -12q9 46 60 67.5t155 21.5q52 0 107.5 -4t101.5 -9t72 -9q-31 -29 -59.5 -36t-50.5 -7h-58t-50 -1q-6 -29 -14.5 -76.5t-19 -104
t-21 -114.5t-21 -109t-19.5 -86q-14 -56 -32.5 -99t-43.5 -64q53 -4 108.5 -10.5t114.5 -8.5q-36 -34 -70.5 -42.5t-57.5 -8.5q-57 0 -99.5 -0.5t-77 -2t-67 -5.5t-70.5 -10zM445 756q-28 0 -57.5 12t-59 23.5t-57.5 11.5q-15 0 -30 -2.5t-31 -10.5q15 29 37.5 42.5
t51.5 13.5q28 0 57.5 -12t60 -24t61.5 -12q25 0 50 9q-15 -26 -35 -38.5t-48 -12.5z" />
    <glyph glyph-name="itilde" unicode="&#x129;" horiz-adv-x="244" 
d="M77 -29q-42 0 -63 25.5t-21 62.5q0 23 8 58t22.5 73.5t33.5 72.5t40.5 55.5t42.5 21.5q11 0 19.5 -7t8.5 -20t-15.5 -39t-36.5 -60.5t-36.5 -71.5t-15.5 -71q0 -33 12 -44t35 -11q34 0 73.5 34t82.5 119l13 -14q-33 -88 -87.5 -136t-115.5 -48zM284 400q-28 0 -57.5 12
t-59 23.5t-57.5 11.5q-15 0 -30 -2.5t-31 -10.5q15 29 37.5 42.5t51.5 13.5q28 0 57.5 -12t60 -24t61.5 -12q25 0 50 9q-15 -26 -35 -38.5t-48 -12.5z" />
    <glyph glyph-name="Imacron" unicode="&#x12a;" horiz-adv-x="488" 
d="M-25 -88q4 41 27.5 59.5t61 24t80.5 5.5q18 39 35 93.5t33 116.5t31 127t28.5 125.5t25.5 109.5t23 80q-52 -1 -90.5 -3.5t-72 -7.5t-70.5 -12q9 46 60 67.5t155 21.5q52 0 107.5 -4t101.5 -9t72 -9q-31 -29 -59.5 -36t-50.5 -7h-58t-50 -1q-6 -29 -14.5 -76.5t-19 -104
t-21 -114.5t-21 -109t-19.5 -86q-14 -56 -32.5 -99t-43.5 -64q53 -4 108.5 -10.5t114.5 -8.5q-36 -34 -70.5 -42.5t-57.5 -8.5q-57 0 -99.5 -0.5t-77 -2t-67 -5.5t-70.5 -10zM462 756q-23 0 -56 5.5t-69.5 13.5t-69.5 15t-56 10q11 29 49 29q36 0 78.5 -7.5t85.5 -18.5
t78 -23q-13 -24 -40 -24z" />
    <glyph glyph-name="imacron" unicode="&#x12b;" horiz-adv-x="244" 
d="M77 -29q-42 0 -63 25.5t-21 62.5q0 23 8 58t22.5 73.5t33.5 72.5t40.5 55.5t42.5 21.5q11 0 19.5 -7t8.5 -20t-15.5 -39t-36.5 -60.5t-36.5 -71.5t-15.5 -71q0 -33 12 -44t35 -11q34 0 73.5 34t82.5 119l13 -14q-33 -88 -87.5 -136t-115.5 -48zM283 427q-23 0 -56 5.5
t-69.5 13.5t-69.5 15t-56 10q11 29 49 29q36 0 78.5 -7.5t85.5 -18.5t78 -23q-13 -24 -40 -24z" />
    <glyph glyph-name="Ibreve" unicode="&#x12c;" horiz-adv-x="488" 
d="M-25 -88q4 41 27.5 59.5t61 24t80.5 5.5q18 39 35 93.5t33 116.5t31 127t28.5 125.5t25.5 109.5t23 80q-52 -1 -90.5 -3.5t-72 -7.5t-70.5 -12q9 46 60 67.5t155 21.5q52 0 107.5 -4t101.5 -9t72 -9q-31 -29 -59.5 -36t-50.5 -7h-58t-50 -1q-6 -29 -14.5 -76.5t-19 -104
t-21 -114.5t-21 -109t-19.5 -86q-14 -56 -32.5 -99t-43.5 -64q53 -4 108.5 -10.5t114.5 -8.5q-36 -34 -70.5 -42.5t-57.5 -8.5q-57 0 -99.5 -0.5t-77 -2t-67 -5.5t-70.5 -10zM395 757q-40 0 -64 16t-34.5 37.5t-10.5 40.5q0 18 7 30t20 19q4 -31 23.5 -57.5t60.5 -26.5
q37 0 59 17.5t34 35.5q7 -7 9.5 -16t2.5 -16q0 -34 -32.5 -57t-74.5 -23z" />
    <glyph glyph-name="ibreve" unicode="&#x12d;" horiz-adv-x="244" 
d="M77 -29q-42 0 -63 25.5t-21 62.5q0 23 8 58t22.5 73.5t33.5 72.5t40.5 55.5t42.5 21.5q11 0 19.5 -7t8.5 -20t-15.5 -39t-36.5 -60.5t-36.5 -71.5t-15.5 -71q0 -33 12 -44t35 -11q34 0 73.5 34t82.5 119l13 -14q-33 -88 -87.5 -136t-115.5 -48zM211 412q-40 0 -64 16
t-34.5 37.5t-10.5 40.5q0 18 7 30t20 19q4 -31 23.5 -57.5t60.5 -26.5q37 0 59 17.5t34 35.5q7 -7 9.5 -16t2.5 -16q0 -34 -32.5 -57t-74.5 -23z" />
    <glyph glyph-name="Iogonek" unicode="&#x12e;" horiz-adv-x="488" 
d="M-25 -88q4 41 27.5 59.5t61 24t80.5 5.5q18 39 35 93.5t33 116.5t31 127t28.5 125.5t25.5 109.5t23 80q-52 -1 -90.5 -3.5t-72 -7.5t-70.5 -12q9 46 60 67.5t155 21.5q52 0 107.5 -4t101.5 -9t72 -9q-31 -29 -59.5 -36t-50.5 -7h-58t-50 -1q-6 -29 -14.5 -76.5t-19 -104
t-21 -114.5t-21 -109t-19.5 -86q-14 -56 -32.5 -99t-43.5 -64q53 -4 108.5 -10.5t114.5 -8.5q-36 -34 -70.5 -42.5t-57.5 -8.5q-57 0 -99.5 -0.5t-77 -2t-67 -5.5t-70.5 -10zM186 -205q-33 0 -53 20.5t-20 51.5q0 33 23 54.5t53 24.5q-14 -10 -22.5 -24.5t-8.5 -33.5
q0 -16 11 -29t33 -13q16 0 29 5t26 14q-1 -33 -20.5 -51.5t-50.5 -18.5z" />
    <glyph glyph-name="iogonek" unicode="&#x12f;" horiz-adv-x="243" 
d="M77 -29q-42 0 -63 25.5t-21 62.5q0 23 8 58t22.5 73.5t33.5 72.5t40.5 55.5t42.5 21.5q11 0 19.5 -7t8.5 -20t-15.5 -39t-36.5 -60.5t-36.5 -71.5t-15.5 -71q0 -33 12 -44t35 -11q34 0 73.5 34t82.5 119l13 -14q-33 -88 -87.5 -136t-115.5 -48zM196 425q-18 0 -32.5 9
t-14.5 27q0 24 25.5 40.5t52.5 16.5q17 0 28 -8t11 -27q0 -21 -22 -39.5t-48 -18.5zM91 -151q-33 0 -53 20.5t-20 51.5q0 33 23 54.5t53 24.5q-14 -10 -22.5 -24.5t-8.5 -33.5q0 -16 11 -29t33 -13q16 0 29 5t26 14q-1 -33 -20.5 -51.5t-50.5 -18.5z" />
    <glyph glyph-name="Idotaccent" unicode="&#x130;" horiz-adv-x="488" 
d="M-25 -88q4 41 27.5 59.5t61 24t80.5 5.5q18 39 35 93.5t33 116.5t31 127t28.5 125.5t25.5 109.5t23 80q-52 -1 -90.5 -3.5t-72 -7.5t-70.5 -12q9 46 60 67.5t155 21.5q52 0 107.5 -4t101.5 -9t72 -9q-31 -29 -59.5 -36t-50.5 -7h-58t-50 -1q-6 -29 -14.5 -76.5t-19 -104
t-21 -114.5t-21 -109t-19.5 -86q-14 -56 -32.5 -99t-43.5 -64q53 -4 108.5 -10.5t114.5 -8.5q-36 -34 -70.5 -42.5t-57.5 -8.5q-57 0 -99.5 -0.5t-77 -2t-67 -5.5t-70.5 -10zM362 767q-19 0 -31 9.5t-12 27.5q0 23 22 37t45 14q20 0 29.5 -9.5t9.5 -25.5q0 -21 -20 -37
t-43 -16z" />
    <glyph glyph-name="dotlessi" unicode="&#x131;" horiz-adv-x="244" 
d="M77 -29q-42 0 -63 25.5t-21 62.5q0 23 8 58t22.5 73.5t33.5 72.5t40.5 55.5t42.5 21.5q11 0 19.5 -7t8.5 -20t-15.5 -39t-36.5 -60.5t-36.5 -71.5t-15.5 -71q0 -33 12 -44t35 -11q34 0 73.5 34t82.5 119l13 -14q-33 -88 -87.5 -136t-115.5 -48z" />
    <glyph glyph-name="IJ" unicode="&#x132;" horiz-adv-x="918" 
d="M-25 -88q4 41 27.5 59.5t61 24t80.5 5.5q18 39 35 93.5t33 116.5t31 127t28.5 125.5t25.5 109.5t23 80q-52 -1 -90.5 -3.5t-72 -7.5t-70.5 -12q9 46 60 67.5t155 21.5q52 0 107.5 -4t101.5 -9t72 -9q-31 -29 -59.5 -36t-50.5 -7h-58t-50 -1q-6 -29 -14.5 -76.5t-19 -104
t-21 -114.5t-21 -109t-19.5 -86q-14 -56 -32.5 -99t-43.5 -64q53 -4 108.5 -10.5t114.5 -8.5q-36 -34 -70.5 -42.5t-57.5 -8.5q-57 0 -99.5 -0.5t-77 -2t-67 -5.5t-70.5 -10zM583 -86q-25 0 -52.5 9.5t-46 38t-18.5 85.5q0 40 9 79t27 65.5t44 26.5q13 0 35 -10
q-19 -47 -28.5 -87.5t-9.5 -73.5q0 -41 17 -65t46 -24q24 0 44.5 22t41.5 79q16 43 33 104t34 130.5t32.5 138t28 127.5t19.5 99q-49 0 -84.5 -2.5t-64.5 -7t-61 -12.5q6 43 47.5 62.5t126.5 19.5q41 0 84.5 -4t81 -9t57.5 -9q-15 -24 -42 -30.5t-45 -6.5q-17 0 -34 -0.5
t-28 -0.5q8 -8 12 -20t4 -21q0 -13 -7 -57t-20 -106.5t-30 -133t-38 -138t-45 -120.5q-26 -58 -53.5 -90.5t-57 -45t-59.5 -12.5z" />
    <glyph glyph-name="ij" unicode="&#x133;" horiz-adv-x="469" 
d="M107 -280q-27 0 -43 16t-16 40q0 38 35 79.5t90 74.5q16 10 33.5 18t36.5 16q18 44 33 98.5t27 119.5q-33 -64 -66 -111t-71 -73.5t-89 -26.5q-42 0 -63 25.5t-21 62.5q0 23 8 58t22.5 73.5t33.5 72.5t40.5 55.5t42.5 21.5q11 0 19.5 -7t8.5 -20t-15.5 -39t-36.5 -60.5
t-36.5 -71.5t-15.5 -71q0 -33 12 -44t35 -11q30 0 65.5 27t73.5 96q19 33 32.5 69.5t26 68.5t26 52t31.5 20q13 0 20.5 -10t7.5 -25q0 -11 -5 -41t-14.5 -74t-23.5 -95t-32 -103q29 17 57.5 35.5t56.5 48t56 78.5l16 -10q-29 -63 -63.5 -97.5t-69.5 -54.5t-66 -39
q-22 -61 -52.5 -116.5t-67 -90.5t-79.5 -35zM97 -237q19 0 54 39.5t72 116.5q-70 -35 -105 -71.5t-35 -64.5q0 -11 4 -15.5t10 -4.5zM196 425q-18 0 -32.5 9t-14.5 28q0 23 25.5 39.5t52.5 16.5q17 0 28 -8t11 -27q0 -21 -22 -39.5t-48 -18.5zM381 428q-18 0 -32.5 9
t-14.5 27q0 17 12.5 30t31 20.5t35.5 7.5q16 0 27.5 -8t11.5 -25q0 -24 -21.5 -42.5t-49.5 -18.5z" />
    <glyph glyph-name="Jcircumflex" unicode="&#x134;" horiz-adv-x="430" 
d="M95 -86q-25 0 -52.5 9.5t-46 38t-18.5 85.5q0 40 9 79t27 65.5t44 26.5q13 0 35 -10q-19 -47 -28.5 -87.5t-9.5 -73.5q0 -41 17 -65t46 -24q24 0 44.5 22t41.5 79q16 43 33 104t34 130.5t32.5 138t28 127.5t19.5 99q-49 0 -84.5 -2.5t-64.5 -7t-61 -12.5q6 43 47.5 62.5
t126.5 19.5q41 0 84.5 -4t81 -9t57.5 -9q-15 -24 -42 -30.5t-45 -6.5q-17 0 -34 -0.5t-28 -0.5q8 -8 12 -20t4 -21q0 -13 -7 -57t-20 -106.5t-30 -133t-38 -138t-45 -120.5q-26 -58 -53.5 -90.5t-57 -45t-59.5 -12.5zM486 744q-15 28 -32.5 47t-39.5 39q-29 -10 -53.5 -23
t-49.5 -31q-6 5 -9 13t-3 12q0 15 13.5 30t33.5 28t39 21t30 8q12 0 28 -10.5t31 -27.5t24.5 -35.5t9.5 -34.5q0 -10 -4.5 -20t-17.5 -16z" />
    <glyph glyph-name="jcircumflex" unicode="&#x135;" horiz-adv-x="225" 
d="M-136 -280q-28 0 -43.5 16t-15.5 40q0 39 36.5 82t93.5 75q15 9 31 16t33 15q18 44 33.5 98.5t27.5 119.5q-11 -19 -21.5 -35t-17.5 -30l-15 23q18 33 32 69.5t26.5 68t26.5 51.5t31 20q13 0 21 -10t8 -25q0 -11 -5 -41t-14.5 -74t-23.5 -95t-32 -103q29 17 57 35.5
t56.5 48t56.5 78.5l16 -10q-29 -63 -64 -97.5t-70 -54.5t-66 -39q-22 -61 -52 -116.5t-67 -90.5t-79 -35zM-146 -237q18 0 53.5 39.5t72.5 116.5q-70 -35 -105 -71.5t-35 -64.5q0 -11 4 -15.5t10 -4.5zM250 403q-15 28 -32.5 47t-39.5 39q-29 -10 -53.5 -23t-49.5 -31
q-6 5 -9 13t-3 12q0 15 13.5 30t33.5 28t39 21t30 8q12 0 28 -10.5t31 -27.5t24.5 -35.5t9.5 -34.5q0 -10 -4.5 -20t-17.5 -16z" />
    <glyph glyph-name="uni0136" unicode="&#x136;" horiz-adv-x="621" 
d="M526 -87q-23 0 -53 25t-64 66t-66.5 90t-61 98t-48.5 88l-93 -300q-7 -24 -24.5 -34t-37.5 -12.5t-39 -2.5q13 30 27 65.5t31.5 86t42 122t59.5 173t84 239.5q2 7 7 20.5t5 24.5q0 10 -4.5 15.5t-16.5 5.5q-24 0 -45.5 -19t-38.5 -47.5t-27 -58.5t-10 -53q0 -21 8 -42
q-39 0 -56 18t-17 45q0 34 21 68t53 62.5t68 46t66 17.5q31 0 41 -17.5t10 -37.5q0 -11 -2 -21t-5 -20l-77 -251q12 12 29 25t46 35q52 41 103.5 89t96.5 99.5t77 100.5q10 -9 13 -25t3 -26q0 -31 -25.5 -67.5t-66.5 -75.5t-90 -77.5t-97.5 -71.5t-87.5 -58
q31 -50 60.5 -94.5t64.5 -87.5t82.5 -89t113.5 -98q-8 -16 -25 -27.5t-34 -11.5zM236 -258q-11 7 -17 18t-6 24q0 20 9 44.5t23.5 42t29.5 17.5q12 0 21 -9.5t9 -21.5q-26 -28 -39 -54.5t-30 -60.5z" />
    <glyph glyph-name="uni0137" unicode="&#x137;" horiz-adv-x="457" 
d="M310 -38q-30 0 -52 19.5t-35 49.5t-19.5 61t-6.5 54q13 2 34 8t43 16.5t37 27t15 39.5q0 19 -13 30.5t-33 11.5q-29 0 -55 -19.5t-47.5 -51t-38.5 -68t-30 -70t-22 -57.5q-9 -26 -19.5 -35t-27.5 -9q-10 0 -19 7.5t-13.5 25.5t-4.5 48q0 58 17 129.5t45.5 146.5t62.5 144
t68.5 124t64.5 87.5t49 32.5q16 0 26.5 -20t10.5 -50q0 -34 -15 -76t-42.5 -84.5t-65 -80.5t-83.5 -65q-29 -71 -44.5 -139t-18.5 -118q17 41 40 85.5t51.5 84.5t61.5 64.5t70 24.5q39 0 67.5 -27t28.5 -68q0 -30 -16.5 -52.5t-40 -36.5t-47 -21t-39.5 -7q2 -12 7 -32
t14.5 -40.5t23.5 -34.5t33 -14q27 0 53 22.5t51 60t45 83.5l12 -15q-16 -49 -45 -94.5t-65 -73.5t-73 -28zM166 396q34 29 65.5 68t52 80.5t21.5 74.5q0 3 -0.5 4l-0.5 1q-10 -2 -32.5 -34t-50.5 -82.5t-55 -111.5zM110 -220q-11 7 -17 18t-6 24q0 20 9 44.5t23.5 42
t29.5 17.5q12 0 21 -9.5t9 -21.5q-26 -28 -39 -54.5t-30 -60.5z" />
    <glyph glyph-name="kgreenlandic" unicode="&#x138;" horiz-adv-x="393" 
d="M242 -38q-41 0 -69.5 20t-44 53.5t-15.5 71.5q0 36 11 68l23 -11q-24 -26 -46.5 -58t-42 -64t-35.5 -57q-18 0 -34 6t-27 21q1 5 11.5 30.5t23.5 62t23.5 75.5t10.5 72q7 7 21 15t29 8q32 0 32 -29q0 -13 -6 -41.5t-16 -62.5q27 37 59.5 71.5t68.5 56.5t73 22
q32 0 48.5 -15.5t16.5 -37.5q0 -32 -20.5 -45t-49.5 -15q0 23 -11 34t-30 11q-35 0 -54 -30t-19 -70q0 -27 9.5 -54t29.5 -45t50 -18q31 0 57.5 22.5t50.5 60t46 83.5l14 -15q-17 -49 -44.5 -94t-63.5 -73.5t-80 -28.5z" />
    <glyph glyph-name="Lacute" unicode="&#x139;" horiz-adv-x="596" 
d="M423 -87q-36 0 -81.5 15t-93 36t-93.5 41q-25 -28 -53 -43t-61 -15q-34 0 -58.5 15.5t-37 37t-12.5 38.5q0 19 17.5 33.5t61.5 14.5q26 0 58.5 -5.5t66.5 -14.5q23 40 43 95t39 115.5t39 119.5q-49 16 -76 46t-27 62q0 20 9.5 39t26.5 32t41 13q-11 -14 -14.5 -33.5
t-3.5 -32.5q0 -35 15.5 -58.5t38.5 -37.5q19 58 40.5 111t48 94t58.5 65t72 24q22 0 46.5 -9.5t42 -32t17.5 -64.5q0 -34 -14.5 -73t-44.5 -74.5t-77.5 -59t-113.5 -24.5h-4.5h-8.5q-19 -59 -40.5 -119.5t-46 -115.5t-52.5 -97q41 -12 88.5 -26.5t94 -24t82.5 -9.5
q23 0 42.5 5t39.5 15q-18 -52 -46.5 -75t-68.5 -23zM33 -19q25 0 42 12t33 30q-31 12 -58.5 20t-49.5 8q-19 0 -27 -6.5t-8 -16.5q0 -16 20 -31.5t48 -15.5zM340 411q44 2 79 27t59.5 61.5t37 74t12.5 65.5q0 27 -10 37t-24 10q-29 0 -55.5 -38t-50.5 -100.5t-48 -136.5z
M533 748q-11 5 -16 15.5t-5 15.5q0 8 10 27t26 39.5t34 35.5t33 15q10 0 18 -7.5t10 -26.5q-36 -33 -62.5 -59.5t-47.5 -54.5z" />
    <glyph glyph-name="lacute" unicode="&#x13a;" horiz-adv-x="242" 
d="M85 -30q-46 0 -64.5 31t-18.5 74q0 49 18 115t47.5 138.5t65 142t71 126t66 90t48.5 33.5q12 0 20.5 -13t13.5 -31.5t5 -33.5q0 -27 -13.5 -70.5t-38 -96t-58 -107t-73.5 -104t-86 -85.5q-4 -25 -7.5 -50t-3.5 -46q0 -37 11.5 -54.5t31.5 -17.5q26 0 52.5 24t50.5 60.5
t42 75.5l21 -12q-42 -87 -93 -138t-108 -51zM103 232q35 36 66 80t57.5 90.5t46.5 90t31 78t12 54.5q0 4 -1 5.5l-1 1.5q-8 0 -26.5 -23.5t-43 -63.5t-50.5 -92t-50 -109t-41 -112zM368 748q-11 5 -16 15.5t-5 15.5q0 8 10 27t26 39.5t34 35.5t33 15q10 0 18 -7.5t10 -26.5
q-36 -33 -62.5 -59.5t-47.5 -54.5z" />
    <glyph glyph-name="uni013B" unicode="&#x13b;" horiz-adv-x="596" 
d="M423 -87q-36 0 -81.5 15t-93 36t-93.5 41q-25 -28 -53 -43t-61 -15q-34 0 -58.5 15.5t-37 37t-12.5 38.5q0 19 17.5 33.5t61.5 14.5q26 0 58.5 -5.5t66.5 -14.5q23 40 43 95t39 115.5t39 119.5q-49 16 -76 46t-27 62q0 20 9.5 39t26.5 32t41 13q-11 -14 -14.5 -33.5
t-3.5 -32.5q0 -35 15.5 -58.5t38.5 -37.5q19 58 40.5 111t48 94t58.5 65t72 24q22 0 46.5 -9.5t42 -32t17.5 -64.5q0 -34 -14.5 -73t-44.5 -74.5t-77.5 -59t-113.5 -24.5h-4.5h-8.5q-19 -59 -40.5 -119.5t-46 -115.5t-52.5 -97q41 -12 88.5 -26.5t94 -24t82.5 -9.5
q23 0 42.5 5t39.5 15q-18 -52 -46.5 -75t-68.5 -23zM33 -19q25 0 42 12t33 30q-31 12 -58.5 20t-49.5 8q-19 0 -27 -6.5t-8 -16.5q0 -16 20 -31.5t48 -15.5zM340 411q44 2 79 27t59.5 61.5t37 74t12.5 65.5q0 27 -10 37t-24 10q-29 0 -55.5 -38t-50.5 -100.5t-48 -136.5z
M154 -242q-11 7 -17 18t-6 24q0 20 9 44.5t23.5 42t29.5 17.5q12 0 21 -9.5t9 -21.5q-26 -28 -39 -54.5t-30 -60.5z" />
    <glyph glyph-name="uni013C" unicode="&#x13c;" horiz-adv-x="242" 
d="M85 -30q-46 0 -64.5 31t-18.5 74q0 49 18 115t47.5 138.5t65 142t71 126t66 90t48.5 33.5q12 0 20.5 -13t13.5 -31.5t5 -33.5q0 -27 -13.5 -70.5t-38 -96t-58 -107t-73.5 -104t-86 -85.5q-4 -25 -7.5 -50t-3.5 -46q0 -37 11.5 -54.5t31.5 -17.5q26 0 52.5 24t50.5 60.5
t42 75.5l21 -12q-42 -87 -93 -138t-108 -51zM103 232q35 36 66 80t57.5 90.5t46.5 90t31 78t12 54.5q0 4 -1 5.5l-1 1.5q-8 0 -26.5 -23.5t-43 -63.5t-50.5 -92t-50 -109t-41 -112zM26 -209q-11 7 -17 18t-6 24q0 20 9 44.5t23.5 42t29.5 17.5q12 0 21 -9.5t9 -21.5
q-26 -28 -39 -54.5t-30 -60.5z" />
    <glyph glyph-name="Lcaron" unicode="&#x13d;" horiz-adv-x="596" 
d="M423 -87q-36 0 -81.5 15t-93 36t-93.5 41q-25 -28 -53 -43t-61 -15q-34 0 -58.5 15.5t-37 37t-12.5 38.5q0 19 17.5 33.5t61.5 14.5q26 0 58.5 -5.5t66.5 -14.5q23 40 43 95t39 115.5t39 119.5q-49 16 -76 46t-27 62q0 20 9.5 39t26.5 32t41 13q-11 -14 -14.5 -33.5
t-3.5 -32.5q0 -35 15.5 -58.5t38.5 -37.5q19 58 40.5 111t48 94t58.5 65t72 24q22 0 46.5 -9.5t42 -32t17.5 -64.5q0 -34 -14.5 -73t-44.5 -74.5t-77.5 -59t-113.5 -24.5h-4.5h-8.5q-19 -59 -40.5 -119.5t-46 -115.5t-52.5 -97q41 -12 88.5 -26.5t94 -24t82.5 -9.5
q23 0 42.5 5t39.5 15q-18 -52 -46.5 -75t-68.5 -23zM33 -19q25 0 42 12t33 30q-31 12 -58.5 20t-49.5 8q-19 0 -27 -6.5t-8 -16.5q0 -16 20 -31.5t48 -15.5zM340 411q44 2 79 27t59.5 61.5t37 74t12.5 65.5q0 27 -10 37t-24 10q-29 0 -55.5 -38t-50.5 -100.5t-48 -136.5z
M653 556q-10 0 -19 7.5t-9 22.5q0 20 14.5 43.5t36 41t40.5 17.5q10 0 18 -7q-18 -26 -35 -58.5t-28 -61.5q-7 -5 -18 -5z" />
    <glyph glyph-name="lcaron" unicode="&#x13e;" horiz-adv-x="242" 
d="M85 -30q-46 0 -64.5 31t-18.5 74q0 49 18 115t47.5 138.5t65 142t71 126t66 90t48.5 33.5q12 0 20.5 -13t13.5 -31.5t5 -33.5q0 -27 -13.5 -70.5t-38 -96t-58 -107t-73.5 -104t-86 -85.5q-4 -25 -7.5 -50t-3.5 -46q0 -37 11.5 -54.5t31.5 -17.5q26 0 52.5 24t50.5 60.5
t42 75.5l21 -12q-42 -87 -93 -138t-108 -51zM103 232q35 36 66 80t57.5 90.5t46.5 90t31 78t12 54.5q0 4 -1 5.5l-1 1.5q-8 0 -26.5 -23.5t-43 -63.5t-50.5 -92t-50 -109t-41 -112zM405 560q-10 0 -19 7.5t-9 22.5q0 20 14.5 43.5t36 41t40.5 17.5q10 0 18 -7
q-18 -26 -35 -58.5t-28 -61.5q-7 -5 -18 -5z" />
    <glyph glyph-name="Ldot" unicode="&#x13f;" horiz-adv-x="596" 
d="M423 -87q-36 0 -81.5 15t-93 36t-93.5 41q-25 -28 -53 -43t-61 -15q-34 0 -58.5 15.5t-37 37t-12.5 38.5q0 19 17.5 33.5t61.5 14.5q26 0 58.5 -5.5t66.5 -14.5q23 40 43 95t39 115.5t39 119.5q-49 16 -76 46t-27 62q0 20 9.5 39t26.5 32t41 13q-11 -14 -14.5 -33.5
t-3.5 -32.5q0 -35 15.5 -58.5t38.5 -37.5q19 58 40.5 111t48 94t58.5 65t72 24q22 0 46.5 -9.5t42 -32t17.5 -64.5q0 -34 -14.5 -73t-44.5 -74.5t-77.5 -59t-113.5 -24.5h-4.5h-8.5q-19 -59 -40.5 -119.5t-46 -115.5t-52.5 -97q41 -12 88.5 -26.5t94 -24t82.5 -9.5
q23 0 42.5 5t39.5 15q-18 -52 -46.5 -75t-68.5 -23zM33 -19q25 0 42 12t33 30q-31 12 -58.5 20t-49.5 8q-19 0 -27 -6.5t-8 -16.5q0 -16 20 -31.5t48 -15.5zM340 411q44 2 79 27t59.5 61.5t37 74t12.5 65.5q0 27 -10 37t-24 10q-29 0 -55.5 -38t-50.5 -100.5t-48 -136.5z
M478 233q-20 0 -29 10t-9 24q0 11 10 21.5t24.5 17.5t27.5 7q11 0 21 -5.5t10 -21.5q0 -9 -7.5 -21.5t-19.5 -22t-28 -9.5z" />
    <glyph glyph-name="ldot" unicode="&#x140;" horiz-adv-x="323" 
d="M104 -30q-54 0 -78 33t-24 79q0 48 18 113t47.5 137t65 141t71 124.5t66 89t48.5 33.5q12 0 20.5 -13t13.5 -31.5t5 -33.5q0 -27 -13.5 -70.5t-38 -96t-58 -107t-73.5 -104t-86 -85.5q-4 -23 -7.5 -46.5t-3.5 -42.5q0 -41 16.5 -60t45.5 -19q39 0 83 28.5t85 73t71 92.5
l21 -11q-42 -68 -90 -118.5t-100 -78t-105 -27.5zM103 232q33 34 63 75.5t56 85.5t46.5 86t33.5 76.5t15 57.5q1 7 1 13t-4 6q-8 2 -26.5 -21.5t-42.5 -64t-50.5 -92.5t-50.5 -109.5t-41 -112.5zM303 288q-21 0 -29.5 10t-8.5 23q0 11 10 22t24.5 17.5t27.5 6.5
q11 0 20.5 -5t9.5 -22q0 -9 -7 -21t-19.5 -21.5t-27.5 -9.5z" />
    <glyph glyph-name="Lslash" unicode="&#x141;" horiz-adv-x="597" 
d="M423 -87q-36 0 -81.5 15t-93 36t-93.5 41q-25 -28 -53 -43t-61 -15q-34 0 -58.5 15.5t-37 37t-12.5 38.5q0 19 17.5 33.5t61.5 14.5q26 0 58.5 -5.5t66.5 -14.5q20 34 39.5 86t39 114t39.5 125q29 92 58 155t58 101.5t59.5 55.5t63.5 17q-49 -50 -88 -137.5t-76 -200.5
q-19 -57 -37 -106.5t-34.5 -91t-33 -74.5t-34.5 -59q41 -12 88.5 -26.5t94 -24t82.5 -9.5q23 0 42.5 5t39.5 15q-18 -52 -46.5 -75t-68.5 -23zM33 -19q25 0 42 12t33 30q-31 12 -58.5 20t-49.5 8q-19 0 -27 -6.5t-8 -16.5q0 -16 20 -31.5t48 -15.5zM125 331q7 33 49 52
t113 28t162 9q20 0 42.5 -1t33.5 -3q0 -20 -13 -29t-45.5 -13t-93.5 -10q-54 -4 -91.5 -8t-73 -9.5t-83.5 -15.5z" />
    <glyph glyph-name="lslash" unicode="&#x142;" horiz-adv-x="243" 
d="M85 -30q-46 0 -64.5 31t-18.5 74q0 48 18 113.5t47 138t64.5 141.5t69.5 125q32 49 55.5 76.5t46.5 39t51 11.5q-47 -64 -92.5 -141.5t-89.5 -172.5q-38 -83 -66.5 -167t-28.5 -156q0 -37 11.5 -54.5t31.5 -17.5q26 0 52.5 24t50.5 60.5t42 75.5l21 -12q-42 -87 -93 -138
t-108 -51zM105 631q13 26 39.5 38.5t64.5 16t84 5.5q38 1 78 -1t74 -4t54 -4q-17 -14 -33 -22t-35 -11t-47 -3.5t-70 -0.5q-46 0 -79 -1t-63 -4t-67 -9z" />
    <glyph glyph-name="Nacute" unicode="&#x143;" horiz-adv-x="662" 
d="M53 -87q14 49 32.5 108.5t43.5 140.5t58.5 192t77.5 263l4 16t3 24q0 8 -3 12.5t-11 4.5q-22 0 -42 -17.5t-35.5 -44t-24.5 -55t-9 -51.5q0 -22 8 -43q-40 0 -56.5 18t-16.5 45q0 34 21 68t53 62.5t67 46t64 17.5q33 0 54.5 -25.5t35 -69.5t23 -100t17.5 -118
q10 -69 17 -117.5t12 -82t9 -58.5t8 -49q10 47 23 102.5t27 114t28.5 114t28.5 103.5t26 83t21 52q8 15 27 33.5t48 18.5q-17 -46 -38.5 -112.5t-43.5 -144t-42.5 -158t-37 -155.5t-26 -137t-9.5 -101q-35 0 -57 17.5t-33 66.5q-4 20 -12 62t-17.5 97t-19.5 115t-19.5 118
t-17.5 104.5t-13 73.5q-46 -167 -78.5 -283t-56.5 -188.5t-42.5 -112.5t-36.5 -55t-39 -15zM503 748q-11 5 -16 15.5t-5 15.5q0 8 10 27t26 39.5t34 35.5t33 15q10 0 18 -7.5t10 -26.5q-36 -33 -62.5 -59.5t-47.5 -54.5z" />
    <glyph glyph-name="nacute" unicode="&#x144;" horiz-adv-x="471" 
d="M332 -20q-37 0 -56.5 19t-19.5 48q0 21 7 43.5t14 46t7 45.5q0 24 -11 33t-26 9q-30 0 -61.5 -25t-61.5 -62.5t-56 -78.5t-45 -73q-18 0 -34 6t-27 21q1 5 11.5 30.5t23.5 62t23.5 75.5t10.5 72q7 7 21 15t29 8q32 0 32 -29q0 -13 -6 -41.5t-16 -62.5q26 37 58 71.5
t67 56.5t71 22q41 0 60.5 -28.5t19.5 -63.5q0 -30 -10 -56.5t-19.5 -50t-9.5 -46.5q0 -17 7.5 -24.5t18.5 -7.5q24 0 49.5 23.5t49 59t41.5 71.5l15 -13q-21 -49 -47 -89t-58 -63.5t-72 -23.5zM268 364q-11 5 -16 15.5t-5 15.5q0 8 10 27t26 39.5t34 35.5t33 15
q10 0 18 -7.5t10 -26.5q-36 -33 -62.5 -59.5t-47.5 -54.5z" />
    <glyph glyph-name="uni0145" unicode="&#x145;" horiz-adv-x="662" 
d="M53 -87q14 49 32.5 108.5t43.5 140.5t58.5 192t77.5 263l4 16t3 24q0 8 -3 12.5t-11 4.5q-22 0 -42 -17.5t-35.5 -44t-24.5 -55t-9 -51.5q0 -22 8 -43q-40 0 -56.5 18t-16.5 45q0 34 21 68t53 62.5t67 46t64 17.5q33 0 54.5 -25.5t35 -69.5t23 -100t17.5 -118
q10 -69 17 -117.5t12 -82t9 -58.5t8 -49q10 47 23 102.5t27 114t28.5 114t28.5 103.5t26 83t21 52q8 15 27 33.5t48 18.5q-17 -46 -38.5 -112.5t-43.5 -144t-42.5 -158t-37 -155.5t-26 -137t-9.5 -101q-35 0 -57 17.5t-33 66.5q-4 20 -12 62t-17.5 97t-19.5 115t-19.5 118
t-17.5 104.5t-13 73.5q-46 -167 -78.5 -283t-56.5 -188.5t-42.5 -112.5t-36.5 -55t-39 -15zM226 -234q-11 7 -17 18t-6 24q0 20 9 44.5t23.5 42t29.5 17.5q12 0 21 -9.5t9 -21.5q-26 -28 -39 -54.5t-30 -60.5z" />
    <glyph glyph-name="uni0146" unicode="&#x146;" horiz-adv-x="471" 
d="M332 -20q-37 0 -56.5 19t-19.5 48q0 21 7 43.5t14 46t7 45.5q0 24 -11 33t-26 9q-30 0 -61.5 -25t-61.5 -62.5t-56 -78.5t-45 -73q-18 0 -34 6t-27 21q1 5 11.5 30.5t23.5 62t23.5 75.5t10.5 72q7 7 21 15t29 8q32 0 32 -29q0 -13 -6 -41.5t-16 -62.5q26 37 58 71.5
t67 56.5t71 22q41 0 60.5 -28.5t19.5 -63.5q0 -30 -10 -56.5t-19.5 -50t-9.5 -46.5q0 -17 7.5 -24.5t18.5 -7.5q24 0 49.5 23.5t49 59t41.5 71.5l15 -13q-21 -49 -47 -89t-58 -63.5t-72 -23.5zM105 -202q-11 7 -17 18t-6 24q0 20 9 44.5t23.5 42t29.5 17.5q12 0 21 -9.5
t9 -21.5q-26 -28 -39 -54.5t-30 -60.5z" />
    <glyph glyph-name="Ncaron" unicode="&#x147;" horiz-adv-x="662" 
d="M53 -87q14 49 32.5 108.5t43.5 140.5t58.5 192t77.5 263l4 16t3 24q0 8 -3 12.5t-11 4.5q-22 0 -42 -17.5t-35.5 -44t-24.5 -55t-9 -51.5q0 -22 8 -43q-40 0 -56.5 18t-16.5 45q0 34 21 68t53 62.5t67 46t64 17.5q33 0 54.5 -25.5t35 -69.5t23 -100t17.5 -118
q10 -69 17 -117.5t12 -82t9 -58.5t8 -49q10 47 23 102.5t27 114t28.5 114t28.5 103.5t26 83t21 52q8 15 27 33.5t48 18.5q-17 -46 -38.5 -112.5t-43.5 -144t-42.5 -158t-37 -155.5t-26 -137t-9.5 -101q-35 0 -57 17.5t-33 66.5q-4 20 -12 62t-17.5 97t-19.5 115t-19.5 118
t-17.5 104.5t-13 73.5q-46 -167 -78.5 -283t-56.5 -188.5t-42.5 -112.5t-36.5 -55t-39 -15zM488 754q-13 0 -30 11.5t-32 30t-25 38.5t-10 37q0 11 5 20t17 14q15 -29 33 -51t43 -45q30 12 55.5 26.5t46.5 32.5q7 -4 11 -11t4 -14q0 -15 -14 -30.5t-34 -29t-39.5 -21.5
t-30.5 -8z" />
    <glyph glyph-name="ncaron" unicode="&#x148;" horiz-adv-x="471" 
d="M332 -20q-37 0 -56.5 19t-19.5 48q0 21 7 43.5t14 46t7 45.5q0 24 -11 33t-26 9q-30 0 -61.5 -25t-61.5 -62.5t-56 -78.5t-45 -73q-18 0 -34 6t-27 21q1 5 11.5 30.5t23.5 62t23.5 75.5t10.5 72q7 7 21 15t29 8q32 0 32 -29q0 -13 -6 -41.5t-16 -62.5q26 37 58 71.5
t67 56.5t71 22q41 0 60.5 -28.5t19.5 -63.5q0 -30 -10 -56.5t-19.5 -50t-9.5 -46.5q0 -17 7.5 -24.5t18.5 -7.5q24 0 49.5 23.5t49 59t41.5 71.5l15 -13q-21 -49 -47 -89t-58 -63.5t-72 -23.5zM272 364q-13 0 -30 11.5t-32 30t-25 38.5t-10 37q0 11 5 20t17 14
q15 -29 33 -51t43 -45q30 12 55.5 26.5t46.5 32.5q7 -4 11 -11t4 -14q0 -15 -14 -30.5t-34 -29t-39.5 -21.5t-30.5 -8z" />
    <glyph glyph-name="napostrophe" unicode="&#x149;" horiz-adv-x="528" 
d="M23 267q-11 7 -17 18t-6 24q0 20 9 44.5t23.5 42t29.5 17.5q12 0 21 -9.5t9 -21.5q-26 -28 -39 -54.5t-30 -60.5zM389 -20q-37 0 -56.5 19t-19.5 48q0 21 7 43.5t14 46t7 45.5q0 24 -11 33t-26 9q-30 0 -61.5 -25t-61.5 -62.5t-56 -78.5t-45 -73q-18 0 -34 6t-27 21
q1 5 11.5 30.5t23.5 62t23.5 75.5t10.5 72q7 7 21 15t29 8q32 0 32 -29q0 -13 -6 -41.5t-16 -62.5q26 37 58 71.5t67 56.5t71 22q41 0 60.5 -28.5t19.5 -63.5q0 -30 -10 -56.5t-19.5 -50t-9.5 -46.5q0 -17 7.5 -24.5t18.5 -7.5q24 0 49.5 23.5t49 59t41.5 71.5l15 -13
q-21 -49 -47 -89t-58 -63.5t-72 -23.5z" />
    <glyph glyph-name="Eng" unicode="&#x14a;" horiz-adv-x="685" 
d="M247 -241q-28 0 -45.5 6t-17.5 15q0 10 21 10q72 0 125.5 40t94.5 115t73 180q17 57 33 115t28.5 113.5t20 105t7.5 90.5q0 47 -19.5 78.5t-64.5 31.5q-41 0 -74 -26t-59 -67t-44 -86.5t-28 -85.5q-40 -143 -71.5 -263.5t-55.5 -229.5q-30 0 -54 13.5t-24 41.5
q0 19 10 62t27 101t36.5 121.5t38 125t32.5 111.5q11 35 19.5 69.5t13.5 64.5t5 52q0 20 -16 20q-20 0 -39 -18.5t-34.5 -47t-25 -59t-9.5 -53.5q0 -9 1.5 -18.5t6.5 -23.5q-39 0 -55.5 18t-16.5 45q0 34 19.5 68t51 62.5t67 46t66.5 17.5t42.5 -16t11.5 -37q0 -19 -6.5 -51
t-17.5 -67q37 72 88.5 115.5t122.5 43.5q67 0 102.5 -39.5t35.5 -107.5q0 -43 -8 -98.5t-21.5 -115.5t-29.5 -118.5t-31 -108.5q-23 -74 -53 -139.5t-69.5 -115.5t-91 -78t-119.5 -28z" />
    <glyph glyph-name="eng" unicode="&#x14b;" horiz-adv-x="468" 
d="M51 -210q-27 0 -45.5 5.5t-18.5 13.5t22 8q59 0 109 30t87 81t58 114.5t21 129.5q0 27 -9.5 39.5t-27.5 12.5q-30 0 -61.5 -25t-61.5 -62.5t-56 -78.5t-45 -73q-18 0 -34 6t-27 21q1 5 11.5 30.5t23.5 62t23.5 75.5t10.5 72q7 7 21 15t29 8q32 0 32 -29q0 -13 -6 -41.5
t-16 -62.5q26 37 58 71.5t67 56.5t71 22q41 0 60.5 -30.5t19.5 -69.5q0 -70 -23 -141t-65 -130.5t-100.5 -95t-127.5 -35.5z" />
    <glyph glyph-name="Omacron" unicode="&#x14c;" horiz-adv-x="644" 
d="M232 -87q-58 0 -104 30.5t-73 86.5t-27 133t24.5 155.5t66.5 150.5t97 128.5t116.5 89t125.5 32.5q13 0 31 -3.5t34 -19.5q-6 1 -11.5 1.5t-11.5 0.5q-52 0 -105 -33.5t-101 -89.5t-85.5 -126.5t-59.5 -146.5t-22 -148q0 -52 13.5 -97.5t44.5 -73t80 -27.5q56 0 104 33.5
t87.5 90.5t67.5 126.5t43 144t15 141.5q0 29 -4 62t-13.5 56.5t-27.5 23.5q-17 0 -37.5 -21.5t-39.5 -55t-33.5 -70t-20.5 -65.5q-31 7 -44.5 21.5t-13.5 33.5q0 27 19 60t48.5 63.5t62 50.5t60.5 20q29 0 46.5 -21t27.5 -53.5t14 -69t4 -68.5q0 -104 -25 -190.5t-67 -152.5
t-94 -111.5t-107 -68.5t-105 -23zM632 757q-23 0 -56 5.5t-69.5 13.5t-69.5 15t-56 10q11 29 49 29q36 0 78.5 -7.5t85.5 -18.5t78 -23q-13 -24 -40 -24z" />
    <glyph glyph-name="omacron" unicode="&#x14d;" horiz-adv-x="370" 
d="M67 -32q-44 0 -61 28.5t-17 64.5q0 32 10 65t27 62t38 47t43 18q6 0 14.5 -2.5t12.5 -6.5q-11 -12 -23.5 -34t-23 -47.5t-17 -51t-6.5 -46.5q0 -23 8 -36t26 -13q20 0 47.5 21.5t52.5 52.5q-31 27 -45.5 62.5t-14.5 80.5q0 25 11 53t34 47t60 19q42 0 58.5 -23.5
t16.5 -56.5q0 -37 -19.5 -83.5t-46.5 -88.5q14 -8 31 -8q15 0 36 7t40.5 23.5t31.5 43.5l16 -12q-21 -49 -57.5 -71.5t-70.5 -22.5q-13 0 -26 2.5t-24 7.5q-34 -42 -76.5 -72t-85.5 -30zM221 120q25 35 41.5 75.5t16.5 74.5q0 25 -7.5 36.5t-20.5 11.5q-20 0 -40 -27.5
t-20 -69.5q0 -24 7.5 -53.5t22.5 -47.5zM375 440q-23 0 -56 5.5t-69.5 13.5t-69.5 15t-56 10q11 29 49 29q36 0 78.5 -7.5t85.5 -18.5t78 -23q-13 -24 -40 -24z" />
    <glyph glyph-name="Obreve" unicode="&#x14e;" horiz-adv-x="644" 
d="M232 -87q-58 0 -104 30.5t-73 86.5t-27 133t24.5 155.5t66.5 150.5t97 128.5t116.5 89t125.5 32.5q13 0 31 -3.5t34 -19.5q-6 1 -11.5 1.5t-11.5 0.5q-52 0 -105 -33.5t-101 -89.5t-85.5 -126.5t-59.5 -146.5t-22 -148q0 -52 13.5 -97.5t44.5 -73t80 -27.5q56 0 104 33.5
t87.5 90.5t67.5 126.5t43 144t15 141.5q0 29 -4 62t-13.5 56.5t-27.5 23.5q-17 0 -37.5 -21.5t-39.5 -55t-33.5 -70t-20.5 -65.5q-31 7 -44.5 21.5t-13.5 33.5q0 27 19 60t48.5 63.5t62 50.5t60.5 20q29 0 46.5 -21t27.5 -53.5t14 -69t4 -68.5q0 -104 -25 -190.5t-67 -152.5
t-94 -111.5t-107 -68.5t-105 -23zM565 758q-40 0 -64 16t-34.5 37.5t-10.5 40.5q0 18 7 30t20 19q4 -31 23.5 -57.5t60.5 -26.5q37 0 59 17.5t34 35.5q7 -7 9.5 -16t2.5 -16q0 -34 -32.5 -57t-74.5 -23z" />
    <glyph glyph-name="obreve" unicode="&#x14f;" horiz-adv-x="370" 
d="M67 -32q-44 0 -61 28.5t-17 64.5q0 32 10 65t27 62t38 47t43 18q6 0 14.5 -2.5t12.5 -6.5q-11 -12 -23.5 -34t-23 -47.5t-17 -51t-6.5 -46.5q0 -23 8 -36t26 -13q20 0 47.5 21.5t52.5 52.5q-31 27 -45.5 62.5t-14.5 80.5q0 25 11 53t34 47t60 19q42 0 58.5 -23.5
t16.5 -56.5q0 -37 -19.5 -83.5t-46.5 -88.5q14 -8 31 -8q15 0 36 7t40.5 23.5t31.5 43.5l16 -12q-21 -49 -57.5 -71.5t-70.5 -22.5q-13 0 -26 2.5t-24 7.5q-34 -42 -76.5 -72t-85.5 -30zM221 120q25 35 41.5 75.5t16.5 74.5q0 25 -7.5 36.5t-20.5 11.5q-20 0 -40 -27.5
t-20 -69.5q0 -24 7.5 -53.5t22.5 -47.5zM303 424q-40 0 -64 16t-34.5 37.5t-10.5 40.5q0 18 7 30t20 19q4 -31 23.5 -57.5t60.5 -26.5q37 0 59 17.5t34 35.5q7 -7 9.5 -16t2.5 -16q0 -34 -32.5 -57t-74.5 -23z" />
    <glyph glyph-name="Ohungarumlaut" unicode="&#x150;" horiz-adv-x="644" 
d="M232 -87q-58 0 -104 30.5t-73 86.5t-27 133t24.5 155.5t66.5 150.5t97 128.5t116.5 89t125.5 32.5q13 0 31 -3.5t34 -19.5q-6 1 -11.5 1.5t-11.5 0.5q-52 0 -105 -33.5t-101 -89.5t-85.5 -126.5t-59.5 -146.5t-22 -148q0 -52 13.5 -97.5t44.5 -73t80 -27.5q56 0 104 33.5
t87.5 90.5t67.5 126.5t43 144t15 141.5q0 29 -4 62t-13.5 56.5t-27.5 23.5q-17 0 -37.5 -21.5t-39.5 -55t-33.5 -70t-20.5 -65.5q-31 7 -44.5 21.5t-13.5 33.5q0 27 19 60t48.5 63.5t62 50.5t60.5 20q29 0 46.5 -21t27.5 -53.5t14 -69t4 -68.5q0 -104 -25 -190.5t-67 -152.5
t-94 -111.5t-107 -68.5t-105 -23zM552 748q-7 5 -10 12.5t-3 14.5q0 11 9 31t23 40.5t29.5 35t29.5 14.5q13 0 20 -7.5t12 -17.5q-31 -31 -59 -62.5t-51 -60.5zM484 766q-8 2 -14.5 9t-6.5 21q0 13 7 33t18 40.5t24.5 34.5t27.5 14q9 0 16.5 -6t12.5 -21q-28 -35 -49 -65
t-36 -60z" />
    <glyph glyph-name="ohungarumlaut" unicode="&#x151;" horiz-adv-x="370" 
d="M67 -32q-44 0 -61 28.5t-17 64.5q0 32 10 65t27 62t38 47t43 18q6 0 14.5 -2.5t12.5 -6.5q-11 -12 -23.5 -34t-23 -47.5t-17 -51t-6.5 -46.5q0 -23 8 -36t26 -13q20 0 47.5 21.5t52.5 52.5q-31 27 -45.5 62.5t-14.5 80.5q0 25 11 53t34 47t60 19q42 0 58.5 -23.5
t16.5 -56.5q0 -37 -19.5 -83.5t-46.5 -88.5q14 -8 31 -8q15 0 36 7t40.5 23.5t31.5 43.5l16 -12q-21 -49 -57.5 -71.5t-70.5 -22.5q-13 0 -26 2.5t-24 7.5q-34 -42 -76.5 -72t-85.5 -30zM221 120q25 35 41.5 75.5t16.5 74.5q0 25 -7.5 36.5t-20.5 11.5q-20 0 -40 -27.5
t-20 -69.5q0 -24 7.5 -53.5t22.5 -47.5zM293 427q-7 5 -10 12.5t-3 14.5q0 11 9 31t23 40.5t29.5 35t29.5 14.5q13 0 20 -7.5t12 -17.5q-31 -31 -59 -62.5t-51 -60.5zM225 445q-8 2 -14.5 9t-6.5 21q0 13 7 33t18 40.5t24.5 34.5t27.5 14q9 0 16.5 -6t12.5 -21
q-28 -35 -49 -65t-36 -60z" />
    <glyph glyph-name="OE" unicode="&#x152;" horiz-adv-x="831" 
d="M434 -88q-42 0 -87.5 0.5t-90.5 0.5q-66 0 -117.5 27t-81 82t-29.5 141q0 77 24.5 155.5t66.5 150.5t96 128.5t115 89t121 32.5q19 0 35.5 -4t28.5 -17q-57 0 -113 -33.5t-105.5 -89.5t-87.5 -127t-60 -146.5t-22 -147.5q0 -52 13.5 -97.5t44 -73t78.5 -27.5
q49 0 92 33.5t79 90.5t62 127.5t40.5 145.5t14.5 145q0 68 -9 96.5t-21 28.5q-14 0 -34 -30t-41.5 -76t-40.5 -95q-30 8 -43.5 22t-13.5 32q0 27 18.5 60t48 63.5t61.5 51t59 20.5q25 2 57 3t63 1q61 0 118 -4t88 -15q-7 -18 -34 -27t-65.5 -12.5t-80.5 -3.5q-19 0 -36.5 1
t-40.5 1q4 -13 7 -38t3 -44q0 -29 -1 -60.5t-3.5 -59t-4.5 -43.5q61 -1 116 -3.5t93 -7.5q-9 -26 -46.5 -42t-101.5 -16q-28 0 -43 0.5t-30 1.5q-17 -79 -35 -144t-45 -113.5t-72 -78.5q37 -1 74.5 -1.5t82.5 -0.5q14 0 36.5 1t46 2t39.5 1h14t13 -2q-6 -15 -36.5 -25.5
t-77 -17t-98.5 -9.5t-101 -3z" />
    <glyph glyph-name="oe" unicode="&#x153;" horiz-adv-x="550" 
d="M53 -47q-33 0 -56.5 21.5t-23.5 64.5q0 36 16 77t44 81t64 73.5t76 53.5t80 20q29 0 45 -11t24 -29q31 24 67 40t70 16q24 0 45.5 -12.5t21.5 -51.5q0 -38 -22 -71.5t-59 -59.5t-81 -42.5t-88 -20.5q-2 -8 -2.5 -16t-0.5 -12q0 -18 6 -36.5t22.5 -31t47.5 -12.5
q42 0 84.5 24t79.5 63.5t62 87.5l15 -13q-27 -60 -69 -105t-92 -70t-103 -25q-59 0 -89.5 30t-35.5 71q-41 -51 -76 -77.5t-72 -26.5zM75 2q14 0 31 10t35 25.5t34.5 32.5t26.5 33l1 9q-29 10 -45.5 34.5t-20.5 53.5q-1 8 -1.5 15.5t-0.5 15.5q-23 -30 -42.5 -65.5t-31 -70
t-11.5 -61.5q0 -17 7 -24.5t18 -7.5zM213 148q13 34 34 67.5t49 61.5q-4 13 -14.5 22.5t-27.5 9.5q-19 0 -36 -15.5t-27 -39t-10 -48.5q0 -20 9 -33.5t23 -24.5zM284 133q28 9 60.5 26t62 39.5t48.5 48.5t19 54q0 9 -3.5 14t-15.5 5q-22 0 -48 -17t-50 -44.5t-43 -60.5
t-30 -65z" />
    <glyph glyph-name="Racute" unicode="&#x154;" horiz-adv-x="603" 
d="M491 -121q-23 0 -53.5 26.5t-63.5 69.5t-65.5 94t-60.5 103t-47 93q-28 -94 -53 -185t-47 -168q-28 0 -51.5 15.5t-23.5 40.5q0 11 5 26t9 29l51 153t44.5 129t44 119t49 122t59.5 138q-40 -7 -70 -20.5t-49 -24t-26 -10.5q-4 0 -13.5 6t-16.5 14.5t-7 14.5
q28 11 64.5 24t80.5 22.5t91 9.5q44 0 91 -10.5t86.5 -33.5t64 -59.5t24.5 -87.5q0 -48 -21.5 -82.5t-57 -58.5t-78 -39t-85 -23t-78 -11t-57.5 -4q32 -51 62 -100t64.5 -97t81 -96.5t110.5 -98.5q-5 -17 -24 -28.5t-34 -11.5zM221 337q56 3 110.5 17.5t99.5 40t72 64
t27 90.5q0 53 -26 83.5t-67 43.5t-86 14q-34 -68 -66.5 -160.5t-63.5 -192.5zM485 748q-11 5 -16 15.5t-5 15.5q0 8 10 27t26 39.5t34 35.5t33 15q10 0 18 -7.5t10 -26.5q-36 -33 -62.5 -59.5t-47.5 -54.5z" />
    <glyph glyph-name="racute" unicode="&#x155;" horiz-adv-x="359" 
d="M181 -26q-36 0 -58 19t-22 51q0 28 14 60.5t28.5 64t14.5 56.5q0 26 -16.5 41.5t-35.5 26.5q-23 -57 -49.5 -109t-43.5 -80l-13 25q14 26 37 74.5t44 109.5q-10 10 -10 26q0 27 16.5 49t29.5 22q11 0 15.5 -12.5t4.5 -17.5t-5 -18.5t-6 -18.5q0 -12 16.5 -22.5t37 -25
t36.5 -35t16 -52.5q0 -30 -13 -60t-26 -57t-13 -46q0 -16 8 -21t19 -5q24 0 50 15t50.5 38t43.5 48.5t29 46.5l20 -15q-19 -43 -54 -84t-78 -67.5t-87 -26.5zM271 476q-11 5 -16 15.5t-5 15.5q0 8 10 27t26 39.5t34 35.5t33 15q10 0 18 -7.5t10 -26.5q-36 -33 -62.5 -59.5
t-47.5 -54.5z" />
    <glyph glyph-name="uni0156" unicode="&#x156;" horiz-adv-x="603" 
d="M491 -121q-23 0 -53.5 26.5t-63.5 69.5t-65.5 94t-60.5 103t-47 93q-28 -94 -53 -185t-47 -168q-28 0 -51.5 15.5t-23.5 40.5q0 11 5 26t9 29l51 153t44.5 129t44 119t49 122t59.5 138q-40 -7 -70 -20.5t-49 -24t-26 -10.5q-4 0 -13.5 6t-16.5 14.5t-7 14.5
q28 11 64.5 24t80.5 22.5t91 9.5q44 0 91 -10.5t86.5 -33.5t64 -59.5t24.5 -87.5q0 -48 -21.5 -82.5t-57 -58.5t-78 -39t-85 -23t-78 -11t-57.5 -4q32 -51 62 -100t64.5 -97t81 -96.5t110.5 -98.5q-5 -17 -24 -28.5t-34 -11.5zM221 337q56 3 110.5 17.5t99.5 40t72 64
t27 90.5q0 53 -26 83.5t-67 43.5t-86 14q-34 -68 -66.5 -160.5t-63.5 -192.5zM209 -258q-11 7 -17 18t-6 24q0 20 9 44.5t23.5 42t29.5 17.5q12 0 21 -9.5t9 -21.5q-26 -28 -39 -54.5t-30 -60.5z" />
    <glyph glyph-name="uni0157" unicode="&#x157;" horiz-adv-x="358" 
d="M181 -26q-36 0 -58 19t-22 51q0 28 14 60.5t28.5 64t14.5 56.5q0 26 -16.5 41.5t-35.5 26.5q-23 -57 -49.5 -109t-43.5 -80l-13 25q14 26 37 74.5t44 109.5q-10 10 -10 26q0 27 16.5 49t29.5 22q11 0 15.5 -12.5t4.5 -17.5t-5 -18.5t-6 -18.5q0 -12 16.5 -22.5t37 -25
t36.5 -35t16 -52.5q0 -30 -13 -60t-26 -57t-13 -46q0 -16 8 -21t19 -5q24 0 50 15t50.5 38t43.5 48.5t29 46.5l20 -15q-19 -43 -54 -84t-78 -67.5t-87 -26.5zM27 -203q-11 7 -17 18t-6 24q0 20 9 44.5t23.5 42t29.5 17.5q12 0 21 -9.5t9 -21.5q-26 -28 -39 -54.5t-30 -60.5z
" />
    <glyph glyph-name="Rcaron" unicode="&#x158;" horiz-adv-x="603" 
d="M491 -121q-23 0 -53.5 26.5t-63.5 69.5t-65.5 94t-60.5 103t-47 93q-28 -94 -53 -185t-47 -168q-28 0 -51.5 15.5t-23.5 40.5q0 11 5 26t9 29l51 153t44.5 129t44 119t49 122t59.5 138q-40 -7 -70 -20.5t-49 -24t-26 -10.5q-4 0 -13.5 6t-16.5 14.5t-7 14.5
q28 11 64.5 24t80.5 22.5t91 9.5q44 0 91 -10.5t86.5 -33.5t64 -59.5t24.5 -87.5q0 -48 -21.5 -82.5t-57 -58.5t-78 -39t-85 -23t-78 -11t-57.5 -4q32 -51 62 -100t64.5 -97t81 -96.5t110.5 -98.5q-5 -17 -24 -28.5t-34 -11.5zM221 337q56 3 110.5 17.5t99.5 40t72 64
t27 90.5q0 53 -26 83.5t-67 43.5t-86 14q-34 -68 -66.5 -160.5t-63.5 -192.5zM470 754q-13 0 -30 11.5t-32 30t-25 38.5t-10 37q0 11 5 20t17 14q15 -29 33 -51t43 -45q30 12 55.5 26.5t46.5 32.5q7 -4 11 -11t4 -14q0 -15 -14 -30.5t-34 -29t-39.5 -21.5t-30.5 -8z" />
    <glyph glyph-name="rcaron" unicode="&#x159;" horiz-adv-x="359" 
d="M181 -26q-36 0 -58 19t-22 51q0 28 14 60.5t28.5 64t14.5 56.5q0 26 -16.5 41.5t-35.5 26.5q-23 -57 -49.5 -109t-43.5 -80l-13 25q14 26 37 74.5t44 109.5q-10 10 -10 26q0 27 16.5 49t29.5 22q11 0 15.5 -12.5t4.5 -17.5t-5 -18.5t-6 -18.5q0 -12 16.5 -22.5t37 -25
t36.5 -35t16 -52.5q0 -30 -13 -60t-26 -57t-13 -46q0 -16 8 -21t19 -5q24 0 50 15t50.5 38t43.5 48.5t29 46.5l20 -15q-19 -43 -54 -84t-78 -67.5t-87 -26.5zM276 476q-13 0 -30 11.5t-32 30t-25 38.5t-10 37q0 11 5 20t17 14q15 -29 33 -51t43 -45q30 12 55.5 26.5
t46.5 32.5q7 -4 11 -11t4 -14q0 -15 -14 -30.5t-34 -29t-39.5 -21.5t-30.5 -8z" />
    <glyph glyph-name="Sacute" unicode="&#x15a;" horiz-adv-x="556" 
d="M223 -87q-57 0 -108 20t-82.5 60.5t-31.5 101.5q0 53 22.5 83t56.5 42t66 12q-31 -32 -46.5 -68t-15.5 -69q0 -35 17 -65.5t52 -49.5t87 -19q45 0 87.5 15.5t70 46.5t27.5 77q0 42 -23 72t-59 53.5t-76.5 45t-76.5 46.5t-59 57.5t-23 78.5q0 41 20.5 87.5t58 87.5
t91 66.5t119.5 25.5q65 0 91.5 -29t26.5 -74q0 -37 -12.5 -79t-31 -79.5t-35.5 -64.5q-21 5 -30.5 17t-9.5 31q0 21 8.5 47.5t20 55t20.5 55t9 47.5q0 19 -11 29.5t-44 10.5q-47 0 -87 -21.5t-69.5 -54.5t-46 -69t-16.5 -66q0 -36 22.5 -62t58 -47t75.5 -42.5t75.5 -47.5
t58 -61.5t22.5 -87.5t-23 -92t-62.5 -67t-87.5 -41.5t-96 -14.5zM461 738q-11 5 -16 15.5t-5 15.5q0 8 10 27t26 39.5t34 35.5t33 15q10 0 18 -7.5t10 -26.5q-36 -33 -62.5 -59.5t-47.5 -54.5z" />
    <glyph glyph-name="sacute" unicode="&#x15b;" horiz-adv-x="349" 
d="M113 -51q-49 0 -78.5 20.5t-42 51.5t-12.5 63q0 29 8 45t20 24t22.5 12t14.5 8q27 29 53 64t45 76v11q0 39 13 55t30 16q11 0 16 -5.5t5 -12.5q0 -5 -2.5 -14t-2.5 -24q0 -31 14 -69.5t28 -81.5t14 -88q0 -13 -1 -23.5t-4 -20.5q33 7 63 33.5t58 79.5l11 -9
q-19 -57 -55.5 -89.5t-83.5 -39.5q-16 -42 -52 -62t-81 -20zM109 -10q17 0 35 9.5t29 32.5q-42 9 -74.5 32.5t-50.5 48.5q-16 -3 -16 -30q0 -34 19.5 -63.5t57.5 -29.5zM180 58q2 8 2.5 18t0.5 18q-1 46 -12 90.5t-21 89.5q-20 -34 -44.5 -69.5t-45.5 -57.5q15 -29 46.5 -54
t73.5 -35zM209 467q-11 5 -16 15.5t-5 15.5q0 8 10 27t26 39.5t34 35.5t33 15q10 0 18 -7.5t10 -26.5q-36 -33 -62.5 -59.5t-47.5 -54.5z" />
    <glyph glyph-name="Scircumflex" unicode="&#x15c;" horiz-adv-x="556" 
d="M223 -87q-57 0 -108 20t-82.5 60.5t-31.5 101.5q0 53 22.5 83t56.5 42t66 12q-31 -32 -46.5 -68t-15.5 -69q0 -35 17 -65.5t52 -49.5t87 -19q45 0 87.5 15.5t70 46.5t27.5 77q0 42 -23 72t-59 53.5t-76.5 45t-76.5 46.5t-59 57.5t-23 78.5q0 41 20.5 87.5t58 87.5
t91 66.5t119.5 25.5q65 0 91.5 -29t26.5 -74q0 -37 -12.5 -79t-31 -79.5t-35.5 -64.5q-21 5 -30.5 17t-9.5 31q0 21 8.5 47.5t20 55t20.5 55t9 47.5q0 19 -11 29.5t-44 10.5q-47 0 -87 -21.5t-69.5 -54.5t-46 -69t-16.5 -66q0 -36 22.5 -62t58 -47t75.5 -42.5t75.5 -47.5
t58 -61.5t22.5 -87.5t-23 -92t-62.5 -67t-87.5 -41.5t-96 -14.5zM550 734q-15 28 -32.5 47t-39.5 39q-29 -10 -53.5 -23t-49.5 -31q-6 5 -9 13t-3 12q0 15 13.5 30t33.5 28t39 21t30 8q12 0 28 -10.5t31 -27.5t24.5 -35.5t9.5 -34.5q0 -10 -4.5 -20t-17.5 -16z" />
    <glyph glyph-name="scircumflex" unicode="&#x15d;" horiz-adv-x="349" 
d="M113 -51q-49 0 -78.5 20.5t-42 51.5t-12.5 63q0 29 8 45t20 24t22.5 12t14.5 8q27 29 53 64t45 76v11q0 39 13 55t30 16q11 0 16 -5.5t5 -12.5q0 -5 -2.5 -14t-2.5 -24q0 -31 14 -69.5t28 -81.5t14 -88q0 -13 -1 -23.5t-4 -20.5q33 7 63 33.5t58 79.5l11 -9
q-19 -57 -55.5 -89.5t-83.5 -39.5q-16 -42 -52 -62t-81 -20zM109 -10q17 0 35 9.5t29 32.5q-42 9 -74.5 32.5t-50.5 48.5q-16 -3 -16 -30q0 -34 19.5 -63.5t57.5 -29.5zM180 58q2 8 2.5 18t0.5 18q-1 46 -12 90.5t-21 89.5q-20 -34 -44.5 -69.5t-45.5 -57.5q15 -29 46.5 -54
t73.5 -35zM300 459q-15 28 -32.5 47t-39.5 39q-29 -10 -53.5 -23t-49.5 -31q-6 5 -9 13t-3 12q0 15 13.5 30t33.5 28t39 21t30 8q12 0 28 -10.5t31 -27.5t24.5 -35.5t9.5 -34.5q0 -10 -4.5 -20t-17.5 -16z" />
    <glyph glyph-name="Scedilla" unicode="&#x15e;" horiz-adv-x="556" 
d="M223 -87q-57 0 -108 20t-82.5 60.5t-31.5 101.5q0 53 22.5 83t56.5 42t66 12q-31 -32 -46.5 -68t-15.5 -69q0 -35 17 -65.5t52 -49.5t87 -19q45 0 87.5 15.5t70 46.5t27.5 77q0 42 -23 72t-59 53.5t-76.5 45t-76.5 46.5t-59 57.5t-23 78.5q0 41 20.5 87.5t58 87.5
t91 66.5t119.5 25.5q65 0 91.5 -29t26.5 -74q0 -37 -12.5 -79t-31 -79.5t-35.5 -64.5q-21 5 -30.5 17t-9.5 31q0 21 8.5 47.5t20 55t20.5 55t9 47.5q0 19 -11 29.5t-44 10.5q-47 0 -87 -21.5t-69.5 -54.5t-46 -69t-16.5 -66q0 -36 22.5 -62t58 -47t75.5 -42.5t75.5 -47.5
t58 -61.5t22.5 -87.5t-23 -92t-62.5 -67t-87.5 -41.5t-96 -14.5zM161 -299q-29 0 -46.5 13t-17.5 27q0 8 7 18.5t22 20.5q7 -24 18 -34.5t22 -10.5q18 0 36.5 14.5t32 34.5t13.5 36q0 8 -4 13.5t-12 5.5q-13 0 -29 -9.5t-30 -19.5t-22 -10q-9 0 -14 8.5t-5 14.5q0 2 9 14.5
t22 30.5t26.5 34.5t23.5 24.5h15l-49 -77q9 5 24.5 10.5t33.5 5.5q23 0 37 -12t14 -35q0 -28 -17.5 -55t-46.5 -45t-63 -18z" />
    <glyph glyph-name="scedilla" unicode="&#x15f;" horiz-adv-x="349" 
d="M113 -51q-49 0 -78.5 20.5t-42 51.5t-12.5 63q0 29 8 45t20 24t22.5 12t14.5 8q27 29 53 64t45 76v11q0 39 13 55t30 16q11 0 16 -5.5t5 -12.5q0 -5 -2.5 -14t-2.5 -24q0 -31 14 -69.5t28 -81.5t14 -88q0 -13 -1 -23.5t-4 -20.5q33 7 63 33.5t58 79.5l11 -9
q-19 -57 -55.5 -89.5t-83.5 -39.5q-16 -42 -52 -62t-81 -20zM109 -10q17 0 35 9.5t29 32.5q-42 9 -74.5 32.5t-50.5 48.5q-16 -3 -16 -30q0 -34 19.5 -63.5t57.5 -29.5zM180 58q2 8 2.5 18t0.5 18q-1 46 -12 90.5t-21 89.5q-20 -34 -44.5 -69.5t-45.5 -57.5q15 -29 46.5 -54
t73.5 -35zM43 -257q-29 0 -46.5 13t-17.5 27q0 8 7 18.5t22 20.5q7 -24 18 -34.5t22 -10.5q18 0 36.5 14.5t32 34.5t13.5 36q0 8 -4 13.5t-12 5.5q-13 0 -29 -9.5t-30 -19.5t-22 -10q-9 0 -14 8.5t-5 14.5q0 2 9 14.5t22 30.5t26.5 34.5t23.5 24.5h15l-49 -77q9 5 24.5 10.5
t33.5 5.5q23 0 37 -12t14 -35q0 -28 -17.5 -55t-46.5 -45t-63 -18z" />
    <glyph glyph-name="Scaron" unicode="&#x160;" horiz-adv-x="556" 
d="M223 -87q-57 0 -108 20t-82.5 60.5t-31.5 101.5q0 53 22.5 83t56.5 42t66 12q-31 -32 -46.5 -68t-15.5 -69q0 -35 17 -65.5t52 -49.5t87 -19q45 0 87.5 15.5t70 46.5t27.5 77q0 42 -23 72t-59 53.5t-76.5 45t-76.5 46.5t-59 57.5t-23 78.5q0 41 20.5 87.5t58 87.5
t91 66.5t119.5 25.5q65 0 91.5 -29t26.5 -74q0 -37 -12.5 -79t-31 -79.5t-35.5 -64.5q-21 5 -30.5 17t-9.5 31q0 21 8.5 47.5t20 55t20.5 55t9 47.5q0 19 -11 29.5t-44 10.5q-47 0 -87 -21.5t-69.5 -54.5t-46 -69t-16.5 -66q0 -36 22.5 -62t58 -47t75.5 -42.5t75.5 -47.5
t58 -61.5t22.5 -87.5t-23 -92t-62.5 -67t-87.5 -41.5t-96 -14.5zM445 744q-13 0 -30 11.5t-32 30t-25 38.5t-10 37q0 11 5 20t17 14q15 -29 33 -51t43 -45q30 12 55.5 26.5t46.5 32.5q7 -4 11 -11t4 -14q0 -15 -14 -30.5t-34 -29t-39.5 -21.5t-30.5 -8z" />
    <glyph glyph-name="scaron" unicode="&#x161;" horiz-adv-x="349" 
d="M113 -51q-49 0 -78.5 20.5t-42 51.5t-12.5 63q0 29 8 45t20 24t22.5 12t14.5 8q27 29 53 64t45 76v11q0 39 13 55t30 16q11 0 16 -5.5t5 -12.5q0 -5 -2.5 -14t-2.5 -24q0 -31 14 -69.5t28 -81.5t14 -88q0 -13 -1 -23.5t-4 -20.5q33 7 63 33.5t58 79.5l11 -9
q-19 -57 -55.5 -89.5t-83.5 -39.5q-16 -42 -52 -62t-81 -20zM109 -10q17 0 35 9.5t29 32.5q-42 9 -74.5 32.5t-50.5 48.5q-16 -3 -16 -30q0 -34 19.5 -63.5t57.5 -29.5zM180 58q2 8 2.5 18t0.5 18q-1 46 -12 90.5t-21 89.5q-20 -34 -44.5 -69.5t-45.5 -57.5q15 -29 46.5 -54
t73.5 -35zM213 467q-13 0 -30 11.5t-32 30t-25 38.5t-10 37q0 11 5 20t17 14q15 -29 33 -51t43 -45q30 12 55.5 26.5t46.5 32.5q7 -4 11 -11t4 -14q0 -15 -14 -30.5t-34 -29t-39.5 -21.5t-30.5 -8z" />
    <glyph glyph-name="uni0162" unicode="&#x162;" horiz-adv-x="523" 
d="M217 -87q-51 0 -71 21t-20 54q0 29 11.5 69.5t23.5 77.5q22 63 47.5 131t52 135t52.5 129t49 113q-68 -1 -116.5 -3.5t-88 -6.5t-83.5 -12q4 39 37.5 60.5t90.5 30t129 8.5q50 0 91 -3t78.5 -6.5t73.5 -5.5q30 -15 39.5 -19t3.5 -4q-23 -18 -57.5 -26.5t-71.5 -10.5
t-71 -2q-42 -105 -82.5 -230t-77.5 -259q-13 -50 -22.5 -86.5t-14.5 -66.5t-5 -61q0 -5 0.5 -11.5t1.5 -15.5zM111 -299q-29 0 -46.5 13t-17.5 27q0 8 7 18.5t22 20.5q7 -24 18 -34.5t22 -10.5q18 0 36.5 14.5t32 34.5t13.5 36q0 8 -4 13.5t-12 5.5q-13 0 -29 -9.5
t-30 -19.5t-22 -10q-9 0 -14 8.5t-5 14.5q0 2 9 14.5t22 30.5t26.5 34.5t23.5 24.5h15l-49 -77q9 5 24.5 10.5t33.5 5.5q23 0 37 -12t14 -35q0 -28 -17.5 -55t-46.5 -45t-63 -18z" />
    <glyph glyph-name="uni0163" unicode="&#x163;" horiz-adv-x="287" 
d="M89 -46q-44 0 -69.5 25.5t-25.5 77.5q0 42 16 104t40 128q-8 2 -17.5 3.5t-17.5 5.5v27q13 -2 23.5 -3t22.5 -2q21 53 45.5 103t48.5 89t46 62t38 23q10 0 18 -7t8 -20q0 -19 -20.5 -56.5t-51 -88t-58.5 -108.5h16.5h16.5q40 0 76 1.5t73 5.5v-28q-55 -6 -100.5 -9
t-84.5 -3h-6.5h-6.5q-22 -51 -37.5 -104t-15.5 -103q0 -42 13 -59.5t42 -17.5q50 0 102 46t90 124l14 -10q-25 -58 -63 -105t-82.5 -74t-92.5 -27zM41 -248q-29 0 -46.5 13t-17.5 27q0 8 7 18.5t22 20.5q7 -24 18 -34.5t22 -10.5q18 0 36.5 14.5t32 34.5t13.5 36
q0 8 -4 13.5t-12 5.5q-13 0 -29 -9.5t-30 -19.5t-22 -10q-9 0 -14 8.5t-5 14.5q0 2 9 14.5t22 30.5t26.5 34.5t23.5 24.5h15l-49 -77q9 5 24.5 10.5t33.5 5.5q23 0 37 -12t14 -35q0 -28 -17.5 -55t-46.5 -45t-63 -18z" />
    <glyph glyph-name="Tcaron" unicode="&#x164;" horiz-adv-x="523" 
d="M217 -87q-51 0 -71 21t-20 54q0 29 11.5 69.5t23.5 77.5q22 63 47.5 131t52 135t52.5 129t49 113q-68 -1 -116.5 -3.5t-88 -6.5t-83.5 -12q4 39 37.5 60.5t90.5 30t129 8.5q50 0 91 -3t78.5 -6.5t73.5 -5.5q30 -15 39.5 -19t3.5 -4q-23 -18 -57.5 -26.5t-71.5 -10.5
t-71 -2q-42 -105 -82.5 -230t-77.5 -259q-13 -50 -22.5 -86.5t-14.5 -66.5t-5 -61q0 -5 0.5 -11.5t1.5 -15.5zM438 754q-13 0 -30 11.5t-32 30t-25 38.5t-10 37q0 11 5 20t17 14q15 -29 33 -51t43 -45q30 12 55.5 26.5t46.5 32.5q7 -4 11 -11t4 -14q0 -15 -14 -30.5t-34 -29
t-39.5 -21.5t-30.5 -8z" />
    <glyph glyph-name="tcaron" unicode="&#x165;" horiz-adv-x="287" 
d="M89 -46q-44 0 -69.5 25.5t-25.5 77.5q0 42 16 104t40 128q-8 2 -17.5 3.5t-17.5 5.5v27q13 -2 23.5 -3t22.5 -2q21 53 45.5 103t48.5 89t46 62t38 23q10 0 18 -7t8 -20q0 -19 -20.5 -56.5t-51 -88t-58.5 -108.5h16.5h16.5q40 0 76 1.5t73 5.5v-28q-55 -6 -100.5 -9
t-84.5 -3h-6.5h-6.5q-22 -51 -37.5 -104t-15.5 -103q0 -42 13 -59.5t42 -17.5q50 0 102 46t90 124l14 -10q-25 -58 -63 -105t-82.5 -74t-92.5 -27zM301 392q-10 0 -19 7.5t-9 22.5q0 20 14.5 43.5t36 41t40.5 17.5q10 0 18 -7q-18 -26 -35 -58.5t-28 -61.5q-7 -5 -18 -5z
" />
    <glyph glyph-name="Tbar" unicode="&#x166;" horiz-adv-x="524" 
d="M61 356q2 25 34.5 41.5t84 24.5t111.5 8q73 0 135.5 -2t121.5 -7q-5 -22 -34 -32t-87.5 -13t-151.5 -3q-81 0 -129.5 -4t-84.5 -13zM217 -87q-51 0 -71 21t-20 54q0 29 11.5 69.5t23.5 77.5q22 63 47.5 131t52 135t52.5 129t49 113q-68 -1 -116.5 -3.5t-88 -6.5
t-83.5 -12q4 39 37.5 60.5t90.5 30t129 8.5q50 0 91 -3t78.5 -6.5t73.5 -5.5q30 -15 39.5 -19t3.5 -4q-23 -18 -57.5 -26.5t-71.5 -10.5t-71 -2q-42 -105 -82.5 -230t-77.5 -259q-13 -50 -22.5 -86.5t-14.5 -66.5t-5 -61q0 -5 0.5 -11.5t1.5 -15.5z" />
    <glyph glyph-name="tbar" unicode="&#x167;" horiz-adv-x="288" 
d="M89 -46q-44 0 -69.5 25.5t-25.5 77.5q0 43 17 109t46 143q21 55 46 106.5t50 92.5t47.5 65t38.5 24q10 0 18 -7t8 -20q0 -19 -22.5 -59t-54 -93t-60.5 -114q-31 -69 -46.5 -122.5t-15.5 -104.5q0 -42 13 -59.5t42 -17.5q50 0 102 46t90 124l14 -10q-25 -58 -63 -105
t-82.5 -74t-92.5 -27zM183 221q-15 0 -43 2.5t-60 5t-62 2.5q-16 0 -30 -0.5t-25 -2.5q8 21 32 29.5t67 8.5q25 0 66 -3t83 -7.5t69 -7.5q-22 -17 -47.5 -22t-49.5 -5zM114 317q-23 2 -41 4t-31 5t-23 6v26q23 -3 44.5 -5t49.5 -2q65 0 114 1t94 5v-28q-58 -6 -107 -9
t-100 -3z" />
    <glyph glyph-name="Utilde" unicode="&#x168;" horiz-adv-x="735" 
d="M572 -99q-37 0 -62 32.5t-25 77.5q0 10 1 27t3 38q-36 -72 -88.5 -118t-125.5 -46q-66 0 -101.5 40t-35.5 107q0 42 12 94.5t30.5 109.5t36.5 115t30 113t12 102q0 90 -54 90q-27 0 -46.5 -17.5t-32 -43.5t-19 -53t-6.5 -47q0 -15 3.5 -31t7.5 -28q-44 0 -63 21.5
t-19 52.5t15 63t42.5 59t63.5 43.5t78 16.5q58 0 84.5 -34t26.5 -92q0 -37 -9 -82t-23 -93t-29 -94q-24 -79 -41 -141.5t-17 -110.5q0 -46 19 -78t64 -32q41 0 75 25.5t60 66.5t44 87t27 85q14 59 31 126.5t35.5 132.5t37.5 118t37 84.5t36 31.5q9 0 25.5 -9.5t33.5 -26.5
q-9 -7 -26 -42.5t-38 -91t-42 -122.5t-39 -137t-29 -134t-11 -113q0 -64 20.5 -85.5t69.5 -21.5q-14 -17 -37 -26t-42 -9zM584 757q-28 0 -57.5 12t-59 23.5t-57.5 11.5q-15 0 -30 -2.5t-31 -10.5q15 29 37.5 42.5t51.5 13.5q28 0 57.5 -12t60 -24t61.5 -12q25 0 50 9
q-15 -26 -35 -38.5t-48 -12.5z" />
    <glyph glyph-name="utilde" unicode="&#x169;" horiz-adv-x="440" 
d="M76 -30q-34 0 -55.5 31t-21.5 72q0 28 9.5 66t23.5 74.5t29.5 60.5t27.5 24q7 0 20.5 -7t23.5 -17q-11 -16 -26.5 -50t-27.5 -72.5t-12 -70.5q0 -5 1.5 -20.5t8 -28.5t22.5 -13q17 0 37 18.5t40.5 48.5t39.5 65t35 67t26 54q8 -1 21.5 -4.5t24 -9.5t10.5 -17
q0 -3 -9.5 -25t-22.5 -53t-22.5 -63t-9.5 -56q0 -15 6 -26t23 -11q21 0 50.5 19t60.5 55.5t55 86.5l14 -11q-22 -54 -56.5 -96.5t-74 -66.5t-76.5 -24q-28 0 -43 12.5t-20.5 32.5t-5.5 41q0 7 0.5 15t1.5 15q-17 -29 -37.5 -55.5t-43 -43.5t-47.5 -17zM334 359
q-28 0 -57.5 12t-59 23.5t-57.5 11.5q-15 0 -30 -2.5t-31 -10.5q15 29 37.5 42.5t51.5 13.5q28 0 57.5 -12t60 -24t61.5 -12q25 0 50 9q-15 -26 -35 -38.5t-48 -12.5z" />
    <glyph glyph-name="Umacron" unicode="&#x16a;" horiz-adv-x="735" 
d="M572 -99q-37 0 -62 32.5t-25 77.5q0 10 1 27t3 38q-36 -72 -88.5 -118t-125.5 -46q-66 0 -101.5 40t-35.5 107q0 42 12 94.5t30.5 109.5t36.5 115t30 113t12 102q0 90 -54 90q-27 0 -46.5 -17.5t-32 -43.5t-19 -53t-6.5 -47q0 -15 3.5 -31t7.5 -28q-44 0 -63 21.5
t-19 52.5t15 63t42.5 59t63.5 43.5t78 16.5q58 0 84.5 -34t26.5 -92q0 -37 -9 -82t-23 -93t-29 -94q-24 -79 -41 -141.5t-17 -110.5q0 -46 19 -78t64 -32q41 0 75 25.5t60 66.5t44 87t27 85q14 59 31 126.5t35.5 132.5t37.5 118t37 84.5t36 31.5q9 0 25.5 -9.5t33.5 -26.5
q-9 -7 -26 -42.5t-38 -91t-42 -122.5t-39 -137t-29 -134t-11 -113q0 -64 20.5 -85.5t69.5 -21.5q-14 -17 -37 -26t-42 -9zM601 757q-23 0 -56 5.5t-69.5 13.5t-69.5 15t-56 10q11 29 49 29q36 0 78.5 -7.5t85.5 -18.5t78 -23q-13 -24 -40 -24z" />
    </font>
</defs>
</svg>
